<svg width="255" height="252" viewBox="0 0 255 252" fill="none" xmlns="http://www.w3.org/2000/svg">
<path d="M1.40341 250.651C-4.34391 243.741 16.0246 128.195 16.0246 128.195H117.915L117.915 230.472C117.915 230.472 7.15072 257.562 1.40341 250.651Z" fill="#06D6A0"/>
<path d="M1.36255 249.739L117.228 128.665" stroke="#00664C" stroke-width="0.921414"/>
<path d="M70.681 177.152L30.1755 128.912L117.902 128.912L117.902 230.636L70.681 177.152Z" fill="#00664C"/>
<path d="M1.59774 5.1738C-4.14957 12.0844 16.2189 127.63 16.2189 127.63L118.11 127.63L118.11 25.3529C118.11 25.3529 7.34506 -1.73679 1.59774 5.1738Z" fill="#EF476F"/>
<path d="M15.8302 127.942L116.247 127.942" stroke="#EF476F" stroke-width="0.921414"/>
<path d="M1.71748 5.7584L117.984 128.794" stroke="#962B44" stroke-width="0.92467"/>
<path d="M239.561 244.674C232.665 250.433 117.351 230.024 117.351 230.024L117.351 127.929L219.423 127.929C219.423 127.929 246.458 238.916 239.561 244.674Z" fill="#FFD166"/>
<path d="M240.308 11.196C233.411 5.43717 118.097 25.8465 118.097 25.8465V127.942H220.169C220.169 127.942 247.204 16.9549 240.308 11.196Z" fill="#118AB2"/>
<line y1="-0.460707" x2="171.075" y2="-0.460707" transform="matrix(0.719207 -0.694796 0.693355 0.720596 117.984 128.794)" stroke="#094559" stroke-width="0.921414"/>
<line y1="-0.462335" x2="167.985" y2="-0.462335" transform="matrix(0.724393 0.689388 -0.687937 0.725771 117.984 128.794)" stroke="#987B38" stroke-width="0.92467"/>
<line x1="116.796" y1="128.585" x2="220.529" y2="128.585" stroke="#00664C" stroke-width="0.92467"/>
<path d="M70.681 80.0868L30.1755 128.851L117.902 128.851L117.902 26.0214L70.681 80.0868Z" fill="#962B44"/>
<path d="M165.147 81.8306L205.077 128.851H117.902V26.0214L165.147 81.8306Z" fill="#094559"/>
<path d="M165.172 175.33L205.123 128.851H117.902V230.497L165.172 175.33Z" fill="#917535"/>
</svg>
