<svg width="456" height="462" viewBox="0 0 456 462" fill="none" xmlns="http://www.w3.org/2000/svg">
<g id="Property 1=1-opened">
<g id="Group 1">
<path id="Rectangle 4" d="M2.04105 2.55685C14.541 -7.85983 223.541 29.0569 223.541 29.0569V213.728H38.5413C38.5413 213.728 -10.4589 12.9735 2.04105 2.55685Z" fill="#EF476F"/>
</g>
<g id="Group 2">
<path id="Rectangle 4_2" d="M446.065 2.90914C433.565 -7.50754 224.564 29.4092 224.564 29.4092V214.081H409.564C409.564 214.081 458.565 13.3258 446.065 2.90914Z" fill="#073E51"/>
<path id="Line 1" d="M224 28.7046L224 210.705" stroke="#962B44" stroke-width="2"/>
</g>
<path id="Line 1_2" d="M3.69214 2.48279L222.692 212.483" stroke="#962B44" stroke-width="2"/>
<path id="Polygon 2" d="M309.465 141.044L224.915 77.9121L225.022 212.591L408.976 213.909L309.465 141.044Z" fill="#073E51"/>
<path id="Polygon 3" d="M137 141.705L224.312 78.7046L224.312 213.544L40.2041 215.139L137 141.705Z" fill="#962B44"/>
<path id="shadow-top-left-click" d="M137 141.705L224.312 78.7046L224.312 213.544L40.2041 215.139L137 141.705Z" fill="#962B44"/>
<path id="Rectangle 4_3" d="M12.8523 434.205C2.43558 421.705 39.3523 212.705 39.3523 212.705H224.024V397.705C224.024 397.705 23.2689 446.705 12.8523 434.205Z" fill="#06D6A0"/>
<path id="Rectangle 5" d="M435.171 435.557C445.588 423.057 408.671 214.057 408.671 214.057H224V399.057C224 399.057 424.755 448.057 435.171 435.557Z" fill="#FFD166"/>
<line id="Line 1_3" x1="223.179" y1="213.158" x2="438.179" y2="436.158" stroke="#917535" stroke-width="2"/>
<line id="Line 2" x1="223.187" y1="214.543" x2="13.7137" y2="435.094" stroke="#00664C" stroke-width="2.00707"/>
<path id="Polygon 4" d="M140.045 281.771L224.528 341.705L224.528 211.275L39.7731 210.861L140.045 281.771Z" fill="#00664C"/>
<path id="shadow-bottom-left-click" d="M140.045 281.771L224.528 341.705L224.528 211.275L39.7731 210.861L140.045 281.771Z" fill="#00664C"/>
<path id="Polygon 5" d="M307.995 282.727L222.179 342.862L224.605 211.372L408.971 213.357L307.995 282.727Z" fill="#917535"/>
<path id="shadow-bottom-right-click" d="M307.995 282.727L222.179 342.862L224.605 211.372L408.971 213.357L307.995 282.727Z" fill="#917535"/>
<line id="Line 4" x1="222.003" y1="211.694" x2="224.003" y2="399.694" stroke="#00664C" stroke-width="2.00707"/>
<path id="5" d="M175.055 276.222C172.593 276.222 170.39 275.76 168.445 274.837C166.5 273.901 164.955 272.621 163.81 270.996C162.677 269.371 162.074 267.512 162 265.419H168.648C168.771 266.97 169.442 268.238 170.661 269.223C171.879 270.196 173.344 270.682 175.055 270.682C176.397 270.682 177.591 270.374 178.638 269.759C179.684 269.143 180.509 268.287 181.112 267.192C181.715 266.096 182.011 264.847 181.999 263.443C182.011 262.015 181.709 260.747 181.094 259.639C180.478 258.531 179.635 257.663 178.564 257.036C177.493 256.395 176.262 256.075 174.871 256.075C173.738 256.063 172.624 256.272 171.528 256.703C170.433 257.134 169.565 257.7 168.925 258.402L162.739 257.386L164.714 237.886H186.652V243.611H170.384L169.294 253.638H169.516C170.217 252.813 171.208 252.13 172.489 251.588C173.769 251.034 175.172 250.757 176.699 250.757C178.989 250.757 181.032 251.299 182.83 252.382C184.627 253.453 186.043 254.93 187.077 256.814C188.111 258.697 188.628 260.852 188.628 263.277C188.628 265.776 188.049 268.004 186.892 269.962C185.747 271.907 184.153 273.439 182.109 274.56C180.078 275.668 177.727 276.222 175.055 276.222Z" fill="white"/>
<path id="3" d="M274.998 276.222C272.339 276.222 269.975 275.766 267.907 274.855C265.851 273.944 264.226 272.676 263.032 271.051C261.838 269.426 261.204 267.549 261.13 265.419H268.073C268.135 266.441 268.473 267.333 269.089 268.097C269.704 268.848 270.523 269.432 271.545 269.851C272.566 270.269 273.711 270.479 274.979 270.479C276.333 270.479 277.534 270.245 278.58 269.777C279.626 269.297 280.445 268.632 281.036 267.783C281.627 266.933 281.916 265.955 281.904 264.847C281.916 263.702 281.621 262.692 281.018 261.818C280.414 260.944 279.54 260.261 278.395 259.769C277.263 259.276 275.896 259.03 274.296 259.03H270.954V253.749H274.296C275.613 253.749 276.764 253.521 277.749 253.065C278.746 252.61 279.528 251.97 280.094 251.145C280.661 250.308 280.938 249.341 280.925 248.246C280.938 247.175 280.698 246.245 280.205 245.457C279.725 244.657 279.042 244.036 278.155 243.592C277.281 243.149 276.253 242.928 275.072 242.928C273.914 242.928 272.843 243.137 271.858 243.555C270.874 243.974 270.08 244.571 269.476 245.347C268.873 246.11 268.553 247.021 268.516 248.08H261.924C261.973 245.962 262.582 244.103 263.752 242.503C264.934 240.89 266.51 239.635 268.479 238.736C270.449 237.825 272.659 237.369 275.108 237.369C277.632 237.369 279.823 237.843 281.682 238.791C283.554 239.727 285 240.989 286.022 242.577C287.044 244.165 287.555 245.919 287.555 247.84C287.567 249.969 286.939 251.754 285.671 253.195C284.415 254.635 282.766 255.577 280.722 256.02V256.315C283.381 256.685 285.419 257.67 286.834 259.27C288.262 260.858 288.97 262.834 288.958 265.197C288.958 267.315 288.355 269.211 287.148 270.885C285.954 272.547 284.305 273.852 282.199 274.8C280.107 275.748 277.706 276.222 274.998 276.222Z" fill="white"/>
<path id="7" d="M164.486 188.705L180.57 156.869V156.611H161.901V150.886H187.661V156.74L171.595 188.705H164.486Z" fill="white"/>
<path id="Fortune-Text" d="M294.822 88H286.936V64.7273H294.982C297.292 64.7273 299.277 65.1932 300.936 66.125C302.603 67.0492 303.883 68.3788 304.777 70.1136C305.671 71.8485 306.118 73.9242 306.118 76.3409C306.118 78.7652 305.667 80.8485 304.766 82.5909C303.872 84.3333 302.58 85.6705 300.891 86.6023C299.209 87.5341 297.186 88 294.822 88ZM291.152 84.3523H294.618C296.239 84.3523 297.591 84.0568 298.675 83.4659C299.758 82.8674 300.572 81.9773 301.118 80.7955C301.663 79.6061 301.936 78.1212 301.936 76.3409C301.936 74.5606 301.663 73.0833 301.118 71.9091C300.572 70.7273 299.766 69.8447 298.697 69.2614C297.637 68.6705 296.319 68.375 294.743 68.375H291.152V84.3523ZM317.555 88.3409C315.851 88.3409 314.374 87.9659 313.124 87.2159C311.874 86.4659 310.904 85.4167 310.214 84.0682C309.533 82.7197 309.192 81.1439 309.192 79.3409C309.192 77.5379 309.533 75.9583 310.214 74.6023C310.904 73.2462 311.874 72.1932 313.124 71.4432C314.374 70.6932 315.851 70.3182 317.555 70.3182C319.26 70.3182 320.737 70.6932 321.987 71.4432C323.237 72.1932 324.203 73.2462 324.885 74.6023C325.574 75.9583 325.919 77.5379 325.919 79.3409C325.919 81.1439 325.574 82.7197 324.885 84.0682C324.203 85.4167 323.237 86.4659 321.987 87.2159C320.737 87.9659 319.26 88.3409 317.555 88.3409ZM317.578 85.0455C318.502 85.0455 319.275 84.7917 319.896 84.2841C320.518 83.7689 320.98 83.0795 321.283 82.2159C321.593 81.3523 321.749 80.3902 321.749 79.3295C321.749 78.2614 321.593 77.2955 321.283 76.4318C320.98 75.5606 320.518 74.8674 319.896 74.3523C319.275 73.8371 318.502 73.5795 317.578 73.5795C316.631 73.5795 315.843 73.8371 315.214 74.3523C314.593 74.8674 314.127 75.5606 313.817 76.4318C313.514 77.2955 313.362 78.2614 313.362 79.3295C313.362 80.3902 313.514 81.3523 313.817 82.2159C314.127 83.0795 314.593 83.7689 315.214 84.2841C315.843 84.7917 316.631 85.0455 317.578 85.0455ZM333.524 77.7727V88H329.411V70.5455H333.342V73.5114H333.547C333.948 72.5341 334.589 71.7576 335.467 71.1818C336.354 70.6061 337.448 70.3182 338.751 70.3182C339.956 70.3182 341.005 70.5758 341.899 71.0909C342.801 71.6061 343.498 72.3523 343.99 73.3295C344.49 74.3068 344.736 75.4924 344.729 76.8864V88H340.615V77.5227C340.615 76.3561 340.312 75.4432 339.706 74.7841C339.107 74.125 338.278 73.7955 337.217 73.7955C336.498 73.7955 335.857 73.9545 335.297 74.2727C334.744 74.5833 334.308 75.0341 333.99 75.625C333.679 76.2159 333.524 76.9318 333.524 77.7727ZM352.399 64.7273V67.0455C352.399 67.7121 352.27 68.4053 352.013 69.125C351.763 69.8371 351.418 70.5189 350.979 71.1705C350.539 71.8144 350.039 72.3674 349.479 72.8295L347.57 71.5909C347.986 70.9621 348.35 70.2841 348.661 69.5568C348.971 68.822 349.126 67.9924 349.126 67.0682V64.7273H352.399ZM365.033 70.5455V73.7273H354.999V70.5455H365.033ZM357.476 66.3636H361.589V82.75C361.589 83.303 361.673 83.7273 361.839 84.0227C362.014 84.3106 362.241 84.5076 362.521 84.6136C362.802 84.7197 363.112 84.7727 363.453 84.7727C363.711 84.7727 363.946 84.7538 364.158 84.7159C364.377 84.678 364.544 84.6439 364.658 84.6136L365.351 87.8295C365.131 87.9053 364.817 87.9886 364.408 88.0795C364.006 88.1705 363.514 88.2235 362.93 88.2386C361.9 88.2689 360.972 88.1136 360.146 87.7727C359.321 87.4242 358.665 86.8864 358.18 86.1591C357.703 85.4318 357.468 84.5227 357.476 83.4318V66.3636ZM267.243 127.341C265.5 127.341 264.004 126.958 262.754 126.193C261.512 125.428 260.554 124.371 259.879 123.023C259.213 121.667 258.879 120.106 258.879 118.341C258.879 116.568 259.22 115.004 259.902 113.648C260.584 112.284 261.546 111.223 262.788 110.466C264.038 109.701 265.516 109.318 267.22 109.318C268.637 109.318 269.891 109.58 270.982 110.102C272.08 110.617 272.955 111.348 273.607 112.295C274.258 113.235 274.629 114.333 274.72 115.591H270.788C270.629 114.75 270.25 114.049 269.652 113.489C269.061 112.92 268.269 112.636 267.277 112.636C266.436 112.636 265.697 112.864 265.061 113.318C264.425 113.765 263.929 114.409 263.572 115.25C263.224 116.091 263.05 117.098 263.05 118.273C263.05 119.462 263.224 120.485 263.572 121.341C263.921 122.189 264.41 122.845 265.038 123.307C265.675 123.761 266.421 123.989 267.277 123.989C267.883 123.989 268.425 123.875 268.902 123.648C269.387 123.413 269.792 123.076 270.118 122.636C270.444 122.197 270.667 121.663 270.788 121.034H274.72C274.622 122.269 274.258 123.364 273.629 124.318C273 125.265 272.144 126.008 271.061 126.545C269.978 127.076 268.705 127.341 267.243 127.341ZM285.712 127.341C284.007 127.341 282.53 126.966 281.28 126.216C280.03 125.466 279.06 124.417 278.371 123.068C277.689 121.72 277.348 120.144 277.348 118.341C277.348 116.538 277.689 114.958 278.371 113.602C279.06 112.246 280.03 111.193 281.28 110.443C282.53 109.693 284.007 109.318 285.712 109.318C287.416 109.318 288.893 109.693 290.143 110.443C291.393 111.193 292.359 112.246 293.041 113.602C293.731 114.958 294.075 116.538 294.075 118.341C294.075 120.144 293.731 121.72 293.041 123.068C292.359 124.417 291.393 125.466 290.143 126.216C288.893 126.966 287.416 127.341 285.712 127.341ZM285.734 124.045C286.659 124.045 287.431 123.792 288.053 123.284C288.674 122.769 289.136 122.08 289.439 121.216C289.75 120.352 289.905 119.39 289.905 118.33C289.905 117.261 289.75 116.295 289.439 115.432C289.136 114.561 288.674 113.867 288.053 113.352C287.431 112.837 286.659 112.58 285.734 112.58C284.787 112.58 284 112.837 283.371 113.352C282.75 113.867 282.284 114.561 281.973 115.432C281.67 116.295 281.518 117.261 281.518 118.33C281.518 119.39 281.67 120.352 281.973 121.216C282.284 122.08 282.75 122.769 283.371 123.284C284 123.792 284.787 124.045 285.734 124.045ZM308.692 119.659V109.545H312.805V127H308.817V123.898H308.635C308.241 124.875 307.593 125.674 306.692 126.295C305.798 126.917 304.696 127.227 303.385 127.227C302.241 127.227 301.23 126.973 300.351 126.466C299.48 125.951 298.798 125.205 298.305 124.227C297.813 123.242 297.567 122.053 297.567 120.659V109.545H301.68V120.023C301.68 121.129 301.983 122.008 302.589 122.659C303.196 123.311 303.991 123.636 304.976 123.636C305.582 123.636 306.169 123.489 306.737 123.193C307.305 122.898 307.771 122.458 308.135 121.875C308.506 121.284 308.692 120.545 308.692 119.659ZM321.149 116.773V127H317.036V109.545H320.967V112.511H321.172C321.573 111.534 322.214 110.758 323.092 110.182C323.979 109.606 325.073 109.318 326.376 109.318C327.581 109.318 328.63 109.576 329.524 110.091C330.426 110.606 331.123 111.352 331.615 112.33C332.115 113.307 332.361 114.492 332.354 115.886V127H328.24V116.523C328.24 115.356 327.937 114.443 327.331 113.784C326.732 113.125 325.903 112.795 324.842 112.795C324.123 112.795 323.482 112.955 322.922 113.273C322.369 113.583 321.933 114.034 321.615 114.625C321.304 115.216 321.149 115.932 321.149 116.773ZM345.251 109.545V112.727H335.217V109.545H345.251ZM337.695 105.364H341.808V121.75C341.808 122.303 341.892 122.727 342.058 123.023C342.232 123.311 342.46 123.508 342.74 123.614C343.02 123.72 343.331 123.773 343.672 123.773C343.929 123.773 344.164 123.754 344.376 123.716C344.596 123.678 344.763 123.644 344.876 123.614L345.57 126.83C345.35 126.905 345.036 126.989 344.626 127.08C344.225 127.17 343.732 127.223 343.149 127.239C342.119 127.269 341.191 127.114 340.365 126.773C339.539 126.424 338.884 125.886 338.399 125.159C337.922 124.432 337.687 123.523 337.695 122.432V105.364ZM364.243 127.341C362.538 127.341 361.061 126.966 359.811 126.216C358.561 125.466 357.591 124.417 356.902 123.068C356.22 121.72 355.879 120.144 355.879 118.341C355.879 116.538 356.22 114.958 356.902 113.602C357.591 112.246 358.561 111.193 359.811 110.443C361.061 109.693 362.538 109.318 364.243 109.318C365.947 109.318 367.425 109.693 368.675 110.443C369.925 111.193 370.891 112.246 371.572 113.602C372.262 114.958 372.607 116.538 372.607 118.341C372.607 120.144 372.262 121.72 371.572 123.068C370.891 124.417 369.925 125.466 368.675 126.216C367.425 126.966 365.947 127.341 364.243 127.341ZM364.266 124.045C365.19 124.045 365.963 123.792 366.584 123.284C367.205 122.769 367.667 122.08 367.97 121.216C368.281 120.352 368.436 119.39 368.436 118.33C368.436 117.261 368.281 116.295 367.97 115.432C367.667 114.561 367.205 113.867 366.584 113.352C365.963 112.837 365.19 112.58 364.266 112.58C363.319 112.58 362.531 112.837 361.902 113.352C361.281 113.867 360.815 114.561 360.504 115.432C360.201 116.295 360.05 117.261 360.05 118.33C360.05 119.39 360.201 120.352 360.504 121.216C360.815 122.08 361.281 122.769 361.902 123.284C362.531 123.792 363.319 124.045 364.266 124.045ZM380.212 116.773V127H376.098V109.545H380.03V112.511H380.234C380.636 111.534 381.276 110.758 382.155 110.182C383.041 109.606 384.136 109.318 385.439 109.318C386.643 109.318 387.693 109.576 388.587 110.091C389.488 110.606 390.185 111.352 390.678 112.33C391.178 113.307 391.424 114.492 391.416 115.886V127H387.303V116.523C387.303 115.356 387 114.443 386.393 113.784C385.795 113.125 384.965 112.795 383.905 112.795C383.185 112.795 382.545 112.955 381.984 113.273C381.431 113.583 380.996 114.034 380.678 114.625C380.367 115.216 380.212 115.932 380.212 116.773ZM317.364 166V148.545H321.477V166H317.364ZM319.432 146.068C318.78 146.068 318.22 145.852 317.75 145.42C317.28 144.981 317.045 144.455 317.045 143.841C317.045 143.22 317.28 142.693 317.75 142.261C318.22 141.822 318.78 141.602 319.432 141.602C320.091 141.602 320.652 141.822 321.114 142.261C321.583 142.693 321.818 143.22 321.818 143.841C321.818 144.455 321.583 144.981 321.114 145.42C320.652 145.852 320.091 146.068 319.432 146.068ZM334.423 148.545V151.727H324.389V148.545H334.423ZM326.866 144.364H330.98V160.75C330.98 161.303 331.063 161.727 331.23 162.023C331.404 162.311 331.632 162.508 331.912 162.614C332.192 162.72 332.503 162.773 332.844 162.773C333.101 162.773 333.336 162.754 333.548 162.716C333.768 162.678 333.935 162.644 334.048 162.614L334.741 165.83C334.522 165.905 334.207 165.989 333.798 166.08C333.397 166.17 332.904 166.223 332.321 166.239C331.291 166.269 330.363 166.114 329.537 165.773C328.711 165.424 328.056 164.886 327.571 164.159C327.094 163.432 326.859 162.523 326.866 161.432V144.364Z" fill="white"/>
</g>
</svg>
