<svg width="461" height="456" viewBox="0 0 461 456" fill="none" xmlns="http://www.w3.org/2000/svg">
<g id="Property 1=2-opened">
<g id="Group 1">
<path id="Rectangle 4" d="M1.85226 453.314C-8.56442 440.814 28.3523 231.814 28.3523 231.814L213.024 231.814L213.024 416.814C213.024 416.814 12.2689 465.814 1.85226 453.314Z" fill="#06D6A0"/>
</g>
<g id="Group 2">
<path id="Rectangle 4_2" d="M2.20449 9.29056C-8.21219 21.7905 28.7045 230.791 28.7045 230.791L213.376 230.791L213.376 45.7909C213.376 45.7909 12.6212 -3.20942 2.20449 9.29056Z" fill="#EF476F"/>
<path id="Line 1" d="M28 231.355L210 231.355" stroke="#EF476F" stroke-width="2"/>
</g>
<path id="Line 3" d="M2.42152 10.3482L213.148 232.896" stroke="#962B44" stroke-width="2.00707"/>
<path id="Line 1_2" d="M1.7782 451.663L211.778 232.663" stroke="#00664C" stroke-width="2"/>
<path id="Rectangle 4_3" d="M433.5 442.503C421 452.92 212 416.003 212 416.003L212 231.332L397 231.332C397 231.332 446 432.086 433.5 442.503Z" fill="#FFD166"/>
<path id="Rectangle 5" d="M434.853 20.1838C422.353 9.76712 213.352 46.6838 213.352 46.6838L213.352 231.355L398.352 231.355C398.352 231.355 447.352 30.6005 434.853 20.1838Z" fill="#094559"/>
<line id="Line 2" x1="213.839" y1="232.169" x2="434.39" y2="441.642" stroke="#987B38" stroke-width="2.00707"/>
<line id="Line 4" x1="210.995" y1="232.352" x2="399.005" y2="232.352" stroke="#00664C" stroke-width="2.00707"/>
<path id="Polygon 3" d="M127.414 144.794L54 233L213 233L213 47L127.414 144.794Z" fill="#962B44"/>
<path id="shadow-top-left-click" d="M127.414 144.794L54 233L213 233L213 47L127.414 144.794Z" fill="#962B44"/>
<path id="Polygon 4" d="M298.628 147.949L371 233H213V47L298.628 147.949Z" fill="#094559"/>
<path id="Polygon 3_2" d="M127.414 320.368L54 233.111L213 233.111L213 417.111L127.414 320.368Z" fill="#00664C"/>
<path id="shadow-bottom-left-click" d="M127.414 320.368L54 233.111L213 233.111L213 417.111L127.414 320.368Z" fill="#00664C"/>
<text id="Fortune-Text" fill="white" xml:space="preserve" style="white-space: pre" font-family="Inter" font-size="32" font-weight="600" letter-spacing="0em"><tspan x="271.641" y="110.136">Don&#x2019;t </tspan><tspan x="239.203" y="149.136">Count On </tspan><tspan x="302.031" y="188.136">It</tspan></text>
<text id="6" fill="white" xml:space="preserve" style="white-space: pre" font-family="Inter" font-size="52" font-weight="600" letter-spacing="0em"><tspan x="150.141" y="316.409">6</tspan></text>
<path id="Polygon 4_2" d="M298.674 317.072L371.083 233H213V416.859L298.674 317.072Z" fill="#917535"/>
<path id="shadow-bottom-right-click" d="M298.674 317.072L371.083 233H213V416.859L298.674 317.072Z" fill="#917535"/>
<text id="4" fill="white" xml:space="preserve" style="white-space: pre" font-family="Inter" font-size="52" font-weight="600" letter-spacing="0em"><tspan x="249.684" y="316.409">4</tspan></text>
<text id="8" fill="white" xml:space="preserve" style="white-space: pre" font-family="Inter" font-size="52" font-weight="600" letter-spacing="0em"><tspan x="150.217" y="190.409">8</tspan></text>
</g>
</svg>
