<svg width="456" height="461" viewBox="0 0 456 461" fill="none" xmlns="http://www.w3.org/2000/svg">
<g id="Property 1=3-Opened">
<g id="Group 1">
<path id="Rectangle 4" d="M2.04105 2.26144C14.541 -8.15524 223.541 28.7615 223.541 28.7615V213.433H38.5413C38.5413 213.433 -10.4589 12.6781 2.04105 2.26144Z" fill="#EF476F"/>
</g>
<g id="Group 2">
<path id="Rectangle 4_2" d="M446.065 2.61373C433.565 -7.80295 224.564 29.1138 224.564 29.1138V213.785H409.564C409.564 213.785 458.565 13.0304 446.065 2.61373Z" fill="#118AB2"/>
<path id="Line 1" d="M224 28.4092L224 210.409" stroke="#962B44" stroke-width="2"/>
</g>
<path id="Line 3" d="M445.007 2.83058L222.459 213.557" stroke="#094559" stroke-width="2.00707"/>
<path id="Line 1_2" d="M3.69214 2.1875L222.692 212.187" stroke="#962B44" stroke-width="2"/>
<path id="Polygon 2" d="M309.465 140.749L224.915 77.6167L225.022 212.296L408.976 213.614L309.465 140.749Z" fill="#073E51"/>
<path id="shadow-top-right-click" d="M309.465 140.749L224.915 77.6167L225.022 212.296L408.976 213.614L309.465 140.749Z" fill="#073E51"/>
<path id="Polygon 3" d="M137 141.409L224.312 78.4091L224.312 213.249L40.2041 214.844L137 141.409Z" fill="#962B44"/>
<path id="shadow-top-left-click" d="M137 141.409L224.312 78.4091L224.312 213.249L40.2041 214.844L137 141.409Z" fill="#962B44"/>
<path id="Rectangle 4_3" d="M12.8523 433.909C2.43558 421.409 39.3523 212.409 39.3523 212.409H224.024V397.409C224.024 397.409 23.2689 446.409 12.8523 433.909Z" fill="#06D6A0"/>
<path id="Rectangle 5" d="M435.171 435.262C445.588 422.762 408.671 213.761 408.671 213.761H224V398.761C224 398.761 424.755 447.762 435.171 435.262Z" fill="#917535"/>
<line id="Line 2" x1="223.187" y1="214.248" x2="13.7137" y2="434.799" stroke="#00664C" stroke-width="2.00707"/>
<path id="Polygon 4" d="M140.045 281.475L224.528 341.409L224.528 210.979L39.7731 210.565L140.045 281.475Z" fill="#00664C"/>
<path id="shadow-bottom-left-click" d="M140.045 281.475L224.528 341.409L224.528 210.979L39.7731 210.565L140.045 281.475Z" fill="#00664C"/>
<path id="Polygon 5" d="M307.995 282.432L222.179 342.566L224.605 211.077L408.971 213.062L307.995 282.432Z" fill="#917535"/>
<line id="Line 4" x1="222.003" y1="211.399" x2="224.003" y2="399.398" stroke="#00664C" stroke-width="2.00707"/>
<path id="1" d="M281.251 150.591V188.409H274.4V157.257H274.178L265.333 162.908V156.629L274.732 150.591H281.251Z" fill="white"/>
<path id="5" d="M175.055 275.926C172.593 275.926 170.39 275.465 168.445 274.541C166.5 273.606 164.955 272.325 163.81 270.7C162.677 269.075 162.074 267.216 162 265.124H168.648C168.771 266.675 169.442 267.943 170.661 268.928C171.879 269.9 173.344 270.386 175.055 270.386C176.397 270.386 177.591 270.079 178.638 269.463C179.684 268.848 180.509 267.992 181.112 266.896C181.715 265.801 182.011 264.551 181.999 263.148C182.011 261.72 181.709 260.452 181.094 259.344C180.478 258.236 179.635 257.368 178.564 256.74C177.493 256.1 176.262 255.78 174.871 255.78C173.738 255.768 172.624 255.977 171.528 256.408C170.433 256.839 169.565 257.405 168.925 258.107L162.739 257.091L164.714 237.591H186.652V243.315H170.384L169.294 253.342H169.516C170.217 252.518 171.208 251.834 172.489 251.293C173.769 250.739 175.172 250.462 176.699 250.462C178.989 250.462 181.032 251.003 182.83 252.087C184.627 253.158 186.043 254.635 187.077 256.519C188.111 258.402 188.628 260.556 188.628 262.982C188.628 265.481 188.049 267.709 186.892 269.666C185.747 271.611 184.153 273.144 182.109 274.264C180.078 275.372 177.727 275.926 175.055 275.926Z" fill="white"/>
<path id="Fortune-Text" d="M294.822 285H286.936V261.727H294.982C297.292 261.727 299.277 262.193 300.936 263.125C302.603 264.049 303.883 265.379 304.777 267.114C305.671 268.848 306.118 270.924 306.118 273.341C306.118 275.765 305.667 277.848 304.766 279.591C303.872 281.333 302.58 282.67 300.891 283.602C299.209 284.534 297.186 285 294.822 285ZM291.152 281.352H294.618C296.239 281.352 297.591 281.057 298.675 280.466C299.758 279.867 300.572 278.977 301.118 277.795C301.663 276.606 301.936 275.121 301.936 273.341C301.936 271.561 301.663 270.083 301.118 268.909C300.572 267.727 299.766 266.845 298.697 266.261C297.637 265.67 296.319 265.375 294.743 265.375H291.152V281.352ZM317.555 285.341C315.851 285.341 314.374 284.966 313.124 284.216C311.874 283.466 310.904 282.417 310.214 281.068C309.533 279.72 309.192 278.144 309.192 276.341C309.192 274.538 309.533 272.958 310.214 271.602C310.904 270.246 311.874 269.193 313.124 268.443C314.374 267.693 315.851 267.318 317.555 267.318C319.26 267.318 320.737 267.693 321.987 268.443C323.237 269.193 324.203 270.246 324.885 271.602C325.574 272.958 325.919 274.538 325.919 276.341C325.919 278.144 325.574 279.72 324.885 281.068C324.203 282.417 323.237 283.466 321.987 284.216C320.737 284.966 319.26 285.341 317.555 285.341ZM317.578 282.045C318.502 282.045 319.275 281.792 319.896 281.284C320.518 280.769 320.98 280.08 321.283 279.216C321.593 278.352 321.749 277.39 321.749 276.33C321.749 275.261 321.593 274.295 321.283 273.432C320.98 272.561 320.518 271.867 319.896 271.352C319.275 270.837 318.502 270.58 317.578 270.58C316.631 270.58 315.843 270.837 315.214 271.352C314.593 271.867 314.127 272.561 313.817 273.432C313.514 274.295 313.362 275.261 313.362 276.33C313.362 277.39 313.514 278.352 313.817 279.216C314.127 280.08 314.593 280.769 315.214 281.284C315.843 281.792 316.631 282.045 317.578 282.045ZM333.524 274.773V285H329.411V267.545H333.342V270.511H333.547C333.948 269.534 334.589 268.758 335.467 268.182C336.354 267.606 337.448 267.318 338.751 267.318C339.956 267.318 341.005 267.576 341.899 268.091C342.801 268.606 343.498 269.352 343.99 270.33C344.49 271.307 344.736 272.492 344.729 273.886V285H340.615V274.523C340.615 273.356 340.312 272.443 339.706 271.784C339.107 271.125 338.278 270.795 337.217 270.795C336.498 270.795 335.857 270.955 335.297 271.273C334.744 271.583 334.308 272.034 333.99 272.625C333.679 273.216 333.524 273.932 333.524 274.773ZM352.399 261.727V264.045C352.399 264.712 352.27 265.405 352.013 266.125C351.763 266.837 351.418 267.519 350.979 268.17C350.539 268.814 350.039 269.367 349.479 269.83L347.57 268.591C347.986 267.962 348.35 267.284 348.661 266.557C348.971 265.822 349.126 264.992 349.126 264.068V261.727H352.399ZM365.033 267.545V270.727H354.999V267.545H365.033ZM357.476 263.364H361.589V279.75C361.589 280.303 361.673 280.727 361.839 281.023C362.014 281.311 362.241 281.508 362.521 281.614C362.802 281.72 363.112 281.773 363.453 281.773C363.711 281.773 363.946 281.754 364.158 281.716C364.377 281.678 364.544 281.644 364.658 281.614L365.351 284.83C365.131 284.905 364.817 284.989 364.408 285.08C364.006 285.17 363.514 285.223 362.93 285.239C361.9 285.269 360.972 285.114 360.146 284.773C359.321 284.424 358.665 283.886 358.18 283.159C357.703 282.432 357.468 281.523 357.476 280.432V263.364ZM274.419 308.58H270.169C270.048 307.883 269.824 307.265 269.499 306.727C269.173 306.182 268.768 305.72 268.283 305.341C267.798 304.962 267.245 304.678 266.624 304.489C266.01 304.292 265.347 304.193 264.635 304.193C263.37 304.193 262.249 304.511 261.271 305.148C260.294 305.777 259.529 306.701 258.976 307.92C258.423 309.133 258.146 310.614 258.146 312.364C258.146 314.144 258.423 315.644 258.976 316.864C259.536 318.076 260.302 318.992 261.271 319.614C262.249 320.227 263.366 320.534 264.624 320.534C265.321 320.534 265.972 320.443 266.578 320.261C267.192 320.072 267.741 319.795 268.226 319.432C268.718 319.068 269.131 318.621 269.464 318.091C269.805 317.561 270.04 316.955 270.169 316.273L274.419 316.295C274.26 317.402 273.915 318.439 273.385 319.409C272.862 320.379 272.177 321.235 271.328 321.977C270.48 322.712 269.487 323.288 268.351 323.705C267.214 324.114 265.953 324.318 264.567 324.318C262.521 324.318 260.696 323.845 259.089 322.898C257.483 321.951 256.218 320.583 255.294 318.795C254.37 317.008 253.908 314.864 253.908 312.364C253.908 309.856 254.374 307.712 255.305 305.932C256.237 304.144 257.506 302.777 259.112 301.83C260.718 300.883 262.536 300.409 264.567 300.409C265.862 300.409 267.067 300.591 268.18 300.955C269.294 301.318 270.286 301.852 271.158 302.557C272.029 303.254 272.745 304.11 273.305 305.125C273.874 306.133 274.245 307.284 274.419 308.58ZM285.712 324.341C284.007 324.341 282.53 323.966 281.28 323.216C280.03 322.466 279.06 321.417 278.371 320.068C277.689 318.72 277.348 317.144 277.348 315.341C277.348 313.538 277.689 311.958 278.371 310.602C279.06 309.246 280.03 308.193 281.28 307.443C282.53 306.693 284.007 306.318 285.712 306.318C287.416 306.318 288.893 306.693 290.143 307.443C291.393 308.193 292.359 309.246 293.041 310.602C293.731 311.958 294.075 313.538 294.075 315.341C294.075 317.144 293.731 318.72 293.041 320.068C292.359 321.417 291.393 322.466 290.143 323.216C288.893 323.966 287.416 324.341 285.712 324.341ZM285.734 321.045C286.659 321.045 287.431 320.792 288.053 320.284C288.674 319.769 289.136 319.08 289.439 318.216C289.75 317.352 289.905 316.39 289.905 315.33C289.905 314.261 289.75 313.295 289.439 312.432C289.136 311.561 288.674 310.867 288.053 310.352C287.431 309.837 286.659 309.58 285.734 309.58C284.787 309.58 284 309.837 283.371 310.352C282.75 310.867 282.284 311.561 281.973 312.432C281.67 313.295 281.518 314.261 281.518 315.33C281.518 316.39 281.67 317.352 281.973 318.216C282.284 319.08 282.75 319.769 283.371 320.284C284 320.792 284.787 321.045 285.734 321.045ZM308.692 316.659V306.545H312.805V324H308.817V320.898H308.635C308.241 321.875 307.593 322.674 306.692 323.295C305.798 323.917 304.696 324.227 303.385 324.227C302.241 324.227 301.23 323.973 300.351 323.466C299.48 322.951 298.798 322.205 298.305 321.227C297.813 320.242 297.567 319.053 297.567 317.659V306.545H301.68V317.023C301.68 318.129 301.983 319.008 302.589 319.659C303.196 320.311 303.991 320.636 304.976 320.636C305.582 320.636 306.169 320.489 306.737 320.193C307.305 319.898 307.771 319.458 308.135 318.875C308.506 318.284 308.692 317.545 308.692 316.659ZM321.149 313.773V324H317.036V306.545H320.967V309.511H321.172C321.573 308.534 322.214 307.758 323.092 307.182C323.979 306.606 325.073 306.318 326.376 306.318C327.581 306.318 328.63 306.576 329.524 307.091C330.426 307.606 331.123 308.352 331.615 309.33C332.115 310.307 332.361 311.492 332.354 312.886V324H328.24V313.523C328.24 312.356 327.937 311.443 327.331 310.784C326.732 310.125 325.903 309.795 324.842 309.795C324.123 309.795 323.482 309.955 322.922 310.273C322.369 310.583 321.933 311.034 321.615 311.625C321.304 312.216 321.149 312.932 321.149 313.773ZM345.251 306.545V309.727H335.217V306.545H345.251ZM337.695 302.364H341.808V318.75C341.808 319.303 341.892 319.727 342.058 320.023C342.232 320.311 342.46 320.508 342.74 320.614C343.02 320.72 343.331 320.773 343.672 320.773C343.929 320.773 344.164 320.754 344.376 320.716C344.596 320.678 344.763 320.644 344.876 320.614L345.57 323.83C345.35 323.905 345.036 323.989 344.626 324.08C344.225 324.17 343.732 324.223 343.149 324.239C342.119 324.269 341.191 324.114 340.365 323.773C339.539 323.424 338.884 322.886 338.399 322.159C337.922 321.432 337.687 320.523 337.695 319.432V302.364ZM377.607 312.364C377.607 314.871 377.137 317.019 376.197 318.807C375.266 320.587 373.993 321.951 372.379 322.898C370.773 323.845 368.951 324.318 366.913 324.318C364.875 324.318 363.05 323.845 361.436 322.898C359.83 321.943 358.557 320.576 357.618 318.795C356.686 317.008 356.22 314.864 356.22 312.364C356.22 309.856 356.686 307.712 357.618 305.932C358.557 304.144 359.83 302.777 361.436 301.83C363.05 300.883 364.875 300.409 366.913 300.409C368.951 300.409 370.773 300.883 372.379 301.83C373.993 302.777 375.266 304.144 376.197 305.932C377.137 307.712 377.607 309.856 377.607 312.364ZM373.368 312.364C373.368 310.598 373.091 309.11 372.538 307.898C371.993 306.678 371.235 305.758 370.266 305.136C369.296 304.508 368.179 304.193 366.913 304.193C365.648 304.193 364.531 304.508 363.561 305.136C362.591 305.758 361.83 306.678 361.277 307.898C360.732 309.11 360.459 310.598 360.459 312.364C360.459 314.129 360.732 315.621 361.277 316.841C361.83 318.053 362.591 318.973 363.561 319.602C364.531 320.223 365.648 320.534 366.913 320.534C368.179 320.534 369.296 320.223 370.266 319.602C371.235 318.973 371.993 318.053 372.538 316.841C373.091 315.621 373.368 314.129 373.368 312.364ZM385.524 313.773V324H381.411V306.545H385.342V309.511H385.547C385.948 308.534 386.589 307.758 387.467 307.182C388.354 306.606 389.448 306.318 390.751 306.318C391.956 306.318 393.005 306.576 393.899 307.091C394.801 307.606 395.498 308.352 395.99 309.33C396.49 310.307 396.736 311.492 396.729 312.886V324H392.615V313.523C392.615 312.356 392.312 311.443 391.706 310.784C391.107 310.125 390.278 309.795 389.217 309.795C388.498 309.795 387.857 309.955 387.297 310.273C386.744 310.583 386.308 311.034 385.99 311.625C385.679 312.216 385.524 312.932 385.524 313.773ZM321.543 339.727V363H317.327V339.727H321.543ZM334.642 345.545V348.727H324.608V345.545H334.642ZM327.085 341.364H331.199V357.75C331.199 358.303 331.282 358.727 331.449 359.023C331.623 359.311 331.85 359.508 332.131 359.614C332.411 359.72 332.722 359.773 333.062 359.773C333.32 359.773 333.555 359.754 333.767 359.716C333.987 359.678 334.153 359.644 334.267 359.614L334.96 362.83C334.741 362.905 334.426 362.989 334.017 363.08C333.616 363.17 333.123 363.223 332.54 363.239C331.509 363.269 330.581 363.114 329.756 362.773C328.93 362.424 328.275 361.886 327.79 361.159C327.313 360.432 327.078 359.523 327.085 358.432V341.364Z" fill="white"/>
<path id="7" d="M164.486 188.409L180.57 156.574V156.315H161.901V150.591H187.661V156.445L171.595 188.409H164.486Z" fill="white"/>
</g>
</svg>
