<svg width="456" height="461" viewBox="0 0 456 461" fill="none" xmlns="http://www.w3.org/2000/svg">
<g id="Property 1=5-opened">
<g id="Group 1">
<path id="Rectangle 4" d="M2.04105 1.90914C14.541 -8.50754 223.541 28.4092 223.541 28.4092V213.081H38.5413C38.5413 213.081 -10.4589 12.3258 2.04105 1.90914Z" fill="#EF476F"/>
</g>
<g id="Group 2">
<path id="Rectangle 4_2" d="M446.065 2.26144C433.565 -8.15524 224.564 28.7615 224.564 28.7615V213.433H409.564C409.564 213.433 458.565 12.6781 446.065 2.26144Z" fill="#118AB2"/>
<path id="Line 1" d="M224 28.0569L224 210.057" stroke="#962B44" stroke-width="2"/>
</g>
<path id="Line 3" d="M445.007 2.47841L222.459 213.205" stroke="#094559" stroke-width="2.00707"/>
<path id="Line 1_2" d="M3.69214 1.83508L222.692 211.835" stroke="#962B44" stroke-width="2"/>
<path id="Polygon 2" d="M309.465 140.397L224.915 77.2644L225.022 211.944L408.976 213.261L309.465 140.397Z" fill="#073E51"/>
<path id="shadow-top-right-click" d="M309.465 140.397L224.915 77.2644L225.022 211.944L408.976 213.261L309.465 140.397Z" fill="#073E51"/>
<path id="Polygon 3" d="M137 141.057L224.312 78.0569L224.312 212.896L40.2041 214.492L137 141.057Z" fill="#962B44"/>
<path id="shadow-top-left-click" d="M137 141.057L224.312 78.0569L224.312 212.896L40.2041 214.492L137 141.057Z" fill="#962B44"/>
<path id="Rectangle 4_3" d="M12.8523 433.557C2.43558 421.057 39.3523 212.057 39.3523 212.057H224.024V397.057C224.024 397.057 23.2689 446.057 12.8523 433.557Z" fill="#00664C"/>
<path id="Rectangle 5" d="M435.171 434.909C445.588 422.409 408.671 213.409 408.671 213.409H224V398.409C224 398.409 424.755 447.409 435.171 434.909Z" fill="#FFD166"/>
<line id="Line 1_3" x1="223.179" y1="212.511" x2="438.179" y2="435.511" stroke="#917535" stroke-width="2"/>
<path id="Polygon 4" d="M140.045 281.123L224.528 341.057L224.528 210.627L39.7731 210.213L140.045 281.123Z" fill="#00664C"/>
<path id="Polygon 5" d="M307.995 282.08L222.179 342.214L224.605 210.724L408.971 212.709L307.995 282.08Z" fill="#917535"/>
<path id="shadow-bottom-right-click" d="M307.995 282.08L222.179 342.214L224.605 210.724L408.971 212.709L307.995 282.08Z" fill="#917535"/>
<line id="Line 4" x1="222.003" y1="211.046" x2="224.003" y2="399.046" stroke="#00664C" stroke-width="2.00707"/>
<path id="1" d="M281.251 150.239V188.057H274.4V156.905H274.178L265.333 162.555V156.277L274.732 150.239H281.251Z" fill="white"/>
<path id="Fortune-Text" d="M94.8224 285H86.9361V261.727H94.9815C97.2921 261.727 99.277 262.193 100.936 263.125C102.603 264.049 103.883 265.379 104.777 267.114C105.671 268.848 106.118 270.924 106.118 273.341C106.118 275.765 105.667 277.848 104.766 279.591C103.872 281.333 102.58 282.67 100.891 283.602C99.2088 284.534 97.1861 285 94.8224 285ZM91.152 281.352H94.6179C96.2391 281.352 97.5914 281.057 98.6747 280.466C99.758 279.867 100.572 278.977 101.118 277.795C101.663 276.606 101.936 275.121 101.936 273.341C101.936 271.561 101.663 270.083 101.118 268.909C100.572 267.727 99.7656 266.845 98.6974 266.261C97.6368 265.67 96.3187 265.375 94.7429 265.375H91.152V281.352ZM117.555 285.341C115.851 285.341 114.374 284.966 113.124 284.216C111.874 283.466 110.904 282.417 110.214 281.068C109.533 279.72 109.192 278.144 109.192 276.341C109.192 274.538 109.533 272.958 110.214 271.602C110.904 270.246 111.874 269.193 113.124 268.443C114.374 267.693 115.851 267.318 117.555 267.318C119.26 267.318 120.737 267.693 121.987 268.443C123.237 269.193 124.203 270.246 124.885 271.602C125.574 272.958 125.919 274.538 125.919 276.341C125.919 278.144 125.574 279.72 124.885 281.068C124.203 282.417 123.237 283.466 121.987 284.216C120.737 284.966 119.26 285.341 117.555 285.341ZM117.578 282.045C118.502 282.045 119.275 281.792 119.896 281.284C120.518 280.769 120.98 280.08 121.283 279.216C121.593 278.352 121.749 277.39 121.749 276.33C121.749 275.261 121.593 274.295 121.283 273.432C120.98 272.561 120.518 271.867 119.896 271.352C119.275 270.837 118.502 270.58 117.578 270.58C116.631 270.58 115.843 270.837 115.214 271.352C114.593 271.867 114.127 272.561 113.817 273.432C113.514 274.295 113.362 275.261 113.362 276.33C113.362 277.39 113.514 278.352 113.817 279.216C114.127 280.08 114.593 280.769 115.214 281.284C115.843 281.792 116.631 282.045 117.578 282.045ZM133.524 274.773V285H129.411V267.545H133.342V270.511H133.547C133.948 269.534 134.589 268.758 135.467 268.182C136.354 267.606 137.448 267.318 138.751 267.318C139.956 267.318 141.005 267.576 141.899 268.091C142.801 268.606 143.498 269.352 143.99 270.33C144.49 271.307 144.736 272.492 144.729 273.886V285H140.615V274.523C140.615 273.356 140.312 272.443 139.706 271.784C139.107 271.125 138.278 270.795 137.217 270.795C136.498 270.795 135.857 270.955 135.297 271.273C134.744 271.583 134.308 272.034 133.99 272.625C133.679 273.216 133.524 273.932 133.524 274.773ZM152.399 261.727V264.045C152.399 264.712 152.27 265.405 152.013 266.125C151.763 266.837 151.418 267.519 150.979 268.17C150.539 268.814 150.039 269.367 149.479 269.83L147.57 268.591C147.986 267.962 148.35 267.284 148.661 266.557C148.971 265.822 149.126 264.992 149.126 264.068V261.727H152.399ZM165.033 267.545V270.727H154.999V267.545H165.033ZM157.476 263.364H161.589V279.75C161.589 280.303 161.673 280.727 161.839 281.023C162.014 281.311 162.241 281.508 162.521 281.614C162.802 281.72 163.112 281.773 163.453 281.773C163.711 281.773 163.946 281.754 164.158 281.716C164.377 281.678 164.544 281.644 164.658 281.614L165.351 284.83C165.131 284.905 164.817 284.989 164.408 285.08C164.006 285.17 163.514 285.223 162.93 285.239C161.9 285.269 160.972 285.114 160.146 284.773C159.321 284.424 158.665 283.886 158.18 283.159C157.703 282.432 157.468 281.523 157.476 280.432V263.364ZM74.419 308.58H70.169C70.0478 307.883 69.8243 307.265 69.4986 306.727C69.1728 306.182 68.7675 305.72 68.2827 305.341C67.7978 304.962 67.2448 304.678 66.6236 304.489C66.0099 304.292 65.3471 304.193 64.6349 304.193C63.3698 304.193 62.2486 304.511 61.2713 305.148C60.294 305.777 59.5289 306.701 58.9759 307.92C58.4228 309.133 58.1463 310.614 58.1463 312.364C58.1463 314.144 58.4228 315.644 58.9759 316.864C59.5365 318.076 60.3016 318.992 61.2713 319.614C62.2486 320.227 63.366 320.534 64.6236 320.534C65.3205 320.534 65.9721 320.443 66.5781 320.261C67.1918 320.072 67.741 319.795 68.2259 319.432C68.7183 319.068 69.1312 318.621 69.4645 318.091C69.8054 317.561 70.0402 316.955 70.169 316.273L74.419 316.295C74.2599 317.402 73.9152 318.439 73.3849 319.409C72.8622 320.379 72.1766 321.235 71.3281 321.977C70.4796 322.712 69.4872 323.288 68.3509 323.705C67.2145 324.114 65.9531 324.318 64.5668 324.318C62.5213 324.318 60.6955 323.845 59.0895 322.898C57.4834 321.951 56.2183 320.583 55.294 318.795C54.3698 317.008 53.9077 314.864 53.9077 312.364C53.9077 309.856 54.3736 307.712 55.3054 305.932C56.2372 304.144 57.5062 302.777 59.1122 301.83C60.7183 300.883 62.5365 300.409 64.5668 300.409C65.8622 300.409 67.0668 300.591 68.1804 300.955C69.294 301.318 70.2865 301.852 71.1577 302.557C72.0289 303.254 72.7448 304.11 73.3054 305.125C73.8736 306.133 74.2448 307.284 74.419 308.58ZM85.7116 324.341C84.0071 324.341 82.5298 323.966 81.2798 323.216C80.0298 322.466 79.0601 321.417 78.3707 320.068C77.6889 318.72 77.348 317.144 77.348 315.341C77.348 313.538 77.6889 311.958 78.3707 310.602C79.0601 309.246 80.0298 308.193 81.2798 307.443C82.5298 306.693 84.0071 306.318 85.7116 306.318C87.4162 306.318 88.8935 306.693 90.1435 307.443C91.3935 308.193 92.3594 309.246 93.0412 310.602C93.7306 311.958 94.0753 313.538 94.0753 315.341C94.0753 317.144 93.7306 318.72 93.0412 320.068C92.3594 321.417 91.3935 322.466 90.1435 323.216C88.8935 323.966 87.4162 324.341 85.7116 324.341ZM85.7344 321.045C86.6586 321.045 87.4313 320.792 88.0526 320.284C88.6738 319.769 89.1359 319.08 89.4389 318.216C89.7495 317.352 89.9048 316.39 89.9048 315.33C89.9048 314.261 89.7495 313.295 89.4389 312.432C89.1359 311.561 88.6738 310.867 88.0526 310.352C87.4313 309.837 86.6586 309.58 85.7344 309.58C84.7874 309.58 83.9995 309.837 83.3707 310.352C82.7495 310.867 82.2836 311.561 81.973 312.432C81.67 313.295 81.5185 314.261 81.5185 315.33C81.5185 316.39 81.67 317.352 81.973 318.216C82.2836 319.08 82.7495 319.769 83.3707 320.284C83.9995 320.792 84.7874 321.045 85.7344 321.045ZM108.692 316.659V306.545H112.805V324H108.817V320.898H108.635C108.241 321.875 107.593 322.674 106.692 323.295C105.798 323.917 104.696 324.227 103.385 324.227C102.241 324.227 101.23 323.973 100.351 323.466C99.4796 322.951 98.7978 322.205 98.3054 321.227C97.813 320.242 97.5668 319.053 97.5668 317.659V306.545H101.68V317.023C101.68 318.129 101.983 319.008 102.589 319.659C103.196 320.311 103.991 320.636 104.976 320.636C105.582 320.636 106.169 320.489 106.737 320.193C107.305 319.898 107.771 319.458 108.135 318.875C108.506 318.284 108.692 317.545 108.692 316.659ZM121.149 313.773V324H117.036V306.545H120.967V309.511H121.172C121.573 308.534 122.214 307.758 123.092 307.182C123.979 306.606 125.073 306.318 126.376 306.318C127.581 306.318 128.63 306.576 129.524 307.091C130.426 307.606 131.123 308.352 131.615 309.33C132.115 310.307 132.361 311.492 132.354 312.886V324H128.24V313.523C128.24 312.356 127.937 311.443 127.331 310.784C126.732 310.125 125.903 309.795 124.842 309.795C124.123 309.795 123.482 309.955 122.922 310.273C122.369 310.583 121.933 311.034 121.615 311.625C121.304 312.216 121.149 312.932 121.149 313.773ZM145.251 306.545V309.727H135.217V306.545H145.251ZM137.695 302.364H141.808V318.75C141.808 319.303 141.892 319.727 142.058 320.023C142.232 320.311 142.46 320.508 142.74 320.614C143.02 320.72 143.331 320.773 143.672 320.773C143.929 320.773 144.164 320.754 144.376 320.716C144.596 320.678 144.763 320.644 144.876 320.614L145.57 323.83C145.35 323.905 145.036 323.989 144.626 324.08C144.225 324.17 143.732 324.223 143.149 324.239C142.119 324.269 141.191 324.114 140.365 323.773C139.539 323.424 138.884 322.886 138.399 322.159C137.922 321.432 137.687 320.523 137.695 319.432V302.364ZM177.607 312.364C177.607 314.871 177.137 317.019 176.197 318.807C175.266 320.587 173.993 321.951 172.379 322.898C170.773 323.845 168.951 324.318 166.913 324.318C164.875 324.318 163.05 323.845 161.436 322.898C159.83 321.943 158.557 320.576 157.618 318.795C156.686 317.008 156.22 314.864 156.22 312.364C156.22 309.856 156.686 307.712 157.618 305.932C158.557 304.144 159.83 302.777 161.436 301.83C163.05 300.883 164.875 300.409 166.913 300.409C168.951 300.409 170.773 300.883 172.379 301.83C173.993 302.777 175.266 304.144 176.197 305.932C177.137 307.712 177.607 309.856 177.607 312.364ZM173.368 312.364C173.368 310.598 173.091 309.11 172.538 307.898C171.993 306.678 171.235 305.758 170.266 305.136C169.296 304.508 168.179 304.193 166.913 304.193C165.648 304.193 164.531 304.508 163.561 305.136C162.591 305.758 161.83 306.678 161.277 307.898C160.732 309.11 160.459 310.598 160.459 312.364C160.459 314.129 160.732 315.621 161.277 316.841C161.83 318.053 162.591 318.973 163.561 319.602C164.531 320.223 165.648 320.534 166.913 320.534C168.179 320.534 169.296 320.223 170.266 319.602C171.235 318.973 171.993 318.053 172.538 316.841C173.091 315.621 173.368 314.129 173.368 312.364ZM185.524 313.773V324H181.411V306.545H185.342V309.511H185.547C185.948 308.534 186.589 307.758 187.467 307.182C188.354 306.606 189.448 306.318 190.751 306.318C191.956 306.318 193.005 306.576 193.899 307.091C194.801 307.606 195.498 308.352 195.99 309.33C196.49 310.307 196.736 311.492 196.729 312.886V324H192.615V313.523C192.615 312.356 192.312 311.443 191.706 310.784C191.107 310.125 190.278 309.795 189.217 309.795C188.498 309.795 187.857 309.955 187.297 310.273C186.744 310.583 186.308 311.034 185.99 311.625C185.679 312.216 185.524 312.932 185.524 313.773ZM121.543 339.727V363H117.327V339.727H121.543ZM134.642 345.545V348.727H124.608V345.545H134.642ZM127.085 341.364H131.199V357.75C131.199 358.303 131.282 358.727 131.449 359.023C131.623 359.311 131.85 359.508 132.131 359.614C132.411 359.72 132.722 359.773 133.062 359.773C133.32 359.773 133.555 359.754 133.767 359.716C133.987 359.678 134.153 359.644 134.267 359.614L134.96 362.83C134.741 362.905 134.426 362.989 134.017 363.08C133.616 363.17 133.123 363.223 132.54 363.239C131.509 363.269 130.581 363.114 129.756 362.773C128.93 362.424 128.275 361.886 127.79 361.159C127.313 360.432 127.078 359.523 127.085 358.432V341.364Z" fill="white"/>
<path id="3" d="M274.998 275.574C272.339 275.574 269.975 275.118 267.907 274.207C265.851 273.296 264.226 272.028 263.032 270.403C261.838 268.778 261.204 266.901 261.13 264.771H268.073C268.135 265.793 268.473 266.686 269.089 267.449C269.704 268.2 270.523 268.785 271.545 269.203C272.566 269.622 273.711 269.831 274.979 269.831C276.333 269.831 277.534 269.597 278.58 269.129C279.626 268.649 280.445 267.984 281.036 267.135C281.627 266.286 281.916 265.307 281.904 264.199C281.916 263.054 281.621 262.045 281.018 261.171C280.414 260.296 279.54 259.613 278.395 259.121C277.263 258.628 275.896 258.382 274.296 258.382H270.954V253.101H274.296C275.613 253.101 276.764 252.873 277.749 252.418C278.746 251.962 279.528 251.322 280.094 250.497C280.661 249.66 280.938 248.694 280.925 247.598C280.938 246.527 280.698 245.598 280.205 244.81C279.725 244.01 279.042 243.388 278.155 242.945C277.281 242.501 276.253 242.28 275.072 242.28C273.914 242.28 272.843 242.489 271.858 242.908C270.874 243.326 270.08 243.923 269.476 244.699C268.873 245.462 268.553 246.373 268.516 247.432H261.924C261.973 245.314 262.582 243.456 263.752 241.855C264.934 240.242 266.51 238.987 268.479 238.088C270.449 237.177 272.659 236.722 275.108 236.722C277.632 236.722 279.823 237.196 281.682 238.144C283.554 239.079 285 240.341 286.022 241.929C287.044 243.517 287.555 245.271 287.555 247.192C287.567 249.322 286.939 251.107 285.671 252.547C284.415 253.987 282.766 254.929 280.722 255.372V255.668C283.381 256.037 285.419 257.022 286.834 258.622C288.262 260.21 288.97 262.186 288.958 264.55C288.958 266.667 288.355 268.563 287.148 270.237C285.954 271.899 284.305 273.204 282.199 274.152C280.107 275.1 277.706 275.574 274.998 275.574Z" fill="white"/>
<path id="7" d="M164.486 188.057L180.57 156.222V155.963H161.901V150.239H187.661V156.092L171.595 188.057H164.486Z" fill="white"/>
</g>
</svg>
