<svg width="456" height="461" viewBox="0 0 456 461" fill="none" xmlns="http://www.w3.org/2000/svg">
<g id="Property 1=7-opened">
<g id="Group 1">
<path id="Rectangle 4" d="M2.04105 2.20455C14.541 -8.21213 223.541 28.7046 223.541 28.7046V213.376H38.5413C38.5413 213.376 -10.4589 12.6212 2.04105 2.20455Z" fill="#EF476F"/>
</g>
<g id="Group 3">
<path id="Rectangle 4_2" d="M3.04105 2.85226C15.541 -7.56442 224.541 29.3523 224.541 29.3523V214.024H39.5413C39.5413 214.024 -9.45894 13.2689 3.04105 2.85226Z" fill="#962B44"/>
</g>
<g id="Group 2">
<path id="Rectangle 4_3" d="M446.065 2.55679C433.565 -7.85989 224.564 29.0568 224.564 29.0568V213.728H409.564C409.564 213.728 458.565 12.9735 446.065 2.55679Z" fill="#118AB2"/>
<path id="Line 1" d="M224 28.3523L224 210.352" stroke="#962B44" stroke-width="2"/>
</g>
<path id="Line 3" d="M445.007 2.77382L222.459 213.5" stroke="#094559" stroke-width="2.00707"/>
<path id="Polygon 2" d="M309.465 140.692L224.915 77.5598L225.022 212.239L408.976 213.557L309.465 140.692Z" fill="#073E51"/>
<path id="shadow-top-right-click" d="M309.465 140.692L224.915 77.5598L225.022 212.239L408.976 213.557L309.465 140.692Z" fill="#073E51"/>
<path id="Rectangle 4_4" d="M12.8523 433.853C2.43558 421.353 39.3523 212.352 39.3523 212.352H224.024V397.352C224.024 397.352 23.2689 446.352 12.8523 433.853Z" fill="#06D6A0"/>
<path id="Rectangle 5" d="M435.171 435.205C445.588 422.705 408.671 213.705 408.671 213.705H224V398.705C224 398.705 424.755 447.705 435.171 435.205Z" fill="#FFD166"/>
<line id="Line 1_2" x1="223.179" y1="212.806" x2="438.179" y2="435.806" stroke="#917535" stroke-width="2"/>
<line id="Line 2" x1="223.187" y1="214.191" x2="13.7137" y2="434.742" stroke="#00664C" stroke-width="2.00707"/>
<path id="Polygon 4" d="M140.045 281.419L224.528 341.352L224.528 210.922L39.7731 210.509L140.045 281.419Z" fill="#00664C"/>
<path id="shadow-bottom-left-click" d="M140.045 281.419L224.528 341.352L224.528 210.922L39.7731 210.509L140.045 281.419Z" fill="#00664C"/>
<path id="Polygon 5" d="M307.995 282.375L222.179 342.509L224.605 211.02L408.971 213.005L307.995 282.375Z" fill="#917535"/>
<path id="shadow-bottom-right-click" d="M307.995 282.375L222.179 342.509L224.605 211.02L408.971 213.005L307.995 282.375Z" fill="#917535"/>
<line id="Line 4" x1="222.003" y1="211.342" x2="224.003" y2="399.342" stroke="#00664C" stroke-width="2.00707"/>
<path id="1" d="M281.251 150.534V188.352H274.4V157.2H274.178L265.333 162.851V156.572L274.732 150.534H281.251Z" fill="white"/>
<path id="5" d="M175.055 275.869C172.593 275.869 170.39 275.408 168.445 274.484C166.5 273.549 164.955 272.268 163.81 270.643C162.677 269.018 162.074 267.16 162 265.067H168.648C168.771 266.618 169.442 267.886 170.661 268.871C171.879 269.843 173.344 270.33 175.055 270.33C176.397 270.33 177.591 270.022 178.638 269.406C179.684 268.791 180.509 267.935 181.112 266.84C181.715 265.744 182.011 264.494 181.999 263.091C182.011 261.663 181.709 260.395 181.094 259.287C180.478 258.179 179.635 257.311 178.564 256.683C177.493 256.043 176.262 255.723 174.871 255.723C173.738 255.711 172.624 255.92 171.528 256.351C170.433 256.782 169.565 257.348 168.925 258.05L162.739 257.034L164.714 237.534H186.652V243.259H170.384L169.294 253.286H169.516C170.217 252.461 171.208 251.777 172.489 251.236C173.769 250.682 175.172 250.405 176.699 250.405C178.989 250.405 181.032 250.947 182.83 252.03C184.627 253.101 186.043 254.578 187.077 256.462C188.111 258.345 188.628 260.5 188.628 262.925C188.628 265.424 188.049 267.652 186.892 269.609C185.747 271.554 184.153 273.087 182.109 274.207C180.078 275.315 177.727 275.869 175.055 275.869Z" fill="white"/>
<path id="3" d="M274.998 275.869C272.339 275.869 269.975 275.414 267.907 274.503C265.851 273.592 264.226 272.324 263.032 270.699C261.838 269.074 261.204 267.197 261.13 265.067H268.073C268.135 266.089 268.473 266.981 269.089 267.744C269.704 268.495 270.523 269.08 271.545 269.499C272.566 269.917 273.711 270.126 274.979 270.126C276.333 270.126 277.534 269.893 278.58 269.425C279.626 268.945 280.445 268.28 281.036 267.43C281.627 266.581 281.916 265.602 281.904 264.494C281.916 263.349 281.621 262.34 281.018 261.466C280.414 260.592 279.54 259.909 278.395 259.416C277.263 258.924 275.896 258.678 274.296 258.678H270.954V253.396H274.296C275.613 253.396 276.764 253.169 277.749 252.713C278.746 252.258 279.528 251.617 280.094 250.793C280.661 249.956 280.938 248.989 280.925 247.893C280.938 246.822 280.698 245.893 280.205 245.105C279.725 244.305 279.042 243.683 278.155 243.24C277.281 242.797 276.253 242.575 275.072 242.575C273.914 242.575 272.843 242.785 271.858 243.203C270.874 243.622 270.08 244.219 269.476 244.994C268.873 245.758 268.553 246.669 268.516 247.727H261.924C261.973 245.61 262.582 243.751 263.752 242.151C264.934 240.538 266.51 239.282 268.479 238.384C270.449 237.473 272.659 237.017 275.108 237.017C277.632 237.017 279.823 237.491 281.682 238.439C283.554 239.375 285 240.636 286.022 242.224C287.044 243.813 287.555 245.567 287.555 247.487C287.567 249.617 286.939 251.402 285.671 252.842C284.415 254.283 282.766 255.224 280.722 255.668V255.963C283.381 256.332 285.419 257.317 286.834 258.918C288.262 260.506 288.97 262.482 288.958 264.845C288.958 266.963 288.355 268.858 287.148 270.533C285.954 272.195 284.305 273.5 282.199 274.447C280.107 275.395 277.706 275.869 274.998 275.869Z" fill="white"/>
<path id="Fortune-Text" d="M91.8224 87H83.9361V63.7273H91.9815C94.2921 63.7273 96.277 64.1932 97.9361 65.125C99.6027 66.0492 100.883 67.3788 101.777 69.1136C102.671 70.8485 103.118 72.9242 103.118 75.3409C103.118 77.7652 102.667 79.8485 101.766 81.5909C100.872 83.3333 99.58 84.6705 97.8906 85.6023C96.2088 86.5341 94.1861 87 91.8224 87ZM88.152 83.3523H91.6179C93.2391 83.3523 94.5914 83.0568 95.6747 82.4659C96.758 81.8674 97.5724 80.9773 98.1179 79.7955C98.6634 78.6061 98.9361 77.1212 98.9361 75.3409C98.9361 73.5606 98.6634 72.0833 98.1179 70.9091C97.5724 69.7273 96.7656 68.8447 95.6974 68.2614C94.6368 67.6705 93.3187 67.375 91.7429 67.375H88.152V83.3523ZM114.555 87.3409C112.851 87.3409 111.374 86.9659 110.124 86.2159C108.874 85.4659 107.904 84.4167 107.214 83.0682C106.533 81.7197 106.192 80.1439 106.192 78.3409C106.192 76.5379 106.533 74.9583 107.214 73.6023C107.904 72.2462 108.874 71.1932 110.124 70.4432C111.374 69.6932 112.851 69.3182 114.555 69.3182C116.26 69.3182 117.737 69.6932 118.987 70.4432C120.237 71.1932 121.203 72.2462 121.885 73.6023C122.574 74.9583 122.919 76.5379 122.919 78.3409C122.919 80.1439 122.574 81.7197 121.885 83.0682C121.203 84.4167 120.237 85.4659 118.987 86.2159C117.737 86.9659 116.26 87.3409 114.555 87.3409ZM114.578 84.0455C115.502 84.0455 116.275 83.7917 116.896 83.2841C117.518 82.7689 117.98 82.0795 118.283 81.2159C118.593 80.3523 118.749 79.3902 118.749 78.3295C118.749 77.2614 118.593 76.2955 118.283 75.4318C117.98 74.5606 117.518 73.8674 116.896 73.3523C116.275 72.8371 115.502 72.5795 114.578 72.5795C113.631 72.5795 112.843 72.8371 112.214 73.3523C111.593 73.8674 111.127 74.5606 110.817 75.4318C110.514 76.2955 110.362 77.2614 110.362 78.3295C110.362 79.3902 110.514 80.3523 110.817 81.2159C111.127 82.0795 111.593 82.7689 112.214 83.2841C112.843 83.7917 113.631 84.0455 114.578 84.0455ZM130.524 76.7727V87H126.411V69.5455H130.342V72.5114H130.547C130.948 71.5341 131.589 70.7576 132.467 70.1818C133.354 69.6061 134.448 69.3182 135.751 69.3182C136.956 69.3182 138.005 69.5758 138.899 70.0909C139.801 70.6061 140.498 71.3523 140.99 72.3295C141.49 73.3068 141.736 74.4924 141.729 75.8864V87H137.615V76.5227C137.615 75.3561 137.312 74.4432 136.706 73.7841C136.107 73.125 135.278 72.7955 134.217 72.7955C133.498 72.7955 132.857 72.9545 132.297 73.2727C131.744 73.5833 131.308 74.0341 130.99 74.625C130.679 75.2159 130.524 75.9318 130.524 76.7727ZM149.399 63.7273V66.0455C149.399 66.7121 149.27 67.4053 149.013 68.125C148.763 68.8371 148.418 69.5189 147.979 70.1705C147.539 70.8144 147.039 71.3674 146.479 71.8295L144.57 70.5909C144.986 69.9621 145.35 69.2841 145.661 68.5568C145.971 67.822 146.126 66.9924 146.126 66.0682V63.7273H149.399ZM162.033 69.5455V72.7273H151.999V69.5455H162.033ZM154.476 65.3636H158.589V81.75C158.589 82.303 158.673 82.7273 158.839 83.0227C159.014 83.3106 159.241 83.5076 159.521 83.6136C159.802 83.7197 160.112 83.7727 160.453 83.7727C160.711 83.7727 160.946 83.7538 161.158 83.7159C161.377 83.678 161.544 83.6439 161.658 83.6136L162.351 86.8295C162.131 86.9053 161.817 86.9886 161.408 87.0795C161.006 87.1705 160.514 87.2235 159.93 87.2386C158.9 87.2689 157.972 87.1136 157.146 86.7727C156.321 86.4242 155.665 85.8864 155.18 85.1591C154.703 84.4318 154.468 83.5227 154.476 82.4318V65.3636ZM64.2429 126.341C62.5005 126.341 61.0043 125.958 59.7543 125.193C58.5118 124.428 57.5535 123.371 56.8793 122.023C56.2126 120.667 55.8793 119.106 55.8793 117.341C55.8793 115.568 56.2202 114.004 56.902 112.648C57.5838 111.284 58.5459 110.223 59.7884 109.466C61.0384 108.701 62.5156 108.318 64.2202 108.318C65.6368 108.318 66.8906 108.58 67.9815 109.102C69.08 109.617 69.955 110.348 70.6065 111.295C71.258 112.235 71.6293 113.333 71.7202 114.591H67.7884C67.6293 113.75 67.2505 113.049 66.652 112.489C66.0611 111.92 65.2694 111.636 64.277 111.636C63.4361 111.636 62.6974 111.864 62.0611 112.318C61.4247 112.765 60.9285 113.409 60.5724 114.25C60.224 115.091 60.0497 116.098 60.0497 117.273C60.0497 118.462 60.224 119.485 60.5724 120.341C60.9209 121.189 61.4096 121.845 62.0384 122.307C62.6747 122.761 63.4209 122.989 64.277 122.989C64.883 122.989 65.4247 122.875 65.902 122.648C66.3868 122.413 66.7921 122.076 67.1179 121.636C67.4437 121.197 67.6671 120.663 67.7884 120.034H71.7202C71.6217 121.269 71.258 122.364 70.6293 123.318C70.0005 124.265 69.1444 125.008 68.0611 125.545C66.9777 126.076 65.705 126.341 64.2429 126.341ZM82.7116 126.341C81.0071 126.341 79.5298 125.966 78.2798 125.216C77.0298 124.466 76.0601 123.417 75.3707 122.068C74.6889 120.72 74.348 119.144 74.348 117.341C74.348 115.538 74.6889 113.958 75.3707 112.602C76.0601 111.246 77.0298 110.193 78.2798 109.443C79.5298 108.693 81.0071 108.318 82.7116 108.318C84.4162 108.318 85.8935 108.693 87.1435 109.443C88.3935 110.193 89.3594 111.246 90.0412 112.602C90.7306 113.958 91.0753 115.538 91.0753 117.341C91.0753 119.144 90.7306 120.72 90.0412 122.068C89.3594 123.417 88.3935 124.466 87.1435 125.216C85.8935 125.966 84.4162 126.341 82.7116 126.341ZM82.7344 123.045C83.6586 123.045 84.4313 122.792 85.0526 122.284C85.6738 121.769 86.1359 121.08 86.4389 120.216C86.7495 119.352 86.9048 118.39 86.9048 117.33C86.9048 116.261 86.7495 115.295 86.4389 114.432C86.1359 113.561 85.6738 112.867 85.0526 112.352C84.4313 111.837 83.6586 111.58 82.7344 111.58C81.7874 111.58 80.9995 111.837 80.3707 112.352C79.7495 112.867 79.2836 113.561 78.973 114.432C78.67 115.295 78.5185 116.261 78.5185 117.33C78.5185 118.39 78.67 119.352 78.973 120.216C79.2836 121.08 79.7495 121.769 80.3707 122.284C80.9995 122.792 81.7874 123.045 82.7344 123.045ZM105.692 118.659V108.545H109.805V126H105.817V122.898H105.635C105.241 123.875 104.593 124.674 103.692 125.295C102.798 125.917 101.696 126.227 100.385 126.227C99.241 126.227 98.2296 125.973 97.3509 125.466C96.4796 124.951 95.7978 124.205 95.3054 123.227C94.813 122.242 94.5668 121.053 94.5668 119.659V108.545H98.6804V119.023C98.6804 120.129 98.9834 121.008 99.5895 121.659C100.196 122.311 100.991 122.636 101.976 122.636C102.582 122.636 103.169 122.489 103.737 122.193C104.305 121.898 104.771 121.458 105.135 120.875C105.506 120.284 105.692 119.545 105.692 118.659ZM118.149 115.773V126H114.036V108.545H117.967V111.511H118.172C118.573 110.534 119.214 109.758 120.092 109.182C120.979 108.606 122.073 108.318 123.376 108.318C124.581 108.318 125.63 108.576 126.524 109.091C127.426 109.606 128.123 110.352 128.615 111.33C129.115 112.307 129.361 113.492 129.354 114.886V126H125.24V115.523C125.24 114.356 124.937 113.443 124.331 112.784C123.732 112.125 122.903 111.795 121.842 111.795C121.123 111.795 120.482 111.955 119.922 112.273C119.369 112.583 118.933 113.034 118.615 113.625C118.304 114.216 118.149 114.932 118.149 115.773ZM142.251 108.545V111.727H132.217V108.545H142.251ZM134.695 104.364H138.808V120.75C138.808 121.303 138.892 121.727 139.058 122.023C139.232 122.311 139.46 122.508 139.74 122.614C140.02 122.72 140.331 122.773 140.672 122.773C140.929 122.773 141.164 122.754 141.376 122.716C141.596 122.678 141.763 122.644 141.876 122.614L142.57 125.83C142.35 125.905 142.036 125.989 141.626 126.08C141.225 126.17 140.732 126.223 140.149 126.239C139.119 126.269 138.191 126.114 137.365 125.773C136.539 125.424 135.884 124.886 135.399 124.159C134.922 123.432 134.687 122.523 134.695 121.432V104.364ZM161.243 126.341C159.538 126.341 158.061 125.966 156.811 125.216C155.561 124.466 154.591 123.417 153.902 122.068C153.22 120.72 152.879 119.144 152.879 117.341C152.879 115.538 153.22 113.958 153.902 112.602C154.591 111.246 155.561 110.193 156.811 109.443C158.061 108.693 159.538 108.318 161.243 108.318C162.947 108.318 164.425 108.693 165.675 109.443C166.925 110.193 167.891 111.246 168.572 112.602C169.262 113.958 169.607 115.538 169.607 117.341C169.607 119.144 169.262 120.72 168.572 122.068C167.891 123.417 166.925 124.466 165.675 125.216C164.425 125.966 162.947 126.341 161.243 126.341ZM161.266 123.045C162.19 123.045 162.963 122.792 163.584 122.284C164.205 121.769 164.667 121.08 164.97 120.216C165.281 119.352 165.436 118.39 165.436 117.33C165.436 116.261 165.281 115.295 164.97 114.432C164.667 113.561 164.205 112.867 163.584 112.352C162.963 111.837 162.19 111.58 161.266 111.58C160.319 111.58 159.531 111.837 158.902 112.352C158.281 112.867 157.815 113.561 157.504 114.432C157.201 115.295 157.05 116.261 157.05 117.33C157.05 118.39 157.201 119.352 157.504 120.216C157.815 121.08 158.281 121.769 158.902 122.284C159.531 122.792 160.319 123.045 161.266 123.045ZM177.212 115.773V126H173.098V108.545H177.03V111.511H177.234C177.636 110.534 178.276 109.758 179.155 109.182C180.041 108.606 181.136 108.318 182.439 108.318C183.643 108.318 184.693 108.576 185.587 109.091C186.488 109.606 187.185 110.352 187.678 111.33C188.178 112.307 188.424 113.492 188.416 114.886V126H184.303V115.523C184.303 114.356 184 113.443 183.393 112.784C182.795 112.125 181.965 111.795 180.905 111.795C180.185 111.795 179.545 111.955 178.984 112.273C178.431 112.583 177.996 113.034 177.678 113.625C177.367 114.216 177.212 114.932 177.212 115.773ZM114.364 165V147.545H118.477V165H114.364ZM116.432 145.068C115.78 145.068 115.22 144.852 114.75 144.42C114.28 143.981 114.045 143.455 114.045 142.841C114.045 142.22 114.28 141.693 114.75 141.261C115.22 140.822 115.78 140.602 116.432 140.602C117.091 140.602 117.652 140.822 118.114 141.261C118.583 141.693 118.818 142.22 118.818 142.841C118.818 143.455 118.583 143.981 118.114 144.42C117.652 144.852 117.091 145.068 116.432 145.068ZM131.423 147.545V150.727H121.389V147.545H131.423ZM123.866 143.364H127.98V159.75C127.98 160.303 128.063 160.727 128.23 161.023C128.404 161.311 128.632 161.508 128.912 161.614C129.192 161.72 129.503 161.773 129.844 161.773C130.101 161.773 130.336 161.754 130.548 161.716C130.768 161.678 130.935 161.644 131.048 161.614L131.741 164.83C131.522 164.905 131.207 164.989 130.798 165.08C130.397 165.17 129.904 165.223 129.321 165.239C128.291 165.269 127.363 165.114 126.537 164.773C125.711 164.424 125.056 163.886 124.571 163.159C124.094 162.432 123.859 161.523 123.866 160.432V143.364Z" fill="white"/>
</g>
</svg>
