<svg width="434" height="662" viewBox="0 0 434 662" fill="none" xmlns="http://www.w3.org/2000/svg">
<g id="1-Opened">
<g id="Bottom-Right-4">
<path id="Bottom-Left-2-Flap" d="M217 440.5L430 659H217V440.5Z" fill="#FFD166" stroke="#917535" stroke-width="2"/>
<path id="4" d="M266.361 603.483V598.035L282.408 572.681H286.951V580.437H284.181L273.378 597.555V597.85H295.777V603.483H266.361ZM284.402 610.5V601.821L284.476 599.383V572.681H290.939V610.5H284.402Z" fill="white"/>
</g>
<g id="Bottom-Right-3">
<path id="Bottom-Left-1-Flap" d="M429.5 659.5L216.5 441H429.5V659.5Z" fill="#FFD166" stroke="#917535" stroke-width="2"/>
<path id="3" d="M352.998 521.017C350.339 521.017 347.975 520.561 345.907 519.65C343.851 518.739 342.226 517.471 341.032 515.846C339.838 514.221 339.204 512.344 339.13 510.214H346.073C346.135 511.236 346.473 512.128 347.089 512.892C347.704 513.643 348.523 514.227 349.545 514.646C350.566 515.065 351.711 515.274 352.979 515.274C354.333 515.274 355.534 515.04 356.58 514.572C357.626 514.092 358.445 513.427 359.036 512.578C359.627 511.728 359.916 510.75 359.904 509.642C359.916 508.497 359.621 507.487 359.018 506.613C358.414 505.739 357.54 505.056 356.395 504.564C355.263 504.071 353.896 503.825 352.296 503.825H348.954V498.544H352.296C353.613 498.544 354.764 498.316 355.749 497.86C356.746 497.405 357.528 496.765 358.094 495.94C358.661 495.103 358.938 494.136 358.925 493.041C358.938 491.97 358.698 491.04 358.205 490.252C357.725 489.452 357.042 488.831 356.155 488.387C355.281 487.944 354.253 487.723 353.072 487.723C351.914 487.723 350.843 487.932 349.858 488.35C348.874 488.769 348.08 489.366 347.476 490.142C346.873 490.905 346.553 491.816 346.516 492.875H339.924C339.973 490.757 340.582 488.898 341.752 487.298C342.934 485.685 344.51 484.43 346.479 483.531C348.449 482.62 350.659 482.164 353.108 482.164C355.632 482.164 357.823 482.638 359.682 483.586C361.554 484.522 363 485.784 364.022 487.372C365.044 488.96 365.555 490.714 365.555 492.635C365.567 494.764 364.939 496.549 363.671 497.99C362.415 499.43 360.766 500.372 358.722 500.815V501.11C361.381 501.48 363.419 502.465 364.834 504.065C366.262 505.653 366.97 507.629 366.958 509.993C366.958 512.11 366.355 514.006 365.148 515.68C363.954 517.342 362.305 518.647 360.199 519.595C358.107 520.543 355.706 521.017 352.998 521.017Z" fill="white"/>
</g>
<g id="Top-Right-2">
<path id="Top-Left-1-Flap" d="M430.5 224L217 440H430L430.5 224Z" fill="#118AB2" stroke="#073E51" stroke-width="2"/>
<path id="2" d="M336.212 399.5V394.551L349.342 381.68C350.597 380.412 351.644 379.286 352.481 378.301C353.318 377.316 353.946 376.362 354.364 375.439C354.783 374.515 354.992 373.53 354.992 372.484C354.992 371.29 354.721 370.268 354.18 369.419C353.638 368.557 352.893 367.892 351.945 367.424C350.997 366.957 349.92 366.723 348.714 366.723C347.47 366.723 346.381 366.981 345.445 367.498C344.51 368.003 343.783 368.723 343.266 369.659C342.762 370.594 342.509 371.708 342.509 373.001H335.991C335.991 370.6 336.539 368.514 337.634 366.741C338.73 364.968 340.238 363.596 342.158 362.623C344.091 361.651 346.307 361.164 348.806 361.164C351.342 361.164 353.57 361.638 355.491 362.586C357.411 363.534 358.901 364.833 359.96 366.483C361.031 368.132 361.566 370.016 361.566 372.133C361.566 373.549 361.295 374.94 360.754 376.306C360.212 377.673 359.258 379.187 357.891 380.849C356.537 382.511 354.635 384.524 352.185 386.887L345.667 393.517V393.775H362.138V399.5H336.212Z" fill="white"/>
</g>
<g id="Top-Right-1">
<path id="Top-Left-1-Flap_2" d="M217 442L430 223.5H217V442Z" fill="#118AB2" stroke="#073E51" stroke-width="2"/>
</g>
<g id="Top-Right-1-Opened">
<path id="Top-Left-1-Flap-Opened" d="M218 3L431 221.5H218V3Z" fill="#118AB2" stroke="#073E51" stroke-width="2"/>
<path id="Don&#226;&#128;&#153;t count on it" d="M317 177.681V174.724H325.727V177.741C325.727 178.608 325.553 179.352 325.203 179.974C324.857 180.599 324.358 181.079 323.707 181.414C323.057 181.75 322.278 181.917 321.372 181.917C320.463 181.917 319.682 181.748 319.028 181.41C318.375 181.075 317.874 180.591 317.524 179.957C317.175 179.326 317 178.568 317 177.681ZM318.368 176.305V177.605C318.368 178.213 318.479 178.72 318.7 179.126C318.925 179.532 319.259 179.838 319.702 180.042C320.148 180.247 320.705 180.349 321.372 180.349C322.04 180.349 322.594 180.247 323.034 180.042C323.477 179.838 323.808 179.535 324.027 179.135C324.249 178.737 324.359 178.243 324.359 177.652V176.305H318.368ZM316.872 186.206C316.872 185.567 317.013 185.013 317.294 184.544C317.575 184.076 317.969 183.712 318.474 183.453C318.98 183.198 319.571 183.07 320.247 183.07C320.923 183.07 321.516 183.198 322.024 183.453C322.533 183.712 322.928 184.076 323.209 184.544C323.49 185.013 323.631 185.567 323.631 186.206C323.631 186.846 323.49 187.4 323.209 187.868C322.928 188.337 322.533 188.699 322.024 188.955C321.516 189.213 320.923 189.343 320.247 189.343C319.571 189.343 318.98 189.213 318.474 188.955C317.969 188.699 317.575 188.337 317.294 187.868C317.013 187.4 316.872 186.846 316.872 186.206ZM318.108 186.215C318.108 186.561 318.203 186.851 318.393 187.084C318.587 187.317 318.845 187.49 319.169 187.604C319.493 187.721 319.854 187.779 320.251 187.779C320.652 187.779 321.014 187.721 321.338 187.604C321.665 187.49 321.925 187.317 322.118 187.084C322.311 186.851 322.408 186.561 322.408 186.215C322.408 185.86 322.311 185.564 322.118 185.328C321.925 185.096 321.665 184.921 321.338 184.804C321.014 184.691 320.652 184.634 320.251 184.634C319.854 184.634 319.493 184.691 319.169 184.804C318.845 184.921 318.587 185.096 318.393 185.328C318.203 185.564 318.108 185.86 318.108 186.215ZM320.835 192.195H317V190.652H323.545V192.126H322.433V192.203C322.8 192.354 323.091 192.594 323.307 192.923C323.523 193.256 323.631 193.666 323.631 194.155C323.631 194.607 323.534 195 323.341 195.335C323.148 195.673 322.868 195.935 322.501 196.119C322.135 196.307 321.69 196.399 321.168 196.396H317V194.854H320.929C321.366 194.854 321.709 194.74 321.956 194.513C322.203 194.288 322.327 193.977 322.327 193.58C322.327 193.31 322.267 193.07 322.148 192.859C322.031 192.652 321.862 192.489 321.641 192.369C321.419 192.253 321.151 192.195 320.835 192.195ZM325.727 199.273H324.858C324.608 199.273 324.348 199.224 324.078 199.128C323.811 199.034 323.555 198.905 323.311 198.74C323.07 198.575 322.862 198.388 322.689 198.178L323.153 197.462C323.389 197.618 323.643 197.754 323.916 197.871C324.192 197.987 324.503 198.045 324.849 198.045H325.727V199.273ZM323.545 204.01H322.352V200.248H323.545V204.01ZM325.114 201.176V202.719H318.969C318.761 202.719 318.602 202.75 318.491 202.813C318.384 202.878 318.31 202.963 318.27 203.069C318.23 203.174 318.21 203.29 318.21 203.418C318.21 203.515 318.217 203.603 318.232 203.682C318.246 203.765 318.259 203.827 318.27 203.87L317.064 204.13C317.036 204.047 317.004 203.929 316.97 203.776C316.936 203.625 316.916 203.441 316.911 203.222C316.899 202.836 316.957 202.488 317.085 202.178C317.216 201.868 317.418 201.623 317.69 201.441C317.963 201.262 318.304 201.174 318.713 201.176H325.114ZM316.872 211.132C316.872 210.479 317.016 209.918 317.303 209.449C317.589 208.983 317.986 208.624 318.491 208.371C319 208.121 319.585 207.996 320.247 207.996C320.912 207.996 321.499 208.124 322.007 208.379C322.518 208.635 322.916 208.996 323.2 209.462C323.487 209.93 323.631 210.484 323.631 211.124C323.631 211.655 323.533 212.125 323.337 212.534C323.143 212.946 322.869 213.274 322.514 213.518C322.162 213.763 321.75 213.902 321.278 213.936V212.462C321.594 212.402 321.857 212.26 322.067 212.036C322.28 211.814 322.386 211.517 322.386 211.145C322.386 210.83 322.301 210.553 322.131 210.314C321.963 210.075 321.722 209.889 321.406 209.756C321.091 209.625 320.713 209.56 320.273 209.56C319.827 209.56 319.443 209.625 319.122 209.756C318.804 209.886 318.558 210.07 318.385 210.305C318.214 210.544 318.129 210.824 318.129 211.145C318.129 211.372 318.172 211.575 318.257 211.754C318.345 211.936 318.472 212.088 318.636 212.21C318.801 212.332 319.001 212.416 319.237 212.462V213.936C318.774 213.899 318.364 213.763 318.006 213.527C317.651 213.291 317.372 212.97 317.17 212.564C316.972 212.158 316.872 211.68 316.872 211.132ZM316.872 218.058C316.872 217.419 317.013 216.865 317.294 216.396C317.575 215.927 317.969 215.564 318.474 215.305C318.98 215.049 319.571 214.922 320.247 214.922C320.923 214.922 321.516 215.049 322.024 215.305C322.533 215.564 322.928 215.927 323.209 216.396C323.49 216.865 323.631 217.419 323.631 218.058C323.631 218.697 323.49 219.251 323.209 219.72C322.928 220.189 322.533 220.551 322.024 220.806C321.516 221.065 320.923 221.194 320.247 221.194C319.571 221.194 318.98 221.065 318.474 220.806C317.969 220.551 317.575 220.189 317.294 219.72C317.013 219.251 316.872 218.697 316.872 218.058ZM318.108 218.066C318.108 218.413 318.203 218.703 318.393 218.936C318.587 219.169 318.845 219.342 319.169 219.456C319.493 219.572 319.854 219.63 320.251 219.63C320.652 219.63 321.014 219.572 321.338 219.456C321.665 219.342 321.925 219.169 322.118 218.936C322.311 218.703 322.408 218.413 322.408 218.066C322.408 217.711 322.311 217.416 322.118 217.18C321.925 216.947 321.665 216.772 321.338 216.656C321.014 216.542 320.652 216.485 320.251 216.485C319.854 216.485 319.493 216.542 319.169 216.656C318.845 216.772 318.587 216.947 318.393 217.18C318.203 217.416 318.108 217.711 318.108 218.066ZM319.753 226.675H323.545V228.218H317V226.722H318.163V226.654C317.797 226.506 317.497 226.263 317.264 225.925C317.031 225.59 316.915 225.177 316.915 224.685C316.915 224.256 317.01 223.877 317.2 223.548C317.393 223.221 317.673 222.965 318.04 222.781C318.409 222.596 318.855 222.504 319.378 222.504H323.545V224.046H319.616C319.202 224.046 318.872 224.16 318.628 224.387C318.384 224.614 318.261 224.913 318.261 225.282C318.261 225.509 318.317 225.729 318.428 225.942C318.538 226.156 318.703 226.33 318.922 226.467C319.143 226.606 319.42 226.675 319.753 226.675ZM320.835 231.347H317V229.804H323.545V231.279H322.433V231.355C322.8 231.506 323.091 231.746 323.307 232.076C323.523 232.408 323.631 232.819 323.631 233.307C323.631 233.759 323.534 234.152 323.341 234.488C323.148 234.826 322.868 235.087 322.501 235.272C322.135 235.459 321.69 235.551 321.168 235.549H317V234.006H320.929C321.366 234.006 321.709 233.892 321.956 233.665C322.203 233.441 322.327 233.13 322.327 232.732C322.327 232.462 322.267 232.222 322.148 232.012C322.031 231.804 321.862 231.641 321.641 231.522C321.419 231.405 321.151 231.347 320.835 231.347ZM323.545 240.385H322.352V236.623H323.545V240.385ZM325.114 237.551V239.094H318.969C318.761 239.094 318.602 239.125 318.491 239.188C318.384 239.253 318.31 239.338 318.27 239.444C318.23 239.549 318.21 239.665 318.21 239.793C318.21 239.89 318.217 239.978 318.232 240.057C318.246 240.14 318.259 240.202 318.27 240.245L317.064 240.505C317.036 240.422 317.004 240.304 316.97 240.151C316.936 240 316.916 239.816 316.911 239.597C316.899 239.211 316.957 238.863 317.085 238.553C317.216 238.243 317.418 237.998 317.69 237.816C317.963 237.637 318.304 237.549 318.713 237.551H325.114ZM316.872 247.507C316.872 246.868 317.013 246.314 317.294 245.845C317.575 245.376 317.969 245.013 318.474 244.754C318.98 244.499 319.571 244.371 320.247 244.371C320.923 244.371 321.516 244.499 322.024 244.754C322.533 245.013 322.928 245.376 323.209 245.845C323.49 246.314 323.631 246.868 323.631 247.507C323.631 248.146 323.49 248.7 323.209 249.169C322.928 249.638 322.533 250 322.024 250.256C321.516 250.514 320.923 250.643 320.247 250.643C319.571 250.643 318.98 250.514 318.474 250.256C317.969 250 317.575 249.638 317.294 249.169C317.013 248.7 316.872 248.146 316.872 247.507ZM318.108 247.516C318.108 247.862 318.203 248.152 318.393 248.385C318.587 248.618 318.845 248.791 319.169 248.905C319.493 249.021 319.854 249.08 320.251 249.08C320.652 249.08 321.014 249.021 321.338 248.905C321.665 248.791 321.925 248.618 322.118 248.385C322.311 248.152 322.408 247.862 322.408 247.516C322.408 247.161 322.311 246.865 322.118 246.629C321.925 246.396 321.665 246.222 321.338 246.105C321.014 245.991 320.652 245.935 320.251 245.935C319.854 245.935 319.493 245.991 319.169 246.105C318.845 246.222 318.587 246.396 318.393 246.629C318.203 246.865 318.108 247.161 318.108 247.516ZM320.835 253.495H317V251.953H323.545V253.427H322.433V253.504C322.8 253.654 323.091 253.895 323.307 254.224C323.523 254.556 323.631 254.967 323.631 255.456C323.631 255.907 323.534 256.301 323.341 256.636C323.148 256.974 322.868 257.235 322.501 257.42C322.135 257.608 321.69 257.7 321.168 257.697H317V256.154H320.929C321.366 256.154 321.709 256.041 321.956 255.814C322.203 255.589 322.327 255.278 322.327 254.88C322.327 254.61 322.267 254.37 322.148 254.16C322.031 253.953 321.862 253.789 321.641 253.67C321.419 253.554 321.151 253.495 320.835 253.495ZM317 262.242H323.545V263.784H317V262.242ZM324.474 263.017C324.474 262.773 324.555 262.563 324.717 262.387C324.882 262.211 325.08 262.123 325.31 262.123C325.543 262.123 325.74 262.211 325.902 262.387C326.067 262.563 326.149 262.773 326.149 263.017C326.149 263.265 326.067 263.475 325.902 263.648C325.74 263.824 325.543 263.912 325.31 263.912C325.08 263.912 324.882 263.824 324.717 263.648C324.555 263.475 324.474 263.265 324.474 263.017ZM323.545 268.639H322.352V264.876H323.545V268.639ZM325.114 265.805V267.348H318.969C318.761 267.348 318.602 267.379 318.491 267.442C318.384 267.507 318.31 267.592 318.27 267.697C318.23 267.803 318.21 267.919 318.21 268.047C318.21 268.143 318.217 268.232 318.232 268.311C318.246 268.393 318.259 268.456 318.27 268.499L317.064 268.759C317.036 268.676 317.004 268.558 316.97 268.405C316.936 268.254 316.916 268.07 316.911 267.851C316.899 267.464 316.957 267.116 317.085 266.807C317.216 266.497 317.418 266.251 317.69 266.07C317.963 265.891 318.304 265.803 318.713 265.805H325.114Z" fill="white"/>
</g>
<g id="Bottom-Left-5">
<path id="Bottom-Left-2-Flap_2" d="M217 440.5L4 659H217V440.5Z" fill="#06D6A0" stroke="#00664C" stroke-width="2"/>
<path id="5" d="M136.055 611.017C133.593 611.017 131.39 610.555 129.445 609.632C127.5 608.696 125.955 607.416 124.81 605.791C123.677 604.166 123.074 602.307 123 600.214H129.648C129.771 601.765 130.442 603.033 131.661 604.018C132.879 604.991 134.344 605.477 136.055 605.477C137.397 605.477 138.591 605.169 139.638 604.554C140.684 603.938 141.509 603.082 142.112 601.987C142.715 600.891 143.011 599.642 142.999 598.238C143.011 596.81 142.709 595.542 142.094 594.434C141.478 593.326 140.635 592.458 139.564 591.831C138.493 591.19 137.262 590.87 135.871 590.87C134.738 590.858 133.624 591.067 132.528 591.498C131.433 591.929 130.565 592.495 129.925 593.197L123.739 592.181L125.714 572.681H147.652V578.406H131.384L130.294 588.433H130.516C131.217 587.608 132.208 586.925 133.489 586.383C134.769 585.829 136.172 585.552 137.699 585.552C139.989 585.552 142.032 586.094 143.83 587.177C145.627 588.248 147.043 589.725 148.077 591.609C149.111 593.493 149.628 595.647 149.628 598.072C149.628 600.571 149.049 602.799 147.892 604.757C146.747 606.702 145.153 608.234 143.109 609.355C141.078 610.463 138.727 611.017 136.055 611.017Z" fill="white"/>
</g>
<g id="Bottom-Left-6">
<path id="Bottom-Left-1-Flap_2" d="M3.5 659L216.5 440.5H3.5V659Z" fill="#06D6A0" stroke="#00664C" stroke-width="2"/>
<path id="6" d="M74.3509 521.017C72.5412 521.004 70.7746 520.69 69.0511 520.075C67.3277 519.447 65.7765 518.431 64.3977 517.028C63.0189 515.612 61.9233 513.735 61.1108 511.396C60.2983 509.045 59.8982 506.133 59.9105 502.662C59.9105 499.424 60.2552 496.537 60.9446 494.001C61.634 491.465 62.625 489.323 63.9176 487.575C65.2102 485.815 66.7675 484.473 68.5895 483.549C70.4238 482.626 72.4735 482.164 74.7386 482.164C77.1146 482.164 79.2197 482.632 81.054 483.568C82.9006 484.503 84.3902 485.784 85.5227 487.409C86.6553 489.021 87.357 490.843 87.6278 492.875H80.8878C80.5431 491.422 79.8352 490.265 78.7642 489.403C77.7055 488.529 76.3636 488.092 74.7386 488.092C72.1165 488.092 70.0975 489.231 68.6818 491.508C67.2784 493.786 66.5705 496.913 66.5582 500.889H66.8168C67.42 499.806 68.2017 498.876 69.1619 498.1C70.1222 497.325 71.2055 496.728 72.4119 496.309C73.6307 495.878 74.9171 495.663 76.2713 495.663C78.4872 495.663 80.4754 496.192 82.2358 497.251C84.0085 498.31 85.4119 499.769 86.446 501.627C87.4801 503.474 87.991 505.591 87.9787 507.98C87.991 510.466 87.4247 512.701 86.2798 514.683C85.1349 516.653 83.5407 518.204 81.4972 519.336C79.4536 520.469 77.0715 521.029 74.3509 521.017ZM74.3139 515.477C75.6558 515.477 76.8561 515.151 77.9148 514.498C78.9735 513.846 79.8106 512.966 80.4261 511.858C81.0417 510.75 81.3433 509.506 81.331 508.127C81.3433 506.773 81.0478 505.548 80.4446 504.453C79.8537 503.357 79.035 502.489 77.9886 501.849C76.9422 501.209 75.7481 500.889 74.4062 500.889C73.4091 500.889 72.4796 501.08 71.6179 501.461C70.7562 501.843 70.0052 502.372 69.3651 503.049C68.7249 503.714 68.2202 504.49 67.8509 505.376C67.4938 506.25 67.3092 507.186 67.2969 508.183C67.3092 509.5 67.617 510.713 68.2202 511.821C68.8234 512.929 69.6544 513.815 70.7131 514.48C71.7718 515.145 72.9721 515.477 74.3139 515.477Z" fill="white"/>
</g>
<g id="Top-Left-7">
<path id="Top-Left-1-Flap_3" d="M3.5 223.5L216.5 442H3.5V223.5Z" fill="#EF476F" stroke="#C2395A" stroke-width="2"/>
<path id="7" d="M63.486 384.5L79.5698 352.664V352.406H60.9007V346.681H86.6607V352.535L70.5953 384.5H63.486Z" fill="white"/>
</g>
<g id="Top-Left-8">
<path id="Top-Left-1-Flap_4" d="M216 441.5L3 223H216V441.5Z" fill="#EF476F" stroke="#962B44" stroke-width="2"/>
<path id="8" d="M146.021 318.017C143.276 318.017 140.838 317.555 138.708 316.632C136.591 315.708 134.929 314.447 133.722 312.846C132.528 311.234 131.937 309.405 131.95 307.362C131.937 305.774 132.282 304.315 132.984 302.985C133.686 301.656 134.633 300.548 135.828 299.662C137.034 298.763 138.376 298.19 139.853 297.944V297.686C137.908 297.255 136.332 296.264 135.126 294.713C133.932 293.149 133.341 291.346 133.353 289.302C133.341 287.357 133.883 285.621 134.978 284.095C136.074 282.568 137.576 281.368 139.484 280.494C141.392 279.608 143.571 279.164 146.021 279.164C148.446 279.164 150.606 279.608 152.502 280.494C154.41 281.368 155.912 282.568 157.008 284.095C158.116 285.621 158.67 287.357 158.67 289.302C158.67 291.346 158.061 293.149 156.842 294.713C155.635 296.264 154.078 297.255 152.17 297.686V297.944C153.647 298.19 154.977 298.763 156.159 299.662C157.353 300.548 158.301 301.656 159.002 302.985C159.716 304.315 160.073 305.774 160.073 307.362C160.073 309.405 159.47 311.234 158.264 312.846C157.057 314.447 155.395 315.708 153.278 316.632C151.173 317.555 148.754 318.017 146.021 318.017ZM146.021 312.735C147.436 312.735 148.668 312.495 149.714 312.015C150.76 311.523 151.573 310.833 152.151 309.947C152.73 309.061 153.026 308.039 153.038 306.882C153.026 305.675 152.712 304.61 152.096 303.687C151.493 302.752 150.662 302.019 149.603 301.49C148.557 300.96 147.363 300.696 146.021 300.696C144.667 300.696 143.46 300.96 142.401 301.49C141.343 302.019 140.506 302.752 139.89 303.687C139.287 304.61 138.991 305.675 139.004 306.882C138.991 308.039 139.275 309.061 139.853 309.947C140.432 310.821 141.244 311.504 142.291 311.997C143.349 312.489 144.593 312.735 146.021 312.735ZM146.021 295.507C147.178 295.507 148.2 295.273 149.086 294.805C149.985 294.337 150.693 293.685 151.21 292.848C151.727 292.011 151.991 291.044 152.004 289.948C151.991 288.865 151.733 287.917 151.228 287.105C150.723 286.28 150.022 285.646 149.123 285.203C148.224 284.747 147.19 284.52 146.021 284.52C144.827 284.52 143.774 284.747 142.863 285.203C141.964 285.646 141.263 286.28 140.758 287.105C140.266 287.917 140.026 288.865 140.038 289.948C140.026 291.044 140.272 292.011 140.776 292.848C141.294 293.672 142.001 294.325 142.9 294.805C143.811 295.273 144.851 295.507 146.021 295.507Z" fill="white"/>
</g>
</g>
</svg>
