<svg width="434" height="662" viewBox="0 0 434 662" fill="none" xmlns="http://www.w3.org/2000/svg">
    <g id="Bottom-Right-4">
        <path id="Bottom-Left-2-Flap" d="M217 440.5L430 659H217V440.5Z" fill="#FFD166" stroke="#917535" stroke-width="2"/>
        <path id="4" d="M266.361 603.483V598.035L282.408 572.681H286.951V580.437H284.181L273.378 597.555V597.85H295.777V603.483H266.361ZM284.402 610.5V601.821L284.476 599.383V572.681H290.939V610.5H284.402Z" fill="white"/>
    </g>
    <g id="Bottom-Right-3">
        <path id="Bottom-Left-1-Flap" d="M429.5 659.5L216.5 441H429.5V659.5Z" fill="#FFD166" stroke="#917535" stroke-width="2"/>
        <path id="3" d="M352.998 521.017C350.339 521.017 347.975 520.561 345.907 519.65C343.851 518.739 342.226 517.471 341.032 515.846C339.838 514.221 339.204 512.344 339.13 510.214H346.073C346.135 511.236 346.473 512.128 347.089 512.892C347.704 513.643 348.523 514.227 349.545 514.646C350.566 515.065 351.711 515.274 352.979 515.274C354.333 515.274 355.534 515.04 356.58 514.572C357.626 514.092 358.445 513.427 359.036 512.578C359.627 511.728 359.916 510.75 359.904 509.642C359.916 508.497 359.621 507.487 359.018 506.613C358.414 505.739 357.54 505.056 356.395 504.564C355.263 504.071 353.896 503.825 352.296 503.825H348.954V498.544H352.296C353.613 498.544 354.764 498.316 355.749 497.86C356.746 497.405 357.528 496.765 358.094 495.94C358.661 495.103 358.938 494.136 358.925 493.041C358.938 491.97 358.698 491.04 358.205 490.252C357.725 489.452 357.042 488.831 356.155 488.387C355.281 487.944 354.253 487.723 353.072 487.723C351.914 487.723 350.843 487.932 349.858 488.35C348.874 488.769 348.08 489.366 347.476 490.142C346.873 490.905 346.553 491.816 346.516 492.875H339.924C339.973 490.757 340.582 488.898 341.752 487.298C342.934 485.685 344.51 484.43 346.479 483.531C348.449 482.62 350.659 482.164 353.108 482.164C355.632 482.164 357.823 482.638 359.682 483.586C361.554 484.522 363 485.784 364.022 487.372C365.044 488.96 365.555 490.714 365.555 492.635C365.567 494.764 364.939 496.549 363.671 497.99C362.415 499.43 360.766 500.372 358.722 500.815V501.11C361.381 501.48 363.419 502.465 364.834 504.065C366.262 505.653 366.97 507.629 366.958 509.993C366.958 512.11 366.355 514.006 365.148 515.68C363.954 517.342 362.305 518.647 360.199 519.595C358.107 520.543 355.706 521.017 352.998 521.017Z" fill="white"/>
    </g>
    <g id="Top-Right-2">
        <path id="Top-Left-1-Flap" d="M430.5 224L217 440H430L430.5 224Z" fill="#118AB2" stroke="#073E51" stroke-width="2"/>
        <path id="2" d="M336.212 399.5V394.551L349.342 381.68C350.597 380.412 351.644 379.286 352.481 378.301C353.318 377.316 353.946 376.362 354.364 375.439C354.783 374.515 354.992 373.53 354.992 372.484C354.992 371.29 354.721 370.268 354.18 369.419C353.638 368.557 352.893 367.892 351.945 367.424C350.997 366.957 349.92 366.723 348.714 366.723C347.47 366.723 346.381 366.981 345.445 367.498C344.51 368.003 343.783 368.723 343.266 369.659C342.762 370.594 342.509 371.708 342.509 373.001H335.991C335.991 370.6 336.539 368.514 337.634 366.741C338.73 364.968 340.238 363.596 342.158 362.623C344.091 361.651 346.307 361.164 348.806 361.164C351.342 361.164 353.57 361.638 355.491 362.586C357.411 363.534 358.901 364.833 359.96 366.483C361.031 368.132 361.566 370.016 361.566 372.133C361.566 373.549 361.295 374.94 360.754 376.306C360.212 377.673 359.258 379.187 357.891 380.849C356.537 382.511 354.635 384.524 352.185 386.887L345.667 393.517V393.775H362.138V399.5H336.212Z" fill="white"/>
    </g>
    <g id="Top-Right-1">
        <path id="Top-Left-1-Flap_2" d="M217 442L430 223.5H217V442Z" fill="#118AB2" stroke="#073E51" stroke-width="2"/>
    </g>
    <g id="Top-Right-1-Opened">
        <path id="Top-Left-1-Flap-Opened" d="M218 3L431 221.5H218V3Z" fill="#118AB2" stroke="#073E51" stroke-width="2"/>
        <path id="Bottom-Left-2-Flap_2" d="M217 440.5L4 659H217V440.5Z" fill="#06D6A0" stroke="#00664C" stroke-width="2"/>
        <path id="5" d="M136.055 611.017C133.593 611.017 131.39 610.555 129.445 609.632C127.5 608.696 125.955 607.416 124.81 605.791C123.677 604.166 123.074 602.307 123 600.214H129.648C129.771 601.765 130.442 603.033 131.661 604.018C132.879 604.991 134.344 605.477 136.055 605.477C137.397 605.477 138.591 605.169 139.638 604.554C140.684 603.938 141.509 603.082 142.112 601.987C142.715 600.891 143.011 599.642 142.999 598.238C143.011 596.81 142.709 595.542 142.094 594.434C141.478 593.326 140.635 592.458 139.564 591.831C138.493 591.19 137.262 590.87 135.871 590.87C134.738 590.858 133.624 591.067 132.528 591.498C131.433 591.929 130.565 592.495 129.925 593.197L123.739 592.181L125.714 572.681H147.652V578.406H131.384L130.294 588.433H130.516C131.217 587.608 132.208 586.925 133.489 586.383C134.769 585.829 136.172 585.552 137.699 585.552C139.989 585.552 142.032 586.094 143.83 587.177C145.627 588.248 147.043 589.725 148.077 591.609C149.111 593.493 149.628 595.647 149.628 598.072C149.628 600.571 149.049 602.799 147.892 604.757C146.747 606.702 145.153 608.234 143.109 609.355C141.078 610.463 138.727 611.017 136.055 611.017Z" fill="white"/>
    </g>
    <g id="Bottom-Left-6">
        <path id="Bottom-Left-1-Flap_2" d="M3.5 659L216.5 440.5H3.5V659Z" fill="#06D6A0" stroke="#00664C" stroke-width="2"/>
        <path id="6" d="M74.3509 521.017C72.5412 521.004 70.7746 520.69 69.0511 520.075C67.3277 519.447 65.7765 518.431 64.3977 517.028C63.0189 515.612 61.9233 513.735 61.1108 511.396C60.2983 509.045 59.8982 506.133 59.9105 502.662C59.9105 499.424 60.2552 496.537 60.9446 494.001C61.634 491.465 62.625 489.323 63.9176 487.575C65.2102 485.815 66.7675 484.473 68.5895 483.549C70.4238 482.626 72.4735 482.164 74.7386 482.164C77.1146 482.164 79.2197 482.632 81.054 483.568C82.9006 484.503 84.3902 485.784 85.5227 487.409C86.6553 489.021 87.357 490.843 87.6278 492.875H80.8878C80.5431 491.422 79.8352 490.265 78.7642 489.403C77.7055 488.529 76.3636 488.092 74.7386 488.092C72.1165 488.092 70.0975 489.231 68.6818 491.508C67.2784 493.786 66.5705 496.913 66.5582 500.889H66.8168C67.42 499.806 68.2017 498.876 69.1619 498.1C70.1222 497.325 71.2055 496.728 72.4119 496.309C73.6307 495.878 74.9171 495.663 76.2713 495.663C78.4872 495.663 80.4754 496.192 82.2358 497.251C84.0085 498.31 85.4119 499.769 86.446 501.627C87.4801 503.474 87.991 505.591 87.9787 507.98C87.991 510.466 87.4247 512.701 86.2798 514.683C85.1349 516.653 83.5407 518.204 81.4972 519.336C79.4536 520.469 77.0715 521.029 74.3509 521.017ZM74.3139 515.477C75.6558 515.477 76.8561 515.151 77.9148 514.498C78.9735 513.846 79.8106 512.966 80.4261 511.858C81.0417 510.75 81.3433 509.506 81.331 508.127C81.3433 506.773 81.0478 505.548 80.4446 504.453C79.8537 503.357 79.035 502.489 77.9886 501.849C76.9422 501.209 75.7481 500.889 74.4062 500.889C73.4091 500.889 72.4796 501.08 71.6179 501.461C70.7562 501.843 70.0052 502.372 69.3651 503.049C68.7249 503.714 68.2202 504.49 67.8509 505.376C67.4938 506.25 67.3092 507.186 67.2969 508.183C67.3092 509.5 67.617 510.713 68.2202 511.821C68.8234 512.929 69.6544 513.815 70.7131 514.48C71.7718 515.145 72.9721 515.477 74.3139 515.477Z" fill="white"/>
    </g>
    <g id="Top-Left-7">
        <path id="Top-Left-1-Flap_3" d="M3.5 223.5L216.5 442H3.5V223.5Z" fill="#EF476F" stroke="#C2395A" stroke-width="2"/>
        <path id="7" d="M63.486 384.5L79.5698 352.664V352.406H60.9007V346.681H86.6607V352.535L70.5953 384.5H63.486Z" fill="white"/>
    </g>
    <g id="Top-Left-8">
        <path id="Top-Left-1-Flap_4" d="M216 441.5L3 223H216V441.5Z" fill="#EF476F" stroke="#962B44" stroke-width="2"/>
        <path id="8" d="M146.021 318.017C143.276 318.017 140.838 317.555 138.708 316.632C136.591 315.708 134.929 314.447 133.722 312.846C132.528 311.234 131.937 309.405 131.95 307.362C131.937 305.774 132.282 304.315 132.984 302.985C133.686 301.656 134.633 300.548 135.828 299.662C137.034 298.763 138.376 298.19 139.853 297.944V297.686C137.908 297.255 136.332 296.264 135.126 294.713C133.932 293.149 133.341 291.346 133.353 289.302C133.341 287.357 133.883 285.621 134.978 284.095C136.074 282.568 137.576 281.368 139.484 280.494C141.392 279.608 143.571 279.164 146.021 279.164C148.446 279.164 150.606 279.608 152.502 280.494C154.41 281.368 155.912 282.568 157.008 284.095C158.116 285.621 158.67 287.357 158.67 289.302C158.67 291.346 158.061 293.149 156.842 294.713C155.635 296.264 154.078 297.255 152.17 297.686V297.944C153.647 298.19 154.977 298.763 156.159 299.662C157.353 300.548 158.301 301.656 159.002 302.985C159.716 304.315 160.073 305.774 160.073 307.362C160.073 309.405 159.47 311.234 158.264 312.846C157.057 314.447 155.395 315.708 153.278 316.632C151.173 317.555 148.754 318.017 146.021 318.017ZM146.021 312.735C147.436 312.735 148.668 312.495 149.714 312.015C150.76 311.523 151.573 310.833 152.151 309.947C152.73 309.061 153.026 308.039 153.038 306.882C153.026 305.675 152.712 304.61 152.096 303.687C151.493 302.752 150.662 302.019 149.603 301.49C148.557 300.96 147.363 300.696 146.021 300.696C144.667 300.696 143.46 300.96 142.401 301.49C141.343 302.019 140.506 302.752 139.89 303.687C139.287 304.61 138.991 305.675 139.004 306.882C138.991 308.039 139.275 309.061 139.853 309.947C140.432 310.821 141.244 311.504 142.291 311.997C143.349 312.489 144.593 312.735 146.021 312.735ZM146.021 295.507C147.178 295.507 148.2 295.273 149.086 294.805C149.985 294.337 150.693 293.685 151.21 292.848C151.727 292.011 151.991 291.044 152.004 289.948C151.991 288.865 151.733 287.917 151.228 287.105C150.723 286.28 150.022 285.646 149.123 285.203C148.224 284.747 147.19 284.52 146.021 284.52C144.827 284.52 143.774 284.747 142.863 285.203C141.964 285.646 141.263 286.28 140.758 287.105C140.266 287.917 140.026 288.865 140.038 289.948C140.026 291.044 140.272 292.011 140.776 292.848C141.294 293.672 142.001 294.325 142.9 294.805C143.811 295.273 144.851 295.507 146.021 295.507Z" fill="white"/>
    </g>
</svg>
