<svg width="434" height="662" viewBox="0 0 434 662" fill="none" xmlns="http://www.w3.org/2000/svg">
<g id="1-Opened">
<g id="Bottom-Right-4">
<path id="Bottom-Left-2-Flap" d="M217 440.5L430 659H217V440.5Z" fill="#FFD166" stroke="#917535" stroke-width="2"/>
<path id="4" d="M266.361 603.483V598.035L282.408 572.681H286.951V580.437H284.181L273.378 597.555V597.85H295.777V603.483H266.361ZM284.402 610.5V601.821L284.476 599.383V572.681H290.939V610.5H284.402Z" fill="white"/>
</g>
<g id="Bottom-Right-3">
<path id="Bottom-Left-1-Flap" d="M429.5 659.5L216.5 441H429.5V659.5Z" fill="#FFD166" stroke="#917535" stroke-width="2"/>
<path id="3" d="M352.998 521.017C350.339 521.017 347.975 520.561 345.907 519.65C343.851 518.739 342.226 517.471 341.032 515.846C339.838 514.221 339.204 512.344 339.13 510.214H346.073C346.135 511.236 346.473 512.128 347.089 512.892C347.704 513.643 348.523 514.227 349.545 514.646C350.566 515.065 351.711 515.274 352.979 515.274C354.333 515.274 355.534 515.04 356.58 514.572C357.626 514.092 358.445 513.427 359.036 512.578C359.627 511.728 359.916 510.75 359.904 509.642C359.916 508.497 359.621 507.487 359.018 506.613C358.414 505.739 357.54 505.056 356.395 504.564C355.263 504.071 353.896 503.825 352.296 503.825H348.954V498.544H352.296C353.613 498.544 354.764 498.316 355.749 497.86C356.746 497.405 357.528 496.765 358.094 495.94C358.661 495.103 358.938 494.136 358.925 493.041C358.938 491.97 358.698 491.04 358.205 490.252C357.725 489.452 357.042 488.831 356.155 488.387C355.281 487.944 354.253 487.723 353.072 487.723C351.914 487.723 350.843 487.932 349.858 488.35C348.874 488.769 348.08 489.366 347.476 490.142C346.873 490.905 346.553 491.816 346.516 492.875H339.924C339.973 490.757 340.582 488.898 341.752 487.298C342.934 485.685 344.51 484.43 346.479 483.531C348.449 482.62 350.659 482.164 353.108 482.164C355.632 482.164 357.823 482.638 359.682 483.586C361.554 484.522 363 485.784 364.022 487.372C365.044 488.96 365.555 490.714 365.555 492.635C365.567 494.764 364.939 496.549 363.671 497.99C362.415 499.43 360.766 500.372 358.722 500.815V501.11C361.381 501.48 363.419 502.465 364.834 504.065C366.262 505.653 366.97 507.629 366.958 509.993C366.958 512.11 366.355 514.006 365.148 515.68C363.954 517.342 362.305 518.647 360.199 519.595C358.107 520.543 355.706 521.017 352.998 521.017Z" fill="white"/>
</g>
<g id="Top-Right-2">
<path id="Top-Left-1-Flap" d="M430.5 224L217 440H430L430.5 224Z" fill="#118AB2" stroke="#073E51" stroke-width="2"/>
<path id="2" d="M336.212 399.5V394.551L349.342 381.68C350.597 380.412 351.644 379.286 352.481 378.301C353.318 377.316 353.946 376.362 354.364 375.439C354.783 374.515 354.992 373.53 354.992 372.484C354.992 371.29 354.721 370.268 354.18 369.419C353.638 368.557 352.893 367.892 351.945 367.424C350.997 366.957 349.92 366.723 348.714 366.723C347.47 366.723 346.381 366.981 345.445 367.498C344.51 368.003 343.783 368.723 343.266 369.659C342.762 370.594 342.509 371.708 342.509 373.001H335.991C335.991 370.6 336.539 368.514 337.634 366.741C338.73 364.968 340.238 363.596 342.158 362.623C344.091 361.651 346.307 361.164 348.806 361.164C351.342 361.164 353.57 361.638 355.491 362.586C357.411 363.534 358.901 364.833 359.96 366.483C361.031 368.132 361.566 370.016 361.566 372.133C361.566 373.549 361.295 374.94 360.754 376.306C360.212 377.673 359.258 379.187 357.891 380.849C356.537 382.511 354.635 384.524 352.185 386.887L345.667 393.517V393.775H362.138V399.5H336.212Z" fill="white"/>
</g>
<g id="Top-Right-1">
<path id="Top-Left-1-Flap_2" d="M217 442L430 223.5H217V442Z" fill="#118AB2" stroke="#073E51" stroke-width="2"/>
</g>
<g id="Top-Right-1-Opened">
<path id="Top-Left-1-Flap-Opened" d="M218 3L431 221.5H218V3Z" fill="#118AB2" stroke="#073E51" stroke-width="2"/>
<path id="Don&#226;&#128;&#153;t count on it" d="M251.808 150H248.851V141.273H251.868C252.735 141.273 253.479 141.447 254.101 141.797C254.726 142.143 255.206 142.642 255.541 143.293C255.877 143.943 256.044 144.722 256.044 145.628C256.044 146.537 255.875 147.318 255.537 147.972C255.202 148.625 254.718 149.126 254.084 149.476C253.453 149.825 252.695 150 251.808 150ZM250.432 148.632H251.732C252.34 148.632 252.847 148.521 253.253 148.3C253.659 148.075 253.965 147.741 254.169 147.298C254.374 146.852 254.476 146.295 254.476 145.628C254.476 144.96 254.374 144.406 254.169 143.966C253.965 143.523 253.662 143.192 253.262 142.973C252.864 142.751 252.369 142.641 251.779 142.641H250.432V148.632ZM260.333 150.128C259.694 150.128 259.14 149.987 258.671 149.706C258.203 149.425 257.839 149.031 257.58 148.526C257.325 148.02 257.197 147.429 257.197 146.753C257.197 146.077 257.325 145.484 257.58 144.976C257.839 144.467 258.203 144.072 258.671 143.791C259.14 143.51 259.694 143.369 260.333 143.369C260.972 143.369 261.526 143.51 261.995 143.791C262.464 144.072 262.826 144.467 263.082 144.976C263.34 145.484 263.47 146.077 263.47 146.753C263.47 147.429 263.34 148.02 263.082 148.526C262.826 149.031 262.464 149.425 261.995 149.706C261.526 149.987 260.972 150.128 260.333 150.128ZM260.342 148.892C260.688 148.892 260.978 148.797 261.211 148.607C261.444 148.413 261.617 148.155 261.731 147.831C261.847 147.507 261.906 147.146 261.906 146.749C261.906 146.348 261.847 145.986 261.731 145.662C261.617 145.335 261.444 145.075 261.211 144.882C260.978 144.689 260.688 144.592 260.342 144.592C259.987 144.592 259.691 144.689 259.455 144.882C259.222 145.075 259.048 145.335 258.931 145.662C258.818 145.986 258.761 146.348 258.761 146.749C258.761 147.146 258.818 147.507 258.931 147.831C259.048 148.155 259.222 148.413 259.455 148.607C259.691 148.797 259.987 148.892 260.342 148.892ZM266.322 146.165V150H264.779V143.455H266.253V144.567H266.33C266.481 144.2 266.721 143.909 267.05 143.693C267.383 143.477 267.793 143.369 268.282 143.369C268.733 143.369 269.127 143.466 269.462 143.659C269.8 143.852 270.062 144.132 270.246 144.499C270.434 144.865 270.526 145.31 270.523 145.832V150H268.981V146.071C268.981 145.634 268.867 145.291 268.64 145.044C268.415 144.797 268.104 144.673 267.706 144.673C267.437 144.673 267.197 144.733 266.986 144.852C266.779 144.969 266.616 145.138 266.496 145.359C266.38 145.581 266.322 145.849 266.322 146.165ZM273.4 141.273V142.142C273.4 142.392 273.351 142.652 273.255 142.922C273.161 143.189 273.032 143.445 272.867 143.689C272.702 143.93 272.515 144.138 272.305 144.311L271.589 143.847C271.745 143.611 271.881 143.357 271.998 143.084C272.114 142.808 272.172 142.497 272.172 142.151V141.273H273.4ZM278.137 143.455V144.648H274.374V143.455H278.137ZM275.303 141.886H276.846V148.031C276.846 148.239 276.877 148.398 276.94 148.509C277.005 148.616 277.09 148.69 277.195 148.73C277.301 148.77 277.417 148.79 277.545 148.79C277.642 148.79 277.73 148.783 277.809 148.768C277.892 148.754 277.954 148.741 277.997 148.73L278.257 149.936C278.174 149.964 278.056 149.996 277.903 150.03C277.752 150.064 277.568 150.084 277.349 150.089C276.963 150.101 276.615 150.043 276.305 149.915C275.995 149.784 275.749 149.582 275.568 149.31C275.389 149.037 275.301 148.696 275.303 148.287V141.886ZM285.259 150.128C284.606 150.128 284.045 149.984 283.576 149.697C283.11 149.411 282.751 149.014 282.498 148.509C282.248 148 282.123 147.415 282.123 146.753C282.123 146.088 282.251 145.501 282.506 144.993C282.762 144.482 283.123 144.084 283.589 143.8C284.057 143.513 284.611 143.369 285.251 143.369C285.782 143.369 286.252 143.467 286.661 143.663C287.073 143.857 287.401 144.131 287.645 144.486C287.89 144.838 288.029 145.25 288.063 145.722H286.589C286.529 145.406 286.387 145.143 286.162 144.933C285.941 144.72 285.644 144.614 285.272 144.614C284.956 144.614 284.68 144.699 284.441 144.869C284.202 145.037 284.016 145.278 283.883 145.594C283.752 145.909 283.687 146.287 283.687 146.727C283.687 147.173 283.752 147.557 283.883 147.878C284.013 148.196 284.197 148.442 284.432 148.615C284.671 148.786 284.951 148.871 285.272 148.871C285.499 148.871 285.702 148.828 285.881 148.743C286.063 148.655 286.215 148.528 286.337 148.364C286.459 148.199 286.543 147.999 286.589 147.763H288.063C288.026 148.226 287.89 148.636 287.654 148.994C287.418 149.349 287.097 149.628 286.691 149.83C286.285 150.028 285.807 150.128 285.259 150.128ZM292.185 150.128C291.546 150.128 290.992 149.987 290.523 149.706C290.054 149.425 289.691 149.031 289.432 148.526C289.176 148.02 289.048 147.429 289.048 146.753C289.048 146.077 289.176 145.484 289.432 144.976C289.691 144.467 290.054 144.072 290.523 143.791C290.992 143.51 291.546 143.369 292.185 143.369C292.824 143.369 293.378 143.51 293.847 143.791C294.316 144.072 294.678 144.467 294.933 144.976C295.192 145.484 295.321 146.077 295.321 146.753C295.321 147.429 295.192 148.02 294.933 148.526C294.678 149.031 294.316 149.425 293.847 149.706C293.378 149.987 292.824 150.128 292.185 150.128ZM292.193 148.892C292.54 148.892 292.83 148.797 293.063 148.607C293.296 148.413 293.469 148.155 293.583 147.831C293.699 147.507 293.757 147.146 293.757 146.749C293.757 146.348 293.699 145.986 293.583 145.662C293.469 145.335 293.296 145.075 293.063 144.882C292.83 144.689 292.54 144.592 292.193 144.592C291.838 144.592 291.543 144.689 291.307 144.882C291.074 145.075 290.899 145.335 290.783 145.662C290.669 145.986 290.612 146.348 290.612 146.749C290.612 147.146 290.669 147.507 290.783 147.831C290.899 148.155 291.074 148.413 291.307 148.607C291.543 148.797 291.838 148.892 292.193 148.892ZM300.802 147.247V143.455H302.345V150H300.849V148.837H300.781C300.633 149.203 300.39 149.503 300.052 149.736C299.717 149.969 299.304 150.085 298.812 150.085C298.383 150.085 298.004 149.99 297.675 149.8C297.348 149.607 297.092 149.327 296.907 148.96C296.723 148.591 296.631 148.145 296.631 147.622V143.455H298.173V147.384C298.173 147.798 298.287 148.128 298.514 148.372C298.741 148.616 299.04 148.739 299.409 148.739C299.636 148.739 299.856 148.683 300.069 148.572C300.282 148.462 300.457 148.297 300.594 148.078C300.733 147.857 300.802 147.58 300.802 147.247ZM305.474 146.165V150H303.931V143.455H305.406V144.567H305.482C305.633 144.2 305.873 143.909 306.203 143.693C306.535 143.477 306.945 143.369 307.434 143.369C307.886 143.369 308.279 143.466 308.615 143.659C308.953 143.852 309.214 144.132 309.399 144.499C309.586 144.865 309.678 145.31 309.676 145.832V150H308.133V146.071C308.133 145.634 308.019 145.291 307.792 145.044C307.568 144.797 307.257 144.673 306.859 144.673C306.589 144.673 306.349 144.733 306.139 144.852C305.931 144.969 305.768 145.138 305.649 145.359C305.532 145.581 305.474 145.849 305.474 146.165ZM314.512 143.455V144.648H310.749V143.455H314.512ZM311.678 141.886H313.221V148.031C313.221 148.239 313.252 148.398 313.315 148.509C313.38 148.616 313.465 148.69 313.57 148.73C313.676 148.77 313.792 148.79 313.92 148.79C314.017 148.79 314.105 148.783 314.184 148.768C314.267 148.754 314.329 148.741 314.372 148.73L314.632 149.936C314.549 149.964 314.431 149.996 314.278 150.03C314.127 150.064 313.943 150.084 313.724 150.089C313.338 150.101 312.99 150.043 312.68 149.915C312.37 149.784 312.124 149.582 311.943 149.31C311.764 149.037 311.676 148.696 311.678 148.287V141.886ZM272.509 165.128C271.87 165.128 271.316 164.987 270.847 164.706C270.378 164.425 270.015 164.031 269.756 163.526C269.501 163.02 269.373 162.429 269.373 161.753C269.373 161.077 269.501 160.484 269.756 159.976C270.015 159.467 270.378 159.072 270.847 158.791C271.316 158.51 271.87 158.369 272.509 158.369C273.148 158.369 273.702 158.51 274.171 158.791C274.64 159.072 275.002 159.467 275.258 159.976C275.516 160.484 275.645 161.077 275.645 161.753C275.645 162.429 275.516 163.02 275.258 163.526C275.002 164.031 274.64 164.425 274.171 164.706C273.702 164.987 273.148 165.128 272.509 165.128ZM272.518 163.892C272.864 163.892 273.154 163.797 273.387 163.607C273.62 163.413 273.793 163.155 273.907 162.831C274.023 162.507 274.081 162.146 274.081 161.749C274.081 161.348 274.023 160.986 273.907 160.662C273.793 160.335 273.62 160.075 273.387 159.882C273.154 159.689 272.864 159.592 272.518 159.592C272.162 159.592 271.867 159.689 271.631 159.882C271.398 160.075 271.224 160.335 271.107 160.662C270.993 160.986 270.937 161.348 270.937 161.749C270.937 162.146 270.993 162.507 271.107 162.831C271.224 163.155 271.398 163.413 271.631 163.607C271.867 163.797 272.162 163.892 272.518 163.892ZM278.497 161.165V165H276.955V158.455H278.429V159.567H278.506C278.656 159.2 278.896 158.909 279.226 158.693C279.558 158.477 279.969 158.369 280.458 158.369C280.909 158.369 281.303 158.466 281.638 158.659C281.976 158.852 282.237 159.132 282.422 159.499C282.61 159.865 282.702 160.31 282.699 160.832V165H281.156V161.071C281.156 160.634 281.043 160.291 280.816 160.044C280.591 159.797 280.28 159.673 279.882 159.673C279.612 159.673 279.372 159.733 279.162 159.852C278.955 159.969 278.791 160.138 278.672 160.359C278.556 160.581 278.497 160.849 278.497 161.165ZM287.244 165V158.455H288.786V165H287.244ZM288.019 157.526C287.775 157.526 287.565 157.445 287.389 157.283C287.213 157.118 287.124 156.92 287.124 156.69C287.124 156.457 287.213 156.26 287.389 156.098C287.565 155.933 287.775 155.851 288.019 155.851C288.267 155.851 288.477 155.933 288.65 156.098C288.826 156.26 288.914 156.457 288.914 156.69C288.914 156.92 288.826 157.118 288.65 157.283C288.477 157.445 288.267 157.526 288.019 157.526ZM293.641 158.455V159.648H289.878V158.455H293.641ZM290.807 156.886H292.35V163.031C292.35 163.239 292.381 163.398 292.444 163.509C292.509 163.616 292.594 163.69 292.699 163.73C292.805 163.77 292.921 163.79 293.049 163.79C293.145 163.79 293.233 163.783 293.313 163.768C293.395 163.754 293.458 163.741 293.501 163.73L293.76 164.936C293.678 164.964 293.56 164.996 293.407 165.03C293.256 165.064 293.072 165.084 292.853 165.089C292.466 165.101 292.118 165.043 291.809 164.915C291.499 164.784 291.253 164.582 291.072 164.31C290.893 164.037 290.805 163.696 290.807 163.287V156.886Z" fill="white"/>
</g>
<g id="Bottom-Left-5">
<path id="Bottom-Left-2-Flap_2" d="M217 440.5L4 659H217V440.5Z" fill="#06D6A0" stroke="#00664C" stroke-width="2"/>
<path id="5" d="M136.055 611.017C133.593 611.017 131.39 610.555 129.445 609.632C127.5 608.696 125.955 607.416 124.81 605.791C123.677 604.166 123.074 602.307 123 600.214H129.648C129.771 601.765 130.442 603.033 131.661 604.018C132.879 604.991 134.344 605.477 136.055 605.477C137.397 605.477 138.591 605.169 139.638 604.554C140.684 603.938 141.509 603.082 142.112 601.987C142.715 600.891 143.011 599.642 142.999 598.238C143.011 596.81 142.709 595.542 142.094 594.434C141.478 593.326 140.635 592.458 139.564 591.831C138.493 591.19 137.262 590.87 135.871 590.87C134.738 590.858 133.624 591.067 132.528 591.498C131.433 591.929 130.565 592.495 129.925 593.197L123.739 592.181L125.714 572.681H147.652V578.406H131.384L130.294 588.433H130.516C131.217 587.608 132.208 586.925 133.489 586.383C134.769 585.829 136.172 585.552 137.699 585.552C139.989 585.552 142.032 586.094 143.83 587.177C145.627 588.248 147.043 589.725 148.077 591.609C149.111 593.493 149.628 595.647 149.628 598.072C149.628 600.571 149.049 602.799 147.892 604.757C146.747 606.702 145.153 608.234 143.109 609.355C141.078 610.463 138.727 611.017 136.055 611.017Z" fill="white"/>
</g>
<g id="Bottom-Left-6">
<path id="Bottom-Left-1-Flap_2" d="M3.5 659L216.5 440.5H3.5V659Z" fill="#06D6A0" stroke="#00664C" stroke-width="2"/>
<path id="6" d="M74.3509 521.017C72.5412 521.004 70.7746 520.69 69.0511 520.075C67.3277 519.447 65.7765 518.431 64.3977 517.028C63.0189 515.612 61.9233 513.735 61.1108 511.396C60.2983 509.045 59.8982 506.133 59.9105 502.662C59.9105 499.424 60.2552 496.537 60.9446 494.001C61.634 491.465 62.625 489.323 63.9176 487.575C65.2102 485.815 66.7675 484.473 68.5895 483.549C70.4238 482.626 72.4735 482.164 74.7386 482.164C77.1146 482.164 79.2197 482.632 81.054 483.568C82.9006 484.503 84.3902 485.784 85.5227 487.409C86.6553 489.021 87.357 490.843 87.6278 492.875H80.8878C80.5431 491.422 79.8352 490.265 78.7642 489.403C77.7055 488.529 76.3636 488.092 74.7386 488.092C72.1165 488.092 70.0975 489.231 68.6818 491.508C67.2784 493.786 66.5705 496.913 66.5582 500.889H66.8168C67.42 499.806 68.2017 498.876 69.1619 498.1C70.1222 497.325 71.2055 496.728 72.4119 496.309C73.6307 495.878 74.9171 495.663 76.2713 495.663C78.4872 495.663 80.4754 496.192 82.2358 497.251C84.0085 498.31 85.4119 499.769 86.446 501.627C87.4801 503.474 87.991 505.591 87.9787 507.98C87.991 510.466 87.4247 512.701 86.2798 514.683C85.1349 516.653 83.5407 518.204 81.4972 519.336C79.4536 520.469 77.0715 521.029 74.3509 521.017ZM74.3139 515.477C75.6558 515.477 76.8561 515.151 77.9148 514.498C78.9735 513.846 79.8106 512.966 80.4261 511.858C81.0417 510.75 81.3433 509.506 81.331 508.127C81.3433 506.773 81.0478 505.548 80.4446 504.453C79.8537 503.357 79.035 502.489 77.9886 501.849C76.9422 501.209 75.7481 500.889 74.4062 500.889C73.4091 500.889 72.4796 501.08 71.6179 501.461C70.7562 501.843 70.0052 502.372 69.3651 503.049C68.7249 503.714 68.2202 504.49 67.8509 505.376C67.4938 506.25 67.3092 507.186 67.2969 508.183C67.3092 509.5 67.617 510.713 68.2202 511.821C68.8234 512.929 69.6544 513.815 70.7131 514.48C71.7718 515.145 72.9721 515.477 74.3139 515.477Z" fill="white"/>
</g>
<g id="Top-Left-7">
<path id="Top-Left-1-Flap_3" d="M3.5 223.5L216.5 442H3.5V223.5Z" fill="#EF476F" stroke="#C2395A" stroke-width="2"/>
<path id="7" d="M63.486 384.5L79.5698 352.664V352.406H60.9007V346.681H86.6607V352.535L70.5953 384.5H63.486Z" fill="white"/>
</g>
<g id="Top-Left-8">
<path id="Top-Left-1-Flap_4" d="M216 441.5L3 223H216V441.5Z" fill="#EF476F" stroke="#962B44" stroke-width="2"/>
<path id="8" d="M146.021 318.017C143.276 318.017 140.838 317.555 138.708 316.632C136.591 315.708 134.929 314.447 133.722 312.846C132.528 311.234 131.937 309.405 131.95 307.362C131.937 305.774 132.282 304.315 132.984 302.985C133.686 301.656 134.633 300.548 135.828 299.662C137.034 298.763 138.376 298.19 139.853 297.944V297.686C137.908 297.255 136.332 296.264 135.126 294.713C133.932 293.149 133.341 291.346 133.353 289.302C133.341 287.357 133.883 285.621 134.978 284.095C136.074 282.568 137.576 281.368 139.484 280.494C141.392 279.608 143.571 279.164 146.021 279.164C148.446 279.164 150.606 279.608 152.502 280.494C154.41 281.368 155.912 282.568 157.008 284.095C158.116 285.621 158.67 287.357 158.67 289.302C158.67 291.346 158.061 293.149 156.842 294.713C155.635 296.264 154.078 297.255 152.17 297.686V297.944C153.647 298.19 154.977 298.763 156.159 299.662C157.353 300.548 158.301 301.656 159.002 302.985C159.716 304.315 160.073 305.774 160.073 307.362C160.073 309.405 159.47 311.234 158.264 312.846C157.057 314.447 155.395 315.708 153.278 316.632C151.173 317.555 148.754 318.017 146.021 318.017ZM146.021 312.735C147.436 312.735 148.668 312.495 149.714 312.015C150.76 311.523 151.573 310.833 152.151 309.947C152.73 309.061 153.026 308.039 153.038 306.882C153.026 305.675 152.712 304.61 152.096 303.687C151.493 302.752 150.662 302.019 149.603 301.49C148.557 300.96 147.363 300.696 146.021 300.696C144.667 300.696 143.46 300.96 142.401 301.49C141.343 302.019 140.506 302.752 139.89 303.687C139.287 304.61 138.991 305.675 139.004 306.882C138.991 308.039 139.275 309.061 139.853 309.947C140.432 310.821 141.244 311.504 142.291 311.997C143.349 312.489 144.593 312.735 146.021 312.735ZM146.021 295.507C147.178 295.507 148.2 295.273 149.086 294.805C149.985 294.337 150.693 293.685 151.21 292.848C151.727 292.011 151.991 291.044 152.004 289.948C151.991 288.865 151.733 287.917 151.228 287.105C150.723 286.28 150.022 285.646 149.123 285.203C148.224 284.747 147.19 284.52 146.021 284.52C144.827 284.52 143.774 284.747 142.863 285.203C141.964 285.646 141.263 286.28 140.758 287.105C140.266 287.917 140.026 288.865 140.038 289.948C140.026 291.044 140.272 292.011 140.776 292.848C141.294 293.672 142.001 294.325 142.9 294.805C143.811 295.273 144.851 295.507 146.021 295.507Z" fill="white"/>
</g>
</g>
</svg>
