<svg width="434" height="662" viewBox="0 0 434 662" fill="none" xmlns="http://www.w3.org/2000/svg">
<g id="1-Opened">
<g id="Bottom-Right-4">
<path id="Bottom-Left-2-Flap" d="M217 440.5L430 659H217V440.5Z" fill="#FFD166" stroke="#917535" stroke-width="2"/>
<text id="4" fill="white" xml:space="preserve" style="white-space: pre" font-family="Inter" font-size="52" font-weight="600" letter-spacing="0em"><tspan x="263.684" y="610.909">4</tspan></text>
</g>
<g id="Bottom-Right-3">
<path id="Bottom-Left-1-Flap" d="M429.5 659.5L216.5 441H429.5V659.5Z" fill="#FFD166" stroke="#917535" stroke-width="2"/>
<text id="3" fill="white" xml:space="preserve" style="white-space: pre" font-family="Inter" font-size="52" font-weight="600" letter-spacing="0em"><tspan x="336.064" y="520.909">3</tspan></text>
</g>
<g id="Top-Right-2">
<path id="Top-Left-1-Flap" d="M430.5 224L217 440H430L430.5 224Z" fill="#118AB2" stroke="#073E51" stroke-width="2"/>
<text id="2" fill="white" xml:space="preserve" style="white-space: pre" font-family="Inter" font-size="52" font-weight="600" letter-spacing="0em"><tspan x="332.852" y="399.909">2</tspan></text>
</g>
<g id="Top-Right-1">
<path id="Top-Left-1-Flap_2" d="M217 442L430 223.5H217V442Z" fill="#118AB2" stroke="#073E51" stroke-width="2"/>
</g>
<g id="Top-Right-1-Opened">
<path id="Top-Left-1-Flap-Opened" d="M218 3L431 221.5H218V3Z" fill="#118AB2" stroke="#073E51" stroke-width="2"/>
</g>
<g id="Bottom-Left-5">
<path id="Bottom-Left-2-Flap_2" d="M217 440.5L4 659H217V440.5Z" fill="#06D6A0" stroke="#00664C" stroke-width="2"/>
<text id="5" fill="white" xml:space="preserve" style="white-space: pre" font-family="Inter" font-size="52" font-weight="600" letter-spacing="0em"><tspan x="119.547" y="610.909">5</tspan></text>
</g>
<g id="Bottom-Left-6">
<path id="Bottom-Left-1-Flap_2" d="M3.5 659L216.5 440.5H3.5V659Z" fill="#06D6A0" stroke="#00664C" stroke-width="2"/>
<text id="6" fill="white" xml:space="preserve" style="white-space: pre" font-family="Inter" font-size="52" font-weight="600" letter-spacing="0em"><tspan x="57.1406" y="520.909">6</tspan></text>
</g>
<g id="Top-Left-7">
<path id="Top-Left-1-Flap_3" d="M3.5 223.5L216.5 442H3.5V223.5Z" fill="#EF476F" stroke="#C2395A" stroke-width="2"/>
<text id="7" fill="white" xml:space="preserve" style="white-space: pre" font-family="Inter" font-size="52" font-weight="600" letter-spacing="0em"><tspan x="58.7402" y="384.909">7</tspan></text>
</g>
<g id="Top-Left-8">
<path id="Top-Left-1-Flap_4" d="M216 441.5L3 223H216V441.5Z" fill="#EF476F" stroke="#962B44" stroke-width="2"/>
<text id="8" fill="white" xml:space="preserve" style="white-space: pre" font-family="Inter" font-size="52" font-weight="600" letter-spacing="0em"><tspan x="129.217" y="317.909">8</tspan></text>
</g>
</g>
</svg>
