<svg width="647" height="441" viewBox="0 0 647 441" fill="none" xmlns="http://www.w3.org/2000/svg">
    <g id="Bottom-Right-4">
        <path id="Bottom-Left-2-Flap" d="M217 219.5L430 438H217V219.5Z" fill="#FFD166" stroke="#917535" stroke-width="2"/>
        <path id="4" d="M266.361 382.483V377.035L282.408 351.681H286.951V359.437H284.181L273.378 376.555V376.85H295.777V382.483H266.361ZM284.402 389.5V380.821L284.476 378.383V351.681H290.939V389.5H284.402Z" fill="white"/>
    </g>
    <g id="Bottom-Right-3">
        <path id="Bottom-Left-1-Flap" d="M429.5 438.5L216.5 220H429.5V438.5Z" fill="#FFD166" stroke="#917535" stroke-width="2"/>
        <path id="3" d="M352.998 300.017C350.339 300.017 347.975 299.561 345.907 298.65C343.851 297.739 342.226 296.471 341.032 294.846C339.838 293.221 339.204 291.344 339.13 289.214H346.073C346.135 290.236 346.473 291.128 347.089 291.892C347.704 292.643 348.523 293.227 349.545 293.646C350.566 294.065 351.711 294.274 352.979 294.274C354.333 294.274 355.534 294.04 356.58 293.572C357.626 293.092 358.445 292.427 359.036 291.578C359.627 290.728 359.916 289.75 359.904 288.642C359.916 287.497 359.621 286.487 359.018 285.613C358.414 284.739 357.54 284.056 356.395 283.564C355.263 283.071 353.896 282.825 352.296 282.825H348.954V277.544H352.296C353.613 277.544 354.764 277.316 355.749 276.86C356.746 276.405 357.528 275.765 358.094 274.94C358.661 274.103 358.938 273.136 358.925 272.041C358.938 270.97 358.698 270.04 358.205 269.252C357.725 268.452 357.042 267.831 356.155 267.387C355.281 266.944 354.253 266.723 353.072 266.723C351.914 266.723 350.843 266.932 349.858 267.35C348.874 267.769 348.08 268.366 347.476 269.142C346.873 269.905 346.553 270.816 346.516 271.875H339.924C339.973 269.757 340.582 267.898 341.752 266.298C342.934 264.685 344.51 263.43 346.479 262.531C348.449 261.62 350.659 261.164 353.108 261.164C355.632 261.164 357.823 261.638 359.682 262.586C361.554 263.522 363 264.784 364.022 266.372C365.044 267.96 365.555 269.714 365.555 271.635C365.567 273.764 364.939 275.549 363.671 276.99C362.415 278.43 360.766 279.372 358.722 279.815V280.11C361.381 280.48 363.419 281.465 364.834 283.065C366.262 284.653 366.97 286.629 366.958 288.993C366.958 291.11 366.355 293.006 365.148 294.68C363.954 296.342 362.305 297.647 360.199 298.595C358.107 299.543 355.706 300.017 352.998 300.017Z" fill="white"/>
    </g>
    <g id="Top-Right-2">
        <path id="Top-Left-1-Flap" d="M430.5 2.99963L217 219H430L430.5 2.99963Z" fill="#118AB2" stroke="#073E51" stroke-width="2"/>
        <path id="Top-Left-1-Flap-Open" d="M431 4L644.5 220H431.5L431 4Z" fill="#118AB2" stroke="#073E51" stroke-width="2"/>
        <path id="Don&#226;&#128;&#153;t count on it" d="M463.808 146H460.851V137.273H463.868C464.735 137.273 465.479 137.447 466.101 137.797C466.726 138.143 467.206 138.642 467.541 139.293C467.877 139.943 468.044 140.722 468.044 141.628C468.044 142.537 467.875 143.318 467.537 143.972C467.202 144.625 466.718 145.126 466.084 145.476C465.453 145.825 464.695 146 463.808 146ZM462.432 144.632H463.732C464.34 144.632 464.847 144.521 465.253 144.3C465.659 144.075 465.965 143.741 466.169 143.298C466.374 142.852 466.476 142.295 466.476 141.628C466.476 140.96 466.374 140.406 466.169 139.966C465.965 139.523 465.662 139.192 465.262 138.973C464.864 138.751 464.369 138.641 463.779 138.641H462.432V144.632ZM472.333 146.128C471.694 146.128 471.14 145.987 470.671 145.706C470.203 145.425 469.839 145.031 469.58 144.526C469.325 144.02 469.197 143.429 469.197 142.753C469.197 142.077 469.325 141.484 469.58 140.976C469.839 140.467 470.203 140.072 470.671 139.791C471.14 139.51 471.694 139.369 472.333 139.369C472.972 139.369 473.526 139.51 473.995 139.791C474.464 140.072 474.826 140.467 475.082 140.976C475.34 141.484 475.47 142.077 475.47 142.753C475.47 143.429 475.34 144.02 475.082 144.526C474.826 145.031 474.464 145.425 473.995 145.706C473.526 145.987 472.972 146.128 472.333 146.128ZM472.342 144.892C472.688 144.892 472.978 144.797 473.211 144.607C473.444 144.413 473.617 144.155 473.731 143.831C473.847 143.507 473.906 143.146 473.906 142.749C473.906 142.348 473.847 141.986 473.731 141.662C473.617 141.335 473.444 141.075 473.211 140.882C472.978 140.689 472.688 140.592 472.342 140.592C471.987 140.592 471.691 140.689 471.455 140.882C471.222 141.075 471.048 141.335 470.931 141.662C470.818 141.986 470.761 142.348 470.761 142.749C470.761 143.146 470.818 143.507 470.931 143.831C471.048 144.155 471.222 144.413 471.455 144.607C471.691 144.797 471.987 144.892 472.342 144.892ZM478.322 142.165V146H476.779V139.455H478.253V140.567H478.33C478.481 140.2 478.721 139.909 479.05 139.693C479.383 139.477 479.793 139.369 480.282 139.369C480.733 139.369 481.127 139.466 481.462 139.659C481.8 139.852 482.062 140.132 482.246 140.499C482.434 140.865 482.526 141.31 482.523 141.832V146H480.981V142.071C480.981 141.634 480.867 141.291 480.64 141.044C480.415 140.797 480.104 140.673 479.706 140.673C479.437 140.673 479.197 140.733 478.986 140.852C478.779 140.969 478.616 141.138 478.496 141.359C478.38 141.581 478.322 141.849 478.322 142.165ZM485.4 137.273V138.142C485.4 138.392 485.351 138.652 485.255 138.922C485.161 139.189 485.032 139.445 484.867 139.689C484.702 139.93 484.515 140.138 484.305 140.311L483.589 139.847C483.745 139.611 483.881 139.357 483.998 139.084C484.114 138.808 484.172 138.497 484.172 138.151V137.273H485.4ZM490.137 139.455V140.648H486.374V139.455H490.137ZM487.303 137.886H488.846V144.031C488.846 144.239 488.877 144.398 488.94 144.509C489.005 144.616 489.09 144.69 489.195 144.73C489.301 144.77 489.417 144.79 489.545 144.79C489.642 144.79 489.73 144.783 489.809 144.768C489.892 144.754 489.954 144.741 489.997 144.73L490.257 145.936C490.174 145.964 490.056 145.996 489.903 146.03C489.752 146.064 489.568 146.084 489.349 146.089C488.963 146.101 488.615 146.043 488.305 145.915C487.995 145.784 487.749 145.582 487.568 145.31C487.389 145.037 487.301 144.696 487.303 144.287V137.886ZM497.259 146.128C496.606 146.128 496.045 145.984 495.576 145.697C495.11 145.411 494.751 145.014 494.498 144.509C494.248 144 494.123 143.415 494.123 142.753C494.123 142.088 494.251 141.501 494.506 140.993C494.762 140.482 495.123 140.084 495.589 139.8C496.057 139.513 496.611 139.369 497.251 139.369C497.782 139.369 498.252 139.467 498.661 139.663C499.073 139.857 499.401 140.131 499.645 140.486C499.89 140.838 500.029 141.25 500.063 141.722H498.589C498.529 141.406 498.387 141.143 498.162 140.933C497.941 140.72 497.644 140.614 497.272 140.614C496.956 140.614 496.68 140.699 496.441 140.869C496.202 141.037 496.016 141.278 495.883 141.594C495.752 141.909 495.687 142.287 495.687 142.727C495.687 143.173 495.752 143.557 495.883 143.878C496.013 144.196 496.197 144.442 496.432 144.615C496.671 144.786 496.951 144.871 497.272 144.871C497.499 144.871 497.702 144.828 497.881 144.743C498.063 144.655 498.215 144.528 498.337 144.364C498.459 144.199 498.543 143.999 498.589 143.763H500.063C500.026 144.226 499.89 144.636 499.654 144.994C499.418 145.349 499.097 145.628 498.691 145.83C498.285 146.028 497.807 146.128 497.259 146.128ZM504.185 146.128C503.546 146.128 502.992 145.987 502.523 145.706C502.054 145.425 501.691 145.031 501.432 144.526C501.176 144.02 501.048 143.429 501.048 142.753C501.048 142.077 501.176 141.484 501.432 140.976C501.691 140.467 502.054 140.072 502.523 139.791C502.992 139.51 503.546 139.369 504.185 139.369C504.824 139.369 505.378 139.51 505.847 139.791C506.316 140.072 506.678 140.467 506.933 140.976C507.192 141.484 507.321 142.077 507.321 142.753C507.321 143.429 507.192 144.02 506.933 144.526C506.678 145.031 506.316 145.425 505.847 145.706C505.378 145.987 504.824 146.128 504.185 146.128ZM504.193 144.892C504.54 144.892 504.83 144.797 505.063 144.607C505.296 144.413 505.469 144.155 505.583 143.831C505.699 143.507 505.757 143.146 505.757 142.749C505.757 142.348 505.699 141.986 505.583 141.662C505.469 141.335 505.296 141.075 505.063 140.882C504.83 140.689 504.54 140.592 504.193 140.592C503.838 140.592 503.543 140.689 503.307 140.882C503.074 141.075 502.899 141.335 502.783 141.662C502.669 141.986 502.612 142.348 502.612 142.749C502.612 143.146 502.669 143.507 502.783 143.831C502.899 144.155 503.074 144.413 503.307 144.607C503.543 144.797 503.838 144.892 504.193 144.892ZM512.802 143.247V139.455H514.345V146H512.849V144.837H512.781C512.633 145.203 512.39 145.503 512.052 145.736C511.717 145.969 511.304 146.085 510.812 146.085C510.383 146.085 510.004 145.99 509.675 145.8C509.348 145.607 509.092 145.327 508.907 144.96C508.723 144.591 508.631 144.145 508.631 143.622V139.455H510.173V143.384C510.173 143.798 510.287 144.128 510.514 144.372C510.741 144.616 511.04 144.739 511.409 144.739C511.636 144.739 511.856 144.683 512.069 144.572C512.282 144.462 512.457 144.297 512.594 144.078C512.733 143.857 512.802 143.58 512.802 143.247ZM517.474 142.165V146H515.931V139.455H517.406V140.567H517.482C517.633 140.2 517.873 139.909 518.203 139.693C518.535 139.477 518.945 139.369 519.434 139.369C519.886 139.369 520.279 139.466 520.615 139.659C520.953 139.852 521.214 140.132 521.399 140.499C521.586 140.865 521.678 141.31 521.676 141.832V146H520.133V142.071C520.133 141.634 520.019 141.291 519.792 141.044C519.568 140.797 519.257 140.673 518.859 140.673C518.589 140.673 518.349 140.733 518.139 140.852C517.931 140.969 517.768 141.138 517.649 141.359C517.532 141.581 517.474 141.849 517.474 142.165ZM526.512 139.455V140.648H522.749V139.455H526.512ZM523.678 137.886H525.221V144.031C525.221 144.239 525.252 144.398 525.315 144.509C525.38 144.616 525.465 144.69 525.57 144.73C525.676 144.77 525.792 144.79 525.92 144.79C526.017 144.79 526.105 144.783 526.184 144.768C526.267 144.754 526.329 144.741 526.372 144.73L526.632 145.936C526.549 145.964 526.431 145.996 526.278 146.03C526.127 146.064 525.943 146.084 525.724 146.089C525.338 146.101 524.99 146.043 524.68 145.915C524.37 145.784 524.124 145.582 523.943 145.31C523.764 145.037 523.676 144.696 523.678 144.287V137.886ZM484.509 161.128C483.87 161.128 483.316 160.987 482.847 160.706C482.378 160.425 482.015 160.031 481.756 159.526C481.501 159.02 481.373 158.429 481.373 157.753C481.373 157.077 481.501 156.484 481.756 155.976C482.015 155.467 482.378 155.072 482.847 154.791C483.316 154.51 483.87 154.369 484.509 154.369C485.148 154.369 485.702 154.51 486.171 154.791C486.64 155.072 487.002 155.467 487.258 155.976C487.516 156.484 487.645 157.077 487.645 157.753C487.645 158.429 487.516 159.02 487.258 159.526C487.002 160.031 486.64 160.425 486.171 160.706C485.702 160.987 485.148 161.128 484.509 161.128ZM484.518 159.892C484.864 159.892 485.154 159.797 485.387 159.607C485.62 159.413 485.793 159.155 485.907 158.831C486.023 158.507 486.081 158.146 486.081 157.749C486.081 157.348 486.023 156.986 485.907 156.662C485.793 156.335 485.62 156.075 485.387 155.882C485.154 155.689 484.864 155.592 484.518 155.592C484.162 155.592 483.867 155.689 483.631 155.882C483.398 156.075 483.224 156.335 483.107 156.662C482.993 156.986 482.937 157.348 482.937 157.749C482.937 158.146 482.993 158.507 483.107 158.831C483.224 159.155 483.398 159.413 483.631 159.607C483.867 159.797 484.162 159.892 484.518 159.892ZM490.497 157.165V161H488.955V154.455H490.429V155.567H490.506C490.656 155.2 490.896 154.909 491.226 154.693C491.558 154.477 491.969 154.369 492.458 154.369C492.909 154.369 493.303 154.466 493.638 154.659C493.976 154.852 494.237 155.132 494.422 155.499C494.61 155.865 494.702 156.31 494.699 156.832V161H493.156V157.071C493.156 156.634 493.043 156.291 492.816 156.044C492.591 155.797 492.28 155.673 491.882 155.673C491.612 155.673 491.372 155.733 491.162 155.852C490.955 155.969 490.791 156.138 490.672 156.359C490.556 156.581 490.497 156.849 490.497 157.165ZM499.244 161V154.455H500.786V161H499.244ZM500.019 153.526C499.775 153.526 499.565 153.445 499.389 153.283C499.213 153.118 499.124 152.92 499.124 152.69C499.124 152.457 499.213 152.26 499.389 152.098C499.565 151.933 499.775 151.851 500.019 151.851C500.267 151.851 500.477 151.933 500.65 152.098C500.826 152.26 500.914 152.457 500.914 152.69C500.914 152.92 500.826 153.118 500.65 153.283C500.477 153.445 500.267 153.526 500.019 153.526ZM505.641 154.455V155.648H501.878V154.455H505.641ZM502.807 152.886H504.35V159.031C504.35 159.239 504.381 159.398 504.444 159.509C504.509 159.616 504.594 159.69 504.699 159.73C504.805 159.77 504.921 159.79 505.049 159.79C505.145 159.79 505.233 159.783 505.313 159.768C505.395 159.754 505.458 159.741 505.501 159.73L505.76 160.936C505.678 160.964 505.56 160.996 505.407 161.03C505.256 161.064 505.072 161.084 504.853 161.089C504.466 161.101 504.118 161.043 503.809 160.915C503.499 160.784 503.253 160.582 503.072 160.31C502.893 160.037 502.805 159.696 502.807 159.287V152.886Z" fill="white"/>
    </g>
    <g id="Top-Right-1">
        <path id="Top-Left-1-Flap_2" d="M217 221L430 2.5H217V221Z" fill="#118AB2" stroke="#073E51" stroke-width="2"/>
        <path id="1" d="M285.251 58.6815V96.4996H278.4V65.3476H278.178L269.333 70.9982V64.7198L278.732 58.6815H285.251Z" fill="white"/>
    </g>
    <g id="Bottom-Left-5">
        <path id="Bottom-Left-2-Flap_2" d="M217 219.5L4 438H217V219.5Z" fill="#06D6A0" stroke="#00664C" stroke-width="2"/>
        <path id="5" d="M136.055 390.017C133.593 390.017 131.39 389.555 129.445 388.632C127.5 387.696 125.955 386.416 124.81 384.791C123.677 383.166 123.074 381.307 123 379.214H129.648C129.771 380.765 130.442 382.033 131.661 383.018C132.879 383.991 134.344 384.477 136.055 384.477C137.397 384.477 138.591 384.169 139.638 383.554C140.684 382.938 141.509 382.082 142.112 380.987C142.715 379.891 143.011 378.642 142.999 377.238C143.011 375.81 142.709 374.542 142.094 373.434C141.478 372.326 140.635 371.458 139.564 370.831C138.493 370.19 137.262 369.87 135.871 369.87C134.738 369.858 133.624 370.067 132.528 370.498C131.433 370.929 130.565 371.495 129.925 372.197L123.739 371.181L125.714 351.681H147.652V357.406H131.384L130.294 367.433H130.516C131.217 366.608 132.208 365.925 133.489 365.383C134.769 364.829 136.172 364.552 137.699 364.552C139.989 364.552 142.032 365.094 143.83 366.177C145.627 367.248 147.043 368.725 148.077 370.609C149.111 372.493 149.628 374.647 149.628 377.072C149.628 379.571 149.049 381.799 147.892 383.757C146.747 385.702 145.153 387.234 143.109 388.355C141.078 389.463 138.727 390.017 136.055 390.017Z" fill="white"/>
    </g>
    <g id="Bottom-Left-6">
        <path id="Bottom-Left-1-Flap_2" d="M3.5 438L216.5 219.5H3.5V438Z" fill="#06D6A0" stroke="#00664C" stroke-width="2"/>
        <path id="6" d="M74.3509 300.017C72.5412 300.004 70.7746 299.69 69.0511 299.075C67.3277 298.447 65.7765 297.431 64.3977 296.028C63.0189 294.612 61.9233 292.735 61.1108 290.396C60.2983 288.045 59.8982 285.133 59.9105 281.662C59.9105 278.424 60.2552 275.537 60.9446 273.001C61.634 270.465 62.625 268.323 63.9176 266.575C65.2102 264.815 66.7675 263.473 68.5895 262.549C70.4238 261.626 72.4735 261.164 74.7386 261.164C77.1146 261.164 79.2197 261.632 81.054 262.568C82.9006 263.503 84.3902 264.784 85.5227 266.409C86.6553 268.021 87.357 269.843 87.6278 271.875H80.8878C80.5431 270.422 79.8352 269.265 78.7642 268.403C77.7055 267.529 76.3636 267.092 74.7386 267.092C72.1165 267.092 70.0975 268.231 68.6818 270.508C67.2784 272.786 66.5705 275.913 66.5582 279.889H66.8168C67.42 278.806 68.2017 277.876 69.1619 277.1C70.1222 276.325 71.2055 275.728 72.4119 275.309C73.6307 274.878 74.9171 274.663 76.2713 274.663C78.4872 274.663 80.4754 275.192 82.2358 276.251C84.0085 277.31 85.4119 278.769 86.446 280.627C87.4801 282.474 87.991 284.591 87.9787 286.98C87.991 289.466 87.4247 291.701 86.2798 293.683C85.1349 295.653 83.5407 297.204 81.4972 298.336C79.4536 299.469 77.0715 300.029 74.3509 300.017ZM74.3139 294.477C75.6558 294.477 76.8561 294.151 77.9148 293.498C78.9735 292.846 79.8106 291.966 80.4261 290.858C81.0417 289.75 81.3433 288.506 81.331 287.127C81.3433 285.773 81.0478 284.548 80.4446 283.453C79.8537 282.357 79.035 281.489 77.9886 280.849C76.9422 280.209 75.7481 279.889 74.4062 279.889C73.4091 279.889 72.4796 280.08 71.6179 280.461C70.7562 280.843 70.0052 281.372 69.3651 282.049C68.7249 282.714 68.2202 283.49 67.8509 284.376C67.4938 285.25 67.3092 286.186 67.2969 287.183C67.3092 288.5 67.617 289.713 68.2202 290.821C68.8234 291.929 69.6544 292.815 70.7131 293.48C71.7718 294.145 72.9721 294.477 74.3139 294.477Z" fill="white"/>
    </g>
    <g id="Top-Left-7">
        <path id="Top-Left-1-Flap_3" d="M3.5 2.5L216.5 221H3.5V2.5Z" fill="#EF476F" stroke="#C2395A" stroke-width="2"/>
        <path id="7" d="M63.486 163.5L79.5698 131.664V131.406H60.9007V125.681H86.6607V131.535L70.5953 163.5H63.486Z" fill="white"/>
    </g>
    <g id="Top-Left-8">
        <path id="Top-Left-1-Flap_4" d="M216 220.5L3 2H216V220.5Z" fill="#EF476F" stroke="#962B44" stroke-width="2"/>
        <path id="8" d="M146.021 97.0167C143.276 97.0167 140.838 96.555 138.708 95.6317C136.591 94.7084 134.929 93.4466 133.722 91.8462C132.528 90.2335 131.937 88.4054 131.95 86.3618C131.937 84.7738 132.282 83.315 132.984 81.9854C133.686 80.6559 134.633 79.5479 135.828 78.6616C137.034 77.7629 138.376 77.1904 139.853 76.9442V76.6857C137.908 76.2548 136.332 75.2638 135.126 73.7127C133.932 72.1493 133.341 70.3457 133.353 68.3022C133.341 66.3571 133.883 64.6213 134.978 63.0948C136.074 61.5683 137.576 60.368 139.484 59.494C141.392 58.6076 143.571 58.1644 146.021 58.1644C148.446 58.1644 150.606 58.6076 152.502 59.494C154.41 60.368 155.912 61.5683 157.008 63.0948C158.116 64.6213 158.67 66.3571 158.67 68.3022C158.67 70.3457 158.061 72.1493 156.842 73.7127C155.635 75.2638 154.078 76.2548 152.17 76.6857V76.9442C153.647 77.1904 154.977 77.7629 156.159 78.6616C157.353 79.5479 158.301 80.6559 159.002 81.9854C159.716 83.315 160.073 84.7738 160.073 86.3618C160.073 88.4054 159.47 90.2335 158.264 91.8462C157.057 93.4466 155.395 94.7084 153.278 95.6317C151.173 96.555 148.754 97.0167 146.021 97.0167ZM146.021 91.7354C147.436 91.7354 148.668 91.4954 149.714 91.0153C150.76 90.5228 151.573 89.8334 152.151 88.9471C152.73 88.0607 153.026 87.0389 153.038 85.8817C153.026 84.6753 152.712 83.6104 152.096 82.6871C151.493 81.7515 150.662 81.019 149.603 80.4897C148.557 79.9603 147.363 79.6957 146.021 79.6957C144.667 79.6957 143.46 79.9603 142.401 80.4897C141.343 81.019 140.506 81.7515 139.89 82.6871C139.287 83.6104 138.991 84.6753 139.004 85.8817C138.991 87.0389 139.275 88.0607 139.853 88.9471C140.432 89.8211 141.244 90.5044 142.291 90.9968C143.349 91.4892 144.593 91.7354 146.021 91.7354ZM146.021 74.5067C147.178 74.5067 148.2 74.2728 149.086 73.805C149.985 73.3372 150.693 72.6848 151.21 71.8476C151.727 71.0105 151.991 70.0441 152.004 68.9485C151.991 67.8652 151.733 66.9172 151.228 66.1047C150.723 65.2799 150.022 64.6459 149.123 64.2028C148.224 63.7473 147.19 63.5195 146.021 63.5195C144.827 63.5195 143.774 63.7473 142.863 64.2028C141.964 64.6459 141.263 65.2799 140.758 66.1047C140.266 66.9172 140.026 67.8652 140.038 68.9485C140.026 70.0441 140.272 71.0105 140.776 71.8476C141.294 72.6725 142.001 73.3249 142.9 73.805C143.811 74.2728 144.851 74.5067 146.021 74.5067Z" fill="white"/>
    </g>
</svg>
