<svg width="647" height="441" viewBox="0 0 647 441" fill="none" xmlns="http://www.w3.org/2000/svg">
    <g id="Bottom-Right-4">
        <path id="Bottom-Left-2-Flap" d="M217 219.5L430 438H217V219.5Z" fill="#FFD166" stroke="#917535" stroke-width="2"/>
        <path id="4" d="M266.361 382.483V377.035L282.408 351.681H286.951V359.437H284.181L273.378 376.555V376.85H295.777V382.483H266.361ZM284.402 389.5V380.821L284.476 378.383V351.681H290.939V389.5H284.402Z" fill="white"/>
    </g>
    <g id="Bottom-Right-3">
        <path id="Bottom-Left-1-Flap" d="M429.5 438.5L216.5 220H429.5V438.5Z" fill="#FFD166" stroke="#917535" stroke-width="2"/>
        <path id="3" d="M352.998 300.017C350.339 300.017 347.975 299.561 345.907 298.65C343.851 297.739 342.226 296.471 341.032 294.846C339.838 293.221 339.204 291.344 339.13 289.214H346.073C346.135 290.236 346.473 291.128 347.089 291.892C347.704 292.643 348.523 293.227 349.545 293.646C350.566 294.065 351.711 294.274 352.979 294.274C354.333 294.274 355.534 294.04 356.58 293.572C357.626 293.092 358.445 292.427 359.036 291.578C359.627 290.728 359.916 289.75 359.904 288.642C359.916 287.497 359.621 286.487 359.018 285.613C358.414 284.739 357.54 284.056 356.395 283.564C355.263 283.071 353.896 282.825 352.296 282.825H348.954V277.544H352.296C353.613 277.544 354.764 277.316 355.749 276.86C356.746 276.405 357.528 275.765 358.094 274.94C358.661 274.103 358.938 273.136 358.925 272.041C358.938 270.97 358.698 270.04 358.205 269.252C357.725 268.452 357.042 267.831 356.155 267.387C355.281 266.944 354.253 266.723 353.072 266.723C351.914 266.723 350.843 266.932 349.858 267.35C348.874 267.769 348.08 268.366 347.476 269.142C346.873 269.905 346.553 270.816 346.516 271.875H339.924C339.973 269.757 340.582 267.898 341.752 266.298C342.934 264.685 344.51 263.43 346.479 262.531C348.449 261.62 350.659 261.164 353.108 261.164C355.632 261.164 357.823 261.638 359.682 262.586C361.554 263.522 363 264.784 364.022 266.372C365.044 267.96 365.555 269.714 365.555 271.635C365.567 273.764 364.939 275.549 363.671 276.99C362.415 278.43 360.766 279.372 358.722 279.815V280.11C361.381 280.48 363.419 281.465 364.834 283.065C366.262 284.653 366.97 286.629 366.958 288.993C366.958 291.11 366.355 293.006 365.148 294.68C363.954 296.342 362.305 297.647 360.199 298.595C358.107 299.543 355.706 300.017 352.998 300.017Z" fill="white"/>
    </g>
    <g id="Top-Right-2">
        <path id="Top-Left-1-Flap" d="M430.5 2.99963L217 219H430L430.5 2.99963Z" fill="#118AB2" stroke="#073E51" stroke-width="2"/>
        <path id="Top-Left-1-Flap-Open" d="M431 4L644.5 220H431.5L431 4Z" fill="#118AB2" stroke="#073E51" stroke-width="2"/>
    </g>
    <g id="Top-Right-1">
        <path id="Top-Left-1-Flap_2" d="M217 221L430 2.5H217V221Z" fill="#118AB2" stroke="#073E51" stroke-width="2"/>
        <path id="1" d="M285.251 58.6815V96.4996H278.4V65.3476H278.178L269.333 70.9982V64.7198L278.732 58.6815H285.251Z" fill="white"/>
    </g>
    <g id="Bottom-Left-5">
        <path id="Bottom-Left-2-Flap_2" d="M217 219.5L4 438H217V219.5Z" fill="#06D6A0" stroke="#00664C" stroke-width="2"/>
        <path id="5" d="M136.055 390.017C133.593 390.017 131.39 389.555 129.445 388.632C127.5 387.696 125.955 386.416 124.81 384.791C123.677 383.166 123.074 381.307 123 379.214H129.648C129.771 380.765 130.442 382.033 131.661 383.018C132.879 383.991 134.344 384.477 136.055 384.477C137.397 384.477 138.591 384.169 139.638 383.554C140.684 382.938 141.509 382.082 142.112 380.987C142.715 379.891 143.011 378.642 142.999 377.238C143.011 375.81 142.709 374.542 142.094 373.434C141.478 372.326 140.635 371.458 139.564 370.831C138.493 370.19 137.262 369.87 135.871 369.87C134.738 369.858 133.624 370.067 132.528 370.498C131.433 370.929 130.565 371.495 129.925 372.197L123.739 371.181L125.714 351.681H147.652V357.406H131.384L130.294 367.433H130.516C131.217 366.608 132.208 365.925 133.489 365.383C134.769 364.829 136.172 364.552 137.699 364.552C139.989 364.552 142.032 365.094 143.83 366.177C145.627 367.248 147.043 368.725 148.077 370.609C149.111 372.493 149.628 374.647 149.628 377.072C149.628 379.571 149.049 381.799 147.892 383.757C146.747 385.702 145.153 387.234 143.109 388.355C141.078 389.463 138.727 390.017 136.055 390.017Z" fill="white"/>
    </g>
    <g id="Bottom-Left-6">
        <path id="Bottom-Left-1-Flap_2" d="M3.5 438L216.5 219.5H3.5V438Z" fill="#06D6A0" stroke="#00664C" stroke-width="2"/>
        <path id="6" d="M74.3509 300.017C72.5412 300.004 70.7746 299.69 69.0511 299.075C67.3277 298.447 65.7765 297.431 64.3977 296.028C63.0189 294.612 61.9233 292.735 61.1108 290.396C60.2983 288.045 59.8982 285.133 59.9105 281.662C59.9105 278.424 60.2552 275.537 60.9446 273.001C61.634 270.465 62.625 268.323 63.9176 266.575C65.2102 264.815 66.7675 263.473 68.5895 262.549C70.4238 261.626 72.4735 261.164 74.7386 261.164C77.1146 261.164 79.2197 261.632 81.054 262.568C82.9006 263.503 84.3902 264.784 85.5227 266.409C86.6553 268.021 87.357 269.843 87.6278 271.875H80.8878C80.5431 270.422 79.8352 269.265 78.7642 268.403C77.7055 267.529 76.3636 267.092 74.7386 267.092C72.1165 267.092 70.0975 268.231 68.6818 270.508C67.2784 272.786 66.5705 275.913 66.5582 279.889H66.8168C67.42 278.806 68.2017 277.876 69.1619 277.1C70.1222 276.325 71.2055 275.728 72.4119 275.309C73.6307 274.878 74.9171 274.663 76.2713 274.663C78.4872 274.663 80.4754 275.192 82.2358 276.251C84.0085 277.31 85.4119 278.769 86.446 280.627C87.4801 282.474 87.991 284.591 87.9787 286.98C87.991 289.466 87.4247 291.701 86.2798 293.683C85.1349 295.653 83.5407 297.204 81.4972 298.336C79.4536 299.469 77.0715 300.029 74.3509 300.017ZM74.3139 294.477C75.6558 294.477 76.8561 294.151 77.9148 293.498C78.9735 292.846 79.8106 291.966 80.4261 290.858C81.0417 289.75 81.3433 288.506 81.331 287.127C81.3433 285.773 81.0478 284.548 80.4446 283.453C79.8537 282.357 79.035 281.489 77.9886 280.849C76.9422 280.209 75.7481 279.889 74.4062 279.889C73.4091 279.889 72.4796 280.08 71.6179 280.461C70.7562 280.843 70.0052 281.372 69.3651 282.049C68.7249 282.714 68.2202 283.49 67.8509 284.376C67.4938 285.25 67.3092 286.186 67.2969 287.183C67.3092 288.5 67.617 289.713 68.2202 290.821C68.8234 291.929 69.6544 292.815 70.7131 293.48C71.7718 294.145 72.9721 294.477 74.3139 294.477Z" fill="white"/>
    </g>
    <g id="Top-Left-7">
        <path id="Top-Left-1-Flap_3" d="M3.5 2.5L216.5 221H3.5V2.5Z" fill="#EF476F" stroke="#C2395A" stroke-width="2"/>
        <path id="7" d="M63.486 163.5L79.5698 131.664V131.406H60.9007V125.681H86.6607V131.535L70.5953 163.5H63.486Z" fill="white"/>
    </g>
    <g id="Top-Left-8">
        <path id="Top-Left-1-Flap_4" d="M216 220.5L3 2H216V220.5Z" fill="#EF476F" stroke="#962B44" stroke-width="2"/>
        <path id="8" d="M146.021 97.0167C143.276 97.0167 140.838 96.555 138.708 95.6317C136.591 94.7084 134.929 93.4466 133.722 91.8462C132.528 90.2335 131.937 88.4054 131.95 86.3618C131.937 84.7738 132.282 83.315 132.984 81.9854C133.686 80.6559 134.633 79.5479 135.828 78.6616C137.034 77.7629 138.376 77.1904 139.853 76.9442V76.6857C137.908 76.2548 136.332 75.2638 135.126 73.7127C133.932 72.1493 133.341 70.3457 133.353 68.3022C133.341 66.3571 133.883 64.6213 134.978 63.0948C136.074 61.5683 137.576 60.368 139.484 59.494C141.392 58.6076 143.571 58.1644 146.021 58.1644C148.446 58.1644 150.606 58.6076 152.502 59.494C154.41 60.368 155.912 61.5683 157.008 63.0948C158.116 64.6213 158.67 66.3571 158.67 68.3022C158.67 70.3457 158.061 72.1493 156.842 73.7127C155.635 75.2638 154.078 76.2548 152.17 76.6857V76.9442C153.647 77.1904 154.977 77.7629 156.159 78.6616C157.353 79.5479 158.301 80.6559 159.002 81.9854C159.716 83.315 160.073 84.7738 160.073 86.3618C160.073 88.4054 159.47 90.2335 158.264 91.8462C157.057 93.4466 155.395 94.7084 153.278 95.6317C151.173 96.555 148.754 97.0167 146.021 97.0167ZM146.021 91.7354C147.436 91.7354 148.668 91.4954 149.714 91.0153C150.76 90.5228 151.573 89.8334 152.151 88.9471C152.73 88.0607 153.026 87.0389 153.038 85.8817C153.026 84.6753 152.712 83.6104 152.096 82.6871C151.493 81.7515 150.662 81.019 149.603 80.4897C148.557 79.9603 147.363 79.6957 146.021 79.6957C144.667 79.6957 143.46 79.9603 142.401 80.4897C141.343 81.019 140.506 81.7515 139.89 82.6871C139.287 83.6104 138.991 84.6753 139.004 85.8817C138.991 87.0389 139.275 88.0607 139.853 88.9471C140.432 89.8211 141.244 90.5044 142.291 90.9968C143.349 91.4892 144.593 91.7354 146.021 91.7354ZM146.021 74.5067C147.178 74.5067 148.2 74.2728 149.086 73.805C149.985 73.3372 150.693 72.6848 151.21 71.8476C151.727 71.0105 151.991 70.0441 152.004 68.9485C151.991 67.8652 151.733 66.9172 151.228 66.1047C150.723 65.2799 150.022 64.6459 149.123 64.2028C148.224 63.7473 147.19 63.5195 146.021 63.5195C144.827 63.5195 143.774 63.7473 142.863 64.2028C141.964 64.6459 141.263 65.2799 140.758 66.1047C140.266 66.9172 140.026 67.8652 140.038 68.9485C140.026 70.0441 140.272 71.0105 140.776 71.8476C141.294 72.6725 142.001 73.3249 142.9 73.805C143.811 74.2728 144.851 74.5067 146.021 74.5067Z" fill="white"/>
    </g>
</svg>
