<svg width="647" height="441" viewBox="0 0 647 441" fill="none" xmlns="http://www.w3.org/2000/svg">
    <g id="Bottom-Right-4">
        <path id="Bottom-Left-2-Flap" d="M217 219.5L430 438H217V219.5Z" fill="#FFD166" stroke="#917535" stroke-width="2"/>
        <path id="4" d="M266.361 382.482V377.035L282.408 351.681H286.951V359.437H284.181L273.378 376.555V376.85H295.777V382.482H266.361ZM284.402 389.5V380.821L284.476 378.383V351.681H290.939V389.5H284.402Z" fill="white"/>
    </g>
    <g id="Bottom-Right-3-Open">
        <path id="Bottom-Left-1-Flap-Open" d="M431 438.5L644 220H431V438.5Z" fill="#FFD166" stroke="#917535" stroke-width="2"/>
    </g>
    <g id="Bottom-Right-3">
        <path id="Bottom-Left-1-Flap" d="M429.5 438.5L216.5 220H429.5V438.5Z" fill="#FFD166" stroke="#917535" stroke-width="2"/>
    </g>
    <g id="Top-Right-2">
        <path id="Top-Left-1-Flap" d="M430.5 2.99951L217 219H430L430.5 2.99951Z" fill="#118AB2" stroke="#073E51" stroke-width="2"/>
        <path id="2" d="M336.212 178.5V173.551L349.342 160.68C350.597 159.412 351.644 158.285 352.481 157.301C353.318 156.316 353.946 155.362 354.364 154.438C354.783 153.515 354.992 152.53 354.992 151.484C354.992 150.29 354.721 149.268 354.18 148.419C353.638 147.557 352.893 146.892 351.945 146.424C350.997 145.956 349.92 145.723 348.714 145.723C347.47 145.723 346.381 145.981 345.445 146.498C344.51 147.003 343.783 147.723 343.266 148.659C342.762 149.594 342.509 150.708 342.509 152.001H335.991C335.991 149.6 336.539 147.514 337.634 145.741C338.73 143.968 340.238 142.596 342.158 141.623C344.091 140.651 346.307 140.164 348.806 140.164C351.342 140.164 353.57 140.638 355.491 141.586C357.411 142.534 358.901 143.833 359.96 145.482C361.031 147.132 361.566 149.016 361.566 151.133C361.566 152.549 361.295 153.94 360.754 155.306C360.212 156.673 359.258 158.187 357.891 159.849C356.537 161.511 354.635 163.524 352.185 165.887L345.667 172.517V172.775H362.138V178.5H336.212Z" fill="white"/>
    </g>
    <g id="Top-Right-1">
        <path id="Top-Left-1-Flap_2" d="M217 221L430 2.5H217V221Z" fill="#118AB2" stroke="#073E51" stroke-width="2"/>
        <path id="1" d="M285.251 58.6813V96.4995H278.4V65.3475H278.178L269.333 70.9981V64.7197L278.732 58.6813H285.251Z" fill="white"/>
    </g>
    <g id="Bottom-Left-5">
        <path id="Bottom-Left-2-Flap_2" d="M217 219.5L4 438H217V219.5Z" fill="#06D6A0" stroke="#00664C" stroke-width="2"/>
        <path id="5" d="M136.055 390.017C133.593 390.017 131.39 389.555 129.445 388.632C127.5 387.696 125.955 386.416 124.81 384.791C123.677 383.166 123.074 381.307 123 379.214H129.648C129.771 380.765 130.442 382.033 131.661 383.018C132.879 383.991 134.344 384.477 136.055 384.477C137.397 384.477 138.591 384.169 139.638 383.553C140.684 382.938 141.509 382.082 142.112 380.987C142.715 379.891 143.011 378.642 142.999 377.238C143.011 375.81 142.709 374.542 142.094 373.434C141.478 372.326 140.635 371.458 139.564 370.83C138.493 370.19 137.262 369.87 135.871 369.87C134.738 369.858 133.624 370.067 132.528 370.498C131.433 370.929 130.565 371.495 129.925 372.197L123.739 371.181L125.714 351.681H147.652V357.406H131.384L130.294 367.433H130.516C131.217 366.608 132.208 365.925 133.489 365.383C134.769 364.829 136.172 364.552 137.699 364.552C139.989 364.552 142.032 365.094 143.83 366.177C145.627 367.248 147.043 368.725 148.077 370.609C149.111 372.492 149.628 374.647 149.628 377.072C149.628 379.571 149.049 381.799 147.892 383.757C146.747 385.702 145.153 387.234 143.109 388.355C141.078 389.463 138.727 390.017 136.055 390.017Z" fill="white"/>
    </g>
    <g id="Bottom-Left-6">
        <path id="Bottom-Left-1-Flap_2" d="M3.5 438L216.5 219.5H3.5V438Z" fill="#06D6A0" stroke="#00664C" stroke-width="2"/>
        <path id="6" d="M74.3509 300.017C72.5412 300.004 70.7746 299.69 69.0511 299.075C67.3277 298.447 65.7765 297.431 64.3977 296.028C63.0189 294.612 61.9233 292.735 61.1108 290.396C60.2983 288.044 59.8982 285.133 59.9105 281.661C59.9105 278.424 60.2552 275.537 60.9446 273.001C61.634 270.465 62.625 268.323 63.9176 266.575C65.2102 264.814 66.7675 263.473 68.5895 262.549C70.4238 261.626 72.4735 261.164 74.7386 261.164C77.1146 261.164 79.2197 261.632 81.054 262.568C82.9006 263.503 84.3902 264.784 85.5227 266.409C86.6553 268.021 87.357 269.843 87.6278 271.875H80.8878C80.5431 270.422 79.8352 269.265 78.7642 268.403C77.7055 267.529 76.3636 267.092 74.7386 267.092C72.1165 267.092 70.0975 268.231 68.6818 270.508C67.2784 272.785 66.5705 275.912 66.5582 279.889H66.8168C67.42 278.805 68.2017 277.876 69.1619 277.1C70.1222 276.325 71.2055 275.728 72.4119 275.309C73.6307 274.878 74.9171 274.663 76.2713 274.663C78.4872 274.663 80.4754 275.192 82.2358 276.251C84.0085 277.31 85.4119 278.768 86.446 280.627C87.4801 282.474 87.991 284.591 87.9787 286.98C87.991 289.466 87.4247 291.701 86.2798 293.683C85.1349 295.652 83.5407 297.204 81.4972 298.336C79.4536 299.469 77.0715 300.029 74.3509 300.017ZM74.3139 294.477C75.6558 294.477 76.8561 294.151 77.9148 293.498C78.9735 292.846 79.8106 291.965 80.4261 290.857C81.0417 289.75 81.3433 288.506 81.331 287.127C81.3433 285.773 81.0478 284.548 80.4446 283.453C79.8537 282.357 79.035 281.489 77.9886 280.849C76.9422 280.209 75.7481 279.889 74.4062 279.889C73.4091 279.889 72.4796 280.08 71.6179 280.461C70.7562 280.843 70.0052 281.372 69.3651 282.049C68.7249 282.714 68.2202 283.49 67.8509 284.376C67.4938 285.25 67.3092 286.186 67.2969 287.183C67.3092 288.5 67.617 289.713 68.2202 290.821C68.8234 291.928 69.6544 292.815 70.7131 293.48C71.7718 294.144 72.9721 294.477 74.3139 294.477Z" fill="white"/>
    </g>
    <g id="Top-Left-7">
        <path id="Top-Left-1-Flap_3" d="M3.5 2.5L216.5 221H3.5V2.5Z" fill="#EF476F" stroke="#C2395A" stroke-width="2"/>
        <path id="7" d="M63.486 163.5L79.5698 131.664V131.406H60.9007V125.681H86.6607V131.535L70.5953 163.5H63.486Z" fill="white"/>
    </g>
    <g id="Top-Left-8">
        <path id="Top-Left-1-Flap_4" d="M216 220.5L3 2H216V220.5Z" fill="#EF476F" stroke="#962B44" stroke-width="2"/>
        <path id="8" d="M146.021 97.0166C143.276 97.0166 140.838 96.5549 138.708 95.6316C136.591 94.7083 134.929 93.4465 133.722 91.8461C132.528 90.2334 131.937 88.4053 131.95 86.3617C131.937 84.7737 132.282 83.3149 132.984 81.9853C133.686 80.6558 134.633 79.5478 135.828 78.6614C137.034 77.7628 138.376 77.1903 139.853 76.9441V76.6856C137.908 76.2547 136.332 75.2637 135.126 73.7126C133.932 72.1491 133.341 70.3456 133.353 68.3021C133.341 66.357 133.883 64.6212 134.978 63.0947C136.074 61.5682 137.576 60.3679 139.484 59.4938C141.392 58.6075 143.571 58.1643 146.021 58.1643C148.446 58.1643 150.606 58.6075 152.502 59.4938C154.41 60.3679 155.912 61.5682 157.008 63.0947C158.116 64.6212 158.67 66.357 158.67 68.3021C158.67 70.3456 158.061 72.1491 156.842 73.7126C155.635 75.2637 154.078 76.2547 152.17 76.6856V76.9441C153.647 77.1903 154.977 77.7628 156.159 78.6614C157.353 79.5478 158.301 80.6558 159.002 81.9853C159.716 83.3149 160.073 84.7737 160.073 86.3617C160.073 88.4053 159.47 90.2334 158.264 91.8461C157.057 93.4465 155.395 94.7083 153.278 95.6316C151.173 96.5549 148.754 97.0166 146.021 97.0166ZM146.021 91.7353C147.436 91.7353 148.668 91.4953 149.714 91.0151C150.76 90.5227 151.573 89.8333 152.151 88.947C152.73 88.0606 153.026 87.0388 153.038 85.8816C153.026 84.6752 152.712 83.6103 152.096 82.687C151.493 81.7514 150.662 81.0189 149.603 80.4896C148.557 79.9602 147.363 79.6955 146.021 79.6955C144.667 79.6955 143.46 79.9602 142.401 80.4896C141.343 81.0189 140.506 81.7514 139.89 82.687C139.287 83.6103 138.991 84.6752 139.004 85.8816C138.991 87.0388 139.275 88.0606 139.853 88.947C140.432 89.821 141.244 90.5042 142.291 90.9967C143.349 91.4891 144.593 91.7353 146.021 91.7353ZM146.021 74.5066C147.178 74.5066 148.2 74.2727 149.086 73.8049C149.985 73.3371 150.693 72.6846 151.21 71.8475C151.727 71.0104 151.991 70.044 152.004 68.9484C151.991 67.865 151.733 66.9171 151.228 66.1046C150.723 65.2798 150.022 64.6458 149.123 64.2026C148.224 63.7471 147.19 63.5194 146.021 63.5194C144.827 63.5194 143.774 63.7471 142.863 64.2026C141.964 64.6458 141.263 65.2798 140.758 66.1046C140.266 66.9171 140.026 67.865 140.038 68.9484C140.026 70.044 140.272 71.0104 140.776 71.8475C141.294 72.6723 142.001 73.3248 142.9 73.8049C143.811 74.2727 144.851 74.5066 146.021 74.5066Z" fill="white"/>
    </g>
</svg>
