<svg width="647" height="441" viewBox="0 0 647 441" fill="none" xmlns="http://www.w3.org/2000/svg">
<g id="3-Opened">
<g id="Bottom-Right-4">
<path id="Bottom-Left-2-Flap" d="M217 219.5L430 438H217V219.5Z" fill="#FFD166" stroke="#917535" stroke-width="2"/>
<path id="4" d="M266.361 382.482V377.035L282.408 351.681H286.951V359.437H284.181L273.378 376.555V376.85H295.777V382.482H266.361ZM284.402 389.5V380.821L284.476 378.383V351.681H290.939V389.5H284.402Z" fill="white"/>
</g>
<g id="Bottom-Right-3-Open">
<path id="Bottom-Left-1-Flap-Open" d="M431 438.5L644 220H431V438.5Z" fill="#FFD166" stroke="#917535" stroke-width="2"/>
<path id="Don&#226;&#128;&#153;t count on it" d="M480.808 283H477.851V274.273H480.868C481.735 274.273 482.479 274.447 483.101 274.797C483.726 275.143 484.206 275.642 484.541 276.293C484.877 276.943 485.044 277.722 485.044 278.628C485.044 279.537 484.875 280.318 484.537 280.972C484.202 281.625 483.718 282.126 483.084 282.476C482.453 282.825 481.695 283 480.808 283ZM479.432 281.632H480.732C481.34 281.632 481.847 281.521 482.253 281.3C482.659 281.075 482.965 280.741 483.169 280.298C483.374 279.852 483.476 279.295 483.476 278.628C483.476 277.96 483.374 277.406 483.169 276.966C482.965 276.523 482.662 276.192 482.262 275.973C481.864 275.751 481.369 275.641 480.779 275.641H479.432V281.632ZM489.333 283.128C488.694 283.128 488.14 282.987 487.671 282.706C487.203 282.425 486.839 282.031 486.58 281.526C486.325 281.02 486.197 280.429 486.197 279.753C486.197 279.077 486.325 278.484 486.58 277.976C486.839 277.467 487.203 277.072 487.671 276.791C488.14 276.51 488.694 276.369 489.333 276.369C489.972 276.369 490.526 276.51 490.995 276.791C491.464 277.072 491.826 277.467 492.082 277.976C492.34 278.484 492.47 279.077 492.47 279.753C492.47 280.429 492.34 281.02 492.082 281.526C491.826 282.031 491.464 282.425 490.995 282.706C490.526 282.987 489.972 283.128 489.333 283.128ZM489.342 281.892C489.688 281.892 489.978 281.797 490.211 281.607C490.444 281.413 490.617 281.155 490.731 280.831C490.847 280.507 490.906 280.146 490.906 279.749C490.906 279.348 490.847 278.986 490.731 278.662C490.617 278.335 490.444 278.075 490.211 277.882C489.978 277.689 489.688 277.592 489.342 277.592C488.987 277.592 488.691 277.689 488.455 277.882C488.222 278.075 488.048 278.335 487.931 278.662C487.818 278.986 487.761 279.348 487.761 279.749C487.761 280.146 487.818 280.507 487.931 280.831C488.048 281.155 488.222 281.413 488.455 281.607C488.691 281.797 488.987 281.892 489.342 281.892ZM495.322 279.165V283H493.779V276.455H495.253V277.567H495.33C495.481 277.2 495.721 276.909 496.05 276.693C496.383 276.477 496.793 276.369 497.282 276.369C497.733 276.369 498.127 276.466 498.462 276.659C498.8 276.852 499.062 277.132 499.246 277.499C499.434 277.865 499.526 278.31 499.523 278.832V283H497.981V279.071C497.981 278.634 497.867 278.291 497.64 278.044C497.415 277.797 497.104 277.673 496.706 277.673C496.437 277.673 496.197 277.733 495.986 277.852C495.779 277.969 495.616 278.138 495.496 278.359C495.38 278.581 495.322 278.849 495.322 279.165ZM502.4 274.273V275.142C502.4 275.392 502.351 275.652 502.255 275.922C502.161 276.189 502.032 276.445 501.867 276.689C501.702 276.93 501.515 277.138 501.305 277.311L500.589 276.847C500.745 276.611 500.881 276.357 500.998 276.084C501.114 275.808 501.172 275.497 501.172 275.151V274.273H502.4ZM507.137 276.455V277.648H503.374V276.455H507.137ZM504.303 274.886H505.846V281.031C505.846 281.239 505.877 281.398 505.94 281.509C506.005 281.616 506.09 281.69 506.195 281.73C506.301 281.77 506.417 281.79 506.545 281.79C506.642 281.79 506.73 281.783 506.809 281.768C506.892 281.754 506.954 281.741 506.997 281.73L507.257 282.936C507.174 282.964 507.056 282.996 506.903 283.03C506.752 283.064 506.568 283.084 506.349 283.089C505.963 283.101 505.615 283.043 505.305 282.915C504.995 282.784 504.749 282.582 504.568 282.31C504.389 282.037 504.301 281.696 504.303 281.287V274.886ZM514.259 283.128C513.606 283.128 513.045 282.984 512.576 282.697C512.11 282.411 511.751 282.014 511.498 281.509C511.248 281 511.123 280.415 511.123 279.753C511.123 279.088 511.251 278.501 511.506 277.993C511.762 277.482 512.123 277.084 512.589 276.8C513.057 276.513 513.611 276.369 514.251 276.369C514.782 276.369 515.252 276.467 515.661 276.663C516.073 276.857 516.401 277.131 516.645 277.486C516.89 277.838 517.029 278.25 517.063 278.722H515.589C515.529 278.406 515.387 278.143 515.162 277.933C514.941 277.72 514.644 277.614 514.272 277.614C513.956 277.614 513.68 277.699 513.441 277.869C513.202 278.037 513.016 278.278 512.883 278.594C512.752 278.909 512.687 279.287 512.687 279.727C512.687 280.173 512.752 280.557 512.883 280.878C513.013 281.196 513.197 281.442 513.432 281.615C513.671 281.786 513.951 281.871 514.272 281.871C514.499 281.871 514.702 281.828 514.881 281.743C515.063 281.655 515.215 281.528 515.337 281.364C515.459 281.199 515.543 280.999 515.589 280.763H517.063C517.026 281.226 516.89 281.636 516.654 281.994C516.418 282.349 516.097 282.628 515.691 282.83C515.285 283.028 514.807 283.128 514.259 283.128ZM521.185 283.128C520.546 283.128 519.992 282.987 519.523 282.706C519.054 282.425 518.691 282.031 518.432 281.526C518.176 281.02 518.048 280.429 518.048 279.753C518.048 279.077 518.176 278.484 518.432 277.976C518.691 277.467 519.054 277.072 519.523 276.791C519.992 276.51 520.546 276.369 521.185 276.369C521.824 276.369 522.378 276.51 522.847 276.791C523.316 277.072 523.678 277.467 523.933 277.976C524.192 278.484 524.321 279.077 524.321 279.753C524.321 280.429 524.192 281.02 523.933 281.526C523.678 282.031 523.316 282.425 522.847 282.706C522.378 282.987 521.824 283.128 521.185 283.128ZM521.193 281.892C521.54 281.892 521.83 281.797 522.063 281.607C522.296 281.413 522.469 281.155 522.583 280.831C522.699 280.507 522.757 280.146 522.757 279.749C522.757 279.348 522.699 278.986 522.583 278.662C522.469 278.335 522.296 278.075 522.063 277.882C521.83 277.689 521.54 277.592 521.193 277.592C520.838 277.592 520.543 277.689 520.307 277.882C520.074 278.075 519.899 278.335 519.783 278.662C519.669 278.986 519.612 279.348 519.612 279.749C519.612 280.146 519.669 280.507 519.783 280.831C519.899 281.155 520.074 281.413 520.307 281.607C520.543 281.797 520.838 281.892 521.193 281.892ZM529.802 280.247V276.455H531.345V283H529.849V281.837H529.781C529.633 282.203 529.39 282.503 529.052 282.736C528.717 282.969 528.304 283.085 527.812 283.085C527.383 283.085 527.004 282.99 526.675 282.8C526.348 282.607 526.092 282.327 525.907 281.96C525.723 281.591 525.631 281.145 525.631 280.622V276.455H527.173V280.384C527.173 280.798 527.287 281.128 527.514 281.372C527.741 281.616 528.04 281.739 528.409 281.739C528.636 281.739 528.856 281.683 529.069 281.572C529.282 281.462 529.457 281.297 529.594 281.078C529.733 280.857 529.802 280.58 529.802 280.247ZM534.474 279.165V283H532.931V276.455H534.406V277.567H534.482C534.633 277.2 534.873 276.909 535.203 276.693C535.535 276.477 535.945 276.369 536.434 276.369C536.886 276.369 537.279 276.466 537.615 276.659C537.953 276.852 538.214 277.132 538.399 277.499C538.586 277.865 538.678 278.31 538.676 278.832V283H537.133V279.071C537.133 278.634 537.019 278.291 536.792 278.044C536.568 277.797 536.257 277.673 535.859 277.673C535.589 277.673 535.349 277.733 535.139 277.852C534.931 277.969 534.768 278.138 534.649 278.359C534.532 278.581 534.474 278.849 534.474 279.165ZM543.512 276.455V277.648H539.749V276.455H543.512ZM540.678 274.886H542.221V281.031C542.221 281.239 542.252 281.398 542.315 281.509C542.38 281.616 542.465 281.69 542.57 281.73C542.676 281.77 542.792 281.79 542.92 281.79C543.017 281.79 543.105 281.783 543.184 281.768C543.267 281.754 543.329 281.741 543.372 281.73L543.632 282.936C543.549 282.964 543.431 282.996 543.278 283.03C543.127 283.064 542.943 283.084 542.724 283.089C542.338 283.101 541.99 283.043 541.68 282.915C541.37 282.784 541.124 282.582 540.943 282.31C540.764 282.037 540.676 281.696 540.678 281.287V274.886ZM501.509 298.128C500.87 298.128 500.316 297.987 499.847 297.706C499.378 297.425 499.015 297.031 498.756 296.526C498.501 296.02 498.373 295.429 498.373 294.753C498.373 294.077 498.501 293.484 498.756 292.976C499.015 292.467 499.378 292.072 499.847 291.791C500.316 291.51 500.87 291.369 501.509 291.369C502.148 291.369 502.702 291.51 503.171 291.791C503.64 292.072 504.002 292.467 504.258 292.976C504.516 293.484 504.645 294.077 504.645 294.753C504.645 295.429 504.516 296.02 504.258 296.526C504.002 297.031 503.64 297.425 503.171 297.706C502.702 297.987 502.148 298.128 501.509 298.128ZM501.518 296.892C501.864 296.892 502.154 296.797 502.387 296.607C502.62 296.413 502.793 296.155 502.907 295.831C503.023 295.507 503.081 295.146 503.081 294.749C503.081 294.348 503.023 293.986 502.907 293.662C502.793 293.335 502.62 293.075 502.387 292.882C502.154 292.689 501.864 292.592 501.518 292.592C501.162 292.592 500.867 292.689 500.631 292.882C500.398 293.075 500.224 293.335 500.107 293.662C499.993 293.986 499.937 294.348 499.937 294.749C499.937 295.146 499.993 295.507 500.107 295.831C500.224 296.155 500.398 296.413 500.631 296.607C500.867 296.797 501.162 296.892 501.518 296.892ZM507.497 294.165V298H505.955V291.455H507.429V292.567H507.506C507.656 292.2 507.896 291.909 508.226 291.693C508.558 291.477 508.969 291.369 509.458 291.369C509.909 291.369 510.303 291.466 510.638 291.659C510.976 291.852 511.237 292.132 511.422 292.499C511.61 292.865 511.702 293.31 511.699 293.832V298H510.156V294.071C510.156 293.634 510.043 293.291 509.816 293.044C509.591 292.797 509.28 292.673 508.882 292.673C508.612 292.673 508.372 292.733 508.162 292.852C507.955 292.969 507.791 293.138 507.672 293.359C507.556 293.581 507.497 293.849 507.497 294.165ZM516.244 298V291.455H517.786V298H516.244ZM517.019 290.526C516.775 290.526 516.565 290.445 516.389 290.283C516.213 290.118 516.124 289.92 516.124 289.69C516.124 289.457 516.213 289.26 516.389 289.098C516.565 288.933 516.775 288.851 517.019 288.851C517.267 288.851 517.477 288.933 517.65 289.098C517.826 289.26 517.914 289.457 517.914 289.69C517.914 289.92 517.826 290.118 517.65 290.283C517.477 290.445 517.267 290.526 517.019 290.526ZM522.641 291.455V292.648H518.878V291.455H522.641ZM519.807 289.886H521.35V296.031C521.35 296.239 521.381 296.398 521.444 296.509C521.509 296.616 521.594 296.69 521.699 296.73C521.805 296.77 521.921 296.79 522.049 296.79C522.145 296.79 522.233 296.783 522.313 296.768C522.395 296.754 522.458 296.741 522.501 296.73L522.76 297.936C522.678 297.964 522.56 297.996 522.407 298.03C522.256 298.064 522.072 298.084 521.853 298.089C521.466 298.101 521.118 298.043 520.809 297.915C520.499 297.784 520.253 297.582 520.072 297.31C519.893 297.037 519.805 296.696 519.807 296.287V289.886Z" fill="white"/>
</g>
<g id="Bottom-Right-3">
<path id="Bottom-Left-1-Flap" d="M429.5 438.5L216.5 220H429.5V438.5Z" fill="#FFD166" stroke="#917535" stroke-width="2"/>
</g>
<g id="Top-Right-2">
<path id="Top-Left-1-Flap" d="M430.5 2.99951L217 219H430L430.5 2.99951Z" fill="#118AB2" stroke="#073E51" stroke-width="2"/>
<path id="2" d="M336.212 178.5V173.551L349.342 160.68C350.597 159.412 351.644 158.285 352.481 157.301C353.318 156.316 353.946 155.362 354.364 154.438C354.783 153.515 354.992 152.53 354.992 151.484C354.992 150.29 354.721 149.268 354.18 148.419C353.638 147.557 352.893 146.892 351.945 146.424C350.997 145.956 349.92 145.723 348.714 145.723C347.47 145.723 346.381 145.981 345.445 146.498C344.51 147.003 343.783 147.723 343.266 148.659C342.762 149.594 342.509 150.708 342.509 152.001H335.991C335.991 149.6 336.539 147.514 337.634 145.741C338.73 143.968 340.238 142.596 342.158 141.623C344.091 140.651 346.307 140.164 348.806 140.164C351.342 140.164 353.57 140.638 355.491 141.586C357.411 142.534 358.901 143.833 359.96 145.482C361.031 147.132 361.566 149.016 361.566 151.133C361.566 152.549 361.295 153.94 360.754 155.306C360.212 156.673 359.258 158.187 357.891 159.849C356.537 161.511 354.635 163.524 352.185 165.887L345.667 172.517V172.775H362.138V178.5H336.212Z" fill="white"/>
</g>
<g id="Top-Right-1">
<path id="Top-Left-1-Flap_2" d="M217 221L430 2.5H217V221Z" fill="#118AB2" stroke="#073E51" stroke-width="2"/>
<path id="1" d="M285.251 58.6813V96.4995H278.4V65.3475H278.178L269.333 70.9981V64.7197L278.732 58.6813H285.251Z" fill="white"/>
</g>
<g id="Bottom-Left-5">
<path id="Bottom-Left-2-Flap_2" d="M217 219.5L4 438H217V219.5Z" fill="#06D6A0" stroke="#00664C" stroke-width="2"/>
<path id="5" d="M136.055 390.017C133.593 390.017 131.39 389.555 129.445 388.632C127.5 387.696 125.955 386.416 124.81 384.791C123.677 383.166 123.074 381.307 123 379.214H129.648C129.771 380.765 130.442 382.033 131.661 383.018C132.879 383.991 134.344 384.477 136.055 384.477C137.397 384.477 138.591 384.169 139.638 383.553C140.684 382.938 141.509 382.082 142.112 380.987C142.715 379.891 143.011 378.642 142.999 377.238C143.011 375.81 142.709 374.542 142.094 373.434C141.478 372.326 140.635 371.458 139.564 370.83C138.493 370.19 137.262 369.87 135.871 369.87C134.738 369.858 133.624 370.067 132.528 370.498C131.433 370.929 130.565 371.495 129.925 372.197L123.739 371.181L125.714 351.681H147.652V357.406H131.384L130.294 367.433H130.516C131.217 366.608 132.208 365.925 133.489 365.383C134.769 364.829 136.172 364.552 137.699 364.552C139.989 364.552 142.032 365.094 143.83 366.177C145.627 367.248 147.043 368.725 148.077 370.609C149.111 372.492 149.628 374.647 149.628 377.072C149.628 379.571 149.049 381.799 147.892 383.757C146.747 385.702 145.153 387.234 143.109 388.355C141.078 389.463 138.727 390.017 136.055 390.017Z" fill="white"/>
</g>
<g id="Bottom-Left-6">
<path id="Bottom-Left-1-Flap_2" d="M3.5 438L216.5 219.5H3.5V438Z" fill="#06D6A0" stroke="#00664C" stroke-width="2"/>
<path id="6" d="M74.3509 300.017C72.5412 300.004 70.7746 299.69 69.0511 299.075C67.3277 298.447 65.7765 297.431 64.3977 296.028C63.0189 294.612 61.9233 292.735 61.1108 290.396C60.2983 288.044 59.8982 285.133 59.9105 281.661C59.9105 278.424 60.2552 275.537 60.9446 273.001C61.634 270.465 62.625 268.323 63.9176 266.575C65.2102 264.814 66.7675 263.473 68.5895 262.549C70.4238 261.626 72.4735 261.164 74.7386 261.164C77.1146 261.164 79.2197 261.632 81.054 262.568C82.9006 263.503 84.3902 264.784 85.5227 266.409C86.6553 268.021 87.357 269.843 87.6278 271.875H80.8878C80.5431 270.422 79.8352 269.265 78.7642 268.403C77.7055 267.529 76.3636 267.092 74.7386 267.092C72.1165 267.092 70.0975 268.231 68.6818 270.508C67.2784 272.785 66.5705 275.912 66.5582 279.889H66.8168C67.42 278.805 68.2017 277.876 69.1619 277.1C70.1222 276.325 71.2055 275.728 72.4119 275.309C73.6307 274.878 74.9171 274.663 76.2713 274.663C78.4872 274.663 80.4754 275.192 82.2358 276.251C84.0085 277.31 85.4119 278.768 86.446 280.627C87.4801 282.474 87.991 284.591 87.9787 286.98C87.991 289.466 87.4247 291.701 86.2798 293.683C85.1349 295.652 83.5407 297.204 81.4972 298.336C79.4536 299.469 77.0715 300.029 74.3509 300.017ZM74.3139 294.477C75.6558 294.477 76.8561 294.151 77.9148 293.498C78.9735 292.846 79.8106 291.965 80.4261 290.857C81.0417 289.75 81.3433 288.506 81.331 287.127C81.3433 285.773 81.0478 284.548 80.4446 283.453C79.8537 282.357 79.035 281.489 77.9886 280.849C76.9422 280.209 75.7481 279.889 74.4062 279.889C73.4091 279.889 72.4796 280.08 71.6179 280.461C70.7562 280.843 70.0052 281.372 69.3651 282.049C68.7249 282.714 68.2202 283.49 67.8509 284.376C67.4938 285.25 67.3092 286.186 67.2969 287.183C67.3092 288.5 67.617 289.713 68.2202 290.821C68.8234 291.928 69.6544 292.815 70.7131 293.48C71.7718 294.144 72.9721 294.477 74.3139 294.477Z" fill="white"/>
</g>
<g id="Top-Left-7">
<path id="Top-Left-1-Flap_3" d="M3.5 2.5L216.5 221H3.5V2.5Z" fill="#EF476F" stroke="#C2395A" stroke-width="2"/>
<path id="7" d="M63.486 163.5L79.5698 131.664V131.406H60.9007V125.681H86.6607V131.535L70.5953 163.5H63.486Z" fill="white"/>
</g>
<g id="Top-Left-8">
<path id="Top-Left-1-Flap_4" d="M216 220.5L3 2H216V220.5Z" fill="#EF476F" stroke="#962B44" stroke-width="2"/>
<path id="8" d="M146.021 97.0166C143.276 97.0166 140.838 96.5549 138.708 95.6316C136.591 94.7083 134.929 93.4465 133.722 91.8461C132.528 90.2334 131.937 88.4053 131.95 86.3617C131.937 84.7737 132.282 83.3149 132.984 81.9853C133.686 80.6558 134.633 79.5478 135.828 78.6614C137.034 77.7628 138.376 77.1903 139.853 76.9441V76.6856C137.908 76.2547 136.332 75.2637 135.126 73.7126C133.932 72.1491 133.341 70.3456 133.353 68.3021C133.341 66.357 133.883 64.6212 134.978 63.0947C136.074 61.5682 137.576 60.3679 139.484 59.4938C141.392 58.6075 143.571 58.1643 146.021 58.1643C148.446 58.1643 150.606 58.6075 152.502 59.4938C154.41 60.3679 155.912 61.5682 157.008 63.0947C158.116 64.6212 158.67 66.357 158.67 68.3021C158.67 70.3456 158.061 72.1491 156.842 73.7126C155.635 75.2637 154.078 76.2547 152.17 76.6856V76.9441C153.647 77.1903 154.977 77.7628 156.159 78.6614C157.353 79.5478 158.301 80.6558 159.002 81.9853C159.716 83.3149 160.073 84.7737 160.073 86.3617C160.073 88.4053 159.47 90.2334 158.264 91.8461C157.057 93.4465 155.395 94.7083 153.278 95.6316C151.173 96.5549 148.754 97.0166 146.021 97.0166ZM146.021 91.7353C147.436 91.7353 148.668 91.4953 149.714 91.0151C150.76 90.5227 151.573 89.8333 152.151 88.947C152.73 88.0606 153.026 87.0388 153.038 85.8816C153.026 84.6752 152.712 83.6103 152.096 82.687C151.493 81.7514 150.662 81.0189 149.603 80.4896C148.557 79.9602 147.363 79.6955 146.021 79.6955C144.667 79.6955 143.46 79.9602 142.401 80.4896C141.343 81.0189 140.506 81.7514 139.89 82.687C139.287 83.6103 138.991 84.6752 139.004 85.8816C138.991 87.0388 139.275 88.0606 139.853 88.947C140.432 89.821 141.244 90.5042 142.291 90.9967C143.349 91.4891 144.593 91.7353 146.021 91.7353ZM146.021 74.5066C147.178 74.5066 148.2 74.2727 149.086 73.8049C149.985 73.3371 150.693 72.6846 151.21 71.8475C151.727 71.0104 151.991 70.044 152.004 68.9484C151.991 67.865 151.733 66.9171 151.228 66.1046C150.723 65.2798 150.022 64.6458 149.123 64.2026C148.224 63.7471 147.19 63.5194 146.021 63.5194C144.827 63.5194 143.774 63.7471 142.863 64.2026C141.964 64.6458 141.263 65.2798 140.758 66.1046C140.266 66.9171 140.026 67.865 140.038 68.9484C140.026 70.044 140.272 71.0104 140.776 71.8475C141.294 72.6723 142.001 73.3248 142.9 73.8049C143.811 74.2727 144.851 74.5066 146.021 74.5066Z" fill="white"/>
</g>
</g>
</svg>
