<svg width="434" height="659" viewBox="0 0 434 659" fill="none" xmlns="http://www.w3.org/2000/svg">
<g id="4-Opened">
<g id="Bottom-Right-4">
<path id="Bottom-Left-2-Flap" d="M217 219.5L430 438H217V219.5Z" fill="#FFD166" stroke="#917535" stroke-width="2"/>
</g>
<g id="Bottom-Right-4-Opened">
<path id="Bottom-Left-2-Flap-Opened" d="M218 656.5L431 438H218V656.5Z" fill="#FFD166" stroke="#917535" stroke-width="2"/>
<path id="Don&#226;&#128;&#153;t count on it" d="M257.808 495H254.851V486.273H257.868C258.735 486.273 259.479 486.447 260.101 486.797C260.726 487.143 261.206 487.642 261.541 488.293C261.877 488.943 262.044 489.722 262.044 490.628C262.044 491.537 261.875 492.318 261.537 492.972C261.202 493.625 260.718 494.126 260.084 494.476C259.453 494.825 258.695 495 257.808 495ZM256.432 493.632H257.732C258.34 493.632 258.847 493.521 259.253 493.3C259.659 493.075 259.965 492.741 260.169 492.298C260.374 491.852 260.476 491.295 260.476 490.628C260.476 489.96 260.374 489.406 260.169 488.966C259.965 488.523 259.662 488.192 259.262 487.973C258.864 487.751 258.369 487.641 257.779 487.641H256.432V493.632ZM266.333 495.128C265.694 495.128 265.14 494.987 264.671 494.706C264.203 494.425 263.839 494.031 263.58 493.526C263.325 493.02 263.197 492.429 263.197 491.753C263.197 491.077 263.325 490.484 263.58 489.976C263.839 489.467 264.203 489.072 264.671 488.791C265.14 488.51 265.694 488.369 266.333 488.369C266.972 488.369 267.526 488.51 267.995 488.791C268.464 489.072 268.826 489.467 269.082 489.976C269.34 490.484 269.47 491.077 269.47 491.753C269.47 492.429 269.34 493.02 269.082 493.526C268.826 494.031 268.464 494.425 267.995 494.706C267.526 494.987 266.972 495.128 266.333 495.128ZM266.342 493.892C266.688 493.892 266.978 493.797 267.211 493.607C267.444 493.413 267.617 493.155 267.731 492.831C267.847 492.507 267.906 492.146 267.906 491.749C267.906 491.348 267.847 490.986 267.731 490.662C267.617 490.335 267.444 490.075 267.211 489.882C266.978 489.689 266.688 489.592 266.342 489.592C265.987 489.592 265.691 489.689 265.455 489.882C265.222 490.075 265.048 490.335 264.931 490.662C264.818 490.986 264.761 491.348 264.761 491.749C264.761 492.146 264.818 492.507 264.931 492.831C265.048 493.155 265.222 493.413 265.455 493.607C265.691 493.797 265.987 493.892 266.342 493.892ZM272.322 491.165V495H270.779V488.455H272.253V489.567H272.33C272.481 489.2 272.721 488.909 273.05 488.693C273.383 488.477 273.793 488.369 274.282 488.369C274.733 488.369 275.127 488.466 275.462 488.659C275.8 488.852 276.062 489.132 276.246 489.499C276.434 489.865 276.526 490.31 276.523 490.832V495H274.981V491.071C274.981 490.634 274.867 490.291 274.64 490.044C274.415 489.797 274.104 489.673 273.706 489.673C273.437 489.673 273.197 489.733 272.986 489.852C272.779 489.969 272.616 490.138 272.496 490.359C272.38 490.581 272.322 490.849 272.322 491.165ZM279.4 486.273V487.142C279.4 487.392 279.351 487.652 279.255 487.922C279.161 488.189 279.032 488.445 278.867 488.689C278.702 488.93 278.515 489.138 278.305 489.311L277.589 488.847C277.745 488.611 277.881 488.357 277.998 488.084C278.114 487.808 278.172 487.497 278.172 487.151V486.273H279.4ZM284.137 488.455V489.648H280.374V488.455H284.137ZM281.303 486.886H282.846V493.031C282.846 493.239 282.877 493.398 282.94 493.509C283.005 493.616 283.09 493.69 283.195 493.73C283.301 493.77 283.417 493.79 283.545 493.79C283.642 493.79 283.73 493.783 283.809 493.768C283.892 493.754 283.954 493.741 283.997 493.73L284.257 494.936C284.174 494.964 284.056 494.996 283.903 495.03C283.752 495.064 283.568 495.084 283.349 495.089C282.963 495.101 282.615 495.043 282.305 494.915C281.995 494.784 281.749 494.582 281.568 494.31C281.389 494.037 281.301 493.696 281.303 493.287V486.886ZM291.259 495.128C290.606 495.128 290.045 494.984 289.576 494.697C289.11 494.411 288.751 494.014 288.498 493.509C288.248 493 288.123 492.415 288.123 491.753C288.123 491.088 288.251 490.501 288.506 489.993C288.762 489.482 289.123 489.084 289.589 488.8C290.057 488.513 290.611 488.369 291.251 488.369C291.782 488.369 292.252 488.467 292.661 488.663C293.073 488.857 293.401 489.131 293.645 489.486C293.89 489.838 294.029 490.25 294.063 490.722H292.589C292.529 490.406 292.387 490.143 292.162 489.933C291.941 489.72 291.644 489.614 291.272 489.614C290.956 489.614 290.68 489.699 290.441 489.869C290.202 490.037 290.016 490.278 289.883 490.594C289.752 490.909 289.687 491.287 289.687 491.727C289.687 492.173 289.752 492.557 289.883 492.878C290.013 493.196 290.197 493.442 290.432 493.615C290.671 493.786 290.951 493.871 291.272 493.871C291.499 493.871 291.702 493.828 291.881 493.743C292.063 493.655 292.215 493.528 292.337 493.364C292.459 493.199 292.543 492.999 292.589 492.763H294.063C294.026 493.226 293.89 493.636 293.654 493.994C293.418 494.349 293.097 494.628 292.691 494.83C292.285 495.028 291.807 495.128 291.259 495.128ZM298.185 495.128C297.546 495.128 296.992 494.987 296.523 494.706C296.054 494.425 295.691 494.031 295.432 493.526C295.176 493.02 295.048 492.429 295.048 491.753C295.048 491.077 295.176 490.484 295.432 489.976C295.691 489.467 296.054 489.072 296.523 488.791C296.992 488.51 297.546 488.369 298.185 488.369C298.824 488.369 299.378 488.51 299.847 488.791C300.316 489.072 300.678 489.467 300.933 489.976C301.192 490.484 301.321 491.077 301.321 491.753C301.321 492.429 301.192 493.02 300.933 493.526C300.678 494.031 300.316 494.425 299.847 494.706C299.378 494.987 298.824 495.128 298.185 495.128ZM298.193 493.892C298.54 493.892 298.83 493.797 299.063 493.607C299.296 493.413 299.469 493.155 299.583 492.831C299.699 492.507 299.757 492.146 299.757 491.749C299.757 491.348 299.699 490.986 299.583 490.662C299.469 490.335 299.296 490.075 299.063 489.882C298.83 489.689 298.54 489.592 298.193 489.592C297.838 489.592 297.543 489.689 297.307 489.882C297.074 490.075 296.899 490.335 296.783 490.662C296.669 490.986 296.612 491.348 296.612 491.749C296.612 492.146 296.669 492.507 296.783 492.831C296.899 493.155 297.074 493.413 297.307 493.607C297.543 493.797 297.838 493.892 298.193 493.892ZM306.802 492.247V488.455H308.345V495H306.849V493.837H306.781C306.633 494.203 306.39 494.503 306.052 494.736C305.717 494.969 305.304 495.085 304.812 495.085C304.383 495.085 304.004 494.99 303.675 494.8C303.348 494.607 303.092 494.327 302.907 493.96C302.723 493.591 302.631 493.145 302.631 492.622V488.455H304.173V492.384C304.173 492.798 304.287 493.128 304.514 493.372C304.741 493.616 305.04 493.739 305.409 493.739C305.636 493.739 305.856 493.683 306.069 493.572C306.282 493.462 306.457 493.297 306.594 493.078C306.733 492.857 306.802 492.58 306.802 492.247ZM311.474 491.165V495H309.931V488.455H311.406V489.567H311.482C311.633 489.2 311.873 488.909 312.203 488.693C312.535 488.477 312.945 488.369 313.434 488.369C313.886 488.369 314.279 488.466 314.615 488.659C314.953 488.852 315.214 489.132 315.399 489.499C315.586 489.865 315.678 490.31 315.676 490.832V495H314.133V491.071C314.133 490.634 314.019 490.291 313.792 490.044C313.568 489.797 313.257 489.673 312.859 489.673C312.589 489.673 312.349 489.733 312.139 489.852C311.931 489.969 311.768 490.138 311.649 490.359C311.532 490.581 311.474 490.849 311.474 491.165ZM320.512 488.455V489.648H316.749V488.455H320.512ZM317.678 486.886H319.221V493.031C319.221 493.239 319.252 493.398 319.315 493.509C319.38 493.616 319.465 493.69 319.57 493.73C319.676 493.77 319.792 493.79 319.92 493.79C320.017 493.79 320.105 493.783 320.184 493.768C320.267 493.754 320.329 493.741 320.372 493.73L320.632 494.936C320.549 494.964 320.431 494.996 320.278 495.03C320.127 495.064 319.943 495.084 319.724 495.089C319.338 495.101 318.99 495.043 318.68 494.915C318.37 494.784 318.124 494.582 317.943 494.31C317.764 494.037 317.676 493.696 317.678 493.287V486.886ZM278.509 510.128C277.87 510.128 277.316 509.987 276.847 509.706C276.378 509.425 276.015 509.031 275.756 508.526C275.501 508.02 275.373 507.429 275.373 506.753C275.373 506.077 275.501 505.484 275.756 504.976C276.015 504.467 276.378 504.072 276.847 503.791C277.316 503.51 277.87 503.369 278.509 503.369C279.148 503.369 279.702 503.51 280.171 503.791C280.64 504.072 281.002 504.467 281.258 504.976C281.516 505.484 281.645 506.077 281.645 506.753C281.645 507.429 281.516 508.02 281.258 508.526C281.002 509.031 280.64 509.425 280.171 509.706C279.702 509.987 279.148 510.128 278.509 510.128ZM278.518 508.892C278.864 508.892 279.154 508.797 279.387 508.607C279.62 508.413 279.793 508.155 279.907 507.831C280.023 507.507 280.081 507.146 280.081 506.749C280.081 506.348 280.023 505.986 279.907 505.662C279.793 505.335 279.62 505.075 279.387 504.882C279.154 504.689 278.864 504.592 278.518 504.592C278.162 504.592 277.867 504.689 277.631 504.882C277.398 505.075 277.224 505.335 277.107 505.662C276.993 505.986 276.937 506.348 276.937 506.749C276.937 507.146 276.993 507.507 277.107 507.831C277.224 508.155 277.398 508.413 277.631 508.607C277.867 508.797 278.162 508.892 278.518 508.892ZM284.497 506.165V510H282.955V503.455H284.429V504.567H284.506C284.656 504.2 284.896 503.909 285.226 503.693C285.558 503.477 285.969 503.369 286.458 503.369C286.909 503.369 287.303 503.466 287.638 503.659C287.976 503.852 288.237 504.132 288.422 504.499C288.61 504.865 288.702 505.31 288.699 505.832V510H287.156V506.071C287.156 505.634 287.043 505.291 286.816 505.044C286.591 504.797 286.28 504.673 285.882 504.673C285.612 504.673 285.372 504.733 285.162 504.852C284.955 504.969 284.791 505.138 284.672 505.359C284.556 505.581 284.497 505.849 284.497 506.165ZM293.244 510V503.455H294.786V510H293.244ZM294.019 502.526C293.775 502.526 293.565 502.445 293.389 502.283C293.213 502.118 293.124 501.92 293.124 501.69C293.124 501.457 293.213 501.26 293.389 501.098C293.565 500.933 293.775 500.851 294.019 500.851C294.267 500.851 294.477 500.933 294.65 501.098C294.826 501.26 294.914 501.457 294.914 501.69C294.914 501.92 294.826 502.118 294.65 502.283C294.477 502.445 294.267 502.526 294.019 502.526ZM299.641 503.455V504.648H295.878V503.455H299.641ZM296.807 501.886H298.35V508.031C298.35 508.239 298.381 508.398 298.444 508.509C298.509 508.616 298.594 508.69 298.699 508.73C298.805 508.77 298.921 508.79 299.049 508.79C299.145 508.79 299.233 508.783 299.313 508.768C299.395 508.754 299.458 508.741 299.501 508.73L299.76 509.936C299.678 509.964 299.56 509.996 299.407 510.03C299.256 510.064 299.072 510.084 298.853 510.089C298.466 510.101 298.118 510.043 297.809 509.915C297.499 509.784 297.253 509.582 297.072 509.31C296.893 509.037 296.805 508.696 296.807 508.287V501.886Z" fill="white"/>
</g>
<g id="Bottom-Right-3">
<path id="Bottom-Left-1-Flap" d="M429.5 438.5L216.5 220H429.5V438.5Z" fill="#FFD166" stroke="#917535" stroke-width="2"/>
<path id="3" d="M352.998 300.017C350.339 300.017 347.975 299.561 345.907 298.65C343.851 297.739 342.226 296.471 341.032 294.846C339.838 293.221 339.204 291.344 339.13 289.214H346.073C346.135 290.236 346.473 291.128 347.089 291.892C347.704 292.643 348.523 293.227 349.545 293.646C350.566 294.064 351.711 294.274 352.979 294.274C354.333 294.274 355.534 294.04 356.58 293.572C357.626 293.092 358.445 292.427 359.036 291.578C359.627 290.728 359.916 289.75 359.904 288.642C359.916 287.497 359.621 286.487 359.018 285.613C358.414 284.739 357.54 284.056 356.395 283.563C355.263 283.071 353.896 282.825 352.296 282.825H348.954V277.544H352.296C353.613 277.544 354.764 277.316 355.749 276.86C356.746 276.405 357.528 275.765 358.094 274.94C358.661 274.103 358.938 273.136 358.925 272.041C358.938 270.97 358.698 270.04 358.205 269.252C357.725 268.452 357.042 267.83 356.155 267.387C355.281 266.944 354.253 266.723 353.072 266.723C351.914 266.723 350.843 266.932 349.858 267.35C348.874 267.769 348.08 268.366 347.476 269.142C346.873 269.905 346.553 270.816 346.516 271.875H339.924C339.973 269.757 340.582 267.898 341.752 266.298C342.934 264.685 344.51 263.429 346.479 262.531C348.449 261.62 350.659 261.164 353.108 261.164C355.632 261.164 357.823 261.638 359.682 262.586C361.554 263.522 363 264.784 364.022 266.372C365.044 267.96 365.555 269.714 365.555 271.634C365.567 273.764 364.939 275.549 363.671 276.99C362.415 278.43 360.766 279.372 358.722 279.815V280.11C361.381 280.48 363.419 281.464 364.834 283.065C366.262 284.653 366.97 286.629 366.958 288.992C366.958 291.11 366.355 293.006 365.148 294.68C363.954 296.342 362.305 297.647 360.199 298.595C358.107 299.543 355.706 300.017 352.998 300.017Z" fill="white"/>
</g>
<g id="Top-Right-2">
<path id="Top-Left-1-Flap" d="M430.5 2.99951L217 219H430L430.5 2.99951Z" fill="#118AB2" stroke="#073E51" stroke-width="2"/>
<path id="2" d="M336.212 178.5V173.551L349.342 160.68C350.597 159.412 351.644 158.285 352.481 157.301C353.318 156.316 353.946 155.362 354.364 154.438C354.783 153.515 354.992 152.53 354.992 151.484C354.992 150.29 354.721 149.268 354.18 148.419C353.638 147.557 352.893 146.892 351.945 146.424C350.997 145.956 349.92 145.723 348.714 145.723C347.47 145.723 346.381 145.981 345.445 146.498C344.51 147.003 343.783 147.723 343.266 148.659C342.762 149.594 342.509 150.708 342.509 152.001H335.991C335.991 149.6 336.539 147.514 337.634 145.741C338.73 143.968 340.238 142.596 342.158 141.623C344.091 140.651 346.307 140.164 348.806 140.164C351.342 140.164 353.57 140.638 355.491 141.586C357.411 142.534 358.901 143.833 359.96 145.482C361.031 147.132 361.566 149.016 361.566 151.133C361.566 152.549 361.295 153.94 360.754 155.306C360.212 156.673 359.258 158.187 357.891 159.849C356.537 161.511 354.635 163.524 352.185 165.887L345.667 172.517V172.775H362.138V178.5H336.212Z" fill="white"/>
</g>
<g id="Top-Right-1">
<path id="Top-Left-1-Flap_2" d="M217 221L430 2.5H217V221Z" fill="#118AB2" stroke="#073E51" stroke-width="2"/>
<path id="1" d="M285.251 58.6813V96.4995H278.4V65.3475H278.178L269.333 70.9981V64.7197L278.732 58.6813H285.251Z" fill="white"/>
</g>
<g id="Bottom-Left-5">
<path id="Bottom-Left-2-Flap_2" d="M217 219.5L4 438H217V219.5Z" fill="#06D6A0" stroke="#00664C" stroke-width="2"/>
<path id="5" d="M136.055 390.017C133.593 390.017 131.39 389.555 129.445 388.632C127.5 387.696 125.955 386.416 124.81 384.791C123.677 383.166 123.074 381.307 123 379.214H129.648C129.771 380.765 130.442 382.033 131.661 383.018C132.879 383.991 134.344 384.477 136.055 384.477C137.397 384.477 138.591 384.169 139.638 383.553C140.684 382.938 141.509 382.082 142.112 380.987C142.715 379.891 143.011 378.642 142.999 377.238C143.011 375.81 142.709 374.542 142.094 373.434C141.478 372.326 140.635 371.458 139.564 370.83C138.493 370.19 137.262 369.87 135.871 369.87C134.738 369.858 133.624 370.067 132.528 370.498C131.433 370.929 130.565 371.495 129.925 372.197L123.739 371.181L125.714 351.681H147.652V357.406H131.384L130.294 367.433H130.516C131.217 366.608 132.208 365.925 133.489 365.383C134.769 364.829 136.172 364.552 137.699 364.552C139.989 364.552 142.032 365.094 143.83 366.177C145.627 367.248 147.043 368.725 148.077 370.609C149.111 372.492 149.628 374.647 149.628 377.072C149.628 379.571 149.049 381.799 147.892 383.757C146.747 385.702 145.153 387.234 143.109 388.355C141.078 389.463 138.727 390.017 136.055 390.017Z" fill="white"/>
</g>
<g id="Bottom-Left-6">
<path id="Bottom-Left-1-Flap_2" d="M3.5 438L216.5 219.5H3.5V438Z" fill="#06D6A0" stroke="#00664C" stroke-width="2"/>
<path id="6" d="M74.3509 300.017C72.5412 300.004 70.7746 299.69 69.0511 299.075C67.3277 298.447 65.7765 297.431 64.3977 296.028C63.0189 294.612 61.9233 292.735 61.1108 290.396C60.2983 288.044 59.8982 285.133 59.9105 281.661C59.9105 278.424 60.2552 275.537 60.9446 273.001C61.634 270.465 62.625 268.323 63.9176 266.575C65.2102 264.814 66.7675 263.473 68.5895 262.549C70.4238 261.626 72.4735 261.164 74.7386 261.164C77.1146 261.164 79.2197 261.632 81.054 262.568C82.9006 263.503 84.3902 264.784 85.5227 266.409C86.6553 268.021 87.357 269.843 87.6278 271.875H80.8878C80.5431 270.422 79.8352 269.265 78.7642 268.403C77.7055 267.529 76.3636 267.092 74.7386 267.092C72.1165 267.092 70.0975 268.231 68.6818 270.508C67.2784 272.785 66.5705 275.912 66.5582 279.889H66.8168C67.42 278.805 68.2017 277.876 69.1619 277.1C70.1222 276.325 71.2055 275.728 72.4119 275.309C73.6307 274.878 74.9171 274.663 76.2713 274.663C78.4872 274.663 80.4754 275.192 82.2358 276.251C84.0085 277.31 85.4119 278.768 86.446 280.627C87.4801 282.474 87.991 284.591 87.9787 286.98C87.991 289.466 87.4247 291.701 86.2798 293.683C85.1349 295.652 83.5407 297.204 81.4972 298.336C79.4536 299.469 77.0715 300.029 74.3509 300.017ZM74.3139 294.477C75.6558 294.477 76.8561 294.151 77.9148 293.498C78.9735 292.846 79.8106 291.965 80.4261 290.857C81.0417 289.75 81.3433 288.506 81.331 287.127C81.3433 285.773 81.0478 284.548 80.4446 283.453C79.8537 282.357 79.035 281.489 77.9886 280.849C76.9422 280.209 75.7481 279.889 74.4062 279.889C73.4091 279.889 72.4796 280.08 71.6179 280.461C70.7562 280.843 70.0052 281.372 69.3651 282.049C68.7249 282.714 68.2202 283.49 67.8509 284.376C67.4938 285.25 67.3092 286.186 67.2969 287.183C67.3092 288.5 67.617 289.713 68.2202 290.821C68.8234 291.928 69.6544 292.815 70.7131 293.48C71.7718 294.144 72.9721 294.477 74.3139 294.477Z" fill="white"/>
</g>
<g id="Top-Left-7">
<path id="Top-Left-1-Flap_3" d="M3.5 2.5L216.5 221H3.5V2.5Z" fill="#EF476F" stroke="#C2395A" stroke-width="2"/>
<path id="7" d="M63.486 163.5L79.5698 131.664V131.406H60.9007V125.681H86.6607V131.535L70.5953 163.5H63.486Z" fill="white"/>
</g>
<g id="Top-Left-8">
<path id="Top-Left-1-Flap_4" d="M216 220.5L3 2H216V220.5Z" fill="#EF476F" stroke="#962B44" stroke-width="2"/>
<path id="8" d="M146.021 97.0166C143.276 97.0166 140.838 96.5549 138.708 95.6316C136.591 94.7083 134.929 93.4465 133.722 91.8461C132.528 90.2334 131.937 88.4053 131.95 86.3617C131.937 84.7737 132.282 83.3149 132.984 81.9853C133.686 80.6558 134.633 79.5478 135.828 78.6614C137.034 77.7628 138.376 77.1903 139.853 76.9441V76.6856C137.908 76.2547 136.332 75.2637 135.126 73.7126C133.932 72.1491 133.341 70.3456 133.353 68.3021C133.341 66.357 133.883 64.6212 134.978 63.0947C136.074 61.5682 137.576 60.3679 139.484 59.4938C141.392 58.6075 143.571 58.1643 146.021 58.1643C148.446 58.1643 150.606 58.6075 152.502 59.4938C154.41 60.3679 155.912 61.5682 157.008 63.0947C158.116 64.6212 158.67 66.357 158.67 68.3021C158.67 70.3456 158.061 72.1491 156.842 73.7126C155.635 75.2637 154.078 76.2547 152.17 76.6856V76.9441C153.647 77.1903 154.977 77.7628 156.159 78.6614C157.353 79.5478 158.301 80.6558 159.002 81.9853C159.716 83.3149 160.073 84.7737 160.073 86.3617C160.073 88.4053 159.47 90.2334 158.264 91.8461C157.057 93.4465 155.395 94.7083 153.278 95.6316C151.173 96.5549 148.754 97.0166 146.021 97.0166ZM146.021 91.7353C147.436 91.7353 148.668 91.4953 149.714 91.0151C150.76 90.5227 151.573 89.8333 152.151 88.947C152.73 88.0606 153.026 87.0388 153.038 85.8816C153.026 84.6752 152.712 83.6103 152.096 82.687C151.493 81.7514 150.662 81.0189 149.603 80.4896C148.557 79.9602 147.363 79.6955 146.021 79.6955C144.667 79.6955 143.46 79.9602 142.401 80.4896C141.343 81.0189 140.506 81.7514 139.89 82.687C139.287 83.6103 138.991 84.6752 139.004 85.8816C138.991 87.0388 139.275 88.0606 139.853 88.947C140.432 89.821 141.244 90.5042 142.291 90.9967C143.349 91.4891 144.593 91.7353 146.021 91.7353ZM146.021 74.5066C147.178 74.5066 148.2 74.2727 149.086 73.8049C149.985 73.3371 150.693 72.6846 151.21 71.8475C151.727 71.0104 151.991 70.044 152.004 68.9484C151.991 67.865 151.733 66.9171 151.228 66.1046C150.723 65.2798 150.022 64.6458 149.123 64.2026C148.224 63.7471 147.19 63.5194 146.021 63.5194C144.827 63.5194 143.774 63.7471 142.863 64.2026C141.964 64.6458 141.263 65.2798 140.758 66.1046C140.266 66.9171 140.026 67.865 140.038 68.9484C140.026 70.044 140.272 71.0104 140.776 71.8475C141.294 72.6723 142.001 73.3248 142.9 73.8049C143.811 74.2727 144.851 74.5066 146.021 74.5066Z" fill="white"/>
</g>
</g>
</svg>
