<svg width="433" height="660" viewBox="0 0 433 660" fill="none" xmlns="http://www.w3.org/2000/svg">
    <g id="Bottom-Right-4">
        <path id="Bottom-Left-2-Flap" d="M217 219.5L430 438H217V219.5Z" fill="#FFD166" stroke="#917535" stroke-width="2"/>
        <path id="4" d="M266.361 382.482V377.035L282.408 351.681H286.951V359.437H284.181L273.378 376.555V376.85H295.777V382.482H266.361ZM284.402 389.5V380.821L284.476 378.383V351.681H290.939V389.5H284.402Z" fill="white"/>
    </g>
    <g id="Bottom-Right-3">
        <path id="Bottom-Left-1-Flap" d="M429.5 438.5L216.5 220H429.5V438.5Z" fill="#FFD166" stroke="#917535" stroke-width="2"/>
        <path id="3" d="M352.998 300.017C350.339 300.017 347.975 299.561 345.907 298.65C343.851 297.739 342.226 296.471 341.032 294.846C339.838 293.221 339.204 291.344 339.13 289.214H346.073C346.135 290.236 346.473 291.128 347.089 291.892C347.704 292.643 348.523 293.227 349.545 293.646C350.566 294.064 351.711 294.274 352.979 294.274C354.333 294.274 355.534 294.04 356.58 293.572C357.626 293.092 358.445 292.427 359.036 291.578C359.627 290.728 359.916 289.75 359.904 288.642C359.916 287.497 359.621 286.487 359.018 285.613C358.414 284.739 357.54 284.056 356.395 283.563C355.263 283.071 353.896 282.825 352.296 282.825H348.954V277.544H352.296C353.613 277.544 354.764 277.316 355.749 276.86C356.746 276.405 357.528 275.765 358.094 274.94C358.661 274.103 358.938 273.136 358.925 272.041C358.938 270.97 358.698 270.04 358.205 269.252C357.725 268.452 357.042 267.83 356.155 267.387C355.281 266.944 354.253 266.723 353.072 266.723C351.914 266.723 350.843 266.932 349.858 267.35C348.874 267.769 348.08 268.366 347.476 269.142C346.873 269.905 346.553 270.816 346.516 271.875H339.924C339.973 269.757 340.582 267.898 341.752 266.298C342.934 264.685 344.51 263.429 346.479 262.531C348.449 261.62 350.659 261.164 353.108 261.164C355.632 261.164 357.823 261.638 359.682 262.586C361.554 263.522 363 264.784 364.022 266.372C365.044 267.96 365.555 269.714 365.555 271.634C365.567 273.764 364.939 275.549 363.671 276.99C362.415 278.43 360.766 279.372 358.722 279.815V280.11C361.381 280.48 363.419 281.464 364.834 283.065C366.262 284.653 366.97 286.629 366.958 288.992C366.958 291.11 366.355 293.006 365.148 294.68C363.954 296.342 362.305 297.647 360.199 298.595C358.107 299.543 355.706 300.017 352.998 300.017Z" fill="white"/>
    </g>
    <g id="Top-Right-2">
        <path id="Top-Left-1-Flap" d="M430.5 2.99951L217 219H430L430.5 2.99951Z" fill="#118AB2" stroke="#073E51" stroke-width="2"/>
        <path id="2" d="M336.212 178.5V173.551L349.342 160.68C350.597 159.412 351.644 158.285 352.481 157.301C353.318 156.316 353.946 155.362 354.364 154.438C354.783 153.515 354.992 152.53 354.992 151.484C354.992 150.29 354.721 149.268 354.18 148.419C353.638 147.557 352.893 146.892 351.945 146.424C350.997 145.956 349.92 145.723 348.714 145.723C347.47 145.723 346.381 145.981 345.445 146.498C344.51 147.003 343.783 147.723 343.266 148.659C342.762 149.594 342.509 150.708 342.509 152.001H335.991C335.991 149.6 336.539 147.514 337.634 145.741C338.73 143.968 340.238 142.596 342.158 141.623C344.091 140.651 346.307 140.164 348.806 140.164C351.342 140.164 353.57 140.638 355.491 141.586C357.411 142.534 358.901 143.833 359.96 145.482C361.031 147.132 361.566 149.016 361.566 151.133C361.566 152.549 361.295 153.94 360.754 155.306C360.212 156.673 359.258 158.187 357.891 159.849C356.537 161.511 354.635 163.524 352.185 165.887L345.667 172.517V172.775H362.138V178.5H336.212Z" fill="white"/>
    </g>
    <g id="Top-Right-1">
        <path id="Top-Left-1-Flap_2" d="M217 221L430 2.5H217V221Z" fill="#118AB2" stroke="#073E51" stroke-width="2"/>
        <path id="1" d="M285.251 58.6813V96.4995H278.4V65.3475H278.178L269.333 70.9981V64.7197L278.732 58.6813H285.251Z" fill="white"/>
    </g>
        <g id="Bottom-Left-5">
        <path id="Bottom-Left-2-Flap_2" d="M217 219.5L4 438H217V219.5Z" fill="#06D6A0" stroke="#00664C" stroke-width="2"/>
    </g>
    <g id="Bottom-Left-5-Open">
        <path id="Bottom-Left-2-Flap-Opened" d="M216 657.5L3 439H216V657.5Z" fill="#06D6A0" stroke="#00664C" stroke-width="2"/>
        <path id="Don&#226;&#128;&#153;t count on it" d="M111.808 494H108.851V485.273H111.868C112.735 485.273 113.479 485.447 114.101 485.797C114.726 486.143 115.206 486.642 115.541 487.293C115.877 487.943 116.044 488.722 116.044 489.628C116.044 490.537 115.875 491.318 115.537 491.972C115.202 492.625 114.718 493.126 114.084 493.476C113.453 493.825 112.695 494 111.808 494ZM110.432 492.632H111.732C112.34 492.632 112.847 492.521 113.253 492.3C113.659 492.075 113.965 491.741 114.169 491.298C114.374 490.852 114.476 490.295 114.476 489.628C114.476 488.96 114.374 488.406 114.169 487.966C113.965 487.523 113.662 487.192 113.262 486.973C112.864 486.751 112.369 486.641 111.779 486.641H110.432V492.632ZM120.333 494.128C119.694 494.128 119.14 493.987 118.671 493.706C118.203 493.425 117.839 493.031 117.58 492.526C117.325 492.02 117.197 491.429 117.197 490.753C117.197 490.077 117.325 489.484 117.58 488.976C117.839 488.467 118.203 488.072 118.671 487.791C119.14 487.51 119.694 487.369 120.333 487.369C120.972 487.369 121.526 487.51 121.995 487.791C122.464 488.072 122.826 488.467 123.082 488.976C123.34 489.484 123.47 490.077 123.47 490.753C123.47 491.429 123.34 492.02 123.082 492.526C122.826 493.031 122.464 493.425 121.995 493.706C121.526 493.987 120.972 494.128 120.333 494.128ZM120.342 492.892C120.688 492.892 120.978 492.797 121.211 492.607C121.444 492.413 121.617 492.155 121.731 491.831C121.847 491.507 121.906 491.146 121.906 490.749C121.906 490.348 121.847 489.986 121.731 489.662C121.617 489.335 121.444 489.075 121.211 488.882C120.978 488.689 120.688 488.592 120.342 488.592C119.987 488.592 119.691 488.689 119.455 488.882C119.222 489.075 119.048 489.335 118.931 489.662C118.818 489.986 118.761 490.348 118.761 490.749C118.761 491.146 118.818 491.507 118.931 491.831C119.048 492.155 119.222 492.413 119.455 492.607C119.691 492.797 119.987 492.892 120.342 492.892ZM126.322 490.165V494H124.779V487.455H126.253V488.567H126.33C126.481 488.2 126.721 487.909 127.05 487.693C127.383 487.477 127.793 487.369 128.282 487.369C128.733 487.369 129.127 487.466 129.462 487.659C129.8 487.852 130.062 488.132 130.246 488.499C130.434 488.865 130.526 489.31 130.523 489.832V494H128.981V490.071C128.981 489.634 128.867 489.291 128.64 489.044C128.415 488.797 128.104 488.673 127.706 488.673C127.437 488.673 127.197 488.733 126.986 488.852C126.779 488.969 126.616 489.138 126.496 489.359C126.38 489.581 126.322 489.849 126.322 490.165ZM133.4 485.273V486.142C133.4 486.392 133.351 486.652 133.255 486.922C133.161 487.189 133.032 487.445 132.867 487.689C132.702 487.93 132.515 488.138 132.305 488.311L131.589 487.847C131.745 487.611 131.881 487.357 131.998 487.084C132.114 486.808 132.172 486.497 132.172 486.151V485.273H133.4ZM138.137 487.455V488.648H134.374V487.455H138.137ZM135.303 485.886H136.846V492.031C136.846 492.239 136.877 492.398 136.94 492.509C137.005 492.616 137.09 492.69 137.195 492.73C137.301 492.77 137.417 492.79 137.545 492.79C137.642 492.79 137.73 492.783 137.809 492.768C137.892 492.754 137.954 492.741 137.997 492.73L138.257 493.936C138.174 493.964 138.056 493.996 137.903 494.03C137.752 494.064 137.568 494.084 137.349 494.089C136.963 494.101 136.615 494.043 136.305 493.915C135.995 493.784 135.749 493.582 135.568 493.31C135.389 493.037 135.301 492.696 135.303 492.287V485.886ZM145.259 494.128C144.606 494.128 144.045 493.984 143.576 493.697C143.11 493.411 142.751 493.014 142.498 492.509C142.248 492 142.123 491.415 142.123 490.753C142.123 490.088 142.251 489.501 142.506 488.993C142.762 488.482 143.123 488.084 143.589 487.8C144.057 487.513 144.611 487.369 145.251 487.369C145.782 487.369 146.252 487.467 146.661 487.663C147.073 487.857 147.401 488.131 147.645 488.486C147.89 488.838 148.029 489.25 148.063 489.722H146.589C146.529 489.406 146.387 489.143 146.162 488.933C145.941 488.72 145.644 488.614 145.272 488.614C144.956 488.614 144.68 488.699 144.441 488.869C144.202 489.037 144.016 489.278 143.883 489.594C143.752 489.909 143.687 490.287 143.687 490.727C143.687 491.173 143.752 491.557 143.883 491.878C144.013 492.196 144.197 492.442 144.432 492.615C144.671 492.786 144.951 492.871 145.272 492.871C145.499 492.871 145.702 492.828 145.881 492.743C146.063 492.655 146.215 492.528 146.337 492.364C146.459 492.199 146.543 491.999 146.589 491.763H148.063C148.026 492.226 147.89 492.636 147.654 492.994C147.418 493.349 147.097 493.628 146.691 493.83C146.285 494.028 145.807 494.128 145.259 494.128ZM152.185 494.128C151.546 494.128 150.992 493.987 150.523 493.706C150.054 493.425 149.691 493.031 149.432 492.526C149.176 492.02 149.048 491.429 149.048 490.753C149.048 490.077 149.176 489.484 149.432 488.976C149.691 488.467 150.054 488.072 150.523 487.791C150.992 487.51 151.546 487.369 152.185 487.369C152.824 487.369 153.378 487.51 153.847 487.791C154.316 488.072 154.678 488.467 154.933 488.976C155.192 489.484 155.321 490.077 155.321 490.753C155.321 491.429 155.192 492.02 154.933 492.526C154.678 493.031 154.316 493.425 153.847 493.706C153.378 493.987 152.824 494.128 152.185 494.128ZM152.193 492.892C152.54 492.892 152.83 492.797 153.063 492.607C153.296 492.413 153.469 492.155 153.583 491.831C153.699 491.507 153.757 491.146 153.757 490.749C153.757 490.348 153.699 489.986 153.583 489.662C153.469 489.335 153.296 489.075 153.063 488.882C152.83 488.689 152.54 488.592 152.193 488.592C151.838 488.592 151.543 488.689 151.307 488.882C151.074 489.075 150.899 489.335 150.783 489.662C150.669 489.986 150.612 490.348 150.612 490.749C150.612 491.146 150.669 491.507 150.783 491.831C150.899 492.155 151.074 492.413 151.307 492.607C151.543 492.797 151.838 492.892 152.193 492.892ZM160.802 491.247V487.455H162.345V494H160.849V492.837H160.781C160.633 493.203 160.39 493.503 160.052 493.736C159.717 493.969 159.304 494.085 158.812 494.085C158.383 494.085 158.004 493.99 157.675 493.8C157.348 493.607 157.092 493.327 156.907 492.96C156.723 492.591 156.631 492.145 156.631 491.622V487.455H158.173V491.384C158.173 491.798 158.287 492.128 158.514 492.372C158.741 492.616 159.04 492.739 159.409 492.739C159.636 492.739 159.856 492.683 160.069 492.572C160.282 492.462 160.457 492.297 160.594 492.078C160.733 491.857 160.802 491.58 160.802 491.247ZM165.474 490.165V494H163.931V487.455H165.406V488.567H165.482C165.633 488.2 165.873 487.909 166.203 487.693C166.535 487.477 166.945 487.369 167.434 487.369C167.886 487.369 168.279 487.466 168.615 487.659C168.953 487.852 169.214 488.132 169.399 488.499C169.586 488.865 169.678 489.31 169.676 489.832V494H168.133V490.071C168.133 489.634 168.019 489.291 167.792 489.044C167.568 488.797 167.257 488.673 166.859 488.673C166.589 488.673 166.349 488.733 166.139 488.852C165.931 488.969 165.768 489.138 165.649 489.359C165.532 489.581 165.474 489.849 165.474 490.165ZM174.512 487.455V488.648H170.749V487.455H174.512ZM171.678 485.886H173.221V492.031C173.221 492.239 173.252 492.398 173.315 492.509C173.38 492.616 173.465 492.69 173.57 492.73C173.676 492.77 173.792 492.79 173.92 492.79C174.017 492.79 174.105 492.783 174.184 492.768C174.267 492.754 174.329 492.741 174.372 492.73L174.632 493.936C174.549 493.964 174.431 493.996 174.278 494.03C174.127 494.064 173.943 494.084 173.724 494.089C173.338 494.101 172.99 494.043 172.68 493.915C172.37 493.784 172.124 493.582 171.943 493.31C171.764 493.037 171.676 492.696 171.678 492.287V485.886ZM132.509 509.128C131.87 509.128 131.316 508.987 130.847 508.706C130.378 508.425 130.015 508.031 129.756 507.526C129.501 507.02 129.373 506.429 129.373 505.753C129.373 505.077 129.501 504.484 129.756 503.976C130.015 503.467 130.378 503.072 130.847 502.791C131.316 502.51 131.87 502.369 132.509 502.369C133.148 502.369 133.702 502.51 134.171 502.791C134.64 503.072 135.002 503.467 135.258 503.976C135.516 504.484 135.645 505.077 135.645 505.753C135.645 506.429 135.516 507.02 135.258 507.526C135.002 508.031 134.64 508.425 134.171 508.706C133.702 508.987 133.148 509.128 132.509 509.128ZM132.518 507.892C132.864 507.892 133.154 507.797 133.387 507.607C133.62 507.413 133.793 507.155 133.907 506.831C134.023 506.507 134.081 506.146 134.081 505.749C134.081 505.348 134.023 504.986 133.907 504.662C133.793 504.335 133.62 504.075 133.387 503.882C133.154 503.689 132.864 503.592 132.518 503.592C132.162 503.592 131.867 503.689 131.631 503.882C131.398 504.075 131.224 504.335 131.107 504.662C130.993 504.986 130.937 505.348 130.937 505.749C130.937 506.146 130.993 506.507 131.107 506.831C131.224 507.155 131.398 507.413 131.631 507.607C131.867 507.797 132.162 507.892 132.518 507.892ZM138.497 505.165V509H136.955V502.455H138.429V503.567H138.506C138.656 503.2 138.896 502.909 139.226 502.693C139.558 502.477 139.969 502.369 140.458 502.369C140.909 502.369 141.303 502.466 141.638 502.659C141.976 502.852 142.237 503.132 142.422 503.499C142.61 503.865 142.702 504.31 142.699 504.832V509H141.156V505.071C141.156 504.634 141.043 504.291 140.816 504.044C140.591 503.797 140.28 503.673 139.882 503.673C139.612 503.673 139.372 503.733 139.162 503.852C138.955 503.969 138.791 504.138 138.672 504.359C138.556 504.581 138.497 504.849 138.497 505.165ZM147.244 509V502.455H148.786V509H147.244ZM148.019 501.526C147.775 501.526 147.565 501.445 147.389 501.283C147.213 501.118 147.124 500.92 147.124 500.69C147.124 500.457 147.213 500.26 147.389 500.098C147.565 499.933 147.775 499.851 148.019 499.851C148.267 499.851 148.477 499.933 148.65 500.098C148.826 500.26 148.914 500.457 148.914 500.69C148.914 500.92 148.826 501.118 148.65 501.283C148.477 501.445 148.267 501.526 148.019 501.526ZM153.641 502.455V503.648H149.878V502.455H153.641ZM150.807 500.886H152.35V507.031C152.35 507.239 152.381 507.398 152.444 507.509C152.509 507.616 152.594 507.69 152.699 507.73C152.805 507.77 152.921 507.79 153.049 507.79C153.145 507.79 153.233 507.783 153.313 507.768C153.395 507.754 153.458 507.741 153.501 507.73L153.76 508.936C153.678 508.964 153.56 508.996 153.407 509.03C153.256 509.064 153.072 509.084 152.853 509.089C152.466 509.101 152.118 509.043 151.809 508.915C151.499 508.784 151.253 508.582 151.072 508.31C150.893 508.037 150.805 507.696 150.807 507.287V500.886Z" fill="white"/>
        </g>
        <g id="Bottom-Left-6">
        <path id="Bottom-Left-1-Flap_2" d="M3.5 438L216.5 219.5H3.5V438Z" fill="#06D6A0" stroke="#00664C" stroke-width="2"/>
        <path id="6" d="M74.3509 300.017C72.5412 300.004 70.7746 299.69 69.0511 299.075C67.3277 298.447 65.7765 297.431 64.3977 296.028C63.0189 294.612 61.9233 292.735 61.1108 290.396C60.2983 288.044 59.8982 285.133 59.9105 281.661C59.9105 278.424 60.2552 275.537 60.9446 273.001C61.634 270.465 62.625 268.323 63.9176 266.575C65.2102 264.814 66.7675 263.473 68.5895 262.549C70.4238 261.626 72.4735 261.164 74.7386 261.164C77.1146 261.164 79.2197 261.632 81.054 262.568C82.9006 263.503 84.3902 264.784 85.5227 266.409C86.6553 268.021 87.357 269.843 87.6278 271.875H80.8878C80.5431 270.422 79.8352 269.265 78.7642 268.403C77.7055 267.529 76.3636 267.092 74.7386 267.092C72.1165 267.092 70.0975 268.231 68.6818 270.508C67.2784 272.785 66.5705 275.912 66.5582 279.889H66.8168C67.42 278.805 68.2017 277.876 69.1619 277.1C70.1222 276.325 71.2055 275.728 72.4119 275.309C73.6307 274.878 74.9171 274.663 76.2713 274.663C78.4872 274.663 80.4754 275.192 82.2358 276.251C84.0085 277.31 85.4119 278.768 86.446 280.627C87.4801 282.474 87.991 284.591 87.9787 286.98C87.991 289.466 87.4247 291.701 86.2798 293.683C85.1349 295.652 83.5407 297.204 81.4972 298.336C79.4536 299.469 77.0715 300.029 74.3509 300.017ZM74.3139 294.477C75.6558 294.477 76.8561 294.151 77.9148 293.498C78.9735 292.846 79.8106 291.965 80.4261 290.857C81.0417 289.75 81.3433 288.506 81.331 287.127C81.3433 285.773 81.0478 284.548 80.4446 283.453C79.8537 282.357 79.035 281.489 77.9886 280.849C76.9422 280.209 75.7481 279.889 74.4062 279.889C73.4091 279.889 72.4796 280.08 71.6179 280.461C70.7562 280.843 70.0052 281.372 69.3651 282.049C68.7249 282.714 68.2202 283.49 67.8509 284.376C67.4938 285.25 67.3092 286.186 67.2969 287.183C67.3092 288.5 67.617 289.713 68.2202 290.821C68.8234 291.928 69.6544 292.815 70.7131 293.48C71.7718 294.144 72.9721 294.477 74.3139 294.477Z" fill="white"/>
    </g>
    <g id="Top-Left-7">
        <path id="Top-Left-1-Flap_3" d="M3.5 2.5L216.5 221H3.5V2.5Z" fill="#EF476F" stroke="#C2395A" stroke-width="2"/>
        <path id="7" d="M63.486 163.5L79.5698 131.664V131.406H60.9007V125.681H86.6607V131.535L70.5953 163.5H63.486Z" fill="white"/>
    </g>
    <g id="Top-Left-8">
        <path id="Top-Left-1-Flap_4" d="M216 220.5L3 2H216V220.5Z" fill="#EF476F" stroke="#962B44" stroke-width="2"/>
        <path id="8" d="M146.021 97.0166C143.276 97.0166 140.838 96.5549 138.708 95.6316C136.591 94.7083 134.929 93.4465 133.722 91.8461C132.528 90.2334 131.937 88.4053 131.95 86.3617C131.937 84.7737 132.282 83.3149 132.984 81.9853C133.686 80.6558 134.633 79.5478 135.828 78.6614C137.034 77.7628 138.376 77.1903 139.853 76.9441V76.6856C137.908 76.2547 136.332 75.2637 135.126 73.7126C133.932 72.1491 133.341 70.3456 133.353 68.3021C133.341 66.357 133.883 64.6212 134.978 63.0947C136.074 61.5682 137.576 60.3679 139.484 59.4938C141.392 58.6075 143.571 58.1643 146.021 58.1643C148.446 58.1643 150.606 58.6075 152.502 59.4938C154.41 60.3679 155.912 61.5682 157.008 63.0947C158.116 64.6212 158.67 66.357 158.67 68.3021C158.67 70.3456 158.061 72.1491 156.842 73.7126C155.635 75.2637 154.078 76.2547 152.17 76.6856V76.9441C153.647 77.1903 154.977 77.7628 156.159 78.6614C157.353 79.5478 158.301 80.6558 159.002 81.9853C159.716 83.3149 160.073 84.7737 160.073 86.3617C160.073 88.4053 159.47 90.2334 158.264 91.8461C157.057 93.4465 155.395 94.7083 153.278 95.6316C151.173 96.5549 148.754 97.0166 146.021 97.0166ZM146.021 91.7353C147.436 91.7353 148.668 91.4953 149.714 91.0151C150.76 90.5227 151.573 89.8333 152.151 88.947C152.73 88.0606 153.026 87.0388 153.038 85.8816C153.026 84.6752 152.712 83.6103 152.096 82.687C151.493 81.7514 150.662 81.0189 149.603 80.4896C148.557 79.9602 147.363 79.6955 146.021 79.6955C144.667 79.6955 143.46 79.9602 142.401 80.4896C141.343 81.0189 140.506 81.7514 139.89 82.687C139.287 83.6103 138.991 84.6752 139.004 85.8816C138.991 87.0388 139.275 88.0606 139.853 88.947C140.432 89.821 141.244 90.5042 142.291 90.9967C143.349 91.4891 144.593 91.7353 146.021 91.7353ZM146.021 74.5066C147.178 74.5066 148.2 74.2727 149.086 73.8049C149.985 73.3371 150.693 72.6846 151.21 71.8475C151.727 71.0104 151.991 70.044 152.004 68.9484C151.991 67.865 151.733 66.9171 151.228 66.1046C150.723 65.2798 150.022 64.6458 149.123 64.2026C148.224 63.7471 147.19 63.5194 146.021 63.5194C144.827 63.5194 143.774 63.7471 142.863 64.2026C141.964 64.6458 141.263 65.2798 140.758 66.1046C140.266 66.9171 140.026 67.865 140.038 68.9484C140.026 70.044 140.272 71.0104 140.776 71.8475C141.294 72.6723 142.001 73.3248 142.9 73.8049C143.811 74.2727 144.851 74.5066 146.021 74.5066Z" fill="white"/>
    </g>
</svg>
