<svg width="433" height="660" viewBox="0 0 433 660" fill="none" xmlns="http://www.w3.org/2000/svg">
<g id="5-Opened">
<g id="Bottom-Right-4">
<path id="Bottom-Left-2-Flap" d="M217 219.5L430 438H217V219.5Z" fill="#FFD166" stroke="#917535" stroke-width="2"/>
<text id="4" fill="white" xml:space="preserve" style="white-space: pre" font-family="Inter" font-size="52" font-weight="600" letter-spacing="0em"><tspan x="263.684" y="389.909">4</tspan></text>
</g>
<g id="Bottom-Right-3">
<path id="Bottom-Left-1-Flap" d="M429.5 438.5L216.5 220H429.5V438.5Z" fill="#FFD166" stroke="#917535" stroke-width="2"/>
<text id="3" fill="white" xml:space="preserve" style="white-space: pre" font-family="Inter" font-size="52" font-weight="600" letter-spacing="0em"><tspan x="336.064" y="299.909">3</tspan></text>
</g>
<g id="Top-Right-2">
<path id="Top-Left-1-Flap" d="M430.5 2.99951L217 219H430L430.5 2.99951Z" fill="#118AB2" stroke="#073E51" stroke-width="2"/>
<text id="2" fill="white" xml:space="preserve" style="white-space: pre" font-family="Inter" font-size="52" font-weight="600" letter-spacing="0em"><tspan x="332.852" y="178.909">2</tspan></text>
</g>
<g id="Top-Right-1">
<path id="Top-Left-1-Flap_2" d="M217 221L430 2.5H217V221Z" fill="#118AB2" stroke="#073E51" stroke-width="2"/>
<text id="1" fill="white" xml:space="preserve" style="white-space: pre" font-family="Inter" font-size="52" font-weight="600" letter-spacing="0em"><tspan x="266.508" y="96.9086">1</tspan></text>
</g>
<g id="Bottom-Left-5">
<path id="Bottom-Left-2-Flap_2" d="M217 219.5L4 438H217V219.5Z" fill="#06D6A0" stroke="#00664C" stroke-width="2"/>
</g>
<g id="Bottom-Left-5-Open">
<path id="Bottom-Left-2-Flap-Opened" d="M216 657.5L3 439H216V657.5Z" fill="#06D6A0" stroke="#00664C" stroke-width="2"/>
</g>
<g id="Bottom-Left-6">
<path id="Bottom-Left-1-Flap_2" d="M3.5 438L216.5 219.5H3.5V438Z" fill="#06D6A0" stroke="#00664C" stroke-width="2"/>
<text id="6" fill="white" xml:space="preserve" style="white-space: pre" font-family="Inter" font-size="52" font-weight="600" letter-spacing="0em"><tspan x="57.1406" y="299.909">6</tspan></text>
</g>
<g id="Top-Left-7">
<path id="Top-Left-1-Flap_3" d="M3.5 2.5L216.5 221H3.5V2.5Z" fill="#EF476F" stroke="#C2395A" stroke-width="2"/>
<text id="7" fill="white" xml:space="preserve" style="white-space: pre" font-family="Inter" font-size="52" font-weight="600" letter-spacing="0em"><tspan x="58.7402" y="163.909">7</tspan></text>
</g>
<g id="Top-Left-8">
<path id="Top-Left-1-Flap_4" d="M216 220.5L3 2H216V220.5Z" fill="#EF476F" stroke="#962B44" stroke-width="2"/>
<text id="8" fill="white" xml:space="preserve" style="white-space: pre" font-family="Inter" font-size="52" font-weight="600" letter-spacing="0em"><tspan x="129.217" y="96.9086">8</tspan></text>
</g>
</g>
</svg>
