<svg width="646" height="442" viewBox="0 0 646 442" fill="none" xmlns="http://www.w3.org/2000/svg">
    <g id="Bottom-Right-4">
        <path id="Bottom-Left-2-Flap" d="M430 219.5L643 438H430V219.5Z" fill="#FFD166" stroke="#917535" stroke-width="2"/>
        <path id="4" d="M479.361 382.482V377.035L495.408 351.681H499.951V359.437H497.181L486.378 376.555V376.85H508.777V382.482H479.361ZM497.402 389.5V380.821L497.476 378.383V351.681H503.939V389.5H497.402Z" fill="white"/>
    </g>
    <g id="Bottom-Right-3">
        <path id="Bottom-Left-1-Flap" d="M642.5 438.5L429.5 220H642.5V438.5Z" fill="#FFD166" stroke="#917535" stroke-width="2"/>
        <path id="3" d="M565.998 300.017C563.339 300.017 560.975 299.561 558.907 298.65C556.851 297.739 555.226 296.471 554.032 294.846C552.838 293.221 552.204 291.344 552.13 289.214H559.073C559.135 290.236 559.473 291.128 560.089 291.892C560.704 292.643 561.523 293.227 562.545 293.646C563.566 294.064 564.711 294.274 565.979 294.274C567.333 294.274 568.534 294.04 569.58 293.572C570.626 293.092 571.445 292.427 572.036 291.578C572.627 290.728 572.916 289.75 572.904 288.642C572.916 287.497 572.621 286.487 572.018 285.613C571.414 284.739 570.54 284.056 569.395 283.563C568.263 283.071 566.896 282.825 565.296 282.825H561.954V277.544H565.296C566.613 277.544 567.764 277.316 568.749 276.86C569.746 276.405 570.528 275.765 571.094 274.94C571.661 274.103 571.938 273.136 571.925 272.041C571.938 270.97 571.698 270.04 571.205 269.252C570.725 268.452 570.042 267.83 569.155 267.387C568.281 266.944 567.253 266.723 566.072 266.723C564.914 266.723 563.843 266.932 562.858 267.35C561.874 267.769 561.08 268.366 560.476 269.142C559.873 269.905 559.553 270.816 559.516 271.875H552.924C552.973 269.757 553.582 267.898 554.752 266.298C555.934 264.685 557.51 263.429 559.479 262.531C561.449 261.62 563.659 261.164 566.108 261.164C568.632 261.164 570.823 261.638 572.682 262.586C574.554 263.522 576 264.784 577.022 266.372C578.044 267.96 578.555 269.714 578.555 271.634C578.567 273.764 577.939 275.549 576.671 276.99C575.415 278.43 573.766 279.372 571.722 279.815V280.11C574.381 280.48 576.419 281.464 577.834 283.065C579.262 284.653 579.97 286.629 579.958 288.992C579.958 291.11 579.355 293.006 578.148 294.68C576.954 296.342 575.305 297.647 573.199 298.595C571.107 299.543 568.706 300.017 565.998 300.017Z" fill="white"/>
    </g>
    <g id="Top-Right-2">
        <path id="Top-Left-1-Flap" d="M643.5 2.99951L430 219H643L643.5 2.99951Z" fill="#118AB2" stroke="#073E51" stroke-width="2"/>
        <path id="2" d="M549.212 178.5V173.551L562.342 160.68C563.597 159.412 564.644 158.285 565.481 157.301C566.318 156.316 566.946 155.362 567.364 154.438C567.783 153.515 567.992 152.53 567.992 151.484C567.992 150.29 567.721 149.268 567.18 148.419C566.638 147.557 565.893 146.892 564.945 146.424C563.997 145.956 562.92 145.723 561.714 145.723C560.47 145.723 559.381 145.981 558.445 146.498C557.51 147.003 556.783 147.723 556.266 148.659C555.762 149.594 555.509 150.708 555.509 152.001H548.991C548.991 149.6 549.539 147.514 550.634 145.741C551.73 143.968 553.238 142.596 555.158 141.623C557.091 140.651 559.307 140.164 561.806 140.164C564.342 140.164 566.57 140.638 568.491 141.586C570.411 142.534 571.901 143.833 572.96 145.482C574.031 147.132 574.566 149.016 574.566 151.133C574.566 152.549 574.295 153.94 573.754 155.306C573.212 156.673 572.258 158.187 570.891 159.849C569.537 161.511 567.635 163.524 565.185 165.887L558.667 172.517V172.775H575.138V178.5H549.212Z" fill="white"/>
    </g>
    <g id="Top-Right-1">
        <path id="Top-Left-1-Flap_2" d="M430 221L643 2.5H430V221Z" fill="#118AB2" stroke="#073E51" stroke-width="2"/>
        <path id="1" d="M498.251 58.6813V96.4995H491.4V65.3475H491.178L482.333 70.9981V64.7197L491.732 58.6813H498.251Z" fill="white"/>
    </g>
    <g id="Bottom-Left-5">
        <path id="Bottom-Left-2-Flap_2" d="M430 219.5L217 438H430V219.5Z" fill="#06D6A0" stroke="#00664C" stroke-width="2"/>
        <path id="5" d="M349.055 390.017C346.593 390.017 344.39 389.555 342.445 388.632C340.5 387.696 338.955 386.416 337.81 384.791C336.677 383.166 336.074 381.307 336 379.214H342.648C342.771 380.765 343.442 382.033 344.661 383.018C345.879 383.991 347.344 384.477 349.055 384.477C350.397 384.477 351.591 384.169 352.638 383.553C353.684 382.938 354.509 382.082 355.112 380.987C355.715 379.891 356.011 378.642 355.999 377.238C356.011 375.81 355.709 374.542 355.094 373.434C354.478 372.326 353.635 371.458 352.564 370.83C351.493 370.19 350.262 369.87 348.871 369.87C347.738 369.858 346.624 370.067 345.528 370.498C344.433 370.929 343.565 371.495 342.925 372.197L336.739 371.181L338.714 351.681H360.652V357.406H344.384L343.294 367.433H343.516C344.217 366.608 345.208 365.925 346.489 365.383C347.769 364.829 349.172 364.552 350.699 364.552C352.989 364.552 355.032 365.094 356.83 366.177C358.627 367.248 360.043 368.725 361.077 370.609C362.111 372.492 362.628 374.647 362.628 377.072C362.628 379.571 362.049 381.799 360.892 383.757C359.747 385.702 358.153 387.234 356.109 388.355C354.078 389.463 351.727 390.017 349.055 390.017Z" fill="white"/>
    </g>
    <g id="Bottom-Left-6">
        <path id="Bottom-Left-1-Flap_2" d="M216.5 438L429.5 219.5H216.5V438Z" fill="#06D6A0" stroke="#00664C" stroke-width="2"/>
    </g>
    <g id="Bottom-Left-6-Opened">
        <path id="Bottom-Left-1-Flap-Opened" d="M216 439.5L3 221H216V439.5Z" fill="#06D6A0" stroke="#00664C" stroke-width="2"/>
        <path id="Don&#226;&#128;&#153;t count on it" d="M111.808 285H108.851V276.273H111.868C112.735 276.273 113.479 276.447 114.101 276.797C114.726 277.143 115.206 277.642 115.541 278.293C115.877 278.943 116.044 279.722 116.044 280.628C116.044 281.537 115.875 282.318 115.537 282.972C115.202 283.625 114.718 284.126 114.084 284.476C113.453 284.825 112.695 285 111.808 285ZM110.432 283.632H111.732C112.34 283.632 112.847 283.521 113.253 283.3C113.659 283.075 113.965 282.741 114.169 282.298C114.374 281.852 114.476 281.295 114.476 280.628C114.476 279.96 114.374 279.406 114.169 278.966C113.965 278.523 113.662 278.192 113.262 277.973C112.864 277.751 112.369 277.641 111.779 277.641H110.432V283.632ZM120.333 285.128C119.694 285.128 119.14 284.987 118.671 284.706C118.203 284.425 117.839 284.031 117.58 283.526C117.325 283.02 117.197 282.429 117.197 281.753C117.197 281.077 117.325 280.484 117.58 279.976C117.839 279.467 118.203 279.072 118.671 278.791C119.14 278.51 119.694 278.369 120.333 278.369C120.972 278.369 121.526 278.51 121.995 278.791C122.464 279.072 122.826 279.467 123.082 279.976C123.34 280.484 123.47 281.077 123.47 281.753C123.47 282.429 123.34 283.02 123.082 283.526C122.826 284.031 122.464 284.425 121.995 284.706C121.526 284.987 120.972 285.128 120.333 285.128ZM120.342 283.892C120.688 283.892 120.978 283.797 121.211 283.607C121.444 283.413 121.617 283.155 121.731 282.831C121.847 282.507 121.906 282.146 121.906 281.749C121.906 281.348 121.847 280.986 121.731 280.662C121.617 280.335 121.444 280.075 121.211 279.882C120.978 279.689 120.688 279.592 120.342 279.592C119.987 279.592 119.691 279.689 119.455 279.882C119.222 280.075 119.048 280.335 118.931 280.662C118.818 280.986 118.761 281.348 118.761 281.749C118.761 282.146 118.818 282.507 118.931 282.831C119.048 283.155 119.222 283.413 119.455 283.607C119.691 283.797 119.987 283.892 120.342 283.892ZM126.322 281.165V285H124.779V278.455H126.253V279.567H126.33C126.481 279.2 126.721 278.909 127.05 278.693C127.383 278.477 127.793 278.369 128.282 278.369C128.733 278.369 129.127 278.466 129.462 278.659C129.8 278.852 130.062 279.132 130.246 279.499C130.434 279.865 130.526 280.31 130.523 280.832V285H128.981V281.071C128.981 280.634 128.867 280.291 128.64 280.044C128.415 279.797 128.104 279.673 127.706 279.673C127.437 279.673 127.197 279.733 126.986 279.852C126.779 279.969 126.616 280.138 126.496 280.359C126.38 280.581 126.322 280.849 126.322 281.165ZM133.4 276.273V277.142C133.4 277.392 133.351 277.652 133.255 277.922C133.161 278.189 133.032 278.445 132.867 278.689C132.702 278.93 132.515 279.138 132.305 279.311L131.589 278.847C131.745 278.611 131.881 278.357 131.998 278.084C132.114 277.808 132.172 277.497 132.172 277.151V276.273H133.4ZM138.137 278.455V279.648H134.374V278.455H138.137ZM135.303 276.886H136.846V283.031C136.846 283.239 136.877 283.398 136.94 283.509C137.005 283.616 137.09 283.69 137.195 283.73C137.301 283.77 137.417 283.79 137.545 283.79C137.642 283.79 137.73 283.783 137.809 283.768C137.892 283.754 137.954 283.741 137.997 283.73L138.257 284.936C138.174 284.964 138.056 284.996 137.903 285.03C137.752 285.064 137.568 285.084 137.349 285.089C136.963 285.101 136.615 285.043 136.305 284.915C135.995 284.784 135.749 284.582 135.568 284.31C135.389 284.037 135.301 283.696 135.303 283.287V276.886ZM145.259 285.128C144.606 285.128 144.045 284.984 143.576 284.697C143.11 284.411 142.751 284.014 142.498 283.509C142.248 283 142.123 282.415 142.123 281.753C142.123 281.088 142.251 280.501 142.506 279.993C142.762 279.482 143.123 279.084 143.589 278.8C144.057 278.513 144.611 278.369 145.251 278.369C145.782 278.369 146.252 278.467 146.661 278.663C147.073 278.857 147.401 279.131 147.645 279.486C147.89 279.838 148.029 280.25 148.063 280.722H146.589C146.529 280.406 146.387 280.143 146.162 279.933C145.941 279.72 145.644 279.614 145.272 279.614C144.956 279.614 144.68 279.699 144.441 279.869C144.202 280.037 144.016 280.278 143.883 280.594C143.752 280.909 143.687 281.287 143.687 281.727C143.687 282.173 143.752 282.557 143.883 282.878C144.013 283.196 144.197 283.442 144.432 283.615C144.671 283.786 144.951 283.871 145.272 283.871C145.499 283.871 145.702 283.828 145.881 283.743C146.063 283.655 146.215 283.528 146.337 283.364C146.459 283.199 146.543 282.999 146.589 282.763H148.063C148.026 283.226 147.89 283.636 147.654 283.994C147.418 284.349 147.097 284.628 146.691 284.83C146.285 285.028 145.807 285.128 145.259 285.128ZM152.185 285.128C151.546 285.128 150.992 284.987 150.523 284.706C150.054 284.425 149.691 284.031 149.432 283.526C149.176 283.02 149.048 282.429 149.048 281.753C149.048 281.077 149.176 280.484 149.432 279.976C149.691 279.467 150.054 279.072 150.523 278.791C150.992 278.51 151.546 278.369 152.185 278.369C152.824 278.369 153.378 278.51 153.847 278.791C154.316 279.072 154.678 279.467 154.933 279.976C155.192 280.484 155.321 281.077 155.321 281.753C155.321 282.429 155.192 283.02 154.933 283.526C154.678 284.031 154.316 284.425 153.847 284.706C153.378 284.987 152.824 285.128 152.185 285.128ZM152.193 283.892C152.54 283.892 152.83 283.797 153.063 283.607C153.296 283.413 153.469 283.155 153.583 282.831C153.699 282.507 153.757 282.146 153.757 281.749C153.757 281.348 153.699 280.986 153.583 280.662C153.469 280.335 153.296 280.075 153.063 279.882C152.83 279.689 152.54 279.592 152.193 279.592C151.838 279.592 151.543 279.689 151.307 279.882C151.074 280.075 150.899 280.335 150.783 280.662C150.669 280.986 150.612 281.348 150.612 281.749C150.612 282.146 150.669 282.507 150.783 282.831C150.899 283.155 151.074 283.413 151.307 283.607C151.543 283.797 151.838 283.892 152.193 283.892ZM160.802 282.247V278.455H162.345V285H160.849V283.837H160.781C160.633 284.203 160.39 284.503 160.052 284.736C159.717 284.969 159.304 285.085 158.812 285.085C158.383 285.085 158.004 284.99 157.675 284.8C157.348 284.607 157.092 284.327 156.907 283.96C156.723 283.591 156.631 283.145 156.631 282.622V278.455H158.173V282.384C158.173 282.798 158.287 283.128 158.514 283.372C158.741 283.616 159.04 283.739 159.409 283.739C159.636 283.739 159.856 283.683 160.069 283.572C160.282 283.462 160.457 283.297 160.594 283.078C160.733 282.857 160.802 282.58 160.802 282.247ZM165.474 281.165V285H163.931V278.455H165.406V279.567H165.482C165.633 279.2 165.873 278.909 166.203 278.693C166.535 278.477 166.945 278.369 167.434 278.369C167.886 278.369 168.279 278.466 168.615 278.659C168.953 278.852 169.214 279.132 169.399 279.499C169.586 279.865 169.678 280.31 169.676 280.832V285H168.133V281.071C168.133 280.634 168.019 280.291 167.792 280.044C167.568 279.797 167.257 279.673 166.859 279.673C166.589 279.673 166.349 279.733 166.139 279.852C165.931 279.969 165.768 280.138 165.649 280.359C165.532 280.581 165.474 280.849 165.474 281.165ZM174.512 278.455V279.648H170.749V278.455H174.512ZM171.678 276.886H173.221V283.031C173.221 283.239 173.252 283.398 173.315 283.509C173.38 283.616 173.465 283.69 173.57 283.73C173.676 283.77 173.792 283.79 173.92 283.79C174.017 283.79 174.105 283.783 174.184 283.768C174.267 283.754 174.329 283.741 174.372 283.73L174.632 284.936C174.549 284.964 174.431 284.996 174.278 285.03C174.127 285.064 173.943 285.084 173.724 285.089C173.338 285.101 172.99 285.043 172.68 284.915C172.37 284.784 172.124 284.582 171.943 284.31C171.764 284.037 171.676 283.696 171.678 283.287V276.886ZM132.509 300.128C131.87 300.128 131.316 299.987 130.847 299.706C130.378 299.425 130.015 299.031 129.756 298.526C129.501 298.02 129.373 297.429 129.373 296.753C129.373 296.077 129.501 295.484 129.756 294.976C130.015 294.467 130.378 294.072 130.847 293.791C131.316 293.51 131.87 293.369 132.509 293.369C133.148 293.369 133.702 293.51 134.171 293.791C134.64 294.072 135.002 294.467 135.258 294.976C135.516 295.484 135.645 296.077 135.645 296.753C135.645 297.429 135.516 298.02 135.258 298.526C135.002 299.031 134.64 299.425 134.171 299.706C133.702 299.987 133.148 300.128 132.509 300.128ZM132.518 298.892C132.864 298.892 133.154 298.797 133.387 298.607C133.62 298.413 133.793 298.155 133.907 297.831C134.023 297.507 134.081 297.146 134.081 296.749C134.081 296.348 134.023 295.986 133.907 295.662C133.793 295.335 133.62 295.075 133.387 294.882C133.154 294.689 132.864 294.592 132.518 294.592C132.162 294.592 131.867 294.689 131.631 294.882C131.398 295.075 131.224 295.335 131.107 295.662C130.993 295.986 130.937 296.348 130.937 296.749C130.937 297.146 130.993 297.507 131.107 297.831C131.224 298.155 131.398 298.413 131.631 298.607C131.867 298.797 132.162 298.892 132.518 298.892ZM138.497 296.165V300H136.955V293.455H138.429V294.567H138.506C138.656 294.2 138.896 293.909 139.226 293.693C139.558 293.477 139.969 293.369 140.458 293.369C140.909 293.369 141.303 293.466 141.638 293.659C141.976 293.852 142.237 294.132 142.422 294.499C142.61 294.865 142.702 295.31 142.699 295.832V300H141.156V296.071C141.156 295.634 141.043 295.291 140.816 295.044C140.591 294.797 140.28 294.673 139.882 294.673C139.612 294.673 139.372 294.733 139.162 294.852C138.955 294.969 138.791 295.138 138.672 295.359C138.556 295.581 138.497 295.849 138.497 296.165ZM147.244 300V293.455H148.786V300H147.244ZM148.019 292.526C147.775 292.526 147.565 292.445 147.389 292.283C147.213 292.118 147.124 291.92 147.124 291.69C147.124 291.457 147.213 291.26 147.389 291.098C147.565 290.933 147.775 290.851 148.019 290.851C148.267 290.851 148.477 290.933 148.65 291.098C148.826 291.26 148.914 291.457 148.914 291.69C148.914 291.92 148.826 292.118 148.65 292.283C148.477 292.445 148.267 292.526 148.019 292.526ZM153.641 293.455V294.648H149.878V293.455H153.641ZM150.807 291.886H152.35V298.031C152.35 298.239 152.381 298.398 152.444 298.509C152.509 298.616 152.594 298.69 152.699 298.73C152.805 298.77 152.921 298.79 153.049 298.79C153.145 298.79 153.233 298.783 153.313 298.768C153.395 298.754 153.458 298.741 153.501 298.73L153.76 299.936C153.678 299.964 153.56 299.996 153.407 300.03C153.256 300.064 153.072 300.084 152.853 300.089C152.466 300.101 152.118 300.043 151.809 299.915C151.499 299.784 151.253 299.582 151.072 299.31C150.893 299.037 150.805 298.696 150.807 298.287V291.886Z" fill="white"/>
    </g>
    <g id="Top-Left-7">
        <path id="Top-Left-1-Flap_3" d="M216.5 2.5L429.5 221H216.5V2.5Z" fill="#EF476F" stroke="#C2395A" stroke-width="2"/>
        <path id="7" d="M276.486 163.5L292.57 131.664V131.406H273.901V125.681H299.661V131.535L283.595 163.5H276.486Z" fill="white"/>
    </g>
    <g id="Top-Left-8">
        <path id="Top-Left-1-Flap_4" d="M429 220.5L216 2H429V220.5Z" fill="#EF476F" stroke="#962B44" stroke-width="2"/>
        <path id="8" d="M359.021 97.0166C356.276 97.0166 353.838 96.5549 351.708 95.6316C349.591 94.7083 347.929 93.4465 346.722 91.8461C345.528 90.2334 344.937 88.4053 344.95 86.3617C344.937 84.7737 345.282 83.3149 345.984 81.9853C346.686 80.6558 347.633 79.5478 348.828 78.6614C350.034 77.7628 351.376 77.1903 352.853 76.9441V76.6856C350.908 76.2547 349.332 75.2637 348.126 73.7126C346.932 72.1491 346.341 70.3456 346.353 68.3021C346.341 66.357 346.883 64.6212 347.978 63.0947C349.074 61.5682 350.576 60.3679 352.484 59.4938C354.392 58.6075 356.571 58.1643 359.021 58.1643C361.446 58.1643 363.606 58.6075 365.502 59.4938C367.41 60.3679 368.912 61.5682 370.008 63.0947C371.116 64.6212 371.67 66.357 371.67 68.3021C371.67 70.3456 371.061 72.1491 369.842 73.7126C368.635 75.2637 367.078 76.2547 365.17 76.6856V76.9441C366.647 77.1903 367.977 77.7628 369.159 78.6614C370.353 79.5478 371.301 80.6558 372.002 81.9853C372.716 83.3149 373.073 84.7737 373.073 86.3617C373.073 88.4053 372.47 90.2334 371.264 91.8461C370.057 93.4465 368.395 94.7083 366.278 95.6316C364.173 96.5549 361.754 97.0166 359.021 97.0166ZM359.021 91.7353C360.436 91.7353 361.668 91.4953 362.714 91.0151C363.76 90.5227 364.573 89.8333 365.151 88.947C365.73 88.0606 366.026 87.0388 366.038 85.8816C366.026 84.6752 365.712 83.6103 365.096 82.687C364.493 81.7514 363.662 81.0189 362.603 80.4896C361.557 79.9602 360.363 79.6955 359.021 79.6955C357.667 79.6955 356.46 79.9602 355.401 80.4896C354.343 81.0189 353.506 81.7514 352.89 82.687C352.287 83.6103 351.991 84.6752 352.004 85.8816C351.991 87.0388 352.275 88.0606 352.853 88.947C353.432 89.821 354.244 90.5042 355.291 90.9967C356.349 91.4891 357.593 91.7353 359.021 91.7353ZM359.021 74.5066C360.178 74.5066 361.2 74.2727 362.086 73.8049C362.985 73.3371 363.693 72.6846 364.21 71.8475C364.727 71.0104 364.991 70.044 365.004 68.9484C364.991 67.865 364.733 66.9171 364.228 66.1046C363.723 65.2798 363.022 64.6458 362.123 64.2026C361.224 63.7471 360.19 63.5194 359.021 63.5194C357.827 63.5194 356.774 63.7471 355.863 64.2026C354.964 64.6458 354.263 65.2798 353.758 66.1046C353.266 66.9171 353.026 67.865 353.038 68.9484C353.026 70.044 353.272 71.0104 353.776 71.8475C354.294 72.6723 355.001 73.3248 355.9 73.8049C356.811 74.2727 357.851 74.5066 359.021 74.5066Z" fill="white"/>
    </g>
</svg>
