<svg width="646" height="442" viewBox="0 0 646 442" fill="none" xmlns="http://www.w3.org/2000/svg">
    <g id="Bottom-Right-4">
        <path id="Bottom-Left-2-Flap" d="M430 219.5L643 438H430V219.5Z" fill="#FFD166" stroke="#917535" stroke-width="2"/>
        <path id="4" d="M479.361 382.482V377.035L495.408 351.681H499.951V359.437H497.181L486.378 376.555V376.85H508.777V382.482H479.361ZM497.402 389.5V380.821L497.476 378.383V351.681H503.939V389.5H497.402Z" fill="white"/>
    </g>
    <g id="Bottom-Right-3">
        <path id="Bottom-Left-1-Flap" d="M642.5 438.5L429.5 220H642.5V438.5Z" fill="#FFD166" stroke="#917535" stroke-width="2"/>
        <path id="3" d="M565.998 300.017C563.339 300.017 560.975 299.561 558.907 298.65C556.851 297.739 555.226 296.471 554.032 294.846C552.838 293.221 552.204 291.344 552.13 289.214H559.073C559.135 290.236 559.473 291.128 560.089 291.892C560.704 292.643 561.523 293.227 562.545 293.646C563.566 294.064 564.711 294.274 565.979 294.274C567.333 294.274 568.534 294.04 569.58 293.572C570.626 293.092 571.445 292.427 572.036 291.578C572.627 290.728 572.916 289.75 572.904 288.642C572.916 287.497 572.621 286.487 572.018 285.613C571.414 284.739 570.54 284.056 569.395 283.563C568.263 283.071 566.896 282.825 565.296 282.825H561.954V277.544H565.296C566.613 277.544 567.764 277.316 568.749 276.86C569.746 276.405 570.528 275.765 571.094 274.94C571.661 274.103 571.938 273.136 571.925 272.041C571.938 270.97 571.698 270.04 571.205 269.252C570.725 268.452 570.042 267.83 569.155 267.387C568.281 266.944 567.253 266.723 566.072 266.723C564.914 266.723 563.843 266.932 562.858 267.35C561.874 267.769 561.08 268.366 560.476 269.142C559.873 269.905 559.553 270.816 559.516 271.875H552.924C552.973 269.757 553.582 267.898 554.752 266.298C555.934 264.685 557.51 263.429 559.479 262.531C561.449 261.62 563.659 261.164 566.108 261.164C568.632 261.164 570.823 261.638 572.682 262.586C574.554 263.522 576 264.784 577.022 266.372C578.044 267.96 578.555 269.714 578.555 271.634C578.567 273.764 577.939 275.549 576.671 276.99C575.415 278.43 573.766 279.372 571.722 279.815V280.11C574.381 280.48 576.419 281.464 577.834 283.065C579.262 284.653 579.97 286.629 579.958 288.992C579.958 291.11 579.355 293.006 578.148 294.68C576.954 296.342 575.305 297.647 573.199 298.595C571.107 299.543 568.706 300.017 565.998 300.017Z" fill="white"/>
    </g>
    <g id="Top-Right-2">
        <path id="Top-Left-1-Flap" d="M643.5 2.99951L430 219H643L643.5 2.99951Z" fill="#118AB2" stroke="#073E51" stroke-width="2"/>
        <path id="2" d="M549.212 178.5V173.551L562.342 160.68C563.597 159.412 564.644 158.285 565.481 157.301C566.318 156.316 566.946 155.362 567.364 154.438C567.783 153.515 567.992 152.53 567.992 151.484C567.992 150.29 567.721 149.268 567.18 148.419C566.638 147.557 565.893 146.892 564.945 146.424C563.997 145.956 562.92 145.723 561.714 145.723C560.47 145.723 559.381 145.981 558.445 146.498C557.51 147.003 556.783 147.723 556.266 148.659C555.762 149.594 555.509 150.708 555.509 152.001H548.991C548.991 149.6 549.539 147.514 550.634 145.741C551.73 143.968 553.238 142.596 555.158 141.623C557.091 140.651 559.307 140.164 561.806 140.164C564.342 140.164 566.57 140.638 568.491 141.586C570.411 142.534 571.901 143.833 572.96 145.482C574.031 147.132 574.566 149.016 574.566 151.133C574.566 152.549 574.295 153.94 573.754 155.306C573.212 156.673 572.258 158.187 570.891 159.849C569.537 161.511 567.635 163.524 565.185 165.887L558.667 172.517V172.775H575.138V178.5H549.212Z" fill="white"/>
    </g>
    <g id="Top-Right-1">
        <path id="Top-Left-1-Flap_2" d="M430 221L643 2.5H430V221Z" fill="#118AB2" stroke="#073E51" stroke-width="2"/>
        <path id="1" d="M498.251 58.6813V96.4995H491.4V65.3475H491.178L482.333 70.9981V64.7197L491.732 58.6813H498.251Z" fill="white"/>
    </g>
    <g id="Bottom-Left-5">
        <path id="Bottom-Left-2-Flap_2" d="M430 219.5L217 438H430V219.5Z" fill="#06D6A0" stroke="#00664C" stroke-width="2"/>
        <path id="5" d="M349.055 390.017C346.593 390.017 344.39 389.555 342.445 388.632C340.5 387.696 338.955 386.416 337.81 384.791C336.677 383.166 336.074 381.307 336 379.214H342.648C342.771 380.765 343.442 382.033 344.661 383.018C345.879 383.991 347.344 384.477 349.055 384.477C350.397 384.477 351.591 384.169 352.638 383.553C353.684 382.938 354.509 382.082 355.112 380.987C355.715 379.891 356.011 378.642 355.999 377.238C356.011 375.81 355.709 374.542 355.094 373.434C354.478 372.326 353.635 371.458 352.564 370.83C351.493 370.19 350.262 369.87 348.871 369.87C347.738 369.858 346.624 370.067 345.528 370.498C344.433 370.929 343.565 371.495 342.925 372.197L336.739 371.181L338.714 351.681H360.652V357.406H344.384L343.294 367.433H343.516C344.217 366.608 345.208 365.925 346.489 365.383C347.769 364.829 349.172 364.552 350.699 364.552C352.989 364.552 355.032 365.094 356.83 366.177C358.627 367.248 360.043 368.725 361.077 370.609C362.111 372.492 362.628 374.647 362.628 377.072C362.628 379.571 362.049 381.799 360.892 383.757C359.747 385.702 358.153 387.234 356.109 388.355C354.078 389.463 351.727 390.017 349.055 390.017Z" fill="white"/>
    </g>
    <g id="Bottom-Left-6">
        <path id="Bottom-Left-1-Flap_2" d="M216.5 438L429.5 219.5H216.5V438Z" fill="#06D6A0" stroke="#00664C" stroke-width="2"/>
    </g>
    <g id="Bottom-Left-6-Opened">
        <path id="Bottom-Left-1-Flap-Opened" d="M216 439.5L3 221H216V439.5Z" fill="#06D6A0" stroke="#00664C" stroke-width="2"/>
    </g>
    <g id="Top-Left-7">
        <path id="Top-Left-1-Flap_3" d="M216.5 2.5L429.5 221H216.5V2.5Z" fill="#EF476F" stroke="#C2395A" stroke-width="2"/>
        <path id="7" d="M276.486 163.5L292.57 131.664V131.406H273.901V125.681H299.661V131.535L283.595 163.5H276.486Z" fill="white"/>
    </g>
    <g id="Top-Left-8">
        <path id="Top-Left-1-Flap_4" d="M429 220.5L216 2H429V220.5Z" fill="#EF476F" stroke="#962B44" stroke-width="2"/>
        <path id="8" d="M359.021 97.0166C356.276 97.0166 353.838 96.5549 351.708 95.6316C349.591 94.7083 347.929 93.4465 346.722 91.8461C345.528 90.2334 344.937 88.4053 344.95 86.3617C344.937 84.7737 345.282 83.3149 345.984 81.9853C346.686 80.6558 347.633 79.5478 348.828 78.6614C350.034 77.7628 351.376 77.1903 352.853 76.9441V76.6856C350.908 76.2547 349.332 75.2637 348.126 73.7126C346.932 72.1491 346.341 70.3456 346.353 68.3021C346.341 66.357 346.883 64.6212 347.978 63.0947C349.074 61.5682 350.576 60.3679 352.484 59.4938C354.392 58.6075 356.571 58.1643 359.021 58.1643C361.446 58.1643 363.606 58.6075 365.502 59.4938C367.41 60.3679 368.912 61.5682 370.008 63.0947C371.116 64.6212 371.67 66.357 371.67 68.3021C371.67 70.3456 371.061 72.1491 369.842 73.7126C368.635 75.2637 367.078 76.2547 365.17 76.6856V76.9441C366.647 77.1903 367.977 77.7628 369.159 78.6614C370.353 79.5478 371.301 80.6558 372.002 81.9853C372.716 83.3149 373.073 84.7737 373.073 86.3617C373.073 88.4053 372.47 90.2334 371.264 91.8461C370.057 93.4465 368.395 94.7083 366.278 95.6316C364.173 96.5549 361.754 97.0166 359.021 97.0166ZM359.021 91.7353C360.436 91.7353 361.668 91.4953 362.714 91.0151C363.76 90.5227 364.573 89.8333 365.151 88.947C365.73 88.0606 366.026 87.0388 366.038 85.8816C366.026 84.6752 365.712 83.6103 365.096 82.687C364.493 81.7514 363.662 81.0189 362.603 80.4896C361.557 79.9602 360.363 79.6955 359.021 79.6955C357.667 79.6955 356.46 79.9602 355.401 80.4896C354.343 81.0189 353.506 81.7514 352.89 82.687C352.287 83.6103 351.991 84.6752 352.004 85.8816C351.991 87.0388 352.275 88.0606 352.853 88.947C353.432 89.821 354.244 90.5042 355.291 90.9967C356.349 91.4891 357.593 91.7353 359.021 91.7353ZM359.021 74.5066C360.178 74.5066 361.2 74.2727 362.086 73.8049C362.985 73.3371 363.693 72.6846 364.21 71.8475C364.727 71.0104 364.991 70.044 365.004 68.9484C364.991 67.865 364.733 66.9171 364.228 66.1046C363.723 65.2798 363.022 64.6458 362.123 64.2026C361.224 63.7471 360.19 63.5194 359.021 63.5194C357.827 63.5194 356.774 63.7471 355.863 64.2026C354.964 64.6458 354.263 65.2798 353.758 66.1046C353.266 66.9171 353.026 67.865 353.038 68.9484C353.026 70.044 353.272 71.0104 353.776 71.8475C354.294 72.6723 355.001 73.3248 355.9 73.8049C356.811 74.2727 357.851 74.5066 359.021 74.5066Z" fill="white"/>
    </g>
</svg>
