<svg width="647" height="442" viewBox="0 0 647 442" fill="none" xmlns="http://www.w3.org/2000/svg">
    <g id="Bottom-Right-4">
        <path id="Bottom-Left-2-Flap" d="M431 220.5L644 439H431V220.5Z" fill="#FFD166" stroke="#917535" stroke-width="2"/>
        <path id="4" d="M480.361 383.483V378.035L496.408 352.681H500.951V360.437H498.181L487.378 377.555V377.85H509.777V383.483H480.361ZM498.402 390.5V381.821L498.476 379.383V352.681H504.939V390.5H498.402Z" fill="white"/>
    </g>
    <g id="Bottom-Right-3">
        <path id="Bottom-Left-1-Flap" d="M643.5 439.5L430.5 221H643.5V439.5Z" fill="#FFD166" stroke="#917535" stroke-width="2"/>
        <path id="3" d="M566.998 301.017C564.339 301.017 561.975 300.561 559.907 299.65C557.851 298.739 556.226 297.471 555.032 295.846C553.838 294.221 553.204 292.344 553.13 290.214H560.073C560.135 291.236 560.473 292.128 561.089 292.892C561.704 293.643 562.523 294.227 563.545 294.646C564.566 295.065 565.711 295.274 566.979 295.274C568.333 295.274 569.534 295.04 570.58 294.572C571.626 294.092 572.445 293.427 573.036 292.578C573.627 291.728 573.916 290.75 573.904 289.642C573.916 288.497 573.621 287.487 573.018 286.613C572.414 285.739 571.54 285.056 570.395 284.564C569.263 284.071 567.896 283.825 566.296 283.825H562.954V278.544H566.296C567.613 278.544 568.764 278.316 569.749 277.86C570.746 277.405 571.528 276.765 572.094 275.94C572.661 275.103 572.938 274.136 572.925 273.041C572.938 271.97 572.698 271.04 572.205 270.252C571.725 269.452 571.042 268.831 570.155 268.387C569.281 267.944 568.253 267.723 567.072 267.723C565.914 267.723 564.843 267.932 563.858 268.35C562.874 268.769 562.08 269.366 561.476 270.142C560.873 270.905 560.553 271.816 560.516 272.875H553.924C553.973 270.757 554.582 268.898 555.752 267.298C556.934 265.685 558.51 264.43 560.479 263.531C562.449 262.62 564.659 262.164 567.108 262.164C569.632 262.164 571.823 262.638 573.682 263.586C575.554 264.522 577 265.784 578.022 267.372C579.044 268.96 579.555 270.714 579.555 272.635C579.567 274.764 578.939 276.549 577.671 277.99C576.415 279.43 574.766 280.372 572.722 280.815V281.11C575.381 281.48 577.419 282.465 578.834 284.065C580.262 285.653 580.97 287.629 580.958 289.993C580.958 292.11 580.355 294.006 579.148 295.68C577.954 297.342 576.305 298.647 574.199 299.595C572.107 300.543 569.706 301.017 566.998 301.017Z" fill="white"/>
    </g>
    <g id="Top-Right-2">
        <path id="Top-Left-1-Flap" d="M644.5 3.99963L431 220H644L644.5 3.99963Z" fill="#118AB2" stroke="#073E51" stroke-width="2"/>
        <path id="2" d="M550.212 179.5V174.551L563.342 161.68C564.597 160.412 565.644 159.286 566.481 158.301C567.318 157.316 567.946 156.362 568.364 155.439C568.783 154.515 568.992 153.53 568.992 152.484C568.992 151.29 568.721 150.268 568.18 149.419C567.638 148.557 566.893 147.892 565.945 147.424C564.997 146.957 563.92 146.723 562.714 146.723C561.47 146.723 560.381 146.981 559.445 147.498C558.51 148.003 557.783 148.723 557.266 149.659C556.762 150.594 556.509 151.708 556.509 153.001H549.991C549.991 150.6 550.539 148.514 551.634 146.741C552.73 144.968 554.238 143.596 556.158 142.623C558.091 141.651 560.307 141.164 562.806 141.164C565.342 141.164 567.57 141.638 569.491 142.586C571.411 143.534 572.901 144.833 573.96 146.483C575.031 148.132 575.566 150.016 575.566 152.133C575.566 153.549 575.295 154.94 574.754 156.306C574.212 157.673 573.258 159.187 571.891 160.849C570.537 162.511 568.635 164.524 566.185 166.887L559.667 173.517V173.775H576.138V179.5H550.212Z" fill="white"/>
    </g>
    <g id="Top-Right-1">
        <path id="Top-Left-1-Flap_2" d="M431 222L644 3.5H431V222Z" fill="#118AB2" stroke="#073E51" stroke-width="2"/>
        <path id="1" d="M499.251 59.6815V97.4996H492.4V66.3476H492.178L483.333 71.9982V65.7198L492.732 59.6815H499.251Z" fill="white"/>
    </g>
    <g id="Bottom-Left-5">
        <path id="Bottom-Left-2-Flap_2" d="M431 220.5L218 439H431V220.5Z" fill="#06D6A0" stroke="#00664C" stroke-width="2"/>
        <path id="5" d="M350.055 391.017C347.593 391.017 345.39 390.555 343.445 389.632C341.5 388.696 339.955 387.416 338.81 385.791C337.677 384.166 337.074 382.307 337 380.214H343.648C343.771 381.765 344.442 383.033 345.661 384.018C346.879 384.991 348.344 385.477 350.055 385.477C351.397 385.477 352.591 385.169 353.638 384.554C354.684 383.938 355.509 383.082 356.112 381.987C356.715 380.891 357.011 379.642 356.999 378.238C357.011 376.81 356.709 375.542 356.094 374.434C355.478 373.326 354.635 372.458 353.564 371.831C352.493 371.19 351.262 370.87 349.871 370.87C348.738 370.858 347.624 371.067 346.528 371.498C345.433 371.929 344.565 372.495 343.925 373.197L337.739 372.181L339.714 352.681H361.652V358.406H345.384L344.294 368.433H344.516C345.217 367.608 346.208 366.925 347.489 366.383C348.769 365.829 350.172 365.552 351.699 365.552C353.989 365.552 356.032 366.094 357.83 367.177C359.627 368.248 361.043 369.725 362.077 371.609C363.111 373.493 363.628 375.647 363.628 378.072C363.628 380.571 363.049 382.799 361.892 384.757C360.747 386.702 359.153 388.234 357.109 389.355C355.078 390.463 352.727 391.017 350.055 391.017Z" fill="white"/>
    </g>
    <g id="Bottom-Left-6">
        <path id="Bottom-Left-1-Flap_2" d="M217.5 439L430.5 220.5H217.5V439Z" fill="#06D6A0" stroke="#00664C" stroke-width="2"/>
        <path id="6" d="M288.351 301.017C286.541 301.004 284.775 300.69 283.051 300.075C281.328 299.447 279.777 298.431 278.398 297.028C277.019 295.612 275.923 293.735 275.111 291.396C274.298 289.045 273.898 286.133 273.911 282.662C273.911 279.424 274.255 276.537 274.945 274.001C275.634 271.465 276.625 269.323 277.918 267.575C279.21 265.815 280.768 264.473 282.589 263.549C284.424 262.626 286.473 262.164 288.739 262.164C291.115 262.164 293.22 262.632 295.054 263.568C296.901 264.503 298.39 265.784 299.523 267.409C300.655 269.021 301.357 270.843 301.628 272.875H294.888C294.543 271.422 293.835 270.265 292.764 269.403C291.705 268.529 290.364 268.092 288.739 268.092C286.116 268.092 284.098 269.231 282.682 271.508C281.278 273.786 280.571 276.913 280.558 280.889H280.817C281.42 279.806 282.202 278.876 283.162 278.1C284.122 277.325 285.205 276.728 286.412 276.309C287.631 275.878 288.917 275.663 290.271 275.663C292.487 275.663 294.475 276.192 296.236 277.251C298.009 278.31 299.412 279.769 300.446 281.627C301.48 283.474 301.991 285.591 301.979 287.98C301.991 290.466 301.425 292.701 300.28 294.683C299.135 296.653 297.541 298.204 295.497 299.336C293.454 300.469 291.071 301.029 288.351 301.017ZM288.314 295.477C289.656 295.477 290.856 295.151 291.915 294.498C292.973 293.846 293.811 292.966 294.426 291.858C295.042 290.75 295.343 289.506 295.331 288.127C295.343 286.773 295.048 285.548 294.445 284.453C293.854 283.357 293.035 282.489 291.989 281.849C290.942 281.209 289.748 280.889 288.406 280.889C287.409 280.889 286.48 281.08 285.618 281.461C284.756 281.843 284.005 282.372 283.365 283.049C282.725 283.714 282.22 284.49 281.851 285.376C281.494 286.25 281.309 287.186 281.297 288.183C281.309 289.5 281.617 290.713 282.22 291.821C282.823 292.929 283.654 293.815 284.713 294.48C285.772 295.145 286.972 295.477 288.314 295.477Z" fill="white"/>
    </g>
    <g id="Top-Left-7">
        <path id="Top-Left-1-Flap_3" d="M217.5 3.5L430.5 222H217.5V3.5Z" fill="#EF476F" stroke="#C2395A" stroke-width="2"/>
    </g>
    <g id="Top-Left-7-Opened">
        <path id="Top-Left-1-Flap-Opened" d="M216 3L3 221.5H216V3Z" fill="#EF476F" stroke="#C2395A" stroke-width="2"/>
    </g>
    <g id="Top-Left-8">
        <path id="Top-Left-1-Flap_4" d="M430 221.5L217 3H430V221.5Z" fill="#EF476F" stroke="#962B44" stroke-width="2"/>
        <path id="8" d="M360.021 98.0167C357.276 98.0167 354.838 97.555 352.708 96.6317C350.591 95.7084 348.929 94.4466 347.722 92.8462C346.528 91.2335 345.937 89.4054 345.95 87.3618C345.937 85.7738 346.282 84.315 346.984 82.9854C347.686 81.6559 348.633 80.5479 349.828 79.6616C351.034 78.7629 352.376 78.1904 353.853 77.9442V77.6857C351.908 77.2548 350.332 76.2638 349.126 74.7127C347.932 73.1493 347.341 71.3457 347.353 69.3022C347.341 67.3571 347.883 65.6213 348.978 64.0948C350.074 62.5683 351.576 61.368 353.484 60.494C355.392 59.6076 357.571 59.1644 360.021 59.1644C362.446 59.1644 364.606 59.6076 366.502 60.494C368.41 61.368 369.912 62.5683 371.008 64.0948C372.116 65.6213 372.67 67.3571 372.67 69.3022C372.67 71.3457 372.061 73.1493 370.842 74.7127C369.635 76.2638 368.078 77.2548 366.17 77.6857V77.9442C367.647 78.1904 368.977 78.7629 370.159 79.6616C371.353 80.5479 372.301 81.6559 373.002 82.9854C373.716 84.315 374.073 85.7738 374.073 87.3618C374.073 89.4054 373.47 91.2335 372.264 92.8462C371.057 94.4466 369.395 95.7084 367.278 96.6317C365.173 97.555 362.754 98.0167 360.021 98.0167ZM360.021 92.7354C361.436 92.7354 362.668 92.4954 363.714 92.0153C364.76 91.5228 365.573 90.8334 366.151 89.9471C366.73 89.0607 367.026 88.0389 367.038 86.8817C367.026 85.6753 366.712 84.6104 366.096 83.6871C365.493 82.7515 364.662 82.019 363.603 81.4897C362.557 80.9603 361.363 80.6957 360.021 80.6957C358.667 80.6957 357.46 80.9603 356.401 81.4897C355.343 82.019 354.506 82.7515 353.89 83.6871C353.287 84.6104 352.991 85.6753 353.004 86.8817C352.991 88.0389 353.275 89.0607 353.853 89.9471C354.432 90.8211 355.244 91.5044 356.291 91.9968C357.349 92.4892 358.593 92.7354 360.021 92.7354ZM360.021 75.5067C361.178 75.5067 362.2 75.2728 363.086 74.805C363.985 74.3372 364.693 73.6848 365.21 72.8476C365.727 72.0105 365.991 71.0441 366.004 69.9485C365.991 68.8652 365.733 67.9172 365.228 67.1047C364.723 66.2799 364.022 65.6459 363.123 65.2028C362.224 64.7473 361.19 64.5195 360.021 64.5195C358.827 64.5195 357.774 64.7473 356.863 65.2028C355.964 65.6459 355.263 66.2799 354.758 67.1047C354.266 67.9172 354.026 68.8652 354.038 69.9485C354.026 71.0441 354.272 72.0105 354.776 72.8476C355.294 73.6725 356.001 74.3249 356.9 74.805C357.811 75.2728 358.851 75.5067 360.021 75.5067Z" fill="white"/>
    </g>
</svg>
