<svg width="647" height="442" viewBox="0 0 647 442" fill="none" xmlns="http://www.w3.org/2000/svg">
<g id="7-Opened">
<g id="Bottom-Right-4">
<path id="Bottom-Left-2-Flap" d="M431 220.5L644 439H431V220.5Z" fill="#FFD166" stroke="#917535" stroke-width="2"/>
<path id="4" d="M480.361 383.483V378.035L496.408 352.681H500.951V360.437H498.181L487.378 377.555V377.85H509.777V383.483H480.361ZM498.402 390.5V381.821L498.476 379.383V352.681H504.939V390.5H498.402Z" fill="white"/>
</g>
<g id="Bottom-Right-3">
<path id="Bottom-Left-1-Flap" d="M643.5 439.5L430.5 221H643.5V439.5Z" fill="#FFD166" stroke="#917535" stroke-width="2"/>
<path id="3" d="M566.998 301.017C564.339 301.017 561.975 300.561 559.907 299.65C557.851 298.739 556.226 297.471 555.032 295.846C553.838 294.221 553.204 292.344 553.13 290.214H560.073C560.135 291.236 560.473 292.128 561.089 292.892C561.704 293.643 562.523 294.227 563.545 294.646C564.566 295.065 565.711 295.274 566.979 295.274C568.333 295.274 569.534 295.04 570.58 294.572C571.626 294.092 572.445 293.427 573.036 292.578C573.627 291.728 573.916 290.75 573.904 289.642C573.916 288.497 573.621 287.487 573.018 286.613C572.414 285.739 571.54 285.056 570.395 284.564C569.263 284.071 567.896 283.825 566.296 283.825H562.954V278.544H566.296C567.613 278.544 568.764 278.316 569.749 277.86C570.746 277.405 571.528 276.765 572.094 275.94C572.661 275.103 572.938 274.136 572.925 273.041C572.938 271.97 572.698 271.04 572.205 270.252C571.725 269.452 571.042 268.831 570.155 268.387C569.281 267.944 568.253 267.723 567.072 267.723C565.914 267.723 564.843 267.932 563.858 268.35C562.874 268.769 562.08 269.366 561.476 270.142C560.873 270.905 560.553 271.816 560.516 272.875H553.924C553.973 270.757 554.582 268.898 555.752 267.298C556.934 265.685 558.51 264.43 560.479 263.531C562.449 262.62 564.659 262.164 567.108 262.164C569.632 262.164 571.823 262.638 573.682 263.586C575.554 264.522 577 265.784 578.022 267.372C579.044 268.96 579.555 270.714 579.555 272.635C579.567 274.764 578.939 276.549 577.671 277.99C576.415 279.43 574.766 280.372 572.722 280.815V281.11C575.381 281.48 577.419 282.465 578.834 284.065C580.262 285.653 580.97 287.629 580.958 289.993C580.958 292.11 580.355 294.006 579.148 295.68C577.954 297.342 576.305 298.647 574.199 299.595C572.107 300.543 569.706 301.017 566.998 301.017Z" fill="white"/>
</g>
<g id="Top-Right-2">
<path id="Top-Left-1-Flap" d="M644.5 3.99963L431 220H644L644.5 3.99963Z" fill="#118AB2" stroke="#073E51" stroke-width="2"/>
<path id="2" d="M550.212 179.5V174.551L563.342 161.68C564.597 160.412 565.644 159.286 566.481 158.301C567.318 157.316 567.946 156.362 568.364 155.439C568.783 154.515 568.992 153.53 568.992 152.484C568.992 151.29 568.721 150.268 568.18 149.419C567.638 148.557 566.893 147.892 565.945 147.424C564.997 146.957 563.92 146.723 562.714 146.723C561.47 146.723 560.381 146.981 559.445 147.498C558.51 148.003 557.783 148.723 557.266 149.659C556.762 150.594 556.509 151.708 556.509 153.001H549.991C549.991 150.6 550.539 148.514 551.634 146.741C552.73 144.968 554.238 143.596 556.158 142.623C558.091 141.651 560.307 141.164 562.806 141.164C565.342 141.164 567.57 141.638 569.491 142.586C571.411 143.534 572.901 144.833 573.96 146.483C575.031 148.132 575.566 150.016 575.566 152.133C575.566 153.549 575.295 154.94 574.754 156.306C574.212 157.673 573.258 159.187 571.891 160.849C570.537 162.511 568.635 164.524 566.185 166.887L559.667 173.517V173.775H576.138V179.5H550.212Z" fill="white"/>
</g>
<g id="Top-Right-1">
<path id="Top-Left-1-Flap_2" d="M431 222L644 3.5H431V222Z" fill="#118AB2" stroke="#073E51" stroke-width="2"/>
<path id="1" d="M499.251 59.6815V97.4996H492.4V66.3476H492.178L483.333 71.9982V65.7198L492.732 59.6815H499.251Z" fill="white"/>
</g>
<g id="Bottom-Left-5">
<path id="Bottom-Left-2-Flap_2" d="M431 220.5L218 439H431V220.5Z" fill="#06D6A0" stroke="#00664C" stroke-width="2"/>
<path id="5" d="M350.055 391.017C347.593 391.017 345.39 390.555 343.445 389.632C341.5 388.696 339.955 387.416 338.81 385.791C337.677 384.166 337.074 382.307 337 380.214H343.648C343.771 381.765 344.442 383.033 345.661 384.018C346.879 384.991 348.344 385.477 350.055 385.477C351.397 385.477 352.591 385.169 353.638 384.554C354.684 383.938 355.509 383.082 356.112 381.987C356.715 380.891 357.011 379.642 356.999 378.238C357.011 376.81 356.709 375.542 356.094 374.434C355.478 373.326 354.635 372.458 353.564 371.831C352.493 371.19 351.262 370.87 349.871 370.87C348.738 370.858 347.624 371.067 346.528 371.498C345.433 371.929 344.565 372.495 343.925 373.197L337.739 372.181L339.714 352.681H361.652V358.406H345.384L344.294 368.433H344.516C345.217 367.608 346.208 366.925 347.489 366.383C348.769 365.829 350.172 365.552 351.699 365.552C353.989 365.552 356.032 366.094 357.83 367.177C359.627 368.248 361.043 369.725 362.077 371.609C363.111 373.493 363.628 375.647 363.628 378.072C363.628 380.571 363.049 382.799 361.892 384.757C360.747 386.702 359.153 388.234 357.109 389.355C355.078 390.463 352.727 391.017 350.055 391.017Z" fill="white"/>
</g>
<g id="Bottom-Left-6">
<path id="Bottom-Left-1-Flap_2" d="M217.5 439L430.5 220.5H217.5V439Z" fill="#06D6A0" stroke="#00664C" stroke-width="2"/>
<path id="6" d="M288.351 301.017C286.541 301.004 284.775 300.69 283.051 300.075C281.328 299.447 279.777 298.431 278.398 297.028C277.019 295.612 275.923 293.735 275.111 291.396C274.298 289.045 273.898 286.133 273.911 282.662C273.911 279.424 274.255 276.537 274.945 274.001C275.634 271.465 276.625 269.323 277.918 267.575C279.21 265.815 280.768 264.473 282.589 263.549C284.424 262.626 286.473 262.164 288.739 262.164C291.115 262.164 293.22 262.632 295.054 263.568C296.901 264.503 298.39 265.784 299.523 267.409C300.655 269.021 301.357 270.843 301.628 272.875H294.888C294.543 271.422 293.835 270.265 292.764 269.403C291.705 268.529 290.364 268.092 288.739 268.092C286.116 268.092 284.098 269.231 282.682 271.508C281.278 273.786 280.571 276.913 280.558 280.889H280.817C281.42 279.806 282.202 278.876 283.162 278.1C284.122 277.325 285.205 276.728 286.412 276.309C287.631 275.878 288.917 275.663 290.271 275.663C292.487 275.663 294.475 276.192 296.236 277.251C298.009 278.31 299.412 279.769 300.446 281.627C301.48 283.474 301.991 285.591 301.979 287.98C301.991 290.466 301.425 292.701 300.28 294.683C299.135 296.653 297.541 298.204 295.497 299.336C293.454 300.469 291.071 301.029 288.351 301.017ZM288.314 295.477C289.656 295.477 290.856 295.151 291.915 294.498C292.973 293.846 293.811 292.966 294.426 291.858C295.042 290.75 295.343 289.506 295.331 288.127C295.343 286.773 295.048 285.548 294.445 284.453C293.854 283.357 293.035 282.489 291.989 281.849C290.942 281.209 289.748 280.889 288.406 280.889C287.409 280.889 286.48 281.08 285.618 281.461C284.756 281.843 284.005 282.372 283.365 283.049C282.725 283.714 282.22 284.49 281.851 285.376C281.494 286.25 281.309 287.186 281.297 288.183C281.309 289.5 281.617 290.713 282.22 291.821C282.823 292.929 283.654 293.815 284.713 294.48C285.772 295.145 286.972 295.477 288.314 295.477Z" fill="white"/>
</g>
<g id="Top-Left-7">
<path id="Top-Left-1-Flap_3" d="M217.5 3.5L430.5 222H217.5V3.5Z" fill="#EF476F" stroke="#C2395A" stroke-width="2"/>
</g>
<g id="Top-Left-7-Opened">
<path id="Top-Left-1-Flap-Opened" d="M216 3L3 221.5H216V3Z" fill="#EF476F" stroke="#C2395A" stroke-width="2"/>
<path id="Don&#226;&#128;&#153;t count on it" d="M114.808 145H111.851V136.273H114.868C115.735 136.273 116.479 136.447 117.101 136.797C117.726 137.143 118.206 137.642 118.541 138.293C118.877 138.943 119.044 139.722 119.044 140.628C119.044 141.537 118.875 142.318 118.537 142.972C118.202 143.625 117.718 144.126 117.084 144.476C116.453 144.825 115.695 145 114.808 145ZM113.432 143.632H114.732C115.34 143.632 115.847 143.521 116.253 143.3C116.659 143.075 116.965 142.741 117.169 142.298C117.374 141.852 117.476 141.295 117.476 140.628C117.476 139.96 117.374 139.406 117.169 138.966C116.965 138.523 116.662 138.192 116.262 137.973C115.864 137.751 115.369 137.641 114.779 137.641H113.432V143.632ZM123.333 145.128C122.694 145.128 122.14 144.987 121.671 144.706C121.203 144.425 120.839 144.031 120.58 143.526C120.325 143.02 120.197 142.429 120.197 141.753C120.197 141.077 120.325 140.484 120.58 139.976C120.839 139.467 121.203 139.072 121.671 138.791C122.14 138.51 122.694 138.369 123.333 138.369C123.972 138.369 124.526 138.51 124.995 138.791C125.464 139.072 125.826 139.467 126.082 139.976C126.34 140.484 126.47 141.077 126.47 141.753C126.47 142.429 126.34 143.02 126.082 143.526C125.826 144.031 125.464 144.425 124.995 144.706C124.526 144.987 123.972 145.128 123.333 145.128ZM123.342 143.892C123.688 143.892 123.978 143.797 124.211 143.607C124.444 143.413 124.617 143.155 124.731 142.831C124.847 142.507 124.906 142.146 124.906 141.749C124.906 141.348 124.847 140.986 124.731 140.662C124.617 140.335 124.444 140.075 124.211 139.882C123.978 139.689 123.688 139.592 123.342 139.592C122.987 139.592 122.691 139.689 122.455 139.882C122.222 140.075 122.048 140.335 121.931 140.662C121.818 140.986 121.761 141.348 121.761 141.749C121.761 142.146 121.818 142.507 121.931 142.831C122.048 143.155 122.222 143.413 122.455 143.607C122.691 143.797 122.987 143.892 123.342 143.892ZM129.322 141.165V145H127.779V138.455H129.253V139.567H129.33C129.481 139.2 129.721 138.909 130.05 138.693C130.383 138.477 130.793 138.369 131.282 138.369C131.733 138.369 132.127 138.466 132.462 138.659C132.8 138.852 133.062 139.132 133.246 139.499C133.434 139.865 133.526 140.31 133.523 140.832V145H131.981V141.071C131.981 140.634 131.867 140.291 131.64 140.044C131.415 139.797 131.104 139.673 130.706 139.673C130.437 139.673 130.197 139.733 129.986 139.852C129.779 139.969 129.616 140.138 129.496 140.359C129.38 140.581 129.322 140.849 129.322 141.165ZM136.4 136.273V137.142C136.4 137.392 136.351 137.652 136.255 137.922C136.161 138.189 136.032 138.445 135.867 138.689C135.702 138.93 135.515 139.138 135.305 139.311L134.589 138.847C134.745 138.611 134.881 138.357 134.998 138.084C135.114 137.808 135.172 137.497 135.172 137.151V136.273H136.4ZM141.137 138.455V139.648H137.374V138.455H141.137ZM138.303 136.886H139.846V143.031C139.846 143.239 139.877 143.398 139.94 143.509C140.005 143.616 140.09 143.69 140.195 143.73C140.301 143.77 140.417 143.79 140.545 143.79C140.642 143.79 140.73 143.783 140.809 143.768C140.892 143.754 140.954 143.741 140.997 143.73L141.257 144.936C141.174 144.964 141.056 144.996 140.903 145.03C140.752 145.064 140.568 145.084 140.349 145.089C139.963 145.101 139.615 145.043 139.305 144.915C138.995 144.784 138.749 144.582 138.568 144.31C138.389 144.037 138.301 143.696 138.303 143.287V136.886ZM148.259 145.128C147.606 145.128 147.045 144.984 146.576 144.697C146.11 144.411 145.751 144.014 145.498 143.509C145.248 143 145.123 142.415 145.123 141.753C145.123 141.088 145.251 140.501 145.506 139.993C145.762 139.482 146.123 139.084 146.589 138.8C147.057 138.513 147.611 138.369 148.251 138.369C148.782 138.369 149.252 138.467 149.661 138.663C150.073 138.857 150.401 139.131 150.645 139.486C150.89 139.838 151.029 140.25 151.063 140.722H149.589C149.529 140.406 149.387 140.143 149.162 139.933C148.941 139.72 148.644 139.614 148.272 139.614C147.956 139.614 147.68 139.699 147.441 139.869C147.202 140.037 147.016 140.278 146.883 140.594C146.752 140.909 146.687 141.287 146.687 141.727C146.687 142.173 146.752 142.557 146.883 142.878C147.013 143.196 147.197 143.442 147.432 143.615C147.671 143.786 147.951 143.871 148.272 143.871C148.499 143.871 148.702 143.828 148.881 143.743C149.063 143.655 149.215 143.528 149.337 143.364C149.459 143.199 149.543 142.999 149.589 142.763H151.063C151.026 143.226 150.89 143.636 150.654 143.994C150.418 144.349 150.097 144.628 149.691 144.83C149.285 145.028 148.807 145.128 148.259 145.128ZM155.185 145.128C154.546 145.128 153.992 144.987 153.523 144.706C153.054 144.425 152.691 144.031 152.432 143.526C152.176 143.02 152.048 142.429 152.048 141.753C152.048 141.077 152.176 140.484 152.432 139.976C152.691 139.467 153.054 139.072 153.523 138.791C153.992 138.51 154.546 138.369 155.185 138.369C155.824 138.369 156.378 138.51 156.847 138.791C157.316 139.072 157.678 139.467 157.933 139.976C158.192 140.484 158.321 141.077 158.321 141.753C158.321 142.429 158.192 143.02 157.933 143.526C157.678 144.031 157.316 144.425 156.847 144.706C156.378 144.987 155.824 145.128 155.185 145.128ZM155.193 143.892C155.54 143.892 155.83 143.797 156.063 143.607C156.296 143.413 156.469 143.155 156.583 142.831C156.699 142.507 156.757 142.146 156.757 141.749C156.757 141.348 156.699 140.986 156.583 140.662C156.469 140.335 156.296 140.075 156.063 139.882C155.83 139.689 155.54 139.592 155.193 139.592C154.838 139.592 154.543 139.689 154.307 139.882C154.074 140.075 153.899 140.335 153.783 140.662C153.669 140.986 153.612 141.348 153.612 141.749C153.612 142.146 153.669 142.507 153.783 142.831C153.899 143.155 154.074 143.413 154.307 143.607C154.543 143.797 154.838 143.892 155.193 143.892ZM163.802 142.247V138.455H165.345V145H163.849V143.837H163.781C163.633 144.203 163.39 144.503 163.052 144.736C162.717 144.969 162.304 145.085 161.812 145.085C161.383 145.085 161.004 144.99 160.675 144.8C160.348 144.607 160.092 144.327 159.907 143.96C159.723 143.591 159.631 143.145 159.631 142.622V138.455H161.173V142.384C161.173 142.798 161.287 143.128 161.514 143.372C161.741 143.616 162.04 143.739 162.409 143.739C162.636 143.739 162.856 143.683 163.069 143.572C163.282 143.462 163.457 143.297 163.594 143.078C163.733 142.857 163.802 142.58 163.802 142.247ZM168.474 141.165V145H166.931V138.455H168.406V139.567H168.482C168.633 139.2 168.873 138.909 169.203 138.693C169.535 138.477 169.945 138.369 170.434 138.369C170.886 138.369 171.279 138.466 171.615 138.659C171.953 138.852 172.214 139.132 172.399 139.499C172.586 139.865 172.678 140.31 172.676 140.832V145H171.133V141.071C171.133 140.634 171.019 140.291 170.792 140.044C170.568 139.797 170.257 139.673 169.859 139.673C169.589 139.673 169.349 139.733 169.139 139.852C168.931 139.969 168.768 140.138 168.649 140.359C168.532 140.581 168.474 140.849 168.474 141.165ZM177.512 138.455V139.648H173.749V138.455H177.512ZM174.678 136.886H176.221V143.031C176.221 143.239 176.252 143.398 176.315 143.509C176.38 143.616 176.465 143.69 176.57 143.73C176.676 143.77 176.792 143.79 176.92 143.79C177.017 143.79 177.105 143.783 177.184 143.768C177.267 143.754 177.329 143.741 177.372 143.73L177.632 144.936C177.549 144.964 177.431 144.996 177.278 145.03C177.127 145.064 176.943 145.084 176.724 145.089C176.338 145.101 175.99 145.043 175.68 144.915C175.37 144.784 175.124 144.582 174.943 144.31C174.764 144.037 174.676 143.696 174.678 143.287V136.886ZM135.509 160.128C134.87 160.128 134.316 159.987 133.847 159.706C133.378 159.425 133.015 159.031 132.756 158.526C132.501 158.02 132.373 157.429 132.373 156.753C132.373 156.077 132.501 155.484 132.756 154.976C133.015 154.467 133.378 154.072 133.847 153.791C134.316 153.51 134.87 153.369 135.509 153.369C136.148 153.369 136.702 153.51 137.171 153.791C137.64 154.072 138.002 154.467 138.258 154.976C138.516 155.484 138.645 156.077 138.645 156.753C138.645 157.429 138.516 158.02 138.258 158.526C138.002 159.031 137.64 159.425 137.171 159.706C136.702 159.987 136.148 160.128 135.509 160.128ZM135.518 158.892C135.864 158.892 136.154 158.797 136.387 158.607C136.62 158.413 136.793 158.155 136.907 157.831C137.023 157.507 137.081 157.146 137.081 156.749C137.081 156.348 137.023 155.986 136.907 155.662C136.793 155.335 136.62 155.075 136.387 154.882C136.154 154.689 135.864 154.592 135.518 154.592C135.162 154.592 134.867 154.689 134.631 154.882C134.398 155.075 134.224 155.335 134.107 155.662C133.993 155.986 133.937 156.348 133.937 156.749C133.937 157.146 133.993 157.507 134.107 157.831C134.224 158.155 134.398 158.413 134.631 158.607C134.867 158.797 135.162 158.892 135.518 158.892ZM141.497 156.165V160H139.955V153.455H141.429V154.567H141.506C141.656 154.2 141.896 153.909 142.226 153.693C142.558 153.477 142.969 153.369 143.458 153.369C143.909 153.369 144.303 153.466 144.638 153.659C144.976 153.852 145.237 154.132 145.422 154.499C145.61 154.865 145.702 155.31 145.699 155.832V160H144.156V156.071C144.156 155.634 144.043 155.291 143.816 155.044C143.591 154.797 143.28 154.673 142.882 154.673C142.612 154.673 142.372 154.733 142.162 154.852C141.955 154.969 141.791 155.138 141.672 155.359C141.556 155.581 141.497 155.849 141.497 156.165ZM150.244 160V153.455H151.786V160H150.244ZM151.019 152.526C150.775 152.526 150.565 152.445 150.389 152.283C150.213 152.118 150.124 151.92 150.124 151.69C150.124 151.457 150.213 151.26 150.389 151.098C150.565 150.933 150.775 150.851 151.019 150.851C151.267 150.851 151.477 150.933 151.65 151.098C151.826 151.26 151.914 151.457 151.914 151.69C151.914 151.92 151.826 152.118 151.65 152.283C151.477 152.445 151.267 152.526 151.019 152.526ZM156.641 153.455V154.648H152.878V153.455H156.641ZM153.807 151.886H155.35V158.031C155.35 158.239 155.381 158.398 155.444 158.509C155.509 158.616 155.594 158.69 155.699 158.73C155.805 158.77 155.921 158.79 156.049 158.79C156.145 158.79 156.233 158.783 156.313 158.768C156.395 158.754 156.458 158.741 156.501 158.73L156.76 159.936C156.678 159.964 156.56 159.996 156.407 160.03C156.256 160.064 156.072 160.084 155.853 160.089C155.466 160.101 155.118 160.043 154.809 159.915C154.499 159.784 154.253 159.582 154.072 159.31C153.893 159.037 153.805 158.696 153.807 158.287V151.886Z" fill="white"/>
</g>
<g id="Top-Left-8">
<path id="Top-Left-1-Flap_4" d="M430 221.5L217 3H430V221.5Z" fill="#EF476F" stroke="#962B44" stroke-width="2"/>
<path id="8" d="M360.021 98.0167C357.276 98.0167 354.838 97.555 352.708 96.6317C350.591 95.7084 348.929 94.4466 347.722 92.8462C346.528 91.2335 345.937 89.4054 345.95 87.3618C345.937 85.7738 346.282 84.315 346.984 82.9854C347.686 81.6559 348.633 80.5479 349.828 79.6616C351.034 78.7629 352.376 78.1904 353.853 77.9442V77.6857C351.908 77.2548 350.332 76.2638 349.126 74.7127C347.932 73.1493 347.341 71.3457 347.353 69.3022C347.341 67.3571 347.883 65.6213 348.978 64.0948C350.074 62.5683 351.576 61.368 353.484 60.494C355.392 59.6076 357.571 59.1644 360.021 59.1644C362.446 59.1644 364.606 59.6076 366.502 60.494C368.41 61.368 369.912 62.5683 371.008 64.0948C372.116 65.6213 372.67 67.3571 372.67 69.3022C372.67 71.3457 372.061 73.1493 370.842 74.7127C369.635 76.2638 368.078 77.2548 366.17 77.6857V77.9442C367.647 78.1904 368.977 78.7629 370.159 79.6616C371.353 80.5479 372.301 81.6559 373.002 82.9854C373.716 84.315 374.073 85.7738 374.073 87.3618C374.073 89.4054 373.47 91.2335 372.264 92.8462C371.057 94.4466 369.395 95.7084 367.278 96.6317C365.173 97.555 362.754 98.0167 360.021 98.0167ZM360.021 92.7354C361.436 92.7354 362.668 92.4954 363.714 92.0153C364.76 91.5228 365.573 90.8334 366.151 89.9471C366.73 89.0607 367.026 88.0389 367.038 86.8817C367.026 85.6753 366.712 84.6104 366.096 83.6871C365.493 82.7515 364.662 82.019 363.603 81.4897C362.557 80.9603 361.363 80.6957 360.021 80.6957C358.667 80.6957 357.46 80.9603 356.401 81.4897C355.343 82.019 354.506 82.7515 353.89 83.6871C353.287 84.6104 352.991 85.6753 353.004 86.8817C352.991 88.0389 353.275 89.0607 353.853 89.9471C354.432 90.8211 355.244 91.5044 356.291 91.9968C357.349 92.4892 358.593 92.7354 360.021 92.7354ZM360.021 75.5067C361.178 75.5067 362.2 75.2728 363.086 74.805C363.985 74.3372 364.693 73.6848 365.21 72.8476C365.727 72.0105 365.991 71.0441 366.004 69.9485C365.991 68.8652 365.733 67.9172 365.228 67.1047C364.723 66.2799 364.022 65.6459 363.123 65.2028C362.224 64.7473 361.19 64.5195 360.021 64.5195C358.827 64.5195 357.774 64.7473 356.863 65.2028C355.964 65.6459 355.263 66.2799 354.758 67.1047C354.266 67.9172 354.026 68.8652 354.038 69.9485C354.026 71.0441 354.272 72.0105 354.776 72.8476C355.294 73.6725 356.001 74.3249 356.9 74.805C357.811 75.2728 358.851 75.5067 360.021 75.5067Z" fill="white"/>
</g>
</g>
</svg>
