<svg width="433" height="660" viewBox="0 0 433 660" fill="none" xmlns="http://www.w3.org/2000/svg">
    <g id="Bottom-Right-4">
        <path id="Bottom-Left-2-Flap" d="M217 438.5L430 657H217V438.5Z" fill="#FFD166" stroke="#917535" stroke-width="2"/>
        <path id="4" d="M266.361 601.483V596.035L282.408 570.681H286.951V578.437H284.181L273.378 595.555V595.85H295.777V601.483H266.361ZM284.402 608.5V599.821L284.476 597.383V570.681H290.939V608.5H284.402Z" fill="white"/>
    </g>
    <g id="Bottom-Right-3">
        <path id="Bottom-Left-1-Flap" d="M429.5 657.5L216.5 439H429.5V657.5Z" fill="#FFD166" stroke="#917535" stroke-width="2"/>
        <path id="3" d="M352.998 519.017C350.339 519.017 347.975 518.561 345.907 517.65C343.851 516.739 342.226 515.471 341.032 513.846C339.838 512.221 339.204 510.344 339.13 508.214H346.073C346.135 509.236 346.473 510.128 347.089 510.892C347.704 511.643 348.523 512.227 349.545 512.646C350.566 513.065 351.711 513.274 352.979 513.274C354.333 513.274 355.534 513.04 356.58 512.572C357.626 512.092 358.445 511.427 359.036 510.578C359.627 509.728 359.916 508.75 359.904 507.642C359.916 506.497 359.621 505.487 359.018 504.613C358.414 503.739 357.54 503.056 356.395 502.564C355.263 502.071 353.896 501.825 352.296 501.825H348.954V496.544H352.296C353.613 496.544 354.764 496.316 355.749 495.86C356.746 495.405 357.528 494.765 358.094 493.94C358.661 493.103 358.938 492.136 358.925 491.041C358.938 489.97 358.698 489.04 358.205 488.252C357.725 487.452 357.042 486.831 356.155 486.387C355.281 485.944 354.253 485.723 353.072 485.723C351.914 485.723 350.843 485.932 349.858 486.35C348.874 486.769 348.08 487.366 347.476 488.142C346.873 488.905 346.553 489.816 346.516 490.875H339.924C339.973 488.757 340.582 486.898 341.752 485.298C342.934 483.685 344.51 482.43 346.479 481.531C348.449 480.62 350.659 480.164 353.108 480.164C355.632 480.164 357.823 480.638 359.682 481.586C361.554 482.522 363 483.784 364.022 485.372C365.044 486.96 365.555 488.714 365.555 490.635C365.567 492.764 364.939 494.549 363.671 495.99C362.415 497.43 360.766 498.372 358.722 498.815V499.11C361.381 499.48 363.419 500.465 364.834 502.065C366.262 503.653 366.97 505.629 366.958 507.993C366.958 510.11 366.355 512.006 365.148 513.68C363.954 515.342 362.305 516.647 360.199 517.595C358.107 518.543 355.706 519.017 352.998 519.017Z" fill="white"/>
    </g>
    <g id="Top-Right-2">
        <path id="Top-Left-1-Flap" d="M430.5 222L217 438H430L430.5 222Z" fill="#118AB2" stroke="#073E51" stroke-width="2"/>
        <path id="2" d="M336.212 397.5V392.551L349.342 379.68C350.597 378.412 351.644 377.286 352.481 376.301C353.318 375.316 353.946 374.362 354.364 373.439C354.783 372.515 354.992 371.53 354.992 370.484C354.992 369.29 354.721 368.268 354.18 367.419C353.638 366.557 352.893 365.892 351.945 365.424C350.997 364.957 349.92 364.723 348.714 364.723C347.47 364.723 346.381 364.981 345.445 365.498C344.51 366.003 343.783 366.723 343.266 367.659C342.762 368.594 342.509 369.708 342.509 371.001H335.991C335.991 368.6 336.539 366.514 337.634 364.741C338.73 362.968 340.238 361.596 342.158 360.623C344.091 359.651 346.307 359.164 348.806 359.164C351.342 359.164 353.57 359.638 355.491 360.586C357.411 361.534 358.901 362.833 359.96 364.483C361.031 366.132 361.566 368.016 361.566 370.133C361.566 371.549 361.295 372.94 360.754 374.306C360.212 375.673 359.258 377.187 357.891 378.849C356.537 380.511 354.635 382.524 352.185 384.887L345.667 391.517V391.775H362.138V397.5H336.212Z" fill="white"/>
    </g>
    <g id="Top-Right-1">
        <path id="Top-Left-1-Flap_2" d="M217 440L430 221.5H217V440Z" fill="#118AB2" stroke="#073E51" stroke-width="2"/>
        <path id="1" d="M285.251 277.681V315.5H278.4V284.348H278.178L269.333 289.998V283.72L278.732 277.681H285.251Z" fill="white"/>
    </g>
    <g id="Bottom-Left-5">
        <path id="Bottom-Left-2-Flap_2" d="M217 438.5L4 657H217V438.5Z" fill="#06D6A0" stroke="#00664C" stroke-width="2"/>
        <path id="5" d="M136.055 609.017C133.593 609.017 131.39 608.555 129.445 607.632C127.5 606.696 125.955 605.416 124.81 603.791C123.677 602.166 123.074 600.307 123 598.214H129.648C129.771 599.765 130.442 601.033 131.661 602.018C132.879 602.991 134.344 603.477 136.055 603.477C137.397 603.477 138.591 603.169 139.638 602.554C140.684 601.938 141.509 601.082 142.112 599.987C142.715 598.891 143.011 597.642 142.999 596.238C143.011 594.81 142.709 593.542 142.094 592.434C141.478 591.326 140.635 590.458 139.564 589.831C138.493 589.19 137.262 588.87 135.871 588.87C134.738 588.858 133.624 589.067 132.528 589.498C131.433 589.929 130.565 590.495 129.925 591.197L123.739 590.181L125.714 570.681H147.652V576.406H131.384L130.294 586.433H130.516C131.217 585.608 132.208 584.925 133.489 584.383C134.769 583.829 136.172 583.552 137.699 583.552C139.989 583.552 142.032 584.094 143.83 585.177C145.627 586.248 147.043 587.725 148.077 589.609C149.111 591.493 149.628 593.647 149.628 596.072C149.628 598.571 149.049 600.799 147.892 602.757C146.747 604.702 145.153 606.234 143.109 607.355C141.078 608.463 138.727 609.017 136.055 609.017Z" fill="white"/>
    </g>
    <g id="Bottom-Left-6">
        <path id="Bottom-Left-1-Flap_2" d="M3.5 657L216.5 438.5H3.5V657Z" fill="#06D6A0" stroke="#00664C" stroke-width="2"/>
        <path id="6" d="M74.3509 519.017C72.5412 519.004 70.7746 518.69 69.0511 518.075C67.3277 517.447 65.7765 516.431 64.3977 515.028C63.0189 513.612 61.9233 511.735 61.1108 509.396C60.2983 507.045 59.8982 504.133 59.9105 500.662C59.9105 497.424 60.2552 494.537 60.9446 492.001C61.634 489.465 62.625 487.323 63.9176 485.575C65.2102 483.815 66.7675 482.473 68.5895 481.549C70.4238 480.626 72.4735 480.164 74.7386 480.164C77.1146 480.164 79.2197 480.632 81.054 481.568C82.9006 482.503 84.3902 483.784 85.5227 485.409C86.6553 487.021 87.357 488.843 87.6278 490.875H80.8878C80.5431 489.422 79.8352 488.265 78.7642 487.403C77.7055 486.529 76.3636 486.092 74.7386 486.092C72.1165 486.092 70.0975 487.231 68.6818 489.508C67.2784 491.786 66.5705 494.913 66.5582 498.889H66.8168C67.42 497.806 68.2017 496.876 69.1619 496.1C70.1222 495.325 71.2055 494.728 72.4119 494.309C73.6307 493.878 74.9171 493.663 76.2713 493.663C78.4872 493.663 80.4754 494.192 82.2358 495.251C84.0085 496.31 85.4119 497.769 86.446 499.627C87.4801 501.474 87.991 503.591 87.9787 505.98C87.991 508.466 87.4247 510.701 86.2798 512.683C85.1349 514.653 83.5407 516.204 81.4972 517.336C79.4536 518.469 77.0715 519.029 74.3509 519.017ZM74.3139 513.477C75.6558 513.477 76.8561 513.151 77.9148 512.498C78.9735 511.846 79.8106 510.966 80.4261 509.858C81.0417 508.75 81.3433 507.506 81.331 506.127C81.3433 504.773 81.0478 503.548 80.4446 502.453C79.8537 501.357 79.035 500.489 77.9886 499.849C76.9422 499.209 75.7481 498.889 74.4062 498.889C73.4091 498.889 72.4796 499.08 71.6179 499.461C70.7562 499.843 70.0052 500.372 69.3651 501.049C68.7249 501.714 68.2202 502.49 67.8509 503.376C67.4938 504.25 67.3092 505.186 67.2969 506.183C67.3092 507.5 67.617 508.713 68.2202 509.821C68.8234 510.929 69.6544 511.815 70.7131 512.48C71.7718 513.145 72.9721 513.477 74.3139 513.477Z" fill="white"/>
    </g>
    <g id="Top-Left-7">
        <path id="Top-Left-1-Flap_3" d="M3.5 221.5L216.5 440H3.5V221.5Z" fill="#EF476F" stroke="#C2395A" stroke-width="2"/>
        <path id="7" d="M63.486 382.5L79.5698 350.664V350.406H60.9007V344.681H86.6607V350.535L70.5953 382.5H63.486Z" fill="white"/>
    </g>
    <g id="Top-Left-8">
        <path id="Top-Left-1-Flap_4" d="M216 439.5L3 221H216V439.5Z" fill="#EF476F" stroke="#962B44" stroke-width="2"/>
    </g>
    <g id="Top-Left-8-Opened">
        <path id="Top-Left-1-Flap-Opened" d="M216 3L3 221.5H216V3Z" fill="#EF476F" stroke="#962B44" stroke-width="2"/>
    </g>
</svg>
