<svg width="433" height="660" viewBox="0 0 433 660" fill="none" xmlns="http://www.w3.org/2000/svg">
    <g id="Bottom-Right-4">
        <path id="Bottom-Left-2-Flap" d="M217 438.5L430 657H217V438.5Z" fill="#FFD166" stroke="#917535" stroke-width="2"/>
        <path id="4" d="M266.361 601.483V596.035L282.408 570.681H286.951V578.437H284.181L273.378 595.555V595.85H295.777V601.483H266.361ZM284.402 608.5V599.821L284.476 597.383V570.681H290.939V608.5H284.402Z" fill="white"/>
    </g>
    <g id="Bottom-Right-3">
        <path id="Bottom-Left-1-Flap" d="M429.5 657.5L216.5 439H429.5V657.5Z" fill="#FFD166" stroke="#917535" stroke-width="2"/>
        <path id="3" d="M352.998 519.017C350.339 519.017 347.975 518.561 345.907 517.65C343.851 516.739 342.226 515.471 341.032 513.846C339.838 512.221 339.204 510.344 339.13 508.214H346.073C346.135 509.236 346.473 510.128 347.089 510.892C347.704 511.643 348.523 512.227 349.545 512.646C350.566 513.065 351.711 513.274 352.979 513.274C354.333 513.274 355.534 513.04 356.58 512.572C357.626 512.092 358.445 511.427 359.036 510.578C359.627 509.728 359.916 508.75 359.904 507.642C359.916 506.497 359.621 505.487 359.018 504.613C358.414 503.739 357.54 503.056 356.395 502.564C355.263 502.071 353.896 501.825 352.296 501.825H348.954V496.544H352.296C353.613 496.544 354.764 496.316 355.749 495.86C356.746 495.405 357.528 494.765 358.094 493.94C358.661 493.103 358.938 492.136 358.925 491.041C358.938 489.97 358.698 489.04 358.205 488.252C357.725 487.452 357.042 486.831 356.155 486.387C355.281 485.944 354.253 485.723 353.072 485.723C351.914 485.723 350.843 485.932 349.858 486.35C348.874 486.769 348.08 487.366 347.476 488.142C346.873 488.905 346.553 489.816 346.516 490.875H339.924C339.973 488.757 340.582 486.898 341.752 485.298C342.934 483.685 344.51 482.43 346.479 481.531C348.449 480.62 350.659 480.164 353.108 480.164C355.632 480.164 357.823 480.638 359.682 481.586C361.554 482.522 363 483.784 364.022 485.372C365.044 486.96 365.555 488.714 365.555 490.635C365.567 492.764 364.939 494.549 363.671 495.99C362.415 497.43 360.766 498.372 358.722 498.815V499.11C361.381 499.48 363.419 500.465 364.834 502.065C366.262 503.653 366.97 505.629 366.958 507.993C366.958 510.11 366.355 512.006 365.148 513.68C363.954 515.342 362.305 516.647 360.199 517.595C358.107 518.543 355.706 519.017 352.998 519.017Z" fill="white"/>
    </g>
    <g id="Top-Right-2">
        <path id="Top-Left-1-Flap" d="M430.5 222L217 438H430L430.5 222Z" fill="#118AB2" stroke="#073E51" stroke-width="2"/>
        <path id="2" d="M336.212 397.5V392.551L349.342 379.68C350.597 378.412 351.644 377.286 352.481 376.301C353.318 375.316 353.946 374.362 354.364 373.439C354.783 372.515 354.992 371.53 354.992 370.484C354.992 369.29 354.721 368.268 354.18 367.419C353.638 366.557 352.893 365.892 351.945 365.424C350.997 364.957 349.92 364.723 348.714 364.723C347.47 364.723 346.381 364.981 345.445 365.498C344.51 366.003 343.783 366.723 343.266 367.659C342.762 368.594 342.509 369.708 342.509 371.001H335.991C335.991 368.6 336.539 366.514 337.634 364.741C338.73 362.968 340.238 361.596 342.158 360.623C344.091 359.651 346.307 359.164 348.806 359.164C351.342 359.164 353.57 359.638 355.491 360.586C357.411 361.534 358.901 362.833 359.96 364.483C361.031 366.132 361.566 368.016 361.566 370.133C361.566 371.549 361.295 372.94 360.754 374.306C360.212 375.673 359.258 377.187 357.891 378.849C356.537 380.511 354.635 382.524 352.185 384.887L345.667 391.517V391.775H362.138V397.5H336.212Z" fill="white"/>
    </g>
    <g id="Top-Right-1">
        <path id="Top-Left-1-Flap_2" d="M217 440L430 221.5H217V440Z" fill="#118AB2" stroke="#073E51" stroke-width="2"/>
        <path id="1" d="M285.251 277.681V315.5H278.4V284.348H278.178L269.333 289.998V283.72L278.732 277.681H285.251Z" fill="white"/>
    </g>
    <g id="Bottom-Left-5">
        <path id="Bottom-Left-2-Flap_2" d="M217 438.5L4 657H217V438.5Z" fill="#06D6A0" stroke="#00664C" stroke-width="2"/>
        <path id="5" d="M136.055 609.017C133.593 609.017 131.39 608.555 129.445 607.632C127.5 606.696 125.955 605.416 124.81 603.791C123.677 602.166 123.074 600.307 123 598.214H129.648C129.771 599.765 130.442 601.033 131.661 602.018C132.879 602.991 134.344 603.477 136.055 603.477C137.397 603.477 138.591 603.169 139.638 602.554C140.684 601.938 141.509 601.082 142.112 599.987C142.715 598.891 143.011 597.642 142.999 596.238C143.011 594.81 142.709 593.542 142.094 592.434C141.478 591.326 140.635 590.458 139.564 589.831C138.493 589.19 137.262 588.87 135.871 588.87C134.738 588.858 133.624 589.067 132.528 589.498C131.433 589.929 130.565 590.495 129.925 591.197L123.739 590.181L125.714 570.681H147.652V576.406H131.384L130.294 586.433H130.516C131.217 585.608 132.208 584.925 133.489 584.383C134.769 583.829 136.172 583.552 137.699 583.552C139.989 583.552 142.032 584.094 143.83 585.177C145.627 586.248 147.043 587.725 148.077 589.609C149.111 591.493 149.628 593.647 149.628 596.072C149.628 598.571 149.049 600.799 147.892 602.757C146.747 604.702 145.153 606.234 143.109 607.355C141.078 608.463 138.727 609.017 136.055 609.017Z" fill="white"/>
    </g>
    <g id="Bottom-Left-6">
        <path id="Bottom-Left-1-Flap_2" d="M3.5 657L216.5 438.5H3.5V657Z" fill="#06D6A0" stroke="#00664C" stroke-width="2"/>
        <path id="6" d="M74.3509 519.017C72.5412 519.004 70.7746 518.69 69.0511 518.075C67.3277 517.447 65.7765 516.431 64.3977 515.028C63.0189 513.612 61.9233 511.735 61.1108 509.396C60.2983 507.045 59.8982 504.133 59.9105 500.662C59.9105 497.424 60.2552 494.537 60.9446 492.001C61.634 489.465 62.625 487.323 63.9176 485.575C65.2102 483.815 66.7675 482.473 68.5895 481.549C70.4238 480.626 72.4735 480.164 74.7386 480.164C77.1146 480.164 79.2197 480.632 81.054 481.568C82.9006 482.503 84.3902 483.784 85.5227 485.409C86.6553 487.021 87.357 488.843 87.6278 490.875H80.8878C80.5431 489.422 79.8352 488.265 78.7642 487.403C77.7055 486.529 76.3636 486.092 74.7386 486.092C72.1165 486.092 70.0975 487.231 68.6818 489.508C67.2784 491.786 66.5705 494.913 66.5582 498.889H66.8168C67.42 497.806 68.2017 496.876 69.1619 496.1C70.1222 495.325 71.2055 494.728 72.4119 494.309C73.6307 493.878 74.9171 493.663 76.2713 493.663C78.4872 493.663 80.4754 494.192 82.2358 495.251C84.0085 496.31 85.4119 497.769 86.446 499.627C87.4801 501.474 87.991 503.591 87.9787 505.98C87.991 508.466 87.4247 510.701 86.2798 512.683C85.1349 514.653 83.5407 516.204 81.4972 517.336C79.4536 518.469 77.0715 519.029 74.3509 519.017ZM74.3139 513.477C75.6558 513.477 76.8561 513.151 77.9148 512.498C78.9735 511.846 79.8106 510.966 80.4261 509.858C81.0417 508.75 81.3433 507.506 81.331 506.127C81.3433 504.773 81.0478 503.548 80.4446 502.453C79.8537 501.357 79.035 500.489 77.9886 499.849C76.9422 499.209 75.7481 498.889 74.4062 498.889C73.4091 498.889 72.4796 499.08 71.6179 499.461C70.7562 499.843 70.0052 500.372 69.3651 501.049C68.7249 501.714 68.2202 502.49 67.8509 503.376C67.4938 504.25 67.3092 505.186 67.2969 506.183C67.3092 507.5 67.617 508.713 68.2202 509.821C68.8234 510.929 69.6544 511.815 70.7131 512.48C71.7718 513.145 72.9721 513.477 74.3139 513.477Z" fill="white"/>
    </g>
    <g id="Top-Left-7">
        <path id="Top-Left-1-Flap_3" d="M3.5 221.5L216.5 440H3.5V221.5Z" fill="#EF476F" stroke="#C2395A" stroke-width="2"/>
        <path id="7" d="M63.486 382.5L79.5698 350.664V350.406H60.9007V344.681H86.6607V350.535L70.5953 382.5H63.486Z" fill="white"/>
    </g>
    <g id="Top-Left-8">
        <path id="Top-Left-1-Flap_4" d="M216 439.5L3 221H216V439.5Z" fill="#EF476F" stroke="#962B44" stroke-width="2"/>
    </g>
    <g id="Top-Left-8-Opened">
        <path id="Top-Left-1-Flap-Opened" d="M216 3L3 221.5H216V3Z" fill="#EF476F" stroke="#962B44" stroke-width="2"/>
        <path id="Don&#226;&#128;&#153;t count on it" d="M121.808 150H118.851V141.273H121.868C122.735 141.273 123.479 141.447 124.101 141.797C124.726 142.143 125.206 142.642 125.541 143.293C125.877 143.943 126.044 144.722 126.044 145.628C126.044 146.537 125.875 147.318 125.537 147.972C125.202 148.625 124.718 149.126 124.084 149.476C123.453 149.825 122.695 150 121.808 150ZM120.432 148.632H121.732C122.34 148.632 122.847 148.521 123.253 148.3C123.659 148.075 123.965 147.741 124.169 147.298C124.374 146.852 124.476 146.295 124.476 145.628C124.476 144.96 124.374 144.406 124.169 143.966C123.965 143.523 123.662 143.192 123.262 142.973C122.864 142.751 122.369 142.641 121.779 142.641H120.432V148.632ZM130.333 150.128C129.694 150.128 129.14 149.987 128.671 149.706C128.203 149.425 127.839 149.031 127.58 148.526C127.325 148.02 127.197 147.429 127.197 146.753C127.197 146.077 127.325 145.484 127.58 144.976C127.839 144.467 128.203 144.072 128.671 143.791C129.14 143.51 129.694 143.369 130.333 143.369C130.972 143.369 131.526 143.51 131.995 143.791C132.464 144.072 132.826 144.467 133.082 144.976C133.34 145.484 133.47 146.077 133.47 146.753C133.47 147.429 133.34 148.02 133.082 148.526C132.826 149.031 132.464 149.425 131.995 149.706C131.526 149.987 130.972 150.128 130.333 150.128ZM130.342 148.892C130.688 148.892 130.978 148.797 131.211 148.607C131.444 148.413 131.617 148.155 131.731 147.831C131.847 147.507 131.906 147.146 131.906 146.749C131.906 146.348 131.847 145.986 131.731 145.662C131.617 145.335 131.444 145.075 131.211 144.882C130.978 144.689 130.688 144.592 130.342 144.592C129.987 144.592 129.691 144.689 129.455 144.882C129.222 145.075 129.048 145.335 128.931 145.662C128.818 145.986 128.761 146.348 128.761 146.749C128.761 147.146 128.818 147.507 128.931 147.831C129.048 148.155 129.222 148.413 129.455 148.607C129.691 148.797 129.987 148.892 130.342 148.892ZM136.322 146.165V150H134.779V143.455H136.253V144.567H136.33C136.481 144.2 136.721 143.909 137.05 143.693C137.383 143.477 137.793 143.369 138.282 143.369C138.733 143.369 139.127 143.466 139.462 143.659C139.8 143.852 140.062 144.132 140.246 144.499C140.434 144.865 140.526 145.31 140.523 145.832V150H138.981V146.071C138.981 145.634 138.867 145.291 138.64 145.044C138.415 144.797 138.104 144.673 137.706 144.673C137.437 144.673 137.197 144.733 136.986 144.852C136.779 144.969 136.616 145.138 136.496 145.359C136.38 145.581 136.322 145.849 136.322 146.165ZM143.4 141.273V142.142C143.4 142.392 143.351 142.652 143.255 142.922C143.161 143.189 143.032 143.445 142.867 143.689C142.702 143.93 142.515 144.138 142.305 144.311L141.589 143.847C141.745 143.611 141.881 143.357 141.998 143.084C142.114 142.808 142.172 142.497 142.172 142.151V141.273H143.4ZM148.137 143.455V144.648H144.374V143.455H148.137ZM145.303 141.886H146.846V148.031C146.846 148.239 146.877 148.398 146.94 148.509C147.005 148.616 147.09 148.69 147.195 148.73C147.301 148.77 147.417 148.79 147.545 148.79C147.642 148.79 147.73 148.783 147.809 148.768C147.892 148.754 147.954 148.741 147.997 148.73L148.257 149.936C148.174 149.964 148.056 149.996 147.903 150.03C147.752 150.064 147.568 150.084 147.349 150.089C146.963 150.101 146.615 150.043 146.305 149.915C145.995 149.784 145.749 149.582 145.568 149.31C145.389 149.037 145.301 148.696 145.303 148.287V141.886ZM155.259 150.128C154.606 150.128 154.045 149.984 153.576 149.697C153.11 149.411 152.751 149.014 152.498 148.509C152.248 148 152.123 147.415 152.123 146.753C152.123 146.088 152.251 145.501 152.506 144.993C152.762 144.482 153.123 144.084 153.589 143.8C154.057 143.513 154.611 143.369 155.251 143.369C155.782 143.369 156.252 143.467 156.661 143.663C157.073 143.857 157.401 144.131 157.645 144.486C157.89 144.838 158.029 145.25 158.063 145.722H156.589C156.529 145.406 156.387 145.143 156.162 144.933C155.941 144.72 155.644 144.614 155.272 144.614C154.956 144.614 154.68 144.699 154.441 144.869C154.202 145.037 154.016 145.278 153.883 145.594C153.752 145.909 153.687 146.287 153.687 146.727C153.687 147.173 153.752 147.557 153.883 147.878C154.013 148.196 154.197 148.442 154.432 148.615C154.671 148.786 154.951 148.871 155.272 148.871C155.499 148.871 155.702 148.828 155.881 148.743C156.063 148.655 156.215 148.528 156.337 148.364C156.459 148.199 156.543 147.999 156.589 147.763H158.063C158.026 148.226 157.89 148.636 157.654 148.994C157.418 149.349 157.097 149.628 156.691 149.83C156.285 150.028 155.807 150.128 155.259 150.128ZM162.185 150.128C161.546 150.128 160.992 149.987 160.523 149.706C160.054 149.425 159.691 149.031 159.432 148.526C159.176 148.02 159.048 147.429 159.048 146.753C159.048 146.077 159.176 145.484 159.432 144.976C159.691 144.467 160.054 144.072 160.523 143.791C160.992 143.51 161.546 143.369 162.185 143.369C162.824 143.369 163.378 143.51 163.847 143.791C164.316 144.072 164.678 144.467 164.933 144.976C165.192 145.484 165.321 146.077 165.321 146.753C165.321 147.429 165.192 148.02 164.933 148.526C164.678 149.031 164.316 149.425 163.847 149.706C163.378 149.987 162.824 150.128 162.185 150.128ZM162.193 148.892C162.54 148.892 162.83 148.797 163.063 148.607C163.296 148.413 163.469 148.155 163.583 147.831C163.699 147.507 163.757 147.146 163.757 146.749C163.757 146.348 163.699 145.986 163.583 145.662C163.469 145.335 163.296 145.075 163.063 144.882C162.83 144.689 162.54 144.592 162.193 144.592C161.838 144.592 161.543 144.689 161.307 144.882C161.074 145.075 160.899 145.335 160.783 145.662C160.669 145.986 160.612 146.348 160.612 146.749C160.612 147.146 160.669 147.507 160.783 147.831C160.899 148.155 161.074 148.413 161.307 148.607C161.543 148.797 161.838 148.892 162.193 148.892ZM170.802 147.247V143.455H172.345V150H170.849V148.837H170.781C170.633 149.203 170.39 149.503 170.052 149.736C169.717 149.969 169.304 150.085 168.812 150.085C168.383 150.085 168.004 149.99 167.675 149.8C167.348 149.607 167.092 149.327 166.907 148.96C166.723 148.591 166.631 148.145 166.631 147.622V143.455H168.173V147.384C168.173 147.798 168.287 148.128 168.514 148.372C168.741 148.616 169.04 148.739 169.409 148.739C169.636 148.739 169.856 148.683 170.069 148.572C170.282 148.462 170.457 148.297 170.594 148.078C170.733 147.857 170.802 147.58 170.802 147.247ZM175.474 146.165V150H173.931V143.455H175.406V144.567H175.482C175.633 144.2 175.873 143.909 176.203 143.693C176.535 143.477 176.945 143.369 177.434 143.369C177.886 143.369 178.279 143.466 178.615 143.659C178.953 143.852 179.214 144.132 179.399 144.499C179.586 144.865 179.678 145.31 179.676 145.832V150H178.133V146.071C178.133 145.634 178.019 145.291 177.792 145.044C177.568 144.797 177.257 144.673 176.859 144.673C176.589 144.673 176.349 144.733 176.139 144.852C175.931 144.969 175.768 145.138 175.649 145.359C175.532 145.581 175.474 145.849 175.474 146.165ZM184.512 143.455V144.648H180.749V143.455H184.512ZM181.678 141.886H183.221V148.031C183.221 148.239 183.252 148.398 183.315 148.509C183.38 148.616 183.465 148.69 183.57 148.73C183.676 148.77 183.792 148.79 183.92 148.79C184.017 148.79 184.105 148.783 184.184 148.768C184.267 148.754 184.329 148.741 184.372 148.73L184.632 149.936C184.549 149.964 184.431 149.996 184.278 150.03C184.127 150.064 183.943 150.084 183.724 150.089C183.338 150.101 182.99 150.043 182.68 149.915C182.37 149.784 182.124 149.582 181.943 149.31C181.764 149.037 181.676 148.696 181.678 148.287V141.886ZM142.509 165.128C141.87 165.128 141.316 164.987 140.847 164.706C140.378 164.425 140.015 164.031 139.756 163.526C139.501 163.02 139.373 162.429 139.373 161.753C139.373 161.077 139.501 160.484 139.756 159.976C140.015 159.467 140.378 159.072 140.847 158.791C141.316 158.51 141.87 158.369 142.509 158.369C143.148 158.369 143.702 158.51 144.171 158.791C144.64 159.072 145.002 159.467 145.258 159.976C145.516 160.484 145.645 161.077 145.645 161.753C145.645 162.429 145.516 163.02 145.258 163.526C145.002 164.031 144.64 164.425 144.171 164.706C143.702 164.987 143.148 165.128 142.509 165.128ZM142.518 163.892C142.864 163.892 143.154 163.797 143.387 163.607C143.62 163.413 143.793 163.155 143.907 162.831C144.023 162.507 144.081 162.146 144.081 161.749C144.081 161.348 144.023 160.986 143.907 160.662C143.793 160.335 143.62 160.075 143.387 159.882C143.154 159.689 142.864 159.592 142.518 159.592C142.162 159.592 141.867 159.689 141.631 159.882C141.398 160.075 141.224 160.335 141.107 160.662C140.993 160.986 140.937 161.348 140.937 161.749C140.937 162.146 140.993 162.507 141.107 162.831C141.224 163.155 141.398 163.413 141.631 163.607C141.867 163.797 142.162 163.892 142.518 163.892ZM148.497 161.165V165H146.955V158.455H148.429V159.567H148.506C148.656 159.2 148.896 158.909 149.226 158.693C149.558 158.477 149.969 158.369 150.458 158.369C150.909 158.369 151.303 158.466 151.638 158.659C151.976 158.852 152.237 159.132 152.422 159.499C152.61 159.865 152.702 160.31 152.699 160.832V165H151.156V161.071C151.156 160.634 151.043 160.291 150.816 160.044C150.591 159.797 150.28 159.673 149.882 159.673C149.612 159.673 149.372 159.733 149.162 159.852C148.955 159.969 148.791 160.138 148.672 160.359C148.556 160.581 148.497 160.849 148.497 161.165ZM157.244 165V158.455H158.786V165H157.244ZM158.019 157.526C157.775 157.526 157.565 157.445 157.389 157.283C157.213 157.118 157.124 156.92 157.124 156.69C157.124 156.457 157.213 156.26 157.389 156.098C157.565 155.933 157.775 155.851 158.019 155.851C158.267 155.851 158.477 155.933 158.65 156.098C158.826 156.26 158.914 156.457 158.914 156.69C158.914 156.92 158.826 157.118 158.65 157.283C158.477 157.445 158.267 157.526 158.019 157.526ZM163.641 158.455V159.648H159.878V158.455H163.641ZM160.807 156.886H162.35V163.031C162.35 163.239 162.381 163.398 162.444 163.509C162.509 163.616 162.594 163.69 162.699 163.73C162.805 163.77 162.921 163.79 163.049 163.79C163.145 163.79 163.233 163.783 163.313 163.768C163.395 163.754 163.458 163.741 163.501 163.73L163.76 164.936C163.678 164.964 163.56 164.996 163.407 165.03C163.256 165.064 163.072 165.084 162.853 165.089C162.466 165.101 162.118 165.043 161.809 164.915C161.499 164.784 161.253 164.582 161.072 164.31C160.893 164.037 160.805 163.696 160.807 163.287V156.886Z" fill="white"/>
    </g>
</svg>
