<svg xmlns="http://www.w3.org/2000/svg" fill="none" viewBox="0 0 447.11 436.25">
  <path d="M2.04105 1.85226C14.541 -8.56442 223.541 28.3523 223.541 28.3523V213.024H38.5413C38.5413 213.024 -10.4589 12.2689 2.04105 1.85226Z" fill="#EF476F"/>
  <path d="M12.3933 433.853C1.97665 421.353 38.8934 212.352 38.8934 212.352H223.565V397.352C223.565 397.352 22.81 446.352 12.3933 433.853Z" fill="#06D6A0"/>
  <path d="M445.065 2.20449C432.565 -8.21219 223.564 28.7045 223.564 28.7045V213.376H408.564C408.564 213.376 457.565 12.6212 445.065 2.20449Z" fill="#118AB2"/>
  <path d="M434.712 434.205C445.129 421.705 408.212 212.704 408.212 212.704H223.541V397.704C223.541 397.704 424.296 446.705 434.712 434.205Z" fill="#FFD166"/>
  <line x1="222.72" y1="211.806" x2="437.72" y2="434.806" stroke="#917535" stroke-width="2"/>
  <line x1="222.728" y1="213.191" x2="13.2547" y2="433.742" stroke="#00664C" stroke-width="2.00707"/>
  <path d="M445.007 2.42149L222.459 213.148" stroke="#094559" stroke-width="2.00707"/>
  <line x1="3.69212" y1="1.77822" x2="222.692" y2="211.778" stroke="#962B44" stroke-width="2"/>
</svg>
