<svg width="456" height="437" viewBox="0 0 456 437" fill="none" xmlns="http://www.w3.org/2000/svg">
    <g id="upper-left-flap-d">
        <path id="upper-left-flap" d="M2.0 1.9C14.5 -8.6 223.5 28.4 223.5 28.4V213.0H38.5C38.5 213.0 -10.5 12.3 2.0 1.9Z" fill="#EF476F"/>
        <path id="upper-left-click" d="M2.0 1.9C14.5 -8.6 223.5 28.4 223.5 28.4V213.0H38.5C38.5 213.0 -10.5 12.3 2.0 1.9Z" fill="#EF476F"/>
        <line id="Line 1" x1="3.7" y1="1.8" x2="222.7" y2="211.8" stroke="#962B44" stroke-width="2"/>
    </g>
    <g id="lower-left-flap-d">
        <path id="lower-left-flap" d="M12.4 433.9C2.0 421.4 38.9 212.4 38.9 212.4H223.6V397.4C223.6 397.4 22.8 446.4 12.4 433.9Z" fill="#06D6A0"/>
        <path id="lower-left-click" d="M12.4 433.9C2.0 421.4 38.9 212.4 38.9 212.4H223.6V397.4C223.6 397.4 22.8 446.4 12.4 433.9Z" fill="#06D6A0"/>
        <line id="Line 2" x1="222.7" y1="213.2" x2="13.3" y2="433.7" stroke="#00664C" stroke-width="2.0"/>
    </g>
    <g id="upper-right-flap-d">
        <path id="upper-right-flap" d="M445.1 2.2C432.6 -8.2 223.6 28.7 223.6 28.7V213.4H408.6C408.6 213.4 457.6 12.6 445.1 2.2Z" fill="#118AB2"/>
        <path id="upper-right-click" d="M445.1 2.2C432.6 -8.2 223.6 28.7 223.6 28.7V213.4H408.6C408.6 213.4 457.6 12.6 445.1 2.2Z" fill="#118AB2"/>
        <path id="Line 3" d="M445.0 2.4L222.5 213.1" stroke="#094559" stroke-width="2.0"/>
    </g>
    <g id="lower-right-flap-d">
        <path id="lower-right-flap" d="M434.7 434.2C445.1 421.7 408.2 212.704 408.212 212.7H223.5V397.7C223.5 397.7 424.2 446.7 434.7 434.2Z" fill="#FFD166"/>
        <path id="lower-right-click" d="M434.7 434.205C445.1 421.7 408.2 212.7 408.2 212.7H223.5V397.7C223.5 397.7 424.2 446.7 434.7 434.2Z" fill="#FFD166"/>
        <line id="Line 1_2" x1="222.7" y1="211.8" x2="437.7" y2="434" stroke="#917535" stroke-width="2"/>
    </g>
</svg>
