<svg width="256" height="250" viewBox="0 0 256 250" fill="none" xmlns="http://www.w3.org/2000/svg">
<g id="Origame" filter="url(#filter0_d_2_40)">
<g id="upper-left-flap-default">
<path id="upper-left-flap" d="M5.25723 1.5541C12.1678 -4.19321 127.713 16.1753 127.713 16.1753V118.066H25.4364C25.4364 118.066 -1.65336 7.30142 5.25723 1.5541Z" fill="#EF476F"/>
<path id="up-left-click" d="M5.25723 1.5541C12.1678 -4.19321 127.713 16.1753 127.713 16.1753V118.066H25.4364C25.4364 118.066 -1.65336 7.30142 5.25723 1.5541Z" fill="#EF476F"/>
<line id="Line 1" y1="-0.460707" x2="167.582" y2="-0.460707" transform="matrix(0.722475 0.691397 -0.692842 0.721089 5.78738 1.9115)" stroke="#962B44" stroke-width="0.921414"/>
</g>
<g id="lower-left-flap-default">
<path id="lower-left-flap" d="M10.9805 239.907C5.22163 233.01 25.631 117.696 25.631 117.696H127.726V219.768C127.726 219.768 16.7393 246.803 10.9805 239.907Z" fill="#06D6A0"/>
<path id="lower-left-click" d="M10.9805 239.907C5.22163 233.01 25.631 117.696 25.631 117.696H127.726V219.768C127.726 219.768 16.7393 246.803 10.9805 239.907Z" fill="#06D6A0"/>
<line id="Line 2" y1="-0.462335" x2="167.985" y2="-0.462335" transform="matrix(-0.689388 0.724393 -0.725771 -0.687937 126.861 117.777)" stroke="#00664C" stroke-width="0.92467"/>
</g>
<g id="upper-right-flap-default">
<path id="upper-right-flap" d="M250.182 1.74844C243.271 -3.99888 127.726 16.3696 127.726 16.3696V118.26H230.003C230.003 118.26 257.093 7.49575 250.182 1.74844Z" fill="#118AB2"/>
<path id="upper-right-click" d="M250.182 1.74844C243.271 -3.99888 127.726 16.3696 127.726 16.3696V118.26H230.003C230.003 118.26 257.093 7.49575 250.182 1.74844Z" fill="#118AB2"/>
<path id="Line 3" d="M250.15 1.86818L127.115 118.135" stroke="#094559" stroke-width="0.92467"/>
</g>
<g id="lower-right-flap-default">
<path id="lower-right-flap" d="M244.459 240.101C250.218 233.204 229.808 117.89 229.808 117.89H127.713V219.962C127.713 219.962 238.7 246.998 244.459 240.101Z" fill="#FFD166"/>
<path id="lower-right-click" d="M244.459 240.101C250.218 233.204 229.808 117.89 229.808 117.89H127.713V219.962C127.713 219.962 238.7 246.998 244.459 240.101Z" fill="#FFD166"/>
<line id="Line 1_2" y1="-0.460707" x2="171.075" y2="-0.460707" transform="matrix(0.694796 0.719206 -0.720597 0.693355 126.861 117.777)" stroke="#917535" stroke-width="0.921414"/>
</g>
</g>
<defs>
<filter id="filter0_d_2_40" x="0.128845" y="0.532135" width="259.742" height="248.754" filterUnits="userSpaceOnUse" color-interpolation-filters="sRGB">
<feFlood flood-opacity="0" result="BackgroundImageFix"/>
<feColorMatrix in="SourceAlpha" type="matrix" values="0 0 0 0 0 0 0 0 0 0 0 0 0 0 0 0 0 0 127 0" result="hardAlpha"/>
<feOffset dy="4"/>
<feGaussianBlur stdDeviation="2"/>
<feComposite in2="hardAlpha" operator="out"/>
<feColorMatrix type="matrix" values="0 0 0 0 0 0 0 0 0 0 0 0 0 0 0 0 0 0 0.25 0"/>
<feBlend mode="normal" in2="BackgroundImageFix" result="effect1_dropShadow_2_40"/>
<feBlend mode="normal" in="SourceGraphic" in2="effect1_dropShadow_2_40" result="shape"/>
</filter>
</defs>
</svg>
