<svg width="456" height="461" viewBox="0 0 456 461" fill="none" xmlns="http://www.w3.org/2000/svg">
    <g id="Group 1">
        <path id="Rectangle 4" d="M2.04 1.85C14.54 -8.56 223.54 28.35 223.54 28.35V213.02H38.54C38.54 213.02 -10.46 12.26 2.04 1.85Z" fill="#EF476F"/>
    </g>
    <g id="Group 2">
        <path id="Rectangle 4_2" d="M446.06 2.20C433.56 -8.21 224.56 28.70 224.56 28.70V213.37H409.56C409.56 213.37 458.56 12.62 446.06 2.20Z" fill="#118AB2"/>
        <path id="Line 1" d="M224 28L224 210" stroke="#962B44" stroke-width="2"/>
    </g>
    
    <path id="Line 3" d="M445.00 2.42L222.45 213.14" stroke="#094559" stroke-width="2.00"/>
    <path id="Line 1_2" d="M3.69 1.78L222.69 211.78" stroke="#962B44" stroke-width="2"/>
    <path id="1-click" d="M309.46 140.34L224.91 77.20L225.02 211.88L408.97 213.20L309.46 140.34Z" fill="#073E51"/>
    <path id="Polygon 3" d="M137 141L224.31 78L224.31 212.83L40.20 214.43L137 141Z" fill="#962B44"/>
    <path id="7-click" d="M137 141L224.31 78L224.31 212.83L40.20 214.43L137 141Z" fill="#962B44"/>
    <path id="Rectangle 4_3" d="M12.85 433.50C2.43 421 39.35 212 39.35 212H224.02V397C224.02 397 23.27 446 12.85 433.50Z" fill="#06D6A0"/>
    <path id="Rectangle 5" d="M435.17 434.85C445.58 422.35 408.67 213.35 408.67 213.35H224V398.35C224 398.35 424.75 447.35 435.17 434.85Z" fill="#FFD166"/>
    <line id="Line 1_3" x1="223.17" y1="212.45" x2="438.17" y2="435.45" stroke="#917535" stroke-width="2"/>
    <line id="Line 2" x1="223.18" y1="213.83" x2="13.71" y2="434.39" stroke="#00664C" stroke-width="2.00"/>
    <path id="Polygon 4" d="M140 281.1L224.5 341L224.5 210.6L39.8 210.2L140 281.1Z" fill="#00664C"/>
    <path id="5-click" d="M140 281.1L224.5 341L224.5 210.6L39.8 210.2L140 281.1Z" fill="#00664C"/>
    <path id="Polygon 5" d="M308 282L222.2 342.2L224.6 210.7L409 212.7L308 282Z" fill="#917535"/>
    <path id="3-click" d="M308 282L222.2 342.2L224.6 210.7L409 212.7L308 282Z" fill="#917535"/>
    <line id="Line 4" x1="222" y1="211" x2="224" y2="399" stroke="#00664C" stroke-width="2"/>
    <text id="1" fill="white" xml:space="preserve" style="white-space: pre" font-family="Inter" font-size="52" font-weight="600" letter-spacing="0em"><tspan x="262.5" y="188.4" pointer-events="none">1</tspan></text>
    <text id="5" fill="white" xml:space="preserve" style="white-space: pre" font-family="Inter" font-size="52" font-weight="600" letter-spacing="0em"><tspan x="158.5" y="275.4" pointer-events="none">5</tspan></text>
    <text id="3" fill="white" xml:space="preserve" style="white-space: pre" font-family="Inter" font-size="52" font-weight="600" letter-spacing="0em"><tspan x="258.1" y="275.4" pointer-events="none">3</tspan></text>
    <text id="7" fill="white" xml:space="preserve" style="white-space: pre" font-family="Inter" font-size="52" font-weight="600" letter-spacing="0em"><tspan x="159.7" y="188.4" pointer-events="none">7</tspan></text>
</svg>

