<svg xmlns="http://www.w3.org/2000/svg" fill="none" viewBox="0 0.35 448.11 436.89">
  <path d="M2.04105 2.20449C14.541 -8.21219 223.541 28.7045 223.541 28.7045V213.376H38.5413C38.5413 213.376 -10.4589 12.6212 2.04105 2.20449Z" fill="#EF476F"/>
  <path d="M446.065 2.55673C433.565 -7.85996 224.564 29.0568 224.564 29.0568V213.728H409.564C409.564 213.728 458.565 12.9734 446.065 2.55673Z" fill="#118AB2"/>
  <path d="M224 28.3522L224 210.352" stroke="#962B44" stroke-width="2"/>
  <path d="M445.007 2.77373L222.459 213.5" stroke="#094559" stroke-width="2.00707"/>
  <path d="M3.69214 2.13045L222.692 212.13" stroke="#962B44" stroke-width="2"/>
  <path d="M309.465 140.692L224.915 77.5598L225.022 212.239L408.976 213.557L309.465 140.692Z" fill="#073E51"/>
  <path d="M137 141.352L224.312 78.3522L224.312 213.192L40.2041 214.787L137 141.352Z" fill="#962B44"/>
  <path d="M12.8523 433.853C2.43558 421.353 39.3523 212.352 39.3523 212.352H224.024V397.352C224.024 397.352 23.2689 446.352 12.8523 433.853Z" fill="#06D6A0"/>
  <path d="M435.171 435.205C445.588 422.705 408.671 213.704 408.671 213.704H224V398.704C224 398.704 424.755 447.705 435.171 435.205Z" fill="#FFD166"/>
  <line x1="223.179" y1="212.806" x2="438.179" y2="435.806" stroke="#917535" stroke-width="2"/>
  <line x1="223.187" y1="214.191" x2="13.7136" y2="434.742" stroke="#00664C" stroke-width="2.00707"/>
  <path d="M140.045 281.419L224.528 341.352L224.528 210.922L39.7731 210.509L140.045 281.419Z" fill="#00664C"/>
  <path d="M307.995 282.375L222.179 342.509L224.605 211.02L408.971 213.005L307.995 282.375Z" fill="#917535"/>
  <line x1="222.003" y1="211.342" x2="224.003" y2="399.342" stroke="#00664C" stroke-width="2.00707"/>
</svg>
