<svg xmlns="http://www.w3.org/2000/svg" fill="none" viewBox="0 0 448.11 436.89">
    <path d="M2.04105 1.85226C14.541 -8.56442 223.541 28.3523 223.541 28.3523V213.024H38.5413C38.5413 213.024 -10.4589 12.2689 2.04105 1.85226Z" fill="#EF476F"></path>
    <path d="M446.065 2.20455C433.565 -8.21213 224.564 28.7046 224.564 28.7046V213.376H409.564C409.564 213.376 458.565 12.6212 446.065 2.20455Z" fill="#118AB2"></path>
    <path d="M224 28L224 210" stroke="#962B44" stroke-width="2"></path>
    <path d="M445.007 2.42152L222.459 213.148" stroke="#094559" stroke-width="2.00707"></path>
    <path d="M3.69214 1.7782L222.692 211.778" stroke="#962B44" stroke-width="2"></path>
    <path d="M309.465 140.34L224.915 77.2075L225.022 211.887L408.976 213.204L309.465 140.34Z" fill="#073E51"></path>
    <path d="M137 141L224.312 78L224.312 212.839L40.2041 214.435L137 141Z" fill="#962B44"></path>
    <path d="M12.8523 433.5C2.43558 421 39.3523 212 39.3523 212H224.024V397C224.024 397 23.2689 446 12.8523 433.5Z" fill="#06D6A0"></path>
    <path d="M435.171 434.853C445.588 422.353 408.671 213.352 408.671 213.352H224V398.352C224 398.352 424.755 447.352 435.171 434.853Z" fill="#FFD166"></path>
    <line x1="223.179" y1="212.454" x2="438.179" y2="435.454" stroke="#917535" stroke-width="2"></line><line x1="223.187" y1="213.839" x2="13.7136" y2="434.39" stroke="#00664C" stroke-width="2.00707"></line>
    <path d="M140.045 281.066L224.528 341L224.528 210.57L39.7731 210.156L140.045 281.066Z" fill="#00664C"></path><path d="M307.995 282.023L222.179 342.157L224.605 210.667L408.971 212.653L307.995 282.023Z" fill="#917535"></path>
    <line x1="222.003" y1="210.989" x2="224.003" y2="398.989" stroke="#00664C" stroke-width="2.00707"></line><path d="M281.251 150.182V188H274.4V156.848H274.178L265.333 162.499V156.22L274.732 150.182H281.251Z" fill="white"></path>
    <path d="M175.055 275.517C172.593 275.517 170.39 275.055 168.445 274.132C166.5 273.196 164.955 271.916 163.81 270.291C162.677 268.666 162.074 266.807 162 264.714H168.648C168.771 266.266 169.442 267.534 170.661 268.518C171.879 269.491 173.344 269.977 175.055 269.977C176.397 269.977 177.591 269.67 178.638 269.054C179.684 268.438 180.509 267.583 181.112 266.487C181.715 265.392 182.011 264.142 181.999 262.739C182.011 261.311 181.709 260.043 181.094 258.935C180.478 257.827 179.635 256.959 178.564 256.331C177.493 255.691 176.262 255.371 174.871 255.371C173.738 255.358 172.624 255.568 171.528 255.999C170.433 256.429 169.565 256.996 168.925 257.697L162.739 256.682L164.714 237.182H186.652V242.906H170.384L169.294 252.933H169.516C170.217 252.108 171.208 251.425 172.489 250.884C173.769 250.33 175.172 250.053 176.699 250.053C178.989 250.053 181.032 250.594 182.83 251.678C184.627 252.749 186.043 254.226 187.077 256.109C188.111 257.993 188.628 260.147 188.628 262.572C188.628 265.071 188.049 267.3 186.892 269.257C185.747 271.202 184.153 272.735 182.109 273.855C180.078 274.963 177.727 275.517 175.055 275.517Z" fill="white"></path>
    <path d="M274.998 275.517C272.339 275.517 269.975 275.062 267.907 274.151C265.851 273.24 264.226 271.972 263.032 270.347C261.838 268.722 261.204 266.844 261.13 264.714H268.073C268.135 265.736 268.473 266.629 269.089 267.392C269.704 268.143 270.523 268.728 271.545 269.146C272.566 269.565 273.711 269.774 274.979 269.774C276.333 269.774 277.534 269.54 278.58 269.072C279.626 268.592 280.445 267.928 281.036 267.078C281.627 266.229 281.916 265.25 281.904 264.142C281.916 262.997 281.621 261.988 281.018 261.114C280.414 260.24 279.54 259.556 278.395 259.064C277.263 258.571 275.896 258.325 274.296 258.325H270.954V253.044H274.296C275.613 253.044 276.764 252.816 277.749 252.361C278.746 251.905 279.528 251.265 280.094 250.44C280.661 249.603 280.938 248.637 280.925 247.541C280.938 246.47 280.698 245.541 280.205 244.753C279.725 243.953 279.042 243.331 278.155 242.888C277.281 242.445 276.253 242.223 275.072 242.223C273.914 242.223 272.843 242.432 271.858 242.851C270.874 243.269 270.08 243.866 269.476 244.642C268.873 245.405 268.553 246.316 268.516 247.375H261.924C261.973 245.258 262.582 243.399 263.752 241.798C264.934 240.186 266.51 238.93 268.479 238.031C270.449 237.12 272.659 236.665 275.108 236.665C277.632 236.665 279.823 237.139 281.682 238.087C283.554 239.022 285 240.284 286.022 241.872C287.044 243.46 287.555 245.214 287.555 247.135C287.567 249.265 286.939 251.05 285.671 252.49C284.415 253.93 282.766 254.872 280.722 255.315V255.611C283.381 255.98 285.419 256.965 286.834 258.565C288.262 260.153 288.97 262.129 288.958 264.493C288.958 266.61 288.355 268.506 287.148 270.18C285.954 271.842 284.305 273.147 282.199 274.095C280.107 275.043 277.706 275.517 274.998 275.517Z" fill="white"></path>
    <path d="M164.486 188L180.57 156.165V155.906H161.901V150.182H187.661V156.036L171.595 188H164.486Z" fill="white"></path>
</svg>