<svg width="252" height="255" viewBox="0 0 252 255" fill="none" xmlns="http://www.w3.org/2000/svg">
<g id="Origame">
<g id="Top-Right-Flap">
<path id="Top-Right-Diagonal" d="M2.17004 1.27145L123.244 117.137" stroke="#962B44" stroke-width="0.921414"/>
<path id="Top-Right-Flap_2" d="M1.25723 1.31231C8.16783 -4.435 123.713 15.9335 123.713 15.9335V117.824H21.4364C21.4364 117.824 -5.65336 7.05963 1.25723 1.31231Z" fill="#EF476F"/>
<path id="Top-Right-Shadow" d="M75.8691 78.0859L124.139 43.3262L124.139 117.723L22.3556 118.603L75.8691 78.0859Z" fill="#962B44"/>
</g>
<g id="Top-Left-Flap">
<path id="Top-Left-Flap_2" d="M246.735 1.50665C239.824 -4.24067 124.279 16.1278 124.279 16.1278V118.019H226.556C226.556 118.019 253.646 7.25396 246.735 1.50665Z" fill="#118AB2"/>
<path id="Top-Left-Orthogonal" d="M123.967 15.7391L123.967 116.156" stroke="#962B44" stroke-width="0.921414"/>
<path id="Top-Left-Diagonal" d="M246.15 1.62639L123.115 117.893" stroke="#094559" stroke-width="0.92467"/>
<path id="Top-Left-Shadow" d="M171.216 77.7216L124.473 42.889L124.532 117.197L226.23 117.924L171.216 77.7216Z" fill="#073E51"/>
</g>
<g id="Bottom-Right-Flap">
<path id="Bottom-Left-FLap" d="M7.23419 239.47C1.47535 232.574 21.8847 117.26 21.8847 117.26H123.98V219.332C123.98 219.332 12.993 246.367 7.23419 239.47Z" fill="#06D6A0"/>
<line id="Buttom-Left-Diagonal" y1="-0.462335" x2="167.985" y2="-0.462335" transform="matrix(-0.689388 0.724393 -0.725771 -0.687937 123.115 117.893)" stroke="#00664C" stroke-width="0.92467"/>
<path id="Buttom-Left-Shadow" d="M77.5526 155.366L124.259 188.434L124.259 116.47L22.1173 116.242L77.5526 155.366Z" fill="#00664C"/>
<line id="Bottom-Orthogonal" y1="-0.462335" x2="103.733" y2="-0.462335" transform="matrix(0.010659 0.999943 -0.999944 0.0106164 122.308 116.708)" stroke="#00664C" stroke-width="0.92467"/>
</g>
<g id="Bottom-Left-Flap">
<path id="Bottom-Left-Flap_2" d="M240.713 240.217C246.471 233.32 226.062 118.006 226.062 118.006H123.967V220.078C123.967 220.078 234.954 247.113 240.713 240.217Z" fill="#FFD166"/>
<line id="Bottom-Left-Diagonal" y1="-0.460707" x2="171.075" y2="-0.460707" transform="matrix(0.694796 0.719207 -0.720596 0.693355 123.115 117.893)" stroke="#917535" stroke-width="0.921414"/>
<path id="Bottom-Left-Shadow" d="M170.404 155.894L122.96 189.073L124.302 116.524L226.228 117.62L170.404 155.894Z" fill="#917535"/>
</g>
</g>
</svg>
