<svg width="250" height="255" viewBox="0 0 250 255" fill="none" xmlns="http://www.w3.org/2000/svg">
    <path d="M1.12058 1.76764C7.98334 -3.98555 122.729 16.4038 122.729 16.4038V118.399H21.16C21.16 118.399 -5.74219 7.52084 1.12058 1.76764Z" fill="#EF476F"/>
    <path d="M244.899 1.96198C238.037 -3.79122 123.291 16.5981 123.291 16.5981V118.593H224.86C224.86 118.593 251.762 7.71517 244.899 1.96198Z" fill="#118AB2"/>
    <path d="M122.981 16.209L122.981 116.729" stroke="#962B44" stroke-width="2"/>
    <path d="M244.318 2.08197L122.135 118.467" stroke="#094559" stroke-width="2.00707"/>
    <path d="M2.02686 1.72656L122.263 117.711" stroke="#962B44" stroke-width="2"/>
    <path d="M169.903 78.255L123.483 43.3867L123.542 117.771L224.537 118.499L169.903 78.255Z" fill="#073E51"/>
    <path d="M169.903 78.255L123.483 43.3867L123.542 117.771L224.537 118.499L169.903 78.255Z" fill="#073E51"/>
    <path d="M75.2161 78.6197L123.152 43.8244L123.152 118.297L22.073 119.178L75.2161 78.6197Z" fill="#962B44"/>
    <path d="M75.2161 78.6197L123.152 43.8244L123.152 118.297L22.073 119.178L75.2161 78.6197Z" fill="#962B44"/>
    <path d="M7.05599 240.17C1.33701 233.266 21.6051 117.834 21.6051 117.834H122.994V220.01C122.994 220.01 12.775 247.073 7.05599 240.17Z" fill="#06D6A0"/>
    <path d="M238.919 240.916C244.638 234.012 224.37 118.58 224.37 118.58H122.981V220.757C122.981 220.757 233.2 247.82 238.919 240.916Z" fill="#FFD166"/>
    <line y1="-1" x2="170.595" y2="-1" transform="matrix(0.691928 0.721967 -0.71783 0.696218 122.135 118.467)" stroke="#917535" stroke-width="2"/>
    <line y1="-1.00353" x2="167.524" y2="-1.00353" transform="matrix(-0.6865 0.727129 -0.723028 -0.690819 122.135 118.467)" stroke="#00664C" stroke-width="2.00707"/>
    <path d="M76.8877 155.979L123.271 189.081L123.271 117.044L21.8361 116.815L76.8877 155.979Z" fill="#00664C"/>
    <path d="M76.8877 155.979L123.271 189.081L123.271 117.044L21.8361 116.815L76.8877 155.979Z" fill="#00664C"/>
    <path d="M169.096 156.508L121.981 189.72L123.313 117.098L224.534 118.194L169.096 156.508Z" fill="#917535"/>
    <path d="M169.096 156.508L121.981 189.72L123.313 117.098L224.534 118.194L169.096 156.508Z" fill="#917535"/>
    <line y1="-1.00353" x2="103.839" y2="-1.00353" transform="matrix(0.0105744 0.999944 -0.999943 0.0107014 121.334 117.281)" stroke="#00664C" stroke-width="2.00707"/>
    <path d="M153.746 82.2356V98.9629H150.715V85.1841H150.617L146.705 87.6834V84.9064L150.862 82.2356H153.746Z" fill="white"/>
    <path d="M96.1036 147.242C95.0146 147.242 94.0399 147.038 93.1796 146.63C92.3192 146.216 91.6359 145.65 91.1295 144.931C90.6285 144.212 90.3617 143.39 90.3291 142.464H93.2694C93.3239 143.15 93.6206 143.711 94.1597 144.147C94.6987 144.577 95.3467 144.792 96.1036 144.792C96.6971 144.792 97.2253 144.656 97.6881 144.384C98.1509 144.111 98.5157 143.733 98.7825 143.248C99.0494 142.764 99.18 142.211 99.1746 141.59C99.18 140.959 99.0466 140.398 98.7744 139.908C98.5021 139.418 98.1291 139.034 97.6554 138.756C97.1817 138.473 96.6372 138.331 96.0219 138.331C95.5209 138.326 95.0282 138.419 94.5436 138.609C94.0589 138.8 93.6751 139.05 93.3919 139.361L90.6558 138.911L91.5297 130.286H101.233V132.818H94.0372L93.5553 137.253H93.6533C93.9637 136.889 94.402 136.586 94.9683 136.347C95.5346 136.102 96.1553 135.979 96.8305 135.979C97.8433 135.979 98.7472 136.219 99.5421 136.698C100.337 137.172 100.963 137.825 101.421 138.658C101.878 139.491 102.107 140.444 102.107 141.517C102.107 142.622 101.851 143.608 101.339 144.474C100.833 145.334 100.127 146.012 99.2236 146.507C98.3252 146.997 97.2851 147.242 96.1036 147.242Z" fill="white"/>
    <path d="M150.98 147.242C149.804 147.242 148.758 147.041 147.844 146.638C146.934 146.235 146.215 145.674 145.687 144.955C145.159 144.237 144.879 143.406 144.846 142.464H147.917C147.944 142.916 148.094 143.311 148.366 143.649C148.639 143.981 149.001 144.239 149.453 144.425C149.904 144.61 150.411 144.702 150.972 144.702C151.571 144.702 152.102 144.599 152.564 144.392C153.027 144.18 153.389 143.885 153.651 143.51C153.912 143.134 154.04 142.701 154.035 142.211C154.04 141.705 153.909 141.258 153.643 140.872C153.376 140.485 152.989 140.183 152.483 139.965C151.982 139.747 151.377 139.638 150.67 139.638H149.191V137.302H150.67C151.252 137.302 151.761 137.202 152.197 137C152.638 136.799 152.984 136.516 153.234 136.151C153.485 135.78 153.607 135.353 153.602 134.868C153.607 134.395 153.501 133.984 153.283 133.635C153.071 133.281 152.769 133.006 152.377 132.81C151.99 132.614 151.535 132.516 151.013 132.516C150.501 132.516 150.027 132.609 149.591 132.794C149.156 132.979 148.805 133.243 148.538 133.586C148.271 133.924 148.129 134.327 148.113 134.795H145.197C145.219 133.858 145.489 133.036 146.006 132.328C146.529 131.615 147.226 131.06 148.097 130.662C148.968 130.259 149.945 130.058 151.029 130.058C152.145 130.058 153.114 130.267 153.937 130.687C154.764 131.1 155.404 131.659 155.856 132.361C156.308 133.063 156.534 133.839 156.534 134.689C156.539 135.631 156.262 136.42 155.701 137.057C155.145 137.694 154.416 138.111 153.512 138.307V138.438C154.688 138.601 155.589 139.037 156.215 139.744C156.847 140.447 157.16 141.321 157.155 142.366C157.155 143.303 156.888 144.141 156.354 144.882C155.826 145.617 155.096 146.194 154.165 146.613C153.24 147.033 152.178 147.242 150.98 147.242Z" fill="white"/>
    <path d="M91.4286 98.9629L98.5426 84.8819V84.7676H90.2852V82.2356H101.679V84.8248L94.5732 98.9629H91.4286Z" fill="white"/>
</svg>
