<svg width="456" height="461" viewBox="0 0 456 461" fill="none" xmlns="http://www.w3.org/2000/svg">
    <g id="Top-Right-Flap">
        <path id="Top-Right-Diagonal" d="M3.69 2.13L222.69 212.13" stroke="#962B44" stroke-width="2"/>
        <path id="Top-Right-Flap_2" d="M2.04 2.20C14.54 -8.21 223.54 28.70 223.54 28.70V213.37H38.54C38.54 213.37 -10.45 12.62 2.04 2.20Z" fill="#EF476F"/>
        <path id="Top-Right-Shadow" d="M137 141.35L224.31 78.35L224.31 213.19L40.20 214.78L137 141.35Z" fill="#962B44"/>
    </g>
    <g id="Top-Left-Flap">
        <path id="Top-Left-Flap_2" d="M446.06 2.56C433.56 -7.86 224.56 29.05 224.56 29.05V213.73H409.56C409.56 213.73 458.56 12.97 446.06 2.56Z" fill="#118AB2"/>
        <path id="Top-Left-Orthogonal" d="M224 28.35L224 210.35" stroke="#962B44" stroke-width="2"/>
        <path id="Top-Left-Diagonal" d="M445.00 2.77L222.45 213.5" stroke="#094559" stroke-width="2.00"/>
        <path id="Top-Left-Shadow" d="M309.46 140.69L224.91 77.55L225.02 212.23L408.97 213.56L309.46 140.69Z" fill="#073E51"/>
    </g>
    <g id="Bottom-Right-Flap">
        <path id="Bottom-Left-FLap" d="M12.85 433.85C2.43 421.35 39.35 212.35 39.35 212.35H224.02V397.35C224.02 397.35 23.26 446.35 12.85 433.85Z" fill="#06D6A0"/>
        <line id="Buttom-Left-Diagonal" x1="223.19" y1="214.19" x2="13.71" y2="434.74" stroke="#00664C" stroke-width="2.00"/>
        <path id="Buttom-Left-Shadow" d="M140.04 281.41L224.52 341.35L224.52 210.92L39.77 210.50L140.04 281.41Z" fill="#00664C"/>
        <line id="Bottom-Orthogonal" x1="222.00" y1="211.34" x2="224.00" y2="399.34" stroke="#00664C" stroke-width="2.00"/>
    </g>
    <g id="Bottom-Left-Flap">
        <path id="Bottom-Left-Flap_2" d="M435.2 435.2C445.6 422.7 408.7 213.7 408.7 213.7H224V398.7C224 398.7 424.8 447.7 435.2 435.2Z" fill="#FFD166"/>
        <line id="Bottom-Left-Diagonal" x1="223.2" y1="212.8" x2="438.2" y2="435.8" stroke="#917535" stroke-width="2"/>
        <path id="Bottom-Left-Shadow" d="M308.0 282.4L222.2 342.5L224.6 211.0L409.0 213.0L308.0 282.4Z" fill="#917535"/>
    </g>
</svg>
