<svg width="461" height="456" viewBox="0 0 461 456" fill="none" xmlns="http://www.w3.org/2000/svg">
    <g id="Group 1">
        <path id="Rectangle 4" d="M1.9 453.3C-8.6 440.8 28.4 231.8 28.4 231.8L213.0 231.8L213.0 416.8C213.0 416.8 12.3 465.8 1.9 453.3Z" fill="#06D6A0"/>
        <path id="Line 1" d="M1.8 451.7L211.8 232.7" stroke="#00664C" stroke-width="2"/>
        <path id="Polygon 3" d="M127.4 320.4L54.0 233.1L213.0 233.1L213.0 417.1L127.4 320.4Z" fill="#00664C"/>
    </g>
    <g id="Group 2">
        <path id="Rectangle 4_2" d="M2.2 9.3C-8.2 21.8 28.7 230.8 28.7 230.8L213.4 230.8L213.4 45.8C213.4 45.8 12.6 -3.2 2.2 9.3Z" fill="#EF476F"/>
        <path id="Line 1_2" d="M28.0 231.4L210.0 231.4" stroke="#EF476F" stroke-width="2"/>
    </g>
    <path id="Line 3" d="M2.4 10.3L213.1 232.9" stroke="#962B44" stroke-width="2.0"/>
    <path id="Rectangle 4_3" d="M433.5 442.5C421.0 452.9 212.0 416.0 212.0 416.0L212.0 231.3L397.0 231.3C397.0 231.3 446.0 432.1 433.5 442.5Z" fill="#FFD166"/>
    <path id="Rectangle 5" d="M434.9 20.2C422.4 9.8 213.4 46.7 213.4 46.7L213.4 231.4L398.4 231.4C398.4 231.4 447.4 30.6 434.9 20.2Z" fill="#118AB2"/>
    <line id="Line 1_3" x1="212.5" y1="232.2" x2="435.5" y2="17.2" stroke="#094559" stroke-width="2"/>
    <line id="Line 2" x1="213.8" y1="232.2" x2="434.4" y2="441.6" stroke="#987B38" stroke-width="2.0"/>
    <line id="Line 4" x1="211.0" y1="232.4" x2="399.0" y2="232.4" stroke="#00664C" stroke-width="2.0"/>
    <path id="Polygon 3_2" d="M127.4 144.8L54 233L213 233L213 47L127.4 144.8Z" fill="#962B44"/>
    <path id="Polygon 4" d="M298.6 147.9L371 233H213V47L298.6 147.9Z" fill="#094559"/>
    <path id="Polygon 4_2" d="M298.7 317.1L371.1 233H213V416.9L298.7 317.1Z" fill="#917535"/>
</svg>
