<svg xmlns="http://www.w3.org/2000/svg" fill="none" viewBox="0 7.25 436.89 448.11">
    <path d="M1.85226 453.314C-8.56442 440.814 28.3523 231.814 28.3523 231.814L213.024 231.814L213.024 416.814C213.024 416.814 12.2689 465.814 1.85226 453.314Z" fill="#06D6A0"></path>
    <path d="M2.20449 9.29056C-8.21219 21.7905 28.7045 230.791 28.7045 230.791L213.376 230.791L213.376 45.7909C213.376 45.7909 12.6212 -3.20942 2.20449 9.29056Z" fill="#EF476F"></path>
    <path d="M28 231.355L210 231.355" stroke="#EF476F" stroke-width="2"></path>
    <path d="M2.42152 10.3482L213.148 232.896" stroke="#962B44" stroke-width="2.00707"></path>
    <path d="M1.7782 451.663L211.778 232.663" stroke="#00664C" stroke-width="2"></path>
    <path d="M433.5 442.503C421 452.92 212 416.003 212 416.003L212 231.332L397 231.332C397 231.332 446 432.086 433.5 442.503Z" fill="#FFD166"></path>
    <path d="M434.853 20.1838C422.353 9.76712 213.352 46.6838 213.352 46.6838L213.352 231.355L398.352 231.355C398.352 231.355 447.352 30.6005 434.853 20.1838Z" fill="#118AB2"></path>
    <line x1="212.454" y1="232.176" x2="435.454" y2="17.1763" stroke="#094559" stroke-width="2"></line>
    <line x1="213.839" y1="232.169" x2="434.39" y2="441.642" stroke="#987B38" stroke-width="2.00707"></line>
    <line x1="210.995" y1="232.352" x2="399.005" y2="232.352" stroke="#00664C" stroke-width="2.00707"></line>
    <path d="M127.414 144.794L54 233L213 233L213 47L127.414 144.794Z" fill="#962B44"></path>
    <path d="M298.628 147.949L371 233H213V47L298.628 147.949Z" fill="#094559"></path>
    <path d="M254.212 190V185.051L267.342 172.18C268.597 170.912 269.644 169.786 270.481 168.801C271.318 167.816 271.946 166.862 272.364 165.939C272.783 165.016 272.992 164.031 272.992 162.984C272.992 161.79 272.721 160.768 272.18 159.919C271.638 159.057 270.893 158.393 269.945 157.925C268.997 157.457 267.92 157.223 266.714 157.223C265.47 157.223 264.381 157.482 263.445 157.999C262.51 158.503 261.783 159.223 261.266 160.159C260.762 161.095 260.509 162.209 260.509 163.501H253.991C253.991 161.101 254.539 159.014 255.634 157.241C256.73 155.469 258.238 154.096 260.158 153.124C262.091 152.151 264.307 151.665 266.806 151.665C269.342 151.665 271.57 152.139 273.491 153.087C275.411 154.035 276.901 155.333 277.96 156.983C279.031 158.633 279.566 160.516 279.566 162.634C279.566 164.049 279.295 165.44 278.754 166.807C278.212 168.173 277.258 169.687 275.891 171.349C274.537 173.011 272.635 175.024 270.185 177.388L263.667 184.017V184.276H280.138V190H254.212Z" fill="white"></path>
    <path d="M127.414 320.368L54 233.111L213 233.111L213 417.111L127.414 320.368Z" fill="#00664C"></path>
    <path d="M167.351 316.517C165.541 316.505 163.775 316.191 162.051 315.575C160.328 314.947 158.777 313.932 157.398 312.528C156.019 311.113 154.923 309.235 154.111 306.896C153.298 304.545 152.898 301.634 152.911 298.162C152.911 294.924 153.255 292.037 153.945 289.501C154.634 286.965 155.625 284.823 156.918 283.075C158.21 281.315 159.768 279.973 161.589 279.05C163.424 278.126 165.473 277.665 167.739 277.665C170.115 277.665 172.22 278.133 174.054 279.068C175.901 280.004 177.39 281.284 178.523 282.909C179.655 284.522 180.357 286.344 180.628 288.375H173.888C173.543 286.922 172.835 285.765 171.764 284.903C170.705 284.029 169.364 283.592 167.739 283.592C165.116 283.592 163.098 284.731 161.682 287.009C160.278 289.286 159.571 292.413 159.558 296.389H159.817C160.42 295.306 161.202 294.376 162.162 293.601C163.122 292.825 164.205 292.228 165.412 291.81C166.631 291.379 167.917 291.163 169.271 291.163C171.487 291.163 173.475 291.693 175.236 292.751C177.009 293.81 178.412 295.269 179.446 297.128C180.48 298.974 180.991 301.092 180.979 303.48C180.991 305.967 180.425 308.201 179.28 310.183C178.135 312.153 176.541 313.704 174.497 314.837C172.454 315.969 170.071 316.529 167.351 316.517ZM167.314 310.977C168.656 310.977 169.856 310.651 170.915 309.999C171.973 309.346 172.811 308.466 173.426 307.358C174.042 306.25 174.343 305.007 174.331 303.628C174.343 302.274 174.048 301.049 173.445 299.953C172.854 298.857 172.035 297.99 170.989 297.349C169.942 296.709 168.748 296.389 167.406 296.389C166.409 296.389 165.48 296.58 164.618 296.962C163.756 297.343 163.005 297.873 162.365 298.55C161.725 299.214 161.22 299.99 160.851 300.876C160.494 301.75 160.309 302.686 160.297 303.683C160.309 305 160.617 306.213 161.22 307.321C161.823 308.429 162.654 309.315 163.713 309.98C164.772 310.645 165.972 310.977 167.314 310.977Z" fill="white"></path>
    <path d="M298.674 317.072L371.083 233H213V416.859L298.674 317.072Z" fill="#917535"></path>
    <path d="M252.361 308.983V303.536L268.408 278.182H272.951V285.938H270.181L259.378 303.055V303.351H281.777V308.983H252.361ZM270.402 316V307.321L270.476 304.884V278.182H276.939V316H270.402Z" fill="white"></path>
    <path d="M167.021 190.517C164.276 190.517 161.838 190.055 159.708 189.132C157.591 188.209 155.929 186.947 154.722 185.347C153.528 183.734 152.937 181.906 152.95 179.862C152.937 178.274 153.282 176.815 153.984 175.486C154.686 174.156 155.633 173.048 156.828 172.162C158.034 171.263 159.376 170.691 160.853 170.445V170.186C158.908 169.755 157.332 168.764 156.126 167.213C154.932 165.65 154.341 163.846 154.353 161.803C154.341 159.857 154.883 158.122 155.978 156.595C157.074 155.069 158.576 153.868 160.484 152.994C162.392 152.108 164.571 151.665 167.021 151.665C169.446 151.665 171.606 152.108 173.502 152.994C175.41 153.868 176.912 155.069 178.008 156.595C179.116 158.122 179.67 159.857 179.67 161.803C179.67 163.846 179.061 165.65 177.842 167.213C176.635 168.764 175.078 169.755 173.17 170.186V170.445C174.647 170.691 175.977 171.263 177.159 172.162C178.353 173.048 179.301 174.156 180.002 175.486C180.716 176.815 181.073 178.274 181.073 179.862C181.073 181.906 180.47 183.734 179.264 185.347C178.057 186.947 176.395 188.209 174.278 189.132C172.173 190.055 169.754 190.517 167.021 190.517ZM167.021 185.236C168.436 185.236 169.668 184.996 170.714 184.516C171.76 184.023 172.573 183.334 173.151 182.447C173.73 181.561 174.026 180.539 174.038 179.382C174.026 178.176 173.712 177.111 173.096 176.188C172.493 175.252 171.662 174.519 170.603 173.99C169.557 173.461 168.363 173.196 167.021 173.196C165.667 173.196 164.46 173.461 163.401 173.99C162.343 174.519 161.506 175.252 160.89 176.188C160.287 177.111 159.991 178.176 160.004 179.382C159.991 180.539 160.275 181.561 160.853 182.447C161.432 183.321 162.244 184.005 163.291 184.497C164.349 184.99 165.593 185.236 167.021 185.236ZM167.021 168.007C168.178 168.007 169.2 167.773 170.086 167.305C170.985 166.838 171.693 166.185 172.21 165.348C172.727 164.511 172.991 163.545 173.004 162.449C172.991 161.366 172.733 160.418 172.228 159.605C171.723 158.78 171.022 158.146 170.123 157.703C169.224 157.248 168.19 157.02 167.021 157.02C165.827 157.02 164.774 157.248 163.863 157.703C162.964 158.146 162.263 158.78 161.758 159.605C161.266 160.418 161.026 161.366 161.038 162.449C161.026 163.545 161.272 164.511 161.776 165.348C162.294 166.173 163.001 166.825 163.9 167.305C164.811 167.773 165.851 168.007 167.021 168.007Z" fill="white"></path>
</svg>
