<svg width="255" height="252" viewBox="0 0 255 252" fill="none" xmlns="http://www.w3.org/2000/svg">
    <path d="M1.40338 250.651C-4.34394 243.741 16.0245 128.195 16.0245 128.195H117.915L117.915 230.472C117.915 230.472 7.15069 257.562 1.40338 250.651Z" fill="#06D6A0"/>
    <path d="M1.59771 5.17356C-4.1496 12.0841 16.2189 127.63 16.2189 127.63L118.11 127.63L118.11 25.3527C118.11 25.3527 7.34503 -1.73704 1.59771 5.17356Z" fill="#EF476F"/>
    <path d="M15.8302 127.941L116.247 127.941" stroke="#EF476F" stroke-width="0.921414"/>
    <path d="M1.71745 5.75828L117.984 128.794" stroke="#962B44" stroke-width="0.92467"/>
    <path d="M1.36252 249.738L117.228 128.665" stroke="#00664C" stroke-width="0.921414"/>
    <path d="M239.561 244.674C232.665 250.433 117.351 230.024 117.351 230.024L117.351 127.928L219.423 127.928C219.423 127.928 246.458 238.915 239.561 244.674Z" fill="#FFD166"/>
    <path d="M240.308 11.1959C233.411 5.43705 118.097 25.8464 118.097 25.8464L118.097 127.942L220.169 127.942C220.169 127.942 247.204 16.9547 240.308 11.1959Z" fill="#118AB2"/>
    <line y1="-0.460707" x2="171.075" y2="-0.460707" transform="matrix(0.719207 -0.694796 0.693355 0.720596 117.984 128.793)" stroke="#094559" stroke-width="0.921414"/>
    <line y1="-0.462335" x2="167.985" y2="-0.462335" transform="matrix(0.724393 0.689388 -0.687937 0.725771 117.984 128.793)" stroke="#987B38" stroke-width="0.92467"/>
    <line x1="116.796" y1="128.585" x2="220.529" y2="128.585" stroke="#00664C" stroke-width="0.92467"/>
    <path d="M70.681 80.0864L30.1754 128.851L117.902 128.851L117.902 26.021L70.681 80.0864Z" fill="#962B44"/>
    <path d="M70.681 80.0864L30.1754 128.851L117.902 128.851L117.902 26.021L70.681 80.0864Z" fill="#962B44"/>
    <path d="M165.147 81.8303L205.077 128.851H117.902L117.902 26.021L165.147 81.8303Z" fill="#094559"/>
    <path d="M165.147 81.8303L205.077 128.851H117.902L117.902 26.021L165.147 81.8303Z" fill="#094559"/>
    <path d="M141.805 100.436V98.1561L147.854 92.2264C148.432 91.6422 148.914 91.1233 149.3 90.6696C149.686 90.2158 149.975 89.7763 150.168 89.3509C150.361 88.9256 150.457 88.4718 150.457 87.9898C150.457 87.4396 150.332 86.9689 150.083 86.5775C149.833 86.1805 149.49 85.8743 149.053 85.6587C148.617 85.4432 148.12 85.3355 147.564 85.3355C146.992 85.3355 146.49 85.4546 146.059 85.6928C145.628 85.9253 145.293 86.2571 145.055 86.6881C144.822 87.1192 144.706 87.6324 144.706 88.228H141.703C141.703 87.122 141.955 86.1607 142.46 85.344C142.965 84.5273 143.66 83.8949 144.544 83.4468C145.435 82.9988 146.456 82.7747 147.607 82.7747C148.775 82.7747 149.802 82.9931 150.687 83.4298C151.571 83.8665 152.258 84.4649 152.745 85.2249C153.239 85.9848 153.486 86.8526 153.486 87.8281C153.486 88.4803 153.361 89.1212 153.111 89.7508C152.862 90.3803 152.422 91.0779 151.793 91.8436C151.169 92.6093 150.293 93.5366 149.164 94.6255L146.161 97.6796V97.7987H153.749V100.436H141.805Z" fill="white"/>
    <path d="M70.681 177.152L30.1754 128.912L117.902 128.912L117.902 230.636L70.681 177.152Z" fill="#00664C"/>
    <path d="M70.681 177.152L30.1754 128.912L117.902 128.912L117.902 230.636L70.681 177.152Z" fill="#00664C"/>
    <path d="M92.6838 170.333C91.8501 170.327 91.0363 170.183 90.2422 169.899C89.4482 169.61 88.7336 169.142 88.0984 168.495C87.4632 167.843 86.9584 166.978 86.5841 165.901C86.2097 164.817 86.0254 163.476 86.0311 161.877C86.0311 160.385 86.1899 159.055 86.5075 157.887C86.8251 156.718 87.2817 155.731 87.8772 154.926C88.4727 154.115 89.1902 153.497 90.0295 153.071C90.8746 152.646 91.8189 152.433 92.8625 152.433C93.9571 152.433 94.927 152.649 95.772 153.08C96.6228 153.511 97.309 154.101 97.8308 154.85C98.3526 155.592 98.6759 156.432 98.8006 157.368H95.6955C95.5366 156.698 95.2105 156.165 94.7171 155.768C94.2294 155.366 93.6111 155.164 92.8625 155.164C91.6545 155.164 90.7243 155.689 90.0721 156.738C89.4255 157.787 89.0994 159.228 89.0937 161.06H89.2128C89.4907 160.561 89.8509 160.133 90.2933 159.775C90.7357 159.418 91.2348 159.143 91.7906 158.95C92.3521 158.752 92.9447 158.652 93.5686 158.652C94.5895 158.652 95.5055 158.896 96.3165 159.384C97.1332 159.872 97.7798 160.544 98.2562 161.4C98.7326 162.251 98.968 163.226 98.9623 164.327C98.968 165.472 98.7071 166.502 98.1796 167.415C97.6521 168.322 96.9177 169.037 95.9762 169.559C95.0347 170.081 93.9373 170.339 92.6838 170.333ZM92.6668 167.781C93.285 167.781 93.838 167.63 94.3258 167.33C94.8135 167.029 95.1992 166.624 95.4828 166.113C95.7663 165.603 95.9053 165.03 95.8996 164.395C95.9053 163.771 95.7692 163.207 95.4913 162.702C95.219 162.197 94.8419 161.797 94.3598 161.502C93.8777 161.207 93.3276 161.06 92.7094 161.06C92.25 161.06 91.8218 161.148 91.4248 161.324C91.0277 161.499 90.6818 161.743 90.3869 162.055C90.0919 162.362 89.8594 162.719 89.6893 163.127C89.5248 163.53 89.4397 163.961 89.434 164.42C89.4397 165.027 89.5815 165.586 89.8594 166.096C90.1373 166.607 90.5201 167.015 91.0079 167.321C91.4956 167.628 92.0486 167.781 92.6668 167.781Z" fill="white"/>
    <path d="M165.172 175.33L205.123 128.851H117.902V230.497L165.172 175.33Z" fill="#917535"/>
    <path d="M165.172 175.33L205.123 128.851H117.902V230.497L165.172 175.33Z" fill="#917535"/>
    <path d="M140.952 166.862V164.352L148.345 152.672H150.438V156.245H149.162L144.185 164.131V164.267H154.504V166.862H140.952ZM149.264 170.095V166.096L149.298 164.973V152.672H152.275V170.095H149.264Z" fill="white"/>
    <path d="M92.5318 100.674C91.267 100.674 90.144 100.462 89.1629 100.036C88.1873 99.6108 87.4217 99.0295 86.8659 98.2922C86.3157 97.5492 86.0435 96.707 86.0492 95.7655C86.0435 95.0339 86.2023 94.3618 86.5256 93.7492C86.8489 93.1367 87.2856 92.6263 87.8357 92.2179C88.3915 91.8039 89.0097 91.5402 89.6903 91.4267V91.3076C88.7942 91.1091 88.0682 90.6526 87.5124 89.9379C86.9623 89.2176 86.69 88.3868 86.6957 87.4453C86.69 86.5492 86.9396 85.7495 87.4444 85.0462C87.9491 84.3429 88.6411 83.7899 89.5202 83.3873C90.3993 82.9789 91.4031 82.7747 92.5318 82.7747C93.6491 82.7747 94.6444 82.9789 95.5179 83.3873C96.397 83.7899 97.0889 84.3429 97.5937 85.0462C98.1041 85.7495 98.3593 86.5492 98.3593 87.4453C98.3593 88.3868 98.0786 89.2176 97.5171 89.9379C96.9613 90.6526 96.2438 91.1091 95.3647 91.3076V91.4267C96.0453 91.5402 96.6579 91.8039 97.2023 92.2179C97.7525 92.6263 98.1892 93.1367 98.5125 93.7492C98.8414 94.3618 99.0059 95.0339 99.0059 95.7655C99.0059 96.707 98.728 97.5492 98.1722 98.2922C97.6163 99.0295 96.8507 99.6108 95.8752 100.036C94.9053 100.462 93.7909 100.674 92.5318 100.674ZM92.5318 98.2411C93.184 98.2411 93.7512 98.1305 94.2332 97.9093C94.7153 97.6825 95.0897 97.3649 95.3562 96.9565C95.6228 96.5482 95.7589 96.0774 95.7646 95.5443C95.7589 94.9885 95.6143 94.4979 95.3307 94.0725C95.0528 93.6415 94.67 93.304 94.1822 93.0601C93.7001 92.8163 93.15 92.6943 92.5318 92.6943C91.9079 92.6943 91.3521 92.8163 90.8643 93.0601C90.3766 93.304 89.9909 93.6415 89.7073 94.0725C89.4294 94.4979 89.2933 94.9885 89.299 95.5443C89.2933 96.0774 89.4237 96.5482 89.6903 96.9565C89.9569 97.3592 90.3312 97.674 90.8133 97.9008C91.301 98.1277 91.8739 98.2411 92.5318 98.2411ZM92.5318 90.3038C93.0649 90.3038 93.5356 90.196 93.944 89.9805C94.358 89.765 94.6841 89.4644 94.9223 89.0787C95.1606 88.693 95.2825 88.2478 95.2882 87.743C95.2825 87.2439 95.1634 86.8072 94.9309 86.4329C94.6983 86.0529 94.375 85.7608 93.961 85.5566C93.547 85.3468 93.0706 85.2419 92.5318 85.2419C91.9816 85.2419 91.4967 85.3468 91.077 85.5566C90.663 85.7608 90.3397 86.0529 90.1072 86.4329C89.8803 86.8072 89.7697 87.2439 89.7754 87.743C89.7697 88.2478 89.8831 88.693 90.1157 89.0787C90.3539 89.4587 90.68 89.7593 91.094 89.9805C91.5137 90.196 91.993 90.3038 92.5318 90.3038Z" fill="white"/>
</svg>
